<?xml version="1.0" encoding="utf-8"?>
<!-- Generator: Adobe Illustrator 22.1.0, SVG Export Plug-In . SVG Version: 6.00 Build 0)  -->
<svg version="1.1" id="_x31__1_" xmlns="http://www.w3.org/2000/svg" xmlns:xlink="http://www.w3.org/1999/xlink" x="0px" y="0px"
	 viewBox="0 0 850 815" style="enable-background:new 0 0 850 815;" xml:space="preserve">
<style type="text/css">
	.st0{fill:#FFFFFF;}
	.st1{fill:#F4CD9A;}
	.st2{fill:#A88C82;}
	.st3{fill:#4D251D;}
	.st4{fill:#FCB5A2;}
	.st5{fill:#4D261E;}
	.st6{fill:#4C251D;}
</style>
<g>
	<path class="st0" d="M696.903,797.782h-483.63c0,0-38.384-248.211-38.384-266.123c0-17.912-38.38-23.032-38.38-23.032
		l263.564-104.913c0,0,258.446,58.854,273.801,74.209C689.224,493.275,727.608,692.868,696.903,797.782z"/>
	<path class="st0" d="M407.228,518.496c-93.323,4.486-147.145,19.911-257.377-3.032C39.614,492.521,0.374,378.864,29.763,287.583
		c29.39-91.28,182.34-152.554,223.328-164.795c6.05-36.239,31.609-99.092,68.024-98.273c36.417,0.816,57.486,39.474,55.465,62.103
		c0.821-26.296,24.773-68.529,58.721-65.026c33.949,3.504,64.715,79.49,64.715,79.49s169.077,27.381,219.31,99.427
		c50.231,72.045,81.698,186.077,6.762,248.735C651.154,511.902,464.259,515.753,407.228,518.496z"/>
	<path class="st1" d="M30.585,393.911c86.968,47.037,285.694-30.825,354.553-187.066c43.69,81.131,233.51,249.407,376.11,183.453
		c0,0,40.573-98.478-11.868-164.904C696.938,158.971,552.693,108.78,522.928,104.3c-22.323-1.229-22.186-10.751-22.186-10.751
		s-9.296-70.47-49.078-78.408c-39.779-7.936-64.742,46.451-69.694,66.387c-16.009-5.14-4.043-43.142-38.116-55.295
		c-34.076-12.15-80.299,9.772-86.725,80.996c-1.078,16.891-24.416,24.813-24.416,24.813S21.401,161.902,30.585,393.911z"/>
	<path class="st2" d="M381.387,126.907c0.53,31.598,57.226,80.261,118.344,56.568c61.122-23.692,71.009-64.684,62.884-69.235
		c-8.125-4.55-48.597-3.593-57.195-18.003c-8.597-14.41-20.373-76.45-53.756-81.095c-33.38-4.645-51.767,19.845-60.73,43.117
		C381.97,81.529,381.387,126.907,381.387,126.907z"/>
	<path class="st0" d="M288.006,183.354c-25.117-0.208-29.989,36.78-28.392,70.025c1.599,33.242,15.241,62.715,34.267,62.727
		c21.538,0.008,31.177-27.056,28.917-70.257C320.252,197.078,307.996,183.519,288.006,183.354z"/>
	<path class="st3" d="M288.006,183.354l0.234-7.569l-0.451-0.007c-7.211-0.051-13.831,2.549-18.748,6.858
		c-3.72,3.212-6.563,7.228-8.8,11.654c-3.346,6.653-5.389,14.3-6.69,22.46c-1.29,8.16-1.797,16.846-1.801,25.521
		c0,3.856,0.11,7.697,0.299,11.486v-0.017c0.866,17.552,4.798,34.107,11.44,46.952c3.346,6.418,7.388,11.957,12.416,16.119
		c4.983,4.148,11.21,6.878,17.972,6.862c6.306,0.028,12.335-1.891,17.23-5.468c3.681-2.665,6.725-6.155,9.206-10.191
		c3.717-6.07,6.241-13.382,7.909-21.789c1.665-8.412,2.455-17.952,2.459-28.522c0-3.948-0.114-8.031-0.322-12.229v-0.02
		c-0.658-12.493-1.929-22.874-3.876-31.577c-1.46-6.528-3.301-12.119-5.618-16.935c-3.447-7.203-8.138-12.742-13.938-16.253
		c-5.786-3.532-12.313-4.865-18.859-4.908L288.006,183.354l0.234-7.569L288.006,183.354l-0.065,7.57
		c4.171,0.04,7.415,0.751,10.111,2.138c2.035,1.055,3.857,2.503,5.672,4.755c2.7,3.361,5.3,8.677,7.33,16.627
		c2.035,7.934,3.487,18.418,4.181,31.797v-0.02c0.198,3.993,0.304,7.828,0.304,11.482c0.035,17.431-2.449,31.118-6.549,39.49
		c-2.035,4.206-4.37,7.022-6.758,8.748c-2.418,1.712-4.912,2.563-8.35,2.593c-2.754-0.023-5.362-0.98-8.341-3.401
		c-4.419-3.586-8.978-10.652-12.279-19.878c-3.337-9.208-5.526-20.47-6.087-32.24v-0.018c-0.181-3.567-0.283-7.159-0.283-10.725
		c-0.03-14.335,1.612-28.388,5.389-37.844c1.863-4.743,4.193-8.223,6.651-10.326c2.494-2.086,4.979-3.132,8.858-3.182v-2.984
		l-0.066,2.984h0.066v-2.984l-0.066,2.984l0.045,0.001l0.172,0.003L288.006,183.354z"/>
	<path class="st0" d="M510.279,233.719c-2.552-48.773-14.808-62.33-34.797-62.495c-25.117-0.208-29.985,36.78-28.388,70.023
		c1.597,33.245,15.236,62.72,34.263,62.73C502.895,303.986,512.535,276.919,510.279,233.719z"/>
	<path class="st3" d="M510.279,233.719l7.56-0.397c-0.658-12.491-1.934-22.871-3.875-31.577c-1.465-6.525-3.306-12.119-5.622-16.934
		c-3.447-7.201-8.139-12.742-13.938-16.253c-5.786-3.531-12.314-4.864-18.858-4.906l-0.062,7.572l0.234-7.569l-0.451-0.007
		c-7.211-0.051-13.828,2.546-18.749,6.857c-3.716,3.213-6.563,7.227-8.796,11.653c-3.346,6.654-5.394,14.3-6.692,22.462
		c-1.288,8.157-1.795,16.842-1.801,25.516c0,3.854,0.112,7.699,0.301,11.491v-0.018c0.864,17.552,4.793,34.107,11.44,46.955
		c3.346,6.418,7.383,11.957,12.41,16.12c4.984,4.149,11.211,6.878,17.972,6.861c6.307,0.028,12.341-1.894,17.23-5.471
		c3.686-2.668,6.731-6.158,9.207-10.197c3.716-6.073,6.237-13.386,7.909-21.798c1.659-8.415,2.45-17.956,2.455-28.532
		c0-3.932-0.11-8.001-0.313-12.197v-0.028L510.279,233.719l-7.566,0.367c0.195,3.983,0.297,7.809,0.297,11.461
		c0.035,17.438-2.45,31.133-6.55,39.51c-2.034,4.209-4.364,7.026-6.757,8.755c-2.414,1.712-4.908,2.563-8.345,2.593
		c-2.754-0.023-5.363-0.98-8.338-3.4c-4.422-3.587-8.981-10.653-12.282-19.88c-3.337-9.21-5.522-20.473-6.083-32.243v-0.017
		c-0.181-3.572-0.283-7.163-0.283-10.729c-0.031-14.335,1.612-28.386,5.389-37.842c1.863-4.743,4.189-8.223,6.646-10.323
		c2.494-2.086,4.978-3.132,8.858-3.183v-2.603l-0.066,2.603h0.066v-2.603l-0.066,2.603l0.044,0.003l0.172,0.003
		c4.171,0.04,7.415,0.751,10.112,2.138c2.034,1.052,3.857,2.5,5.67,4.752c2.702,3.364,5.306,8.68,7.331,16.63
		c2.035,7.933,3.491,18.418,4.183,31.8v-0.028L510.279,233.719z"/>
	<path class="st4" d="M246.726,309.638c1.506,31.349-22.685,57.984-54.034,59.491c-31.349,1.508-57.984-22.685-59.49-54.034
		c-1.51-31.349,22.68-57.984,54.03-59.491C218.582,254.096,245.218,278.289,246.726,309.638z"/>
	<path class="st4" d="M651.056,290.196c1.504,31.349-22.686,57.986-54.035,59.492c-31.348,1.507-57.984-22.686-59.494-54.035
		c-1.504-31.349,22.686-57.981,54.035-59.491C622.911,234.655,649.546,258.847,651.056,290.196z"/>
	<path class="st4" d="M391.454,285.381c2.185,1.965-20.2,28.905-20.2,28.905s2.529,67.129,23.926,77.48
		c21.392,10.352,20.4-39.262,20.647-48.585c0.251-9.324,0.499-33.13,0.499-33.13L391.454,285.381z"/>
	<path class="st3" d="M388.139,241.231c-15.702-0.812-21.339,11.119-18.35,14.904c2.987,3.782,12.075,6.148,19.322,5.238
		c7.246-0.908,19-1.473,18.62-9.307C407.356,244.232,399.385,241.811,388.139,241.231z"/>
	<path class="st5" d="M218.777,272.858c-2.843-1.548-7.905-3.015-13.28-3.895c-5.377-0.905-11.03-1.178-14.966-1.188
		c-3.938,0.007-9.591,0.274-14.966,1.175c-5.375,0.876-10.443,2.339-13.284,3.881c-1.206,0.627-4.666,2.664-3.668,5.042
		c0.393,2.553,4.202,2.678,5.463,2.774c3.032,0.172,7.826-0.283,12.787-0.602c4.956-0.342,10.08-0.51,13.664-0.518
		c3.583,0.013,8.707,0.182,13.664,0.53c4.956,0.323,9.749,0.782,12.786,0.613c1.261-0.095,5.07-0.216,5.468-2.77
		C223.442,275.523,219.981,273.484,218.777,272.858z"/>
	<path class="st5" d="M214.918,303.557c-5.896-1.267-19.308,0.063-26.446,1.126c-7.145,0.962-20.402,3.414-25.713,6.266
		c-1.116,0.583-4.409,2.374-3.587,4.82c0.237,2.568,3.919,2.919,5.149,3.045c5.888,0.527,18.825-1.556,25.802-2.496
		c6.964-1.038,19.972-2.631,25.48-4.774c1.147-0.463,4.586-1.825,4.1-4.355C219.813,304.612,216.154,303.805,214.918,303.557z"/>
	<path class="st5" d="M221.627,330.309c-6.279-0.038-19.843,3.563-27.094,5.576c-7.251,2.011-20.734,5.908-26.097,9.172
		c-1.122,0.684-4.453,2.737-3.465,5.122c0.38,2.552,4.293,2.597,5.605,2.606c6.279,0.037,19.843-3.566,27.094-5.577
		c7.251-2.01,20.734-5.906,26.097-9.173c1.121-0.682,4.453-2.736,3.464-5.12C226.852,330.361,222.939,330.317,221.627,330.309z"/>
	<path class="st5" d="M566.803,259.956c3.036-0.124,7.762-1.042,12.67-1.839c4.899-0.82,9.984-1.483,13.55-1.837
		c3.566-0.336,8.682-0.661,13.647-0.795c4.969-0.158,9.785-0.165,12.79-0.628c1.244-0.216,5.022-0.706,5.172-3.284
		c0.764-2.465-2.877-4.159-4.14-4.668c-2.974-1.263-8.16-2.233-13.594-2.589c-5.437-0.381-11.091-0.106-15.01,0.265
		c-3.919,0.388-9.52,1.202-14.781,2.62c-5.269,1.391-10.169,3.339-12.846,5.149c-1.14,0.74-4.388,3.101-3.165,5.372
		C561.735,260.224,565.54,259.982,566.803,259.956z"/>
	<path class="st5" d="M571.127,290.553c5.693,1.604,18.788,1.942,25.823,2.306c7.036,0.267,20.113,1.099,25.922,0.011
		c1.213-0.243,4.846-0.946,4.837-3.527c0.578-2.511-2.87-3.978-4.035-4.45c-5.56-2.333-18.992-3.503-26.198-3.774
		c-7.203-0.373-20.681-0.408-26.432,1.416c-1.2,0.366-4.767,1.52-4.413,4.073C566.392,289.179,569.945,290.206,571.127,290.553z"/>
	<path class="st5" d="M565.545,317.705c5.649,2.737,19.446,5.323,26.857,6.628c7.409,1.306,21.26,3.59,27.505,2.95
		c1.306-0.133,5.195-0.555,5.332-3.133c0.754-2.466-2.76-4.192-3.942-4.764c-5.649-2.736-19.446-5.323-26.857-6.627
		c-7.411-1.306-21.26-3.59-27.505-2.95c-1.302,0.134-5.194,0.554-5.331,3.131C560.853,315.41,564.367,317.135,565.545,317.705z"/>
	<path class="st5" d="M387.655,280.344c-1.757,2.669-3.628,7.286-6.299,11.628c-2.563,4.387-5.724,8.491-8.16,11.077
		c-2.37,2.671-6.231,5.952-10.331,8.297c-4.101,2.393-8.403,3.661-11.163,4.484c-1.099,0.568-4.761,1.152-4.96,3.871
		c-0.866,2.511,3.508,4.301,5.124,4.45c3.707,0.979,10.293,0.316,16.18-2.431c5.927-2.667,11.047-6.971,14.048-10.324
		c3.107-3.285,6.964-8.495,9.542-14.052c2.693-5.514,3.911-11.303,4.052-14.814c-0.021-1.52-0.168-5.882-2.864-6.018
		C390.28,275.72,388.294,279.222,387.655,280.344z"/>
	<path class="st5" d="M441.159,316.013c-3.178-0.795-8.214-2.061-13.103-4.467c-4.899-2.36-9.587-5.744-12.561-8.491
		c-3.036-2.664-7.07-6.925-10.495-11.533c-3.508-4.555-6.241-9.451-8.478-12.212c-0.843-1.174-3.447-4.803-5.844-3.63
		c-2.661,0.477-2.06,5.221-1.832,6.861c0.742,3.781,2.945,9.855,6.567,15.507c3.522,5.7,8.297,10.91,12.01,14.154
		c3.614,3.319,9.515,7.515,16.082,10.009c6.528,2.569,13.558,3.131,17.571,2.125c1.734-0.164,6.509-1.98,5.639-4.494
		C446.584,317.116,442.443,316.575,441.159,316.013z"/>
	<path class="st5" d="M413.571,321.126c-1.011,8.847-1.699,23.573-2.172,38.833c-0.216,7.557-0.569,14.948-2.432,20.73
		c-0.9,2.892-2.214,5.419-3.583,7.019c-1.435,1.62-2.494,2.025-3.518,2.106c-1.024,0.096-2.715-0.321-4.59-1.64
		c-1.871-1.281-3.774-3.341-5.317-5.785c-3.157-5.05-5.244-12.112-6.74-19.248c-1.493-7.168-2.688-14.687-3.994-21.243
		c-1.277-6.583-2.507-12.359-3.616-16.672c-0.931-3.606-3.716-14.341-6.206-13.03c-2.767-0.506-2.214,10.57-2.025,14.288
		c0.23,4.446,0.781,10.328,1.531,16.99c0.795,6.673,1.576,14.033,2.926,21.875c1.408,7.796,3.416,16.012,7.834,23.395
		c2.282,3.695,5.12,6.946,8.634,9.414c3.446,2.452,7.864,4.151,12.379,3.826c4.519-0.167,9.246-2.972,11.979-6.385
		c2.854-3.423,4.629-7.312,5.861-11.325c2.436-8.129,2.471-16.489,2.471-24.151c-0.049-15.283-0.336-30.008-1.1-38.883
		c-0.322-3.71-1.301-14.757-3.971-13.875C415.274,306.412,413.99,317.428,413.571,321.126z"/>
	<path class="st5" d="M418.716,424.44c-1.826,1.51-4.237,4.123-7.026,5.846c-2.771,1.805-5.654,2.438-7.537,2.308
		c-1.89-0.008-4.877-0.973-7.671-2.959c-2.808-1.929-5.24-4.603-7.093-6.131c-0.781-0.596-3.001-2.754-5.367-1.573
		c-2.613,0.71-2.216,4.357-1.911,5.61c0.6,2.923,2.983,7.443,7.057,11.091c3.963,3.717,9.903,6.095,14.419,6.151
		c4.488,0.364,10.852-1.538,15.058-5.217c4.334-3.562,6.771-8.176,7.367-11.122c0.318-1.264,0.675-4.939-1.95-5.607
		C421.673,421.694,419.498,423.859,418.716,424.44z"/>
	<path class="st5" d="M382.221,92.282c0.852-6.252,1.39-14.79,0.233-24.846c-0.582-5.017-1.619-10.4-3.34-15.891
		c-1.726-5.559-4.316-11.28-7.626-16.502c-6.576-10.474-16.41-19.772-28.477-24.624c-5.971-2.436-12.389-3.645-18.385-3.647
		c-5.973-0.01-11.497,1.056-16.083,2.626c-9.29,3.041-18.921,9.299-26.865,17.506c-4.003,4.094-7.67,8.646-10.937,13.512
		c-3.137,4.817-6.081,9.796-8.513,14.98c-4.929,10.318-8.27,21.083-9.903,30.876c-1.682,9.796-1.809,18.559-1.103,25.04
		c0.237,2.707,1.014,8.097,2.688,12.441c1.645,4.367,4.056,7.61,6.659,6.625c2.803,0.256,4.282-3.332,5.381-7.403
		c1.068-4.09,1.84-8.745,2.347-11.071c2.048-11.094,6.021-29.266,15.156-45.728c2.199-4.127,4.785-8.086,7.41-11.866
		c2.627-3.644,5.487-7.007,8.43-9.906c5.888-5.86,12.115-9.593,17.129-11.232c5.063-1.713,11.065-2.117,17.425,0.323
		c6.391,2.349,12.998,7.833,17.799,14.698c2.436,3.442,4.383,7.05,5.945,10.912c1.589,3.933,2.808,7.98,3.761,11.948
		c1.919,7.937,2.825,15.521,3.782,21.316c0.878,4.758,2.626,19.764,8.117,18.76C378.664,112.627,381.568,97.611,382.221,92.282z"/>
	<path class="st5" d="M511.254,91.219c-0.746-6.193-2.476-14.267-5.261-23.272c-2.798-9.013-6.536-18.939-12.049-28.943
		c-2.692-4.918-6.237-10.234-10.403-14.772c-4.125-4.542-8.786-8.451-13.704-11.683c-9.789-6.525-20.907-10.039-30.625-10.484
		c-4.841-0.258-10.38,0.22-16.092,1.781c-5.741,1.542-11.413,4.399-16.418,8.087c-10.084,7.442-17.251,17.798-22.252,28.085
		c-5.072,10.262-8.219,21.086-9.732,30.858c-1.518,9.789-1.373,18.527-0.472,24.944c0.366,2.686,1.288,8.015,3.159,12.256
		c1.797,4.271,4.397,7.358,6.939,6.264c2.825,0.114,4.096-3.487,5.062-7.536c0.883-4.067,1.537-8.664,1.929-10.96
		c0.922-5.493,2.114-12.681,4.33-20.542c2.229-7.845,5.442-16.374,9.922-24.331c4.343-7.937,9.895-14.9,15.681-18.929
		c5.772-4.127,11.496-5.166,16.686-4.963c5.124,0.232,11.851,2.131,18.396,6.317c3.262,2.055,6.475,4.599,9.34,7.543
		c2.856,2.924,5.265,6.176,7.737,10.131c4.85,7.762,8.999,16.507,12.507,24.362c3.474,7.974,6.528,14.995,8.845,20.313
		c2.202,4.381,7.313,17.863,12.393,15.853C512.905,111.984,512.097,96.36,511.254,91.219z"/>
	<path class="st6" d="M707.858,480.167c21.661-12.352,39.938-29.825,53.38-50.086c13.502-20.27,22.333-43.153,26.728-66.719
		c4.334-23.604,4.11-47.951-0.383-71.764l-1.765-8.934l-2.49-8.803l-1.258-4.409c-0.225-0.722-0.357-1.401-0.86-2.852l-1.24-2.575
		c-1.091-2.33-2.158-4.842-3.213-7.408c-2.162-5.358-4.334-10.734-6.515-16.131c-1.165-2.792-2.383-5.628-3.791-8.563
		c-0.177-0.359-1.205-2.599-1.747-3.152l-1.368-1.953l-2.627-3.761c-27.734-40.483-65.183-71.487-106.859-92.648
		c-41.721-21.229-87.718-33.544-135.869-36.035c-4.877-0.078-18.383,3.606-17.315,8.703c-1.045,5.005,11.608,9.807,16.084,10.129
		c45.397,3.907,88.235,16.674,126.693,37.1c38.45,20.377,72.479,49.18,97.807,86.129l2.411,3.432l1.147,1.637
		c0.384,0.592-0.11-0.278,0.371,0.664c1.12,2.325,2.21,4.836,3.284,7.406c2.189,5.374,4.364,10.725,6.536,16.059
		c1.151,2.758,2.343,5.548,3.707,8.416l0.525,1.083l0.11,0.225v-0.004l0.366,1.274l1.117,3.861l2.25,7.701l1.603,7.858
		c4.135,20.938,4.646,42.532,1.174,63.458c-3.535,20.898-10.871,41.154-22.196,59.161c-11.289,18.007-26.662,33.675-45.383,45.242
		c-3.712,2.087-12.9,11.619-10.044,15.822C689.197,484.891,703.294,482.446,707.858,480.167z"/>
	<path class="st6" d="M237.287,118.457c-23.816,5.403-46.484,13.641-67.81,24.05c-21.339,10.431-41.327,22.969-59.855,37.665
		c-18.483,14.692-35.418,31.479-50.123,50.489c-14.574,19.09-26.821,40.531-35.26,64.109c-8.576,23.514-12.306,48.5-11.11,72.984
		c1.104,24.453,7.168,49.023,19.141,70.444l4.49,8.011l5.159,7.588l2.59,3.782l2.868,3.572l5.8,7.091
		c8.306,8.919,17.066,17.507,27.05,24.545c19.542,14.658,42.214,24.878,66.074,31.304c4.841,1.415,19.168-0.001,18.925-5.135
		c1.884-4.843-9.674-11.534-13.822-13.034c-21.503-6.587-41.593-16.417-58.524-29.851c-8.694-6.44-16.14-14.192-23.233-22.087
		l-4.895-6.272l-2.436-3.135l-2.158-3.323l-4.339-6.621l-3.724-6.968c-9.984-18.603-14.838-39.501-15.654-60.885
		c-0.857-21.429,2.426-43.218,10.049-64.116c7.508-20.926,18.414-40.318,31.574-57.87c13.298-17.48,28.724-33.205,45.653-47.143
		c33.949-27.756,73.856-49.118,118.026-60.855c4.326-1.247,16.088-7.91,14.252-12.663
		C256.238,118.905,242.111,117.364,237.287,118.457z"/>
	<path class="st6" d="M323.677,664.066c0.349-32.753-5.998-64.424-18.233-93.695c-6.117-14.63-13.606-28.749-22.738-41.974
		c-4.484-6.481-9.382-13.455-16.117-19.671c-3.368-3.099-7.141-6.08-11.718-8.468c-4.538-2.381-9.949-4.142-15.699-4.415
		c-5.658-0.345-11.735,1.013-16.656,3.512c-5.014,2.486-9.141,5.991-12.495,9.94c-3.306,3.996-5.896,8.463-7.595,13.346
		c-1.686,4.768-2.486,9.594-2.706,14.308c-0.424,9.45,1.412,18.227,4.048,26.258c2.621,8.018,6.098,15.449,9.816,22.48
		c7.454,14.005,15.918,26.574,21.991,39.488c5.998,12.842,10.046,26.84,8.368,40.036c-0.141,1.314,0.345,3.912,1.206,6.485
		c0.79,2.51,2.087,5.127,4.333,5.672c1.991,1.209,4.692,0.031,7.08-2.212c2.295-2.237,3.994-5.485,4.324-7.29
		c1.58-9.046,1.117-18.041-0.455-26.47c-1.597-8.444-4.223-16.428-7.45-23.973c-6.522-15.112-14.788-28.085-21.272-41.096
		c-6.399-12.82-11.502-26.329-10.813-38.289c0.167-2.938,0.706-5.775,1.62-8.269c0.847-2.401,2.224-4.709,3.87-6.686
		c3.447-3.994,7.645-6.077,11.772-5.81c4.202,0.147,9.22,2.785,13.92,7.18c4.748,4.292,8.906,9.934,13.191,16.01
		c8.453,11.931,15.51,24.697,21.432,37.967c11.842,26.549,18.744,55.449,19.826,85.783c0.189,2.974,3.795,11.609,8.42,11.166
		C319.488,676.359,323.619,667.387,323.677,664.066z"/>
	<path class="st6" d="M163.904,545.765c-1.227,32.013,2.083,63.21,9.427,93.493c3.729,15.123,8.557,30.015,15.085,44.382
		c6.651,14.291,15.058,28.149,26.489,40.156c11.564,11.707,26.913,21.522,44.276,24.221c8.571,1.71,17.266,1.333,25.687,0.366
		c8.372-1.369,16.365-3.493,24.155-6.539c15.681-6.082,29.503-16.105,41.053-27.941c11.494-11.951,20.806-25.81,27.92-40.761
		c14.252-30.169,18.811-62.269,20.589-92.959c0.434-7.704,0.658-15.355,0.808-22.964c0.098-7.648,0.318-14.976,0.027-23.146
		c-0.362-8.098-1.39-16.826-5.001-25.536c-3.654-8.591-9.66-16.632-18.863-21.757c-4.542-2.562-9.957-4.004-15.311-4.151
		c-5.38-0.154-10.618,1.049-15.191,3.051c-9.184,4.084-16.034,10.824-20.973,18.616c-2.44,3.84-4.44,8.426-5.662,12.547
		c-1.298,4.216-2.141,8.468-2.671,12.635c-1.051,8.348-0.953,16.343-0.821,23.954c0.177,7.632,0.251,14.756-0.071,22.1
		c-0.336,7.302-0.984,14.617-1.955,21.919c-1.925,14.608-5.155,29.163-9.745,43.44c-0.853,2.874-1.836,8.543-2.164,13.594
		c-0.326,5.041,0.031,9.502,2.419,9.785c1.813,1.561,5.363-1.273,8.672-5.404c3.302-4.115,6.312-9.518,7.34-12.55
		c10.544-30.195,15.187-62.244,14.557-93.07c-0.01-7.474,0.083-14.591,1.037-21.159c0.97-6.59,2.723-12.588,5.795-17.206
		c3.094-4.798,7.591-8.819,12.173-10.712c4.621-1.887,8.8-1.716,12.719,0.482c3.938,2.185,7.583,6.665,9.643,11.824
		c2.102,5.179,3.001,11.558,3.209,18.393c0.199,6.817-0.058,14.503-0.212,21.885c-0.203,7.42-0.472,14.825-0.931,22.19
		c-1.827,29.334-6.382,58.792-18.788,84.974c-12.385,26.004-32.373,48.262-57.456,58.234c-6.258,2.493-12.869,4.267-19.326,5.395
		c-6.47,0.739-12.954,1.137-19.137-0.099c-12.512-1.792-23.75-8.697-33.265-17.963c-9.34-9.588-16.935-21.463-23.096-34.229
		c-6.073-12.855-10.809-26.586-14.557-40.699c-7.415-28.246-11.209-58.168-10.746-88.194c0.058-2.991-0.662-8.686-1.734-13.594
		c-1.047-4.874-2.586-9.076-4.962-8.737c-2.158-1.045-4.819,2.643-6.906,7.571C165.391,536.514,164.093,542.565,163.904,545.765z"/>
	<path class="st6" d="M635.419,638.666c-8.96-0.499-18.026-4.563-25.293-10.508c-7.217-5.872-12.663-14.051-16.887-23.043
		c-8.514-18.145-11.395-39.258-17.11-61.021c-2.895-10.869-6.59-22.028-12.397-32.658c-5.911-10.691-14.291-21.196-27.258-27.456
		c-6.449-3.062-14.468-4.635-22.235-3.264c-7.892,1.224-14.834,5.367-20.086,10.365c-5.217,5.106-9.066,11.122-11.599,17.654
		c-1.288,3.209-2.254,6.776-2.806,10.098c-0.578,3.327-0.905,6.666-0.98,9.945c-0.264,13.167,2.596,24.877,4.987,35.65
		c2.459,10.855,5.059,21.741,8.152,32.558c6.175,21.584,14.455,43.165,27.691,62.389c13.072,19.003,31.057,35.887,53.809,44.813
		c11.488,4.391,23.767,6.492,36.102,5.932c12.305-0.466,24.747-3.688,35.912-9.946c2.216-1.274,5.857-4.731,7.967-8.406
		c2.104-3.731,2.767-7.326,0.785-8.58c-1.267-1.979-4.771-1.562-8.187-0.77c-3.491,0.781-7.093,1.845-8.818,2.72
		c-17.305,8.982-39.01,8.744-56.634,1.38c-18.047-7.584-32.942-21.847-44.042-38.583c-11.153-16.756-18.518-36.267-24.177-56.706
		c-2.837-10.246-5.292-20.761-7.679-31.499c-2.409-10.768-4.656-21.008-4.418-30.41c0.172-4.72,0.794-9.059,2.32-12.803
		c1.47-3.871,3.792-7.379,6.471-10.035c5.548-5.258,11.691-6.327,18.572-3.253c3.411,1.549,6.85,4.133,9.882,7.317
		c3.124,3.229,5.604,6.759,8.023,11.025c4.735,8.409,8.129,17.912,10.962,27.92c5.73,19.938,9.035,42.392,19.635,63.906
		c5.296,10.602,12.517,21.116,22.761,29c10.054,7.69,22.398,13.044,36.006,13.406c2.692,0.105,7.936-1.167,11.612-3.699
		c3.764-2.409,5.72-5.726,4.356-7.557c-0.463-2.361-3.77-3.142-7.008-4.068C640.539,639.693,637.201,638.831,635.419,638.666z"/>
	<path class="st6" d="M634.042,674.239c9.697-15.236,16.829-31.544,22.142-48.043c5.3-16.527,8.734-33.27,11.338-49.966
		c2.582-16.706,4.251-33.414,5.641-50.147c0.331-4.221,0.667-8.454,0.997-12.698c0.287-4.477,0.411-9.169,0.039-14.12
		c-0.374-4.942-1.315-10.266-3.57-15.723c-2.335-5.413-6.355-11.012-11.986-14.536c-5.649-3.71-12.654-5.303-18.771-4.769
		c-6.183,0.451-11.726,2.401-16.599,5.128c-4.872,2.754-9.105,6.378-12.628,10.765c-3.637,4.601-5.87,9.275-7.617,14.017
		c-3.381,9.549-4.259,18.894-4.75,27.474c-0.441,8.646-0.648,16.445-1.346,24.538c-2.534,32.132-8.875,64.053-19.521,95.909
		c-0.945,3.19-0.768,13.346,3.778,14.359c3.959,2.448,11.114-5.254,12.366-8.564c12.517-32.781,20.298-66.092,23.702-99.875
		c1.977-17.006,1.041-34.194,5.689-46.56c1.147-3.075,2.705-5.991,4.325-7.949c1.739-2.138,4.012-4.096,6.515-5.475
		c2.493-1.381,5.164-2.202,7.481-2.366c2.366-0.201,4.096,0.395,5.644,1.335c1.705,1.027,2.918,2.683,4,5.004
		c0.993,2.421,1.695,5.518,1.959,8.992c0.274,3.473,0.234,7.22,0.014,11.119c-0.288,4.127-0.575,8.242-0.862,12.349
		c-1.201,16.566-2.569,32.836-4.696,48.89c-4.206,32.013-11.537,63.633-27.902,91.946c-1.51,2.799-3.562,12.53,0.565,14.692
		C623.176,683.366,632.06,677.342,634.042,674.239z"/>
	<path class="st6" d="M706.922,793.142c6.505-26.423,8.761-51.966,10.09-77.446c1.196-25.485,1.006-50.935-0.301-77.262
		c-1.421-26.317-3.884-51.622-7.533-76.816c-3.751-25.185-8.391-50.281-16.374-76.005c-0.891-2.59-7.026-8.516-11.652-6.347
		c-4.952,1.039-7.057,9.098-6.505,11.509c6.002,24.505,9.405,49.164,12.269,73.751c2.781,24.636,4.808,49.409,6.214,75.135
		c1.263,25.733,1.823,50.561,1.443,75.294c-0.484,24.672-1.579,49.52-6.069,74.082c-0.41,2.394,2.159,10.285,7.146,11.111
		C700.373,802.12,706.176,795.821,706.922,793.142z"/>
	<path class="st6" d="M222.21,793.233c-5.778-15.988-9.591-31.111-12.31-47.628c-2.542-16.542-3.606-32.103-3.072-49.096
		c-0.031-0.836-3.936-3.806-8.954-4.373c-4.966-0.969-9.508,1.01-9.763,1.948c-3.95,18.47-4.466,36.448-1.527,55.232
		c3.032,18.768,9.101,35.696,18.585,52.033c0.539,0.809,5.468,1.284,9.886-1.179C219.649,798.073,222.439,794.036,222.21,793.233z"
		/>
	<path class="st5" d="M348.502,557.045c-7.803-0.856-20.823-0.193-34.095,2.162c-13.289,2.278-26.697,6.354-35.855,9.679
		c-9.141,3.374-22.011,8.923-33.632,15.763c-11.656,6.769-22.024,14.671-27.43,20.364c-2.326,2.337-8.747,9.67-5.626,12.146
		c1.937,3.5,10.129-0.982,12.935-2.315c6.66-3.358,17.089-9.566,28.296-15.214c11.17-5.716,23.135-10.742,31.626-13.884
		c8.515-3.085,20.898-6.971,33.119-9.823c12.204-2.922,24.178-4.919,31.43-6.653c3.001-0.794,12.154-2.661,11.369-6.583
		C361.43,558.779,351.786,557.33,348.502,557.045z"/>
	<path class="st5" d="M352.731,597.166c-5.985-1.24-16.048-1.448-26.402-0.463c-10.368,0.931-20.956,3.128-28.242,4.995
		c-7.278,1.898-17.602,5.107-27.121,9.317c-9.533,4.158-18.233,9.215-22.867,13.201c-1.982,1.635-7.56,6.779-5.022,9.818
		c1.505,3.665,8.451,1.575,10.791,0.986c5.591-1.525,14.255-4.97,23.36-8.132c9.088-3.206,18.63-6.049,25.355-7.81
		c6.735-1.719,16.458-3.857,25.961-5.457c9.492-1.645,18.743-2.833,24.375-4.207c2.33-0.62,9.423-2.158,8.96-6.096
		C362.625,599.433,355.25,597.636,352.731,597.166z"/>
	<path class="st5" d="M618.515,541.792c-5.83-2.342-16.073-4.237-26.82-4.566c-10.748-0.408-21.87,0.863-29.513,2.24
		c-7.641,1.424-18.489,4.175-28.397,8.367c-9.93,4.115-18.836,9.519-23.457,13.776c-2,1.737-7.458,7.292-4.727,10.153
		c1.73,3.57,8.584,1.085,10.906,0.424c5.539-1.755,14.132-5.375,23.281-8.378c9.128-3.068,18.802-5.401,25.629-6.683
		c6.833-1.22,16.711-2.467,26.331-2.833c9.622-0.435,18.938-0.097,24.738-0.419c2.405-0.203,9.696-0.306,10.049-4.258
		C628.075,545.967,621.001,542.707,618.515,541.792z"/>
	<path class="st5" d="M620.33,581.934c-4.423-1.877-12.16-3.206-20.263-3.422c-8.1-0.27-16.48,0.647-22.258,1.609
		c-5.772,0.992-13.99,2.887-21.55,5.806c-7.579,2.868-14.45,6.669-18.007,9.899c-1.531,1.322-5.76,5.515-3.417,8.68
		c1.549,3.627,7,2.562,8.818,2.315c4.366-0.706,10.985-2.828,17.914-4.676c6.916-1.891,14.146-3.44,19.234-4.322
		c5.097-0.842,12.437-1.76,19.588-2.25c7.153-0.532,14.101-0.709,18.458-1.479c1.795-0.364,7.295-1.152,7.564-5.087
		C627.585,585.248,622.21,582.682,620.33,581.934z"/>
</g>
</svg>
