<?xml version="1.0" encoding="utf-8"?>
<!-- Generator: Adobe Illustrator 22.1.0, SVG Export Plug-In . SVG Version: 6.00 Build 0)  -->
<svg version="1.1" id="_x31__1_" xmlns="http://www.w3.org/2000/svg" xmlns:xlink="http://www.w3.org/1999/xlink" x="0px" y="0px"
	 viewBox="0 0 850 815" style="enable-background:new 0 0 850 815;" xml:space="preserve">
<style type="text/css">
	.st0{fill:#FFFFFF;}
	.st1{fill:#E5B267;}
	.st2{fill:#4D251D;}
	.st3{fill:#4D261E;}
</style>
<g>
	<path class="st0" d="M453.373,522.625l56.036,20.377c0,0,8.915-28.019,30.565-22.924c21.65,5.094,10.19,43.301,10.19,43.301
		s45.848,20.376,61.13,59.858c15.283,39.48-5.093,99.337-68.772,109.527c-63.679,10.188-66.224,5.094-66.224,5.094
		s8.915,33.112-17.832,33.112c-26.744,0-22.922-31.839-20.375-42.027c2.546-10.19-48.396-15.284-48.396-15.284
		s-1.274,47.122-28.018,34.387c-26.745-12.735-7.642-47.121-7.642-47.121s-40.755-21.651-44.574-72.594
		C305.639,577.388,453.373,522.625,453.373,522.625z"/>
	<path class="st1" d="M176.844,742.856c0,0,20.518-7.891,29.987-17.36c9.469-9.469,59.971-77.332,74.175-83.644
		c14.204-6.313,33.142,0,33.142,0s75.755-25.251,105.741-72.599c29.986-47.346,66.284-127.834,66.284-127.834
		s29.986,4.735,77.334-17.36c47.345-22.097,77.331-56.817,71.018-86.803c-6.312-29.986-33.142-134.148-82.066-165.712
		c0-36.299-22.095-91.537-37.878-86.801c-15.782,4.735-6.313,48.924-28.408,44.19c-22.095-4.735-107.317-34.72-107.317-34.72
		s-3.156-58.395-33.144-58.395c-29.986,0-23.673,26.829-33.142,44.19c-9.469,17.362-39.455,25.253-39.455,25.253
		s-88.379,36.299-97.849,52.08C165.796,173.122,176.844,742.856,176.844,742.856z"/>
	<path class="st0" d="M388.1,249.619c58.558,18.3,53.881,1.419,90.748,5.673c36.867,4.254,45.375,68.061,4.254,89.331
		c-41.12,21.268-60.972,19.851-72.315,59.554c-11.344,39.702-5.672,87.912-75.151,134.704
		c-69.48,46.794-131.868,36.867-163.064-22.687c0,0,2.837-82.242,1.418-87.912c-1.418-5.672,9.925-53.882,49.63-72.315
		c39.701-18.434,22.686-77.987,31.194-120.525c8.507-42.539,56.855-49.949,80.823-26.942
		C371.084,242.529,365.412,242.529,388.1,249.619z"/>
	<path class="st2" d="M482.624,610.641c13.328,4.412,12.017,9.738,9.799,13.217c-2.217,3.479-9.891,5.926-14.953,4.656
		c-5.06-1.27-13.44-9.422-12.172-14.483C466.568,608.969,474.241,607.867,482.624,610.641z"/>
	<path class="st3" d="M475.508,642.954c1.923-1.958,3.292-7.231,3.957-10.072c0.666-2.843,1.786-8.176,0.934-10.783
		c-0.178-0.545-0.726-2.171-2.829-2.539c-2.045-0.604-3.26,0.609-3.663,1.017c-1.922,1.957-3.29,7.231-3.956,10.073
		c-0.667,2.844-1.787,8.174-0.933,10.782c0.176,0.545,0.727,2.171,2.827,2.539C473.893,644.575,475.107,643.362,475.508,642.954z"/>
	<path class="st3" d="M470.737,634.929c-0.874,1.726-1.075,4.797-0.385,7.836c0.642,3.055,2.249,6.025,3.759,7.871
		c1.414,1.868,4.132,4.354,7.456,5.469c3.309,1.234,6.633,0.761,8.308-0.008c0.735-0.389,2.664-1.581,2.01-3.635
		c-0.353-2.095-2.028-2.792-2.5-3.013c-1.199-0.702-2.888-1.039-4.238-1.915c-1.383-0.784-2.602-1.954-3.374-2.965
		c-0.791-0.963-1.779-2.611-2.507-4.414c-0.753-1.791-1.279-3.636-1.874-4.816c-0.342-0.484-0.919-2.049-3.039-2.461
		C472.343,632.175,470.995,634.179,470.737,634.929z"/>
	<path class="st3" d="M470.939,633.827c-1.057,0.791-2.349,2.211-3.819,3.48c-1.455,1.291-3.072,2.329-4.208,2.841
		c-1.141,0.562-2.753,1.066-4.34,1.155c-1.599,0.183-3.264-0.265-4.647-0.171c-0.523-0.011-2.333-0.131-3.58,1.588
		c-1.497,1.548-0.303,3.476,0.184,4.15c1.159,1.433,3.927,3.337,7.438,3.701c3.473,0.477,7.013-0.542,9.109-1.586
		c2.174-0.982,4.935-2.928,6.867-5.378c1.97-2.416,3.156-5.257,3.139-7.191c0.102-0.785-0.214-3.182-2.328-3.443
		C472.674,632.399,471.462,633.546,470.939,633.827z"/>
	<path class="st2" d="M511.973,593.955c-1.558,6.645,2.564,13.293,9.209,14.85c6.643,1.558,13.293-2.564,14.851-9.208
		c1.557-6.644-2.565-13.292-9.21-14.85C520.179,583.189,513.53,587.312,511.973,593.955z"/>
	<path class="st2" d="M441.04,577.322c-1.558,6.643,2.564,13.293,9.208,14.85c6.644,1.558,13.292-2.564,14.85-9.209
		c1.559-6.643-2.564-13.293-9.208-14.85C449.245,566.555,442.597,570.677,441.04,577.322z"/>
	<path class="st3" d="M534.468,441.983c4.456-0.4,9.503-1.543,15.003-3.097c5.435-1.692,11.251-3.944,17.187-6.752
		c11.824-5.693,24.035-13.492,35.771-22.007c5.923-4.308,11.938-8.99,17.449-14.49c5.5-5.483,10.478-11.846,14.031-18.907
		c3.528-7.076,5.497-14.396,6.454-21.163c0.98-6.786,1.015-13.043,0.791-18.579c-0.496-11.141-2.617-23.906-5.856-37.494
		c-3.263-13.591-7.959-27.878-13.85-41.353c-11.62-27.079-28.152-50.449-39.895-62.669c-1.231-1.278-2.993-3.25-5.133-5.285
		c-2.153-2.021-4.553-4.214-6.861-6.095c-4.766-3.639-9.016-6.116-9.817-4.119c-1.976,0.752,0.242,5.135,3.424,9.924
		c3.063,4.91,6.996,10.356,8.833,13.208c9.212,13.255,23.532,35.959,33.732,61.609c5.176,12.768,9.353,26.177,12.278,38.881
		c2.913,12.702,4.842,24.754,5.24,34.197c0.406,9.442-0.262,20.911-5.248,31.024c-4.895,10.168-14.75,19.323-25.754,27.651
		c-11.082,8.509-22.24,16.232-32.606,22.044c-5.198,2.865-10.19,5.243-14.804,7.19c-4.638,1.798-8.872,3.329-12.576,4.254
		c-3.08,1.01-9.297,2.137-14.744,2.891c-1.361,0.156-2.677,0.365-3.882,0.576c-1.191,0.12-2.277,0.288-3.185,0.513
		c-1.813,0.453-2.931,1.132-2.697,2.153c-0.612,0.894,0.176,1.858,1.916,2.84c0.868,0.49,1.97,0.985,3.237,1.47
		c1.275,0.395,2.719,0.737,4.248,1.074C523.273,442.712,530.815,442.557,534.468,441.983z"/>
	<path class="st3" d="M498.378,127.098c3.234-3.462,5.871-8.726,7.713-14.414c0.942-2.744,1.727-6.134,2.442-8.21
		c0.787-2.354,1.802-4.709,2.984-6.741c1.157-2.056,2.585-3.67,3.699-4.475c1.186-0.859,1.559-0.731,2.3-0.717
		c0.648,0.062,1.345,0.36,2.457,1.329c1.064,0.957,2.199,2.405,3.171,3.899c0.488,0.758,1,1.604,1.532,2.546
		c0.553,1.019,1.127,2.083,1.725,3.182c1.152,2.22,2.355,4.603,3.491,7.132c2.3,5.042,4.45,10.607,6.238,16.199
		c3.635,11.179,5.595,22.431,7.112,29.304c0.367,1.436,0.935,4.305,1.9,6.783c0.899,2.469,2.231,4.579,4.195,4.303
		c1.938,0.476,3.391-1.558,4.438-4.183c0.984-2.616,1.514-5.793,1.686-7.39c1.076-7.633,0.395-20.562-2.946-33.482
		c-1.632-6.458-3.861-12.896-6.371-18.717c-1.24-2.917-2.577-5.669-3.879-8.224c-0.675-1.267-1.329-2.491-1.957-3.665
		c-0.688-1.23-1.406-2.43-2.147-3.574c-1.51-2.281-3.398-4.9-6.346-7.527c-2.866-2.576-7.431-5.258-12.754-5.616
		c-5.174-0.54-11.119,1.519-14.712,4.702c-3.754,3.111-6.134,6.711-7.872,10.192c-1.74,3.508-2.898,7.007-3.698,10.45
		c-0.828,3.738-1.027,6.1-1.522,8.66c-0.857,4.956-1.95,8.762-2.909,11.261c-0.417,1.066-1.234,2.929-2.234,4.592
		c-0.93,1.69-2.482,3.382-1.791,5.256c-0.093,1.942,2.579,3.081,6.097,2.229C493.936,131.371,497.102,128.526,498.378,127.098z"/>
	<path class="st3" d="M380.346,96.672c9.755,6.118,34.319,14.816,47.531,19.36c13.213,4.545,37.93,12.8,49.384,13.975
		c2.393,0.247,9.535,0.946,10.256-2.938c1.821-3.504-4.241-7.347-6.279-8.626c-9.753-6.119-34.318-14.816-47.53-19.361
		c-13.213-4.545-37.931-12.8-49.385-13.975c-2.392-0.245-9.534-0.946-10.255,2.939C372.247,91.551,378.308,95.392,380.346,96.672z"
		/>
	<path class="st3" d="M325.612,69.798c1.143-3.136,2.388-7.246,4.163-11.383c1.788-4.115,4.17-8.301,7.223-11.113
		c3.115-2.998,7.191-5.113,10.585-5.636c3.453-0.529,5.84,0.222,7.878,1.556c1.974,1.264,4.328,3.941,6.307,8.036
		c1.994,3.993,3.563,9.286,4.858,14.682c2.646,10.687,3.49,21.379,4.333,27.958c0.493,2.721,1.033,11.065,4.938,11.054
		c3.789,1.417,6.651-7.24,7.268-10.292c1.818-7.134,2.413-19.533,0.155-32.129c-0.547-3.171-1.213-6.239-2.081-9.434
		c-0.877-3.195-1.999-6.384-3.415-9.451c-2.756-6.107-7.125-11.88-12.387-15.315c-2.555-1.723-5.8-3.249-9.515-4.05
		c-3.688-0.815-7.716-0.838-11.548-0.091c-7.714,1.502-14.552,5.747-19.644,11.292c-5.271,5.743-7.972,12.4-9.494,18.096
		c-1.481,5.765-1.803,10.732-1.714,14.392c0.03,3.126,0.779,11.907,4.749,11.574C322.077,80.631,324.623,72.354,325.612,69.798z"/>
	<path class="st3" d="M180.805,159.364c4.974-3.59,12.67-9.67,21.567-14.939c8.831-5.338,18.738-9.989,25.806-13.112
		c7.087-3.098,17.514-7.238,27.715-11.543c10.185-4.303,20.013-9.04,25.436-12.962c2.302-1.589,8.898-6.693,6.499-9.848
		c-1.221-3.774-8.919-1.83-11.528-1.3c-6.214,1.409-16.108,4.64-26.524,8.211c-10.402,3.557-21.254,7.732-28.778,11.02
		c-7.504,3.315-18.303,8.492-27.929,15.261c-9.679,6.669-17.766,15.046-21.318,20.992c-1.592,2.461-5.409,10.129-1.815,11.805
		C172.772,165.726,178.706,160.77,180.805,159.364z"/>
	<path class="st3" d="M383.947,260.782c-0.351,4.554,0.091,10.714,1.94,17.471c1.876,6.739,5.18,14.025,10.059,20.598
		c4.855,6.564,11.164,12.262,18.02,16.245c6.839,4.001,14.146,6.307,20.363,6.986c6.274,0.86,14.159,0.26,21.891-2.548
		c7.722-2.777,15.417-8.02,20.664-15.417c2.598-3.636,4.602-7.852,5.666-12.154c1.066-4.263,1.27-8.463,0.899-12.314
		c-0.716-7.73-3.862-13.998-7.109-17.854c-1.305-1.649-4.384-4.656-7.651-6.067c-1.629-0.712-3.196-1.085-4.438-0.949
		c-1.218,0.095-2.018,0.587-2.294,1.561c-1.28,1.597,0.062,3.745,1.202,6.02c1.205,2.266,2.384,4.686,2.854,5.985
		c1.165,3.02,2.335,7.273,2.128,12.024c-0.088,2.36-0.489,4.807-1.289,7.099c-0.779,2.261-1.995,4.423-3.634,6.473
		c-3.225,4.051-8.028,7.205-12.984,8.862c-4.972,1.669-9.867,2.039-13.74,1.486c-3.979-0.423-8.821-1.904-13.667-4.595
		c-4.846-2.68-9.6-6.674-13.443-11.317c-3.858-4.632-6.855-9.981-8.974-15.017c-2.101-5.062-3.373-9.811-4.267-13.463
		c-0.432-1.525-1.032-4.592-1.846-7.326c-0.843-2.717-1.826-5.163-3.849-5.038c-1.838-0.715-3.641,1.479-4.772,4.529
		C384.52,255.091,384.03,258.882,383.947,260.782z"/>
	<path class="st3" d="M307.77,225.247c-2.307,3.34-4.174,8.455-5.102,14.46c-0.904,6.012-0.52,12.92,1.392,19.614
		c1.868,6.697,5.267,13.189,9.738,18.384c4.437,5.24,9.919,8.982,14.768,11.288c4.922,2.145,11.343,3.827,18.209,3.735
		c6.854-0.034,13.982-1.731,20.263-4.718c6.305-2.95,11.767-7.193,15.711-11.821c3.922-4.64,6.557-9.406,7.562-13.339
		c0.593-1.544,1.144-4.934,0.957-7.735c-0.384-2.9-1.375-5.082-3.382-4.968c-1.867-0.574-3.637,1.038-4.976,2.798
		c-1.557,1.734-2.762,3.747-3.638,4.642c-1.685,2.311-4.271,5.071-7.421,7.83c-3.181,2.747-7.248,5.297-11.684,7.003
		c-4.416,1.74-9.155,2.627-13.395,2.538c-4.259-0.055-7.932-1.1-10.776-2.277c-2.752-1.375-5.952-3.457-8.789-6.637
		c-2.849-3.141-5.291-7.3-6.875-11.773c-1.624-4.468-2.368-9.209-2.383-13.411c0.014-4.186,0.401-7.95,1.036-10.738
		c0.101-1.251,0.83-3.48,1.116-5.793c0.449-2.165,0.503-4.557-1.156-5.589c-1.23-1.59-3.527-0.907-5.967,0.707
		C310.741,221.145,308.546,223.786,307.77,225.247z"/>
	<path class="st3" d="M484.264,224.098c0.586-2.729-0.065-6.959-1.468-11.113c-1.38-4.166-3.526-8.195-5.179-10.894
		c-1.663-2.692-4.29-6.426-7.387-9.535c-3.075-3.125-6.557-5.614-9.256-6.322c-1.134-0.329-4.517-1.049-6.818,2.118
		c-2.667,2.867-1.746,5.853-1.504,6.844c0.655,2.38,2.525,5.279,4.451,8.22c1.941,2.929,3.919,5.927,5.247,8.066
		c1.311,2.149,3.095,5.267,4.833,8.321c1.758,3.045,3.503,6.022,5.33,7.679c0.776,0.664,3.025,2.833,6.788,1.745
		C483.162,228.603,484.047,225.257,484.264,224.098z"/>
	<path class="st3" d="M330.266,192.049c2.363-0.417,5.325-1.942,8.341-3.529c3.004-1.601,6.091-3.24,8.292-4.326
		c2.196-1.091,5.4-2.524,8.523-3.955c3.122-1.444,6.171-2.895,7.938-4.565c0.711-0.707,3.007-2.755,2.253-6.596
		c-0.296-3.902-3.482-5.08-4.593-5.408c-2.61-0.828-6.783-0.585-10.95,0.396c-4.175,0.965-8.303,2.663-11.078,4.043
		c-2.78,1.368-6.668,3.586-9.992,6.342c-3.337,2.738-6.087,5.952-6.985,8.572c-0.418,1.088-1.364,4.387,1.619,6.917
		C326.299,192.81,329.277,192.18,330.266,192.049z"/>
	<path class="st3" d="M324.025,646.378c7.114-1.561,16.194-4.874,25.898-9.705c9.708-4.83,19.982-11.248,29.792-18.569
		c19.712-14.586,37.316-32.882,48.44-46.522c11.24-13.532,26.012-34.206,36.561-56.323c5.344-10.997,9.725-22.238,12.853-32.529
		c3.061-10.322,4.863-19.665,5.602-26.754c0.212-1.467,0.387-3.691,0.462-6.178c0.061-2.487,0.225-5.201-0.036-7.723
		c-0.464-5.044-1.457-9.085-3.478-8.504c-1.876-0.838-3.66,2.925-5.094,7.465c-0.689,2.28-1.586,4.736-2.202,6.979
		c-0.631,2.243-1.182,4.248-1.645,5.574c-1.935,6.391-4.554,14.828-8.118,24.208c-3.633,9.357-8.207,19.636-13.549,29.776
		c-10.539,20.385-24.557,39.809-35.172,52.59c-10.499,12.882-27.044,30.22-45.011,44.438c-8.945,7.14-18.178,13.522-26.726,18.61
		c-8.549,5.085-16.371,8.965-22.369,11.539c-2.497,1.109-7.516,3.142-11.849,4.888c-4.299,1.751-8.008,3.419-7.173,5.34
		c-0.601,1.976,3.537,3.085,8.719,3.155C315.097,648.217,321.075,647.065,324.025,646.378z"/>
	<path class="st3" d="M178.342,743.51c2.705-74.731,2.948-248.391,2.948-341.511c0-93.119-0.243-266.779-2.948-341.509
		c-0.565-15.617-2.286-62.139-6.332-58.262c-4.044-3.877-5.765,42.645-6.33,58.262c-2.706,74.73-2.948,248.39-2.948,341.509
		c0,93.12,0.241,266.779,2.948,341.511c0.565,15.616,2.286,62.138,6.33,58.261C176.056,805.648,177.776,759.126,178.342,743.51z"/>
	<path class="st3" d="M201.514,738.826c5.201-3.704,10.947-10.078,15.656-17.871c4.767-7.69,8.75-16.422,13.406-23.948
		c8.929-14.816,24.454-26.267,35.558-34.459c22.549-16.422,64.678-47.322,81.285-62.633c3.475-3.201,13.805-12.767,10.565-15.242
		c-1.356-3.844-13.64,3.033-17.756,5.35c-19.712,11.107-62.015,41.554-84.703,58.079c-5.696,4.204-12.758,9.433-19.95,16.053
		c-7.169,6.542-14.452,14.848-19.668,24.188c-5.135,9.184-8.529,18.036-12.114,25.133c-3.454,7.098-7.215,12.512-10.438,16.241
		c-1.312,1.607-4.138,4.437-6.809,6.781c-2.626,2.328-5.279,4.271-4.319,6.076c-0.203,2.013,3.513,2.767,8.029,1.721
		C194.728,743.272,199.414,740.432,201.514,738.826z"/>
	<path class="st3" d="M436.639,732.141c7.225,3.704,17.347,7.765,29.382,10.696c12.005,3.014,25.958,4.649,40.235,4.222
		c14.232-0.535,28.867-3.158,41.7-8.066c6.467-2.286,12.384-5.269,17.859-8.173c5.375-3.105,10.262-6.257,14.426-9.463
		c8.317-6.363,17.864-15.233,25.524-27.027c3.942-5.801,7.12-12.466,9.706-19.428c2.613-6.953,3.992-14.627,4.526-22.07
		c0.982-15.039-2.594-29.61-8.135-41.262c-5.695-11.655-13.289-20.369-19.791-25.737c-1.344-1.148-3.365-2.838-5.87-4.382
		c-1.239-0.785-2.483-1.672-3.847-2.386c-1.38-0.695-2.767-1.363-4.102-1.962c-2.614-1.297-5.319-1.815-7.154-2.074
		c-1.876-0.202-3.039,0.12-3.104,1.192c-0.779,0.687-0.337,1.878,0.775,3.292c1.077,1.475,2.99,2.909,4.812,4.852
		c0.941,0.924,1.935,1.848,2.934,2.742c0.985,0.916,1.866,1.95,2.765,2.838c1.829,1.749,3.288,3.482,4.256,4.645
		c4.703,5.443,10.255,13.294,14.326,23.206c3.917,9.926,6.285,21.885,5.146,33.78c-0.979,11.834-5.635,23.397-12.068,32.958
		c-6.363,9.622-14.438,17.116-21.527,22.54c-3.546,2.737-7.739,5.436-12.344,8.136c-4.713,2.502-9.788,5.129-15.36,7.146
		c-11,4.348-23.625,6.825-36.257,7.683c-12.632,0.736-25.201-0.179-36.268-2.198c-11.091-1.935-20.694-4.731-27.887-7.006
		c-1.519-0.442-3.763-1.173-6.257-2.037c-2.522-0.826-5.303-1.734-7.866-2.572c-5.157-1.616-9.643-2.722-9.976-0.617
		c-1.702,1.23,1.43,4.779,5.964,8.262c2.269,1.728,4.844,3.484,7.293,4.877C432.866,730.222,435.112,731.403,436.639,732.141z"/>
	<path class="st3" d="M522.909,539.116c2.764-3.131,6.672-8.954,10.655-11.356c1.946-1.102,3.463-1.482,5.078-1.297
		c1.382,0.104,2.699,0.798,3.871,1.694c1.138,0.897,2.538,2.474,3.634,4.558c0.579,1.025,0.992,2.193,1.356,3.358
		c0.181,0.589,0.302,1.176,0.418,1.763c0.092,0.639,0.213,1.358,0.251,2.062c0.524,5.649-0.963,12.305-1.225,16.73
		c-0.07,1.819-0.596,7.533,3.186,8.593c3.439,1.918,7.087-2.642,8.274-4.329c2.747-3.863,6.484-11.443,6.799-21.265
		c0.048-1.215-0.01-2.421-0.095-3.696c-0.119-1.325-0.3-2.636-0.583-3.905c-0.566-2.536-1.356-4.972-2.453-7.185
		c-2.121-4.453-5.18-8.154-8.386-10.699c-3.14-2.503-8.058-5.186-14.025-5.42c-5.698-0.426-11.986,1.899-16.209,5.325
		c-4.255,3.429-6.855,7.427-8.646,10.942c-1.771,3.546-2.697,6.733-3.088,9.196c-0.395,2.087-0.827,8.117,3.051,8.926
		C518.307,544.778,521.682,540.389,522.909,539.116z"/>
	<path class="st3" d="M474.706,535.268c2.435,3.738,10.188,6.971,14.39,8.588c4.203,1.617,12.125,4.415,16.435,3.275
		c0.902-0.239,3.597-0.981,4.827-4.695c1.576-3.579,0.075-5.937-0.434-6.719c-2.435-3.737-10.188-6.972-14.39-8.589
		c-4.203-1.617-12.125-4.415-16.436-3.274c-0.9,0.24-3.596,0.981-4.826,4.696C472.694,532.129,474.197,534.487,474.706,535.268z"/>
	<path class="st3" d="M432.276,727.503c-1.459,2.433-3.095,5.885-4.243,10.364c-1.163,4.444-1.776,9.985-0.704,15.909
		c1.146,6.263,4.314,11.737,8.292,15.979c4.009,4.239,9.093,7.095,13.767,8.34c4.62,1.294,10.992,1.408,16.859-1.002
		c5.889-2.348,10.811-6.807,13.997-11.93c1.609-2.569,2.828-5.325,3.613-8.156c0.744-2.714,1.085-5.323,1.178-7.722
		c0.162-4.804-0.571-8.672-1.417-11.417c-0.679-2.388-3.164-8.721-6.973-7.663c-3.935-0.02-4.771,6.585-5.221,8.573
		c-0.874,4.912-1.658,12.597-5.324,16.889c-1.812,2.375-4.187,4.135-6.313,4.871c-2.14,0.757-4.099,0.673-5.732,0.25
		c-1.625-0.445-3.732-1.501-5.703-3.43c-1.924-1.914-3.668-4.608-4.378-7.215c-1.783-5.897-0.388-13.772-0.075-18.842
		c0.064-2.088,0.764-8.716-3.074-9.592C437.36,719.813,433.497,725.403,432.276,727.503z"/>
	<path class="st3" d="M347.254,714.004c-1.496,1.868-3.177,4.634-4.521,8.359c-1.316,3.769-2.324,8.328-1.595,13.853
		c0.733,5.294,3.053,10.346,6.571,14.31c3.474,4,8.34,6.621,12.537,7.529c4.175,1.065,9.583,0.81,14.421-1.056
		c4.846-1.864,9.139-5.095,12.325-9.149c3.312-4.201,4.926-8.802,5.694-12.695c0.743-3.928,0.673-7.202,0.314-9.581
		c-0.275-2.059-1.533-7.614-5.471-7.425c-3.858-0.703-5.909,4.458-6.671,5.973c-1.701,3.782-3.68,9.764-6.862,12.712
		c-1.611,1.624-3.68,2.903-5.456,3.485c-1.797,0.556-3.19,0.554-4.222,0.281c-1.03-0.237-2.235-0.771-3.482-2.048
		c-1.235-1.245-2.378-3.235-2.918-5.269c-1.202-3.99,0.175-10.371,0.588-14.493c0.1-1.709,0.876-7.215-2.831-8.509
		C352.347,708.173,348.51,712.37,347.254,714.004z"/>
	<path class="st3" d="M311.372,655.185c-1.361,3.8-1.442,10.546,0.329,17.2c1.684,6.689,5.236,12.978,8.148,16.934
		c2.811,4.057,7.737,9.218,13.323,12.937c5.554,3.782,11.639,6.008,15.538,6.301c1.68,0.122,6.505,0.122,7.343-3.721
		c1.503-3.618-1.586-6.53-2.51-7.512c-2.28-2.447-6.327-5.275-10.045-8.617c-3.74-3.305-7.174-7.048-9.159-9.937
		c-2.068-2.83-4.617-7.125-6.419-11.602c-1.856-4.456-3.05-9.032-4.317-11.992c-0.604-1.177-1.926-5.081-5.858-5.265
		C313.925,649.027,311.851,653.532,311.372,655.185z"/>
	<path class="st3" d="M176.268,678.186c1.837-2.315,3.571-6.343,5.297-10.498c1.71-4.15,3.473-8.431,4.705-11.423
		c1.317-2.956,3.2-7.185,5.027-11.284c1.819-4.116,3.54-8.15,3.948-11.077c0.149-1.216,0.732-4.888-2.586-6.976
		c-2.973-2.55-6.414-0.593-7.545,0.128c-2.714,1.667-5.955,5.431-8.744,9.712c-2.806,4.272-5.116,9.048-6.576,12.438
		c-1.446,3.393-3.313,8.36-4.47,13.338c-1.176,4.971-1.667,9.913-1.002,13.029c0.258,1.317,1.214,5.158,5.109,5.551
		C173.231,682.087,175.489,679.133,176.268,678.186z"/>
	<path class="st2" d="M396.644,232.328c27.281,10.457,19.663,19.584,17.119,24.445c-2.544,4.862-19.106,8.325-30.261,3.802
		c-11.154-4.523-22.601-18.927-20.697-27.264C364.708,224.974,380.604,226.18,396.644,232.328z"/>
</g>
</svg>
