<?xml version="1.0" encoding="utf-8"?>
<!-- Generator: Adobe Illustrator 25.2.3, SVG Export Plug-In . SVG Version: 6.00 Build 0)  -->
<svg version="1.1" id="_x32_" xmlns="http://www.w3.org/2000/svg" xmlns:xlink="http://www.w3.org/1999/xlink" x="0px" y="0px"
	 viewBox="0 0 850 815" style="enable-background:new 0 0 850 815;" xml:space="preserve">
<style type="text/css">
	.st0{fill:#FFF7E8;}
	.st1{fill:#F4E8D9;}
	.st2{fill:#56302A;}
	.st3{fill:#FFFDF8;}
	.st4{fill:#685A59;}
	.st5{fill:#827675;}
	.st6{fill:#C6B6A3;}
	.st7{fill:#C5B5A2;}
	.st8{fill:#EDCCB4;}
	.st9{fill:#C6AA8B;}
</style>
<g>
	<path class="st0" d="M602.954,264.771c-50.448-63.832-116.264-96.493-176.828-94.968c-113.005-7.171-236.089,22.037-297.475,67.385
		C77.212,260.651,15.946,345.272,12.414,433.855c-2.84,71.229,41.51,155.515,183.878,140.336l331.901-65.875
		c72.133-19.278,90.124-56.552,105.28-89.974C649.987,381.929,633.783,303.777,602.954,264.771z"/>
	<path class="st1" d="M202.156,590.466c-57.249,5.668-107.622-25.299-134.67-54.433c-27.288-29.39-30.454-67.674-29.915-87.879
		c2.205-82.422,54.939-164.269,100.888-186.174l2.069-0.988l1.842-1.44c33.164-25.926,88.509-47.004,151.849-57.834
		c43.685-7.468,89.078-9.657,131.266-6.328l0.952,0.076l0.953-0.016c55.569-0.855,115.235,34.116,159.604,93.544
		c27.653,37.035,39.805,108.916,28.694,135.545c-13.094,31.39-27.687,74.812-90.29,92.163L202.156,590.466z"/>
	<path class="st1" d="M579.55,754.118H195.512c-23.395-65.132-3.37-170.35-3.37-170.35l131.04-31.99l217.965-53.165
		C562.856,547.049,582.923,719.043,579.55,754.118z"/>
	<path class="st2" d="M544.191,524.571c0.908-0.257,1.883-0.533,2.923-0.827c1.024-0.37,2.111-0.762,3.26-1.178
		c2.295-0.85,4.839-1.793,7.618-2.823c2.063-0.692,4.109-1.875,6.343-2.896c2.208-1.096,4.573-2.161,6.984-3.436
		c1.993-1.154,4.027-2.418,6.129-3.731c1.051-0.654,2.122-1.319,3.209-1.996c1.046-0.75,2.11-1.511,3.19-2.285
		c1.93-1.358,3.882-2.798,5.872-4.285c1.887-1.627,3.823-3.296,5.804-5.007c1.878-1.485,3.647-3.166,5.463-4.878
		c1.779-1.74,3.781-3.363,5.407-5.377c1.578-1.821,3.255-3.612,4.959-5.443c1.61-1.893,3.171-3.877,4.713-5.93
		c1.504-1.911,2.732-4.006,4.091-6.07c1.363-2.067,2.679-4.185,3.891-6.372c2.465-4.117,4.198-8.659,6.415-13.03
		c2.056-4.213,4.338-8.374,6.271-12.729c1.89-4.09,3.811-8.25,5.762-12.475c0.444-0.92,0.9-2.259,1.319-3.537
		c0.401-1.281,0.804-2.569,1.209-3.863c0.913-2.591,1.19-5.156,1.857-7.708c0.304-1.244,0.65-2.48,1.017-3.722l0.82-3.7
		c0.503-2.47,1.186-5.005,1.345-7.521c0.143-2.461,0.287-4.937,0.433-7.424c0.18-2.497,0.003-4.943,0.031-7.435
		c0.09-4.902-0.823-9.707-1.127-14.605c-0.49-4.776-0.808-9.62-1.57-14.429c-0.839-4.712-1.659-9.474-2.819-14.176
		c-0.534-2.331-1.061-4.672-1.664-6.999c-0.658-2.312-1.319-4.631-1.981-6.958c-1.17-4.636-2.702-9.214-4.163-13.83
		c-1.662-4.511-3.424-9.013-5.336-13.488c-1.999-4.413-4.036-8.808-6.422-13.118c-1.166-2.149-2.079-4.411-3.288-6.576
		c-1.187-2.172-2.382-4.352-3.681-6.473c-1.209-2.139-2.938-4.053-4.442-6.046c-1.558-1.964-3.1-4.007-4.636-5.758
		c-3.053-3.645-5.935-7.444-9.074-11.036c-3.219-3.515-6.109-7.351-9.365-10.857c-3.408-3.373-7.205-6.341-10.605-9.696
		c-3.556-3.213-6.984-6.574-10.557-9.766c-3.717-3.06-7.657-5.834-11.386-8.839c-3.91-2.804-7.812-5.602-11.702-8.392
		c-4.057-2.607-8.031-5.327-12.099-7.868c-4.235-2.354-8.484-4.629-12.739-6.848c-4.377-2.081-8.355-4.964-12.813-6.827
		c-4.535-1.825-9.133-3.367-13.725-4.838c-4.6-1.628-9.018-3.734-13.716-4.94c-2.365-0.662-4.731-1.285-7.098-1.851
		c-2.4-0.455-4.789-0.902-7.152-1.411c-4.782-1.162-9.626-1.885-14.415-2.613c-2.438-0.424-4.912-0.477-7.362-0.578
		c-2.449-0.099-4.88-0.194-7.291-0.381c-2.475-0.07-4.94-0.216-7.394-0.395c-2.105-0.139-4.194-0.278-6.269-0.415
		c-4.766-0.208-9.48-0.024-14.102-0.224c-4.777-0.278-9.475-0.216-14.091-0.232c-4.785-0.008-9.488-0.51-14.095-0.463
		c-4.8,0.155-9.477,0.916-14.053,1.067c-2.405,0.082-4.786,0.054-7.134,0.06c-2.345,0.068-4.658,0.135-6.933,0.291
		c-4.837,0.254-9.525,0.501-14.054,0.738c-4.866,0.47-9.485,1.506-13.958,1.962c-4.904,0.479-9.607,0.638-13.994,1.307
		c-4.978,0.691-9.57,1.728-13.866,2.328c-5.141,0.844-9.78,1.608-13.869,2.279c-2.865,0.499-5.477,0.854-7.807,1.159
		c-2.324,0.342-4.353,0.699-6.07,1.052c-3.434,0.723-8.11,1.478-13.816,2.682c-4.053,0.914-8.516,2.536-13.588,3.777
		c-2.11,0.525-4.324,0.997-6.624,1.489c-2.294,0.525-4.649,1.166-7.074,1.854c-4.266,1.292-8.778,2.657-13.518,4.091
		c-4.262,1.505-8.713,3.076-13.339,4.709c-4.346,1.358-8.691,3.279-13.257,4.992c-4.289,1.647-8.88,2.894-13.323,4.943
		c-4.232,1.901-8.479,4-12.852,6.119c-4.169,2.113-8.422,4.267-12.755,6.463c-4.125,2.245-8.36,4.549-12.59,6.984
		c-2.069,1.139-4.053,2.501-6.034,3.912c-1.995,1.381-4.005,2.771-6.027,4.171l-2.698,1.785l0.021-0.041l-0.009-0.003h-0.003
		l0.027-0.016l0.237-0.131l0.148-0.075l-0.053,0.025l-0.426,0.206l-1.708,0.826c-2.283,1.104-4.582,2.228-6.856,3.429
		c-2.216,1.178-4.186,2.644-6.305,3.968c-2.063,1.385-4.237,2.68-6.23,4.173c-3.796,3.036-7.672,6.117-11.328,9.385
		c-1.791,1.614-3.652,3.164-5.523,4.727c-1.875,1.557-3.777,3.112-5.427,4.903c-3.289,3.498-6.377,7.263-9.489,10.959
		c-3.057,3.653-6.713,6.877-9.664,10.701c-2.87,3.82-5.301,7.993-8.123,11.88c-2.653,3.947-5.621,7.716-8.298,11.714
		c-2.506,4.054-4.932,8.179-7.389,12.303c-2.467,4.086-4.63,8.362-6.894,12.595c-2.291,4.19-3.971,8.687-5.927,13.056
		c-0.971,2.184-2.005,4.343-3.038,6.506c-0.951,2.199-1.824,4.435-2.676,6.68c-1.613,4.518-3.521,8.931-4.787,13.583
		c-1.36,4.619-2.389,9.327-3.602,13.97c-1.108,4.695-2.212,9.384-3.315,14.067c-0.947,4.731-2.052,9.461-2.836,14.231
		c-0.909,4.77-0.303,9.717-0.754,14.503l-0.68,7.237c-0.094,2.476-0.206,4.956-0.211,7.427c0.041,2.487,0.084,4.971,0.125,7.449
		c0.131,2.471,0.243,4.945,0.483,7.399c0.329,2.466,0.697,4.921,1.095,7.362c0.481,2.424,0.959,4.842,1.437,7.253
		c0.542,2.424,1.083,4.842,1.622,7.252c0.609,2.393,1.279,4.765,1.952,7.127c1.506,4.746,3.307,9.353,5.202,13.878
		c1.928,4.584,3.696,9.231,6.049,13.551c1.124,2.234,2.378,4.388,3.666,6.508c1.246,2.144,2.528,4.255,3.94,6.269
		c2.734,4.209,6.043,7.941,9.101,11.755c1.629,1.905,3.295,3.762,4.99,5.562c1.771,1.732,3.53,3.446,5.22,5.204
		c3.604,3.472,7.199,6.871,11.021,9.885c0.97,0.796,1.917,1.614,2.85,2.439l2.899,2.334c1.948,1.516,3.785,3.182,5.872,4.432
		c2.141,1.325,4.261,2.638,6.364,3.937c2.17,1.169,4.319,2.328,6.448,3.475c2.174,1.279,4.483,2.211,6.699,3.271
		c2.228,1.037,4.427,2.065,6.664,2.917c2.319,0.97,4.608,1.93,6.867,2.875c2.304,0.819,4.577,1.628,6.818,2.424
		c2.376,0.864,4.794,1.413,7.155,2.015c2.368,0.56,4.672,1.248,6.971,1.716c4.938,1.059,9.711,1.981,14.308,2.598
		c2.506,0.366,4.93,0.938,7.314,1.273c2.382,0.344,4.708,0.68,6.981,0.911c5.125,0.592,9.945,0.384,14.394,0.672
		c5.279,0.074,10.084,0.576,14.349,0.498c5.78-0.331,10.533-1.151,14.199-1.557c3.806-0.456,11.173-3.413,10.44-9.859
		c-0.66-5.734-8.146-8.701-11.69-8.532c-3.465,0.243-7.939,0.338-13.329,0.528c-3.953-0.027-8.395-0.193-13.273-0.346
		c-4.08-0.348-8.526-0.336-13.182-0.954c-2.07-0.242-4.21-0.37-6.413-0.503c-2.202-0.124-4.422-0.477-6.699-0.833
		c-4.184-0.602-8.273-2.371-12.677-3.352c-2.064-0.432-4.083-1.126-6.177-1.686c-2.083-0.603-4.225-1.141-6.308-1.933
		c-1.992-0.674-4.009-1.36-6.056-2.055c-2.013-0.766-4.025-1.612-6.071-2.449c-1.967-0.756-3.872-1.689-5.8-2.629
		c-1.915-0.962-3.936-1.786-5.809-2.921c-1.826-1.032-3.706-2.01-5.612-2.997c-1.837-1.094-3.684-2.216-5.519-3.392
		c-1.81-1.084-3.396-2.511-5.097-3.799l-2.531-1.978l-2.457-2.107c-3.291-2.612-6.429-5.498-9.536-8.496
		c-1.456-1.519-2.919-3.048-4.394-4.587c-1.417-1.589-2.784-3.243-4.186-4.88c-2.62-3.294-5.529-6.466-7.868-10.111
		c-1.216-1.739-2.312-3.565-3.355-5.437c-1.082-1.847-2.164-3.705-3.12-5.645c-2.024-3.738-3.615-7.73-5.284-11.704
		c-0.76-1.986-1.595-3.952-2.273-5.983c-0.665-2.036-1.333-4.079-2.003-6.13c-0.544-2.055-1.089-4.117-1.637-6.185
		c-0.425-2.099-0.854-4.199-1.342-6.293c-0.39-2.089-0.851-4.17-1.333-6.259c-0.41-2.099-0.755-4.22-1.045-6.351
		c-0.201-2.12-0.401-4.244-0.602-6.374c-0.154-2.132-0.206-4.271-0.295-6.413c-0.015-2.126,0.122-4.252,0.201-6.379l0.639-6.544
		c0.177-2.177,0.431-4.352,0.683-6.525c0.136-1.086,0.23-2.175,0.389-3.259l0.571-3.251c0.721-4.308,0.757-8.752,1.58-13.082
		c1.004-4.293,2.429-8.488,3.42-12.776c1.069-4.269,2.038-8.6,3.276-12.852c1.162-4.281,3.504-8.165,5.012-12.316
		c0.779-2.073,1.386-4.216,2.003-6.358c0.743-2.095,1.484-4.194,2.39-6.223c1.847-4.058,3.891-8.008,6.042-11.893
		c2.101-3.919,4.007-7.936,6.274-11.731c2.283-3.82,4.286-7.794,6.586-11.577c2.491-3.693,4.971-7.372,7.443-11.034
		c2.595-3.617,5.238-7.172,7.876-10.703c2.701-3.552,6.144-6.419,8.94-9.784c1.403-1.728,2.922-3.319,4.438-4.901
		c1.511-1.588,3.018-3.173,4.52-4.749c1.5-1.638,3.128-3.096,4.761-4.537c1.616-1.458,3.226-2.91,4.83-4.356
		c1.588-1.539,3.346-2.789,5.037-4.127c1.697-1.324,3.387-2.643,5.067-3.953c1.721-1.328,3.581-2.349,5.351-3.52
		c1.803-1.094,3.535-2.357,5.341-3.329c1.859-0.962,3.664-1.997,5.461-3.036l1.346-0.778l0.336-0.194l0.989-0.534
		c0.503-0.259,0.991-0.539,1.442-0.881l3.124-2.181c1.83-1.242,3.701-2.398,5.555-3.545c1.841-1.16,3.675-2.302,5.59-3.343
		c3.884-2.228,7.633-4.532,11.441-6.619c4.04-2.033,7.821-4.407,11.711-6.374c4.091-1.997,8.228-3.741,12.203-5.537
		c4.161-1.93,8.357-3.549,12.433-5.111c4.344-1.633,8.655-2.887,12.815-4.182c4.442-1.484,8.587-3.306,12.687-4.681
		c4.546-1.355,8.872-2.646,12.962-3.867c2.324-0.663,4.564-1.325,6.756-1.873c2.199-0.527,4.317-1.035,6.35-1.522
		c4.879-1.195,9.2-2.608,13.102-3.49c5.499-1.123,9.965-2.036,13.279-2.711c1.659-0.339,3.624-0.635,5.877-0.912
		c2.259-0.243,4.792-0.531,7.557-1.013c3.945-0.662,8.389-1.602,13.361-2.369c4.151-0.573,8.568-1.724,13.377-2.389
		c4.242-0.649,8.829-0.468,13.566-0.928c4.313-0.436,8.8-1.115,13.484-1.565c4.366-0.32,8.88-0.653,13.54-0.995
		c2.195-0.163,4.421-0.33,6.678-0.499c2.26-0.09,4.551-0.18,6.871-0.274c4.413-0.14,8.938-0.004,13.553-0.153
		c4.425-0.048,8.94-0.229,13.544-0.224c4.439,0.023,8.961-0.051,13.541,0.223c4.439,0.236,8.948,0.473,13.52,0.717l1.672,0.048
		l0.42,0.007l0.664,0.017l0.66-0.004l0.826-0.024l3.218-0.142c2.156-0.103,4.331-0.228,6.517-0.192
		c4.263,0.42,8.589,0.582,12.928,1.235c4.249,0.671,8.487,1.57,12.745,2.621c2.105,0.444,4.22,0.891,6.343,1.34
		c2.106,0.532,4.202,1.158,6.316,1.74c2.07,0.622,4.194,1.079,6.25,1.811c2.062,0.714,4.133,1.429,6.209,2.148
		c4.136,1.304,8.033,3.368,12.108,5.003c4.025,1.633,7.947,3.624,11.934,5.493c3.888,1.99,7.739,4.131,11.611,6.256
		c3.741,2.298,7.265,4.977,10.998,7.33c3.578,2.556,7.432,4.76,11.034,7.353c3.437,2.769,6.883,5.544,10.333,8.323
		c3.301,2.95,6.61,5.905,9.919,8.862l9.637,9.225c3.061,3.236,5.971,6.622,8.995,9.889c2.972,3.333,5.674,6.903,8.552,10.305
		c1.513,1.722,2.692,3.458,3.873,5.184c1.165,1.765,2.482,3.365,3.561,5.221c2.239,3.651,4.476,7.272,6.383,11.168
		c2.114,3.77,4.203,7.622,6.005,11.589c1.773,4.022,2.708,8.388,4.264,12.453c1.324,4.217,2.802,8.356,3.874,12.607
		c0.595,2.131,1.249,4.24,1.905,6.344c0.615,2.114,1.116,4.252,1.62,6.382c1.084,4.31,1.633,8.678,2.413,12.968
		c0.733,4.357,1.635,8.661,2.128,12.974c0.265,4.379,0.874,8.742,0.794,13.005c-0.017,2.171,0.081,4.37-0.125,6.485
		c-0.186,2.12-0.364,4.223-0.481,6.321c-0.091,2.154-0.509,4.169-0.719,6.247l-0.388,3.08l-0.689,2.906
		c-0.523,1.947-0.799,4.053-1.571,5.765l-0.977,2.688c-0.336,0.91-0.567,1.717-1.102,2.849c-1.834,4.338-3.638,8.61-5.412,12.807
		c-0.938,2.103-1.976,4.14-3.01,6.15c-1.06,1.963-2.11,3.903-3.038,5.877c-2.008,4.029-4.091,7.894-6.232,11.522
		c-1.062,1.963-2.125,3.863-3.227,5.698c-1.098,1.839-2.08,3.75-3.358,5.378c-1.31,1.764-2.653,3.469-4.031,5.085
		c-1.461,1.539-2.89,3.05-4.205,4.612c-1.351,1.743-2.992,3.142-4.421,4.692c-1.462,1.518-2.883,3.023-4.468,4.286
		c-1.677,1.439-3.245,2.924-4.778,4.387c-1.654,1.314-3.27,2.602-4.895,3.787c-0.919,0.665-1.822,1.319-2.711,1.964
		c-0.948,0.565-1.88,1.121-2.796,1.667c-1.828,1.101-3.591,2.165-5.289,3.189c-2.094,1.115-4.091,2.18-5.986,3.19
		c-1.919,0.978-3.626,2.118-5.462,2.767c-2.454,0.95-4.699,1.818-6.726,2.604c-1.014,0.386-1.975,0.751-2.879,1.095
		c-0.931,0.29-1.802,0.561-2.615,0.815c-3.276,1.137-8.639,6.208-7.218,11.804C532.749,524.95,540.395,525.595,544.191,524.571z"/>
	<path class="st2" d="M201.982,745.463c-0.475-1.83-0.933-3.599-1.379-5.312c-0.464-1.704-0.652-3.467-0.981-5.114
		c-0.566-3.333-1.209-6.433-1.663-9.461c-0.632-6.147-1.614-11.662-1.918-17.382c-0.242-2.835-0.484-5.676-0.734-8.588
		c-0.148-2.934-0.299-5.938-0.455-9.08c-0.201-3.137-0.35-6.422-0.375-9.932c-0.04-3.506-0.237-7.206-0.191-11.204
		c0.285-15.969,1.24-27.599,1.954-39.161c0.813-11.554,1.66-23.113,3.444-38.789c0.225-2.1-1.565-6.5-7.549-7.655
		c-5.992-1.156-9.269,2.713-9.689,4.846c-3.273,16.076-5.005,27.867-6.27,39.824c-1.159,11.962-2.115,24.032-2.042,40.766
		c-0.141,4.175-0.012,8.09-0.018,11.775c-0.018,3.685,0.111,7.164,0.319,10.503c0.194,3.336,0.381,6.525,0.561,9.638
		c0.345,3.117,0.681,6.158,1.019,9.196c0.547,6.067,1.919,12.113,3.078,18.674c0.723,3.276,1.684,6.675,2.606,10.274
		c0.511,1.794,0.878,3.653,1.555,5.538c0.664,1.885,1.347,3.827,2.053,5.839c0.764,2.164,4.48,5.571,10.202,3.464
		C201.232,752.015,202.477,747.393,201.982,745.463z"/>
	<path class="st2" d="M236.01,734.813c-1.357-6.519-2.569-13.591-3.357-19.664c-0.781-6.074-1.226-11.122-1.442-13.513
		c-0.168-2.398-0.526-7.458-0.768-13.636c-0.24-6.178-0.343-13.475-0.406-20.29c-0.115-6.106-1.451-18.284-6.319-18.561
		c-4.873-0.278-7.392,11.971-7.65,18.295c-0.36,7.139-0.399,14.715-0.199,21.14c0.206,6.425,0.635,11.689,0.813,14.211
		c0.227,2.523,0.634,7.794,1.504,14.224c0.888,6.425,2.322,13.997,4.237,21.049c0.445,1.551,1.07,3.46,1.873,5.41
		c0.858,1.939,1.863,3.927,2.946,5.657c2.297,3.44,4.899,5.814,7.187,4.983c2.297-0.834,2.937-4.251,2.848-8.096
		c0.015-1.949-0.16-4.017-0.432-5.955C236.626,738.111,236.338,736.27,236.01,734.813z"/>
	<path class="st2" d="M589.537,748.207c0.707-11.23,0.709-21.345,0.438-31.064c-0.208-9.724-0.745-18.962-1.355-28.08
		c-1.226-18.226-3.124-35.858-5.453-55.249c-2.316-19.389-4.852-36.989-8.23-55.045c-1.639-9.024-3.681-18.162-6.047-27.68
		c-2.563-9.529-5.268-19.4-9.784-30.012c-0.975-2.132-5.158-5.234-11.265-2.42c-5.432,2.513-7.264,7.515-6.701,9.348
		c3.163,9.302,5.248,18.871,7.272,27.913c1.87,9.151,3.618,17.957,5.089,26.747c3.036,17.541,5.686,34.753,7.974,53.791
		c2.271,19.036,3.977,36.407,5.419,54.254c0.719,8.918,1.469,17.971,2.061,27.378c0.664,9.398,1.199,19.254,1.341,29.347
		c0.031,1.909,3.324,6.048,9.275,6.688C586.258,754.83,589.274,750.542,589.537,748.207z"/>
	<path class="st3" d="M456.827,754.118H279.062c-3.784-11.883-6.359-24.795-7.645-38.323c-5.941-62.909,9.47-108.007,61.243-122.274
		c4.807-1.357,9.878-2.345,15.177-2.919c62.182-6.909,106.377,30.994,112.888,99.742
		C462.843,712.753,461.595,734.626,456.827,754.118z"/>
	<path class="st4" d="M245.497,525.36c32.382,15.889,121.78-1.042,139.272-33.698c8.063-15.053-18.802-128.124-92.906-119.261
		C197.93,383.637,228.71,526.532,245.497,525.36z"/>
	<path class="st2" d="M245.497,525.36l-4.475,9.118c5.4,2.639,11.438,4.338,17.981,5.458c6.541,1.112,13.596,1.614,20.983,1.616
		c21.051-0.023,44.843-4.063,65.702-11.379c10.428-3.674,20.119-8.169,28.395-13.634c8.245-5.48,15.225-11.922,19.638-20.081
		l0.003-0.005c1.246-2.38,1.74-4.493,2.104-6.648c0.34-2.152,0.471-4.35,0.473-6.703c-0.003-4.405-0.477-9.357-1.378-14.828
		c-1.585-9.559-4.503-20.669-8.88-32.159c-6.586-17.214-16.386-35.299-30.414-49.616c-7.018-7.143-15.136-13.333-24.449-17.751
		c-9.298-4.42-19.801-7.011-31.156-7.003c-3.068,0-6.195,0.187-9.377,0.572l0.009-0.001c-13.989,1.662-25.98,6.073-35.812,12.584
		c-7.379,4.873-13.516,10.889-18.481,17.578c-7.458,10.047-12.316,21.551-15.342,33.387c-3.023,11.848-4.227,24.068-4.231,35.813
		c0.015,17.863,2.767,34.577,6.713,47.423c2.003,6.445,4.242,11.895,7.022,16.397c1.419,2.255,2.952,4.312,5.115,6.2
		c1.091,0.936,2.364,1.837,3.961,2.566c1.583,0.724,3.545,1.259,5.686,1.257l0.351-0.005l0.063-0.002l-0.046-1.806l0.035,1.806h0.01
		l-0.046-1.806l0.035,1.806L245.497,525.36l-4.475,9.118L245.497,525.36l-0.193-10.155l-0.158,0.003l0.139,5.81v-5.812l-0.139,0.002
		l0.139,5.81v-5.812v6.54l2.717-5.975c-0.578-0.268-1.546-0.565-2.717-0.565v6.54l2.717-5.975l-1.577,3.468l2.462-2.94
		c-0.079-0.062-0.332-0.275-0.885-0.528l-1.577,3.468l2.462-2.94l-0.042,0.048l0.048-0.047l-0.005-0.002l-0.042,0.048l0.048-0.047
		c-0.122-0.114-0.621-0.702-1.204-1.664c-1.041-1.69-2.36-4.486-3.605-7.99c-1.886-5.268-3.663-12.149-4.931-19.873
		c-1.273-7.727-2.052-16.313-2.05-25.094c-0.003-9.191,0.854-18.598,2.812-27.481c2.937-13.355,8.337-25.378,16.683-34.335
		c4.185-4.496,9.111-8.285,15.071-11.255c5.96-2.964,12.981-5.113,21.401-6.123l0.01-0.002c2.39-0.287,4.704-0.423,6.944-0.423
		c6.333,0.003,12.096,1.07,17.497,2.989c9.427,3.357,17.831,9.424,25.215,17.358c11.074,11.862,19.598,27.879,25.141,43.127
		c2.781,7.616,4.834,15.03,6.17,21.558c1.342,6.511,1.951,12.191,1.942,16.012c0.003,1.541-0.098,2.77-0.218,3.499
		c-0.057,0.361-0.117,0.596-0.136,0.658l-0.004,0.012l2.621,0.9l-2.436-1.303c-0.133,0.252-0.176,0.382-0.185,0.403l2.621,0.9
		l-2.436-1.303l0.003-0.005c-2.063,3.928-6.487,8.495-12.936,12.732c-9.633,6.398-23.478,11.982-38.333,15.762
		c-14.854,3.808-30.757,5.889-44.56,5.88c-6.449,0.004-12.436-0.45-17.578-1.327c-5.143-0.866-9.432-2.184-12.438-3.669
		l-2.209-1.084l-2.456,0.048L245.497,525.36z"/>
	<path class="st4" d="M292.216,361.199c-85.944,5.279-139.181,75.128-136.086,135.971c2.442,48.014,29.791,63.909,71.799,53.649
		c32.429-7.921,40.556-32.14,53.762-61.886c0.71-1.599,1.388-3.216,2.038-4.85c8.101-20.38,35.256-24.167,49.181-7.224
		c28.141,34.24,67.043,55.519,104.544,24.931c62.624-51.081-4.074-127.039-62.295-142.9
		C344.352,350.496,322.911,354.283,292.216,361.199z"/>
	<path class="st2" d="M292.216,361.199l-0.623-10.138c-44.353,2.707-80.901,21.75-106.158,48.143
		c-25.26,26.399-39.554,60.105-39.592,92.903c0,1.854,0.044,3.72,0.144,5.6l-0.001-0.021c0.533,10.451,2.163,19.763,4.98,27.991
		c2.112,6.165,4.902,11.722,8.399,16.574c5.228,7.283,12.102,12.904,20.005,16.485c7.907,3.6,16.724,5.215,26.061,5.214
		c7.897-0.003,16.201-1.144,24.902-3.262c9.171-2.233,17.018-5.753,23.624-10.362c4.956-3.448,9.191-7.477,12.839-11.852
		c5.479-6.574,9.66-13.876,13.419-21.514c3.756-7.647,7.099-15.668,10.759-23.905c0.767-1.727,1.496-3.467,2.192-5.216
		c1.551-3.87,3.966-6.61,6.957-8.552c2.986-1.924,6.59-2.962,10.233-2.96c2.712,0,5.42,0.568,7.916,1.71
		c2.499,1.147,4.795,2.849,6.792,5.272c9.856,11.981,21.051,22.634,33.488,30.484c12.412,7.825,26.244,12.89,40.905,12.895
		c7.45,0.004,15.051-1.329,22.522-4.152c7.477-2.817,14.812-7.098,21.891-12.873c9.878-8.051,17.18-16.967,21.964-26.45
		c4.794-9.474,7.004-19.472,6.993-29.291c-0.004-12.305-3.376-24.268-8.885-35.363c-8.293-16.651-21.365-31.534-36.503-43.57
		c-15.163-12.013-32.409-21.192-49.611-25.897c-13.262-3.621-25.231-5.172-36.786-5.167c-8.462,0-16.671,0.818-25.021,2.142
		c-8.355,1.326-16.857,3.155-26.041,5.225L292.216,361.199l-0.623-10.138L292.216,361.199l2.234,9.907
		c9.056-2.043,17.159-3.774,24.755-4.978c7.6-1.204,14.685-1.89,21.837-1.89c9.763,0.005,19.708,1.26,31.446,4.451
		c9.322,2.535,19.181,6.896,28.608,12.64c14.151,8.602,27.306,20.329,36.642,33.168c4.676,6.415,8.403,13.093,10.924,19.744
		c2.527,6.657,3.853,13.264,3.851,19.679c-0.01,6.845-1.469,13.488-4.811,20.136c-3.353,6.638-8.66,13.324-16.67,19.863
		c-5.582,4.548-10.99,7.636-16.217,9.608c-5.233,1.968-10.298,2.841-15.358,2.846c-9.888,0.005-20.01-3.427-30.075-9.767
		c-10.039-6.314-19.843-15.497-28.626-26.196c-3.951-4.813-8.805-8.456-14.034-10.844c-5.232-2.394-10.827-3.553-16.367-3.553
		c-7.441,0.003-14.828,2.081-21.224,6.192c-6.392,4.093-11.749,10.31-14.84,18.128c-0.603,1.514-1.23,3.009-1.884,4.48
		c-3.351,7.551-6.313,14.581-9.301,20.866c-4.482,9.454-9.005,17.094-14.638,22.798c-2.825,2.865-5.931,5.299-9.636,7.381
		c-3.706,2.076-8.029,3.802-13.315,5.095c-7.427,1.812-14.167,2.686-20.087,2.683c-6.245,0-11.552-0.955-16.006-2.695
		c-3.346-1.31-6.231-3.048-8.813-5.297c-3.854-3.374-7.104-7.956-9.624-14.353c-2.509-6.382-4.206-14.566-4.715-24.635l-0.002-0.021
		c-0.078-1.488-0.114-2.996-0.114-4.527c-0.04-26.795,11.989-55.976,33.945-78.849c21.957-22.881,53.518-39.496,92.736-41.922
		l0.824-0.051l0.788-0.178L292.216,361.199z"/>
	<path class="st5" d="M225.256,448.906c-4.583-0.886-6.179-5.52-3.225-9.444c1.576-2.094,4.071-3.446,7.125-2.521
		c4.761,1.444,5.566,5.31,4.028,8.293C231.888,447.753,228.921,449.642,225.256,448.906z"/>
	<path class="st5" d="M247.193,479.797c-4.583-0.886-6.178-5.519-3.225-9.444c1.576-2.094,4.072-3.447,7.125-2.521
		c4.76,1.443,5.566,5.311,4.028,8.293C253.823,478.644,250.857,480.531,247.193,479.797z"/>
	<path class="st5" d="M205.989,488.174c-4.583-0.887-6.179-5.519-3.225-9.444c1.576-2.094,4.072-3.446,7.125-2.521
		c4.76,1.443,5.566,5.31,4.028,8.294C212.62,487.022,209.654,488.909,205.989,488.174z"/>
	<path class="st5" d="M381.784,421.478c-4.583-0.886-6.178-5.518-3.225-9.444c1.576-2.094,4.072-3.447,7.126-2.521
		c4.761,1.443,5.566,5.311,4.027,8.295C388.415,420.327,385.448,422.214,381.784,421.478z"/>
	<path class="st5" d="M403.72,452.371c-4.583-0.887-6.178-5.519-3.225-9.444c1.576-2.094,4.071-3.447,7.125-2.522
		c4.76,1.444,5.566,5.311,4.03,8.294C410.352,451.217,407.384,453.105,403.72,452.371z"/>
	<path class="st5" d="M362.516,460.748c-4.583-0.887-6.179-5.52-3.225-9.444c1.576-2.094,4.072-3.447,7.125-2.522
		c4.76,1.443,5.566,5.311,4.028,8.294C369.148,459.594,366.181,461.482,362.516,460.748z"/>
	<path class="st2" d="M270.021,399.585c0.722,4.217-2.113,8.221-6.33,8.941c-4.217,0.722-8.22-2.113-8.942-6.331
		c-0.721-4.217,2.113-8.22,6.33-8.941C265.296,392.532,269.3,395.366,270.021,399.585z"/>
	<path class="st2" d="M323.167,390.498c0.722,4.217-2.113,8.221-6.331,8.941c-4.217,0.722-8.219-2.113-8.941-6.329
		c-0.72-4.218,2.114-8.221,6.331-8.942C318.443,383.447,322.447,386.281,323.167,390.498z"/>
	<path class="st2" d="M307.778,452.861l-7.382-43.189c-1.364-7.979-5.014-14.073-8.112-13.543c-3.096,0.53-4.515,7.49-3.151,15.469
		l7.384,43.189c1.364,7.978,5.014,14.073,8.11,13.544C307.725,467.8,309.143,460.839,307.778,452.861z"/>
	<path class="st2" d="M105.443,269.033c-30.109,5.148-68.636-2.986-78.891-36.316c-8.733-28.376-2.124-66.263,21.496-85.028
		c23.583-18.736,57.696-30.7,86.879-18.633c27.481,11.363,55.682,55.947,42.839,85.946
		C162.803,249.952,131.247,280.119,105.443,269.033z"/>
	<path class="st6" d="M366.956,270.776c-4.201,0.563-8.489,0.824-12.713,0.717c-2.079,0.012-4.14-0.058-6.17-0.164
		c-2.012-0.067-3.991-0.175-5.952-0.326c-7.802-0.511-15.046-1.212-22.382-1.906c-7.348-0.677-14.733-1.401-23.102-1.898
		c-2.127-0.092-4.22-0.254-6.54-0.266c-1.144-0.019-2.302-0.038-3.478-0.056c-1.252,0.041-2.52,0.085-3.807,0.13
		c-2.535,0.123-4.832,0.456-7.376,0.693c-2.504,0.278-5.095,0.471-7.75,0.977c-21.406,2.979-36.378,8.576-50.287,14.547
		c-6.703,3.029-13.387,6.053-20.678,9.35c-7.067,3.04-14.495,5.946-22.911,6.568c-0.561,0.029-1.26,0.301-1.998,0.558
		c-0.738,0.25-1.528,0.653-2.296,1.231c-1.518,1.16-3.012,3.003-3.41,5.717c-0.399,2.714,0.733,4.755,2.512,6.163
		c0.881,0.701,1.904,1.242,2.904,1.621c0.999,0.374,1.967,0.417,2.746,0.423c11.806-0.144,21.092-3.403,28.899-6.271
		c7.841-2.986,14.563-5.922,21.274-8.656c13.368-5.335,26.608-10.292,45.831-13.296c2.389-0.428,4.744-0.556,7.009-0.777
		c2.231-0.177,4.542-0.477,6.511-0.545c0.966-0.026,1.918-0.052,2.858-0.076c1.015,0.024,2.017,0.048,3.007,0.073
		c1.946,0.014,4.001,0.177,5.935,0.261c7.871,0.467,15.27,1.101,22.676,1.599c7.414,0.512,14.889,0.951,23.171,1.084
		c2.06,0.053,4.185,0.059,6.387,0.017c2.183-0.005,4.439-0.055,6.804-0.201c4.666-0.173,9.776-0.71,15.494-1.895
		c0.798-0.22,1.762-0.63,2.704-1.202c0.951-0.595,1.835-1.218,2.648-2.326c1.583-2.07,1.984-4.423,0.553-6.758
		c-1.431-2.334-3.434-3.617-4.871-4.344c-0.653-0.311-1.586-0.638-2.31-0.76C368.105,270.651,367.456,270.659,366.956,270.776z"/>
	<path class="st7" d="M198.759,255.066c-3.112,2.404-6.135,4.469-8.81,6.096c-2.741,1.533-5.36,2.54-7.581,1.614
		c-1.077-0.46-1.873-1.364-2.339-2.71c-0.433-1.324-0.687-3.181-0.233-5.18c0.615-4.141,3.572-9.254,8.409-13.127
		c1.389-1.218,2.767-2.012,3.931-2.787c1.158-0.791,2.237-1.33,3.213-1.797c0.973-0.472,1.83-0.892,2.65-1.24
		c0.839-0.293,1.62-0.564,2.398-0.837c1.542-0.578,3.13-0.97,5.176-1.472c1.013-0.293,2.158-0.527,3.494-0.737
		c1.331-0.225,2.827-0.557,4.597-0.66c3.29-0.32,3.206-0.292,7.171-0.225c6.04,0.291,11.24,2.461,14.267,5.03
		c3.038,2.644,4.054,5.386,2.979,7.422c-1.102,2.106-3.762,2.968-6.905,3.225c-3.201,0.303-6.958,0.18-11.035-0.034
		c-1.955,0.013-2.276-0.134-4.875,0.159c-4.184,0.479-5.945,1.338-7.943,2.192C205.395,251.01,203.023,251.904,198.759,255.066z"/>
	<path class="st7" d="M330.974,217.709c1.539,0.363,3.014,0.633,4.433,1.226c1.418,0.587,2.756,1.196,3.982,1.868
		c2.448,1.606,4.449,3.251,5.732,5.217c1.374,1.747,1.914,3.718,1.975,5.178c0.056,1.482-0.421,2.571-1.324,3.319
		c-0.902,0.746-2.127,1.099-3.421,1.248c-1.308,0.151-2.567,0.012-4.123,0.002c-2.852-0.251-6.189-0.673-10.278-1.344
		c-1.157-0.308-2.317-0.275-3.25-0.439c-0.947-0.153-1.803-0.19-2.577-0.218c-1.535-0.101-2.725-0.221-3.94-0.193
		c-1.207-0.01-2.418-0.085-3.988,0.112c-0.783,0.085-1.663,0.144-2.665,0.302c-0.995,0.205-2.124,0.439-3.429,0.708
		c-2.366,0.712-2.364,0.589-5.127,1.591c-4.229,1.49-7.935,2.708-10.928,3.352c-1.595,0.265-2.906,0.46-4.17,0.381
		c-1.267-0.091-2.44-0.442-3.32-1.216c-0.881-0.775-1.311-1.866-1.23-3.291c0.072-1.431,0.66-3.231,1.863-4.914
		c1.146-1.846,2.892-3.466,4.994-5.141c2.141-1.475,4.655-2.922,7.436-3.885c2.641-1.007,3.094-1.014,6.679-2.067
		c2.926-0.643,5.034-1.176,6.839-1.444c1.792-0.331,3.233-0.64,4.826-0.791c1.588-0.18,3.28-0.439,5.626-0.395
		C323.913,216.822,326.88,216.958,330.974,217.709z"/>
	<path class="st2" d="M242.21,318.952c-0.787-2.306-2.019-4.446-3.47-6.398c-3.332-4.489-8.868-6.839-14.396-6.04
		c-0.818,0.117-1.602,0.32-2.365,0.571c-2.276,0.069-4.425,0.484-6.668,1.267c-1.904,0.663-3.748,1.823-5.152,3.267
		c-1.871,1.923-3.377,4-4.267,6.571c-0.661,1.909-1.109,3.997-1.162,6.029c-0.212,8.204,3.04,17.939,11.156,21.407
		c3.002,1.283,6.28,1.05,9.264-0.096c0.494-0.189,0.957-0.452,1.419-0.715c0.573,0.113,1.145,0.242,1.722,0.282
		c3.614,0.25,7.07-0.742,9.915-3.007c2.103-1.673,3.755-4.235,4.633-6.752c1.066-3.049,1.232-5.936,1.066-9.113
		C243.772,323.699,243.026,321.336,242.21,318.952z"/>
	<path class="st2" d="M364.368,303.616c-0.554-1.438-1.436-2.75-2.323-4.016c0.091-1.408-0.132-2.764-0.727-4.053
		c-0.972-1.782-1.5-2.408-3.053-3.68c-0.692-0.566-1.533-0.978-2.369-1.288l-0.004-0.001c-0.113-0.383-0.225-0.769-0.402-1.109
		c-1.993-3.801-6.862-6.096-10.94-3.957c-1.533,0.805-2.899,1.832-4.192,2.947c-0.263,0.074-0.521,0.161-0.78,0.252l-0.786,0.029
		l-0.072,0.007c-0.38,0.053-1.108,0.333-1.199,0.361l-1.166,0.375l-0.066,0.038l-0.919,0.584l-0.926,0.595l-0.112,0.092l-0.048,0.05
		l-1.432,1.557l-0.031,0.035l-0.091,0.125c-0.408,0.632-0.729,1.325-1.063,1.988l-0.135,0.326l-0.047,0.165l-0.027,0.111
		c-0.465,0.291-1.046,0.667-1.331,0.862l-0.154,0.112l-0.139,0.127c-0.429,0.413-1.067,1.134-1.46,1.585l-0.068,0.079l-0.12,0.164
		l-0.038,0.066l-0.998,1.879c-0.338,0.697-0.536,2.017-0.609,2.399l-0.031,0.192l-0.003,0.074v0.076
		c0.026,0.735,0.053,1.47,0.079,2.204l0.024,0.2l0.023,0.1l0.015,0.049c0.22,0.703,0.439,1.405,0.659,2.106l0.085,0.2l0.055,0.098
		c0.381,0.598,0.762,1.194,1.145,1.789c0.199,3.788,1.655,7.422,4.914,9.738c0.437,0.312,0.888,0.571,1.346,0.808
		c1.095,0.982,2.317,1.878,3.812,2.559c1.634,0.746,3.524,1.15,5.322,1.213c1.307,0.046,2.579-0.144,3.768-0.578
		c0.812,0.237,1.635,0.356,2.481,0.252c1.118,0.057,2.187-0.177,3.207-0.698c0.598-0.383,1.197-0.767,1.796-1.148
		c0.897-0.761,1.549-1.697,2.055-2.734l0.195-0.072c2.307-1.016,4.608-2.705,5.979-4.855
		C365.559,310.706,365.744,307.185,364.368,303.616z"/>
	<path class="st8" d="M148.17,447.235c4.865,28.449-17.307,55.978-49.521,61.484c-32.215,5.508-62.273-13.091-67.136-41.541
		c-4.864-28.448,17.307-55.977,49.522-61.483C113.249,400.186,143.307,418.785,148.17,447.235z"/>
	<path class="st9" d="M62.887,441.754c-0.698,0.132-1.461,0.463-2.312,0.844c-0.671,0.309-1.103,1.033-1.816,1.496
		c-0.623,0.398-1.34,0.808-1.987,1.329c-0.621,0.497-1.321,1.006-1.922,1.636c-0.555,0.576-1.471,0.913-2.013,1.593
		c-0.509,0.633-1.048,1.287-1.543,1.993c-0.211,0.297-0.259,0.719-0.294,1.151c-0.31,0.292-0.629,0.575-0.82,0.942
		c-0.411,0.796-0.953,1.48-1.319,2.251c-0.369,0.827-1.046,1.434-1.361,2.233c-0.326,0.873,0.124,2.129-0.117,2.939
		c-0.254,0.897-1.022,1.475-1.161,2.334c-0.166,1.084-1.072,1.729-1.108,2.703c-0.079,1.206,1.14,2.737,1.285,3.629
		c0.312,2.043,0.514,3.115,1.489,3.374c1.008,0.263,2.18-0.378,3.456-1.587c0.554-0.531,0.53-1.434,1.185-2.204
		c0.489-0.612,1.562-1.034,2.103-1.747c0.433-0.56,0.333-1.458,0.761-2.122c0.402-0.594,0.374-1.477,0.791-2.141
		c0.401-0.609,1.041-1.094,1.447-1.747c0.397-0.606,0.074-0.6,0.489-1.247c0.197-0.29,0.301-0.442,0.503-0.741l0.401-0.02
		c0.18-0.309,0.183-0.127,0.51-0.843c0.298-0.704,1.348-1.949,1.679-2.562c0.353-0.661,0.554-1.411,0.87-2.044
		c0.353-0.681,0.883-1.133,1.166-1.785c0.276-0.647,0.55-1.292,0.801-1.882c0.298-0.691,0.691-1.169,0.926-1.783
		c0.316-0.773,1.31-0.456,1.468-1.091c0.393-1.353,0.213-3.091-0.26-3.933C65.711,441.884,64.567,441.517,62.887,441.754z"/>
	<path class="st9" d="M96.479,441.937c-0.585,0.182-1.103,0.559-1.782,0.918c-0.535,0.283-0.713,0.951-1.296,1.338
		c-0.503,0.334-1.04,0.691-1.576,1.099c-0.51,0.39-1.047,0.8-1.553,1.278c-0.466,0.439-1.245,0.641-1.713,1.141
		c-0.439,0.468-0.875,0.966-1.321,1.48c-0.186,0.217-0.219,0.571-0.243,0.938c-0.285,0.192-0.564,0.383-0.745,0.655
		c-0.391,0.59-0.89,1.064-1.248,1.636c-0.378,0.608-1.02,0.959-1.355,1.546c-0.359,0.63-0.023,1.824-0.324,2.429
		c-0.332,0.665-1.089,0.92-1.326,1.569c-0.301,0.822-1.202,1.047-1.4,1.785c-0.252,0.929,0.559,2.625,0.479,3.394
		c-0.18,1.751-0.355,2.667,0.446,3.356c0.799,0.687,2.092,0.734,3.64,0.16c0.681-0.253,0.905-1.064,1.694-1.532
		c0.623-0.372,1.708-0.439,2.386-0.936c0.535-0.393,0.578-1.259,1.108-1.753c0.484-0.451,0.565-1.286,1.06-1.8
		c0.458-0.478,1.12-0.813,1.585-1.345c0.441-0.5,0.122-0.554,0.571-1.095c0.207-0.25,0.321-0.374,0.544-0.618l0.394,0.041
		c0.189-0.274,0.185-0.101,0.533-0.745c0.335-0.617,1.375-1.729,1.705-2.3c0.352-0.608,0.518-1.348,0.813-1.938
		c0.326-0.643,0.8-1.115,1.041-1.744c0.242-0.64,0.41-1.295,0.597-1.886c0.215-0.685,0.502-1.238,0.635-1.85
		c0.168-0.777,1.168-0.722,1.199-1.367c0.07-1.47-0.673-2.999-1.384-3.611C98.921,441.558,97.822,441.524,96.479,441.937z"/>
	<path class="st9" d="M124.645,446.053c-0.518,0.056-0.961,0.29-1.549,0.479c-0.464,0.148-0.583,0.691-1.084,0.919
		c-0.434,0.194-0.895,0.402-1.353,0.652c-0.437,0.237-0.895,0.485-1.324,0.797c-0.394,0.285-1.082,0.304-1.474,0.638
		c-0.362,0.324-0.731,0.654-1.11,0.993c-0.157,0.146-0.172,0.44-0.177,0.75l-0.635,0.402c-0.326,0.418-0.753,0.716-1.052,1.123
		c-0.315,0.432-0.873,0.591-1.153,1.012c-0.3,0.453,0.03,1.556-0.228,2c-0.281,0.49-0.945,0.527-1.147,1.021
		c-0.256,0.629-1.05,0.595-1.218,1.172c-0.213,0.731,0.497,2.391,0.42,3.035c-0.173,1.457-0.35,2.202,0.345,3.013
		c0.693,0.808,1.84,1.196,3.24,1.082c0.616-0.053,0.835-0.703,1.547-0.924c0.567-0.174,1.544,0.022,2.16-0.262
		c0.489-0.223,0.53-0.976,1.009-1.291c0.439-0.288,0.506-1.006,0.95-1.348c0.413-0.321,1.005-0.479,1.422-0.848
		c0.392-0.349,0.099-0.463,0.497-0.844l0.482-0.433l0.359,0.113c0.164-0.202,0.164-0.051,0.465-0.547
		c0.291-0.475,1.202-1.255,1.483-1.692c0.3-0.468,0.426-1.084,0.671-1.547c0.268-0.504,0.683-0.831,0.873-1.338
		c0.19-0.516,0.314-1.059,0.453-1.542c0.159-0.559,0.393-0.993,0.48-1.503c0.108-0.648,1.021-0.437,1.012-0.991
		c-0.024-1.269-0.8-2.713-1.487-3.357C126.828,446.133,125.828,445.923,124.645,446.053z"/>
	<path class="st8" d="M584.076,369.513c5.001,29.247-17.061,57.422-49.274,62.928c-32.215,5.508-62.384-13.737-67.383-42.985
		c-5-29.248,17.061-57.422,49.275-62.928C548.909,321.02,579.077,340.265,584.076,369.513z"/>
	<path class="st9" d="M499.003,395.689c-0.174-0.465-0.461-0.78-0.724-1.265c-0.204-0.396-0.674-0.353-0.943-0.77
		c-0.232-0.36-0.48-0.742-0.729-1.125c-0.253-0.376-0.515-0.748-0.824-1.108c-0.288-0.34-0.357-0.97-0.681-1.309
		c-0.316-0.31-0.639-0.626-0.969-0.95c-0.142-0.139-0.41-0.125-0.691-0.101l-0.412-0.58c-0.41-0.288-0.711-0.677-1.113-0.944
		c-0.432-0.284-0.618-0.818-1.044-1.073c-0.459-0.275-1.45,0.12-1.905-0.11c-0.499-0.252-0.603-0.913-1.111-1.084
		c-0.634-0.215-0.722-1.017-1.321-1.146c-0.739-0.166-2.205,0.722-2.819,0.73c-1.417,0.016-2.14-0.004-2.716,0.818
		c-0.577,0.831-0.691,1.987-0.421,3.264c0.117,0.568,0.717,0.653,0.983,1.307c0.212,0.506,0.121,1.461,0.419,2.016
		c0.231,0.43,0.919,0.406,1.24,0.835c0.29,0.391,0.957,0.41,1.303,0.813c0.326,0.375,0.523,0.952,0.899,1.336
		c0.356,0.363,0.441,0.072,0.835,0.441l0.451,0.451l-0.072,0.361c0.211,0.155,0.067,0.162,0.573,0.435
		c0.472,0.262,1.348,1.13,1.811,1.387c0.5,0.274,1.129,0.352,1.616,0.566c0.546,0.23,0.966,0.614,1.5,0.76
		c0.566,0.136,1.137,0.192,1.645,0.269c0.605,0.078,1.116,0.233,1.64,0.233c0.673-0.023,0.831,0.913,1.378,0.785
		c1.292-0.342,2.256-1.538,2.525-2.386C499.61,397.678,499.401,396.691,499.003,395.689z"/>
	<path class="st9" d="M537.452,386.242c-0.023-0.54-0.231-1.036-0.393-1.681c-0.136-0.507-0.674-0.706-0.899-1.264
		c-0.198-0.48-0.427-0.989-0.698-1.504c-0.266-0.49-0.566-0.996-0.926-1.484c-0.339-0.44-0.465-1.178-0.877-1.627
		c-0.416-0.398-0.843-0.805-1.281-1.223c-0.197-0.167-0.515-0.18-0.84-0.18c-0.175-0.26-0.349-0.521-0.601-0.673
		c-0.554-0.318-1.001-0.766-1.552-1.039c-0.59-0.275-0.964-0.869-1.558-1.08c-0.633-0.237-1.61,0.296-2.199,0.164
		c-0.636-0.164-1.027-0.816-1.656-0.851c-0.769-0.065-1.235-0.811-1.925-0.752c-0.868,0.049-1.96,1.443-2.556,1.66
		c-1.393,0.56-2.083,0.834-2.262,1.817c-0.179,0.993,0.245,2.103,0.998,3.155c0.319,0.493,0.911,0.308,1.362,0.834
		c0.363,0.398,0.561,1.295,0.947,1.717c0.31,0.313,0.897,0.072,1.268,0.386c0.336,0.266,0.916,0.12,1.292,0.413
		c0.353,0.259,0.567,0.789,0.936,1.059c0.344,0.267,0.398-0.012,0.768,0.271l0.42,0.351l-0.064,0.352
		c0.184,0.12,0.054,0.144,0.496,0.342c0.433,0.176,1.129,0.95,1.515,1.165c0.405,0.25,0.952,0.314,1.359,0.534
		c0.438,0.249,0.723,0.62,1.164,0.811c0.451,0.193,0.939,0.314,1.367,0.477c0.494,0.187,0.875,0.436,1.334,0.565
		c0.583,0.171,0.294,1.034,0.803,1.083c1.157,0.126,2.605-0.42,3.291-0.999C537.181,388.453,537.486,387.487,537.452,386.242z"/>
	<path class="st9" d="M573.758,380.864c0.051-0.546-0.079-1.067-0.141-1.723c-0.051-0.523-0.543-0.813-0.665-1.4
		c-0.108-0.511-0.231-1.06-0.394-1.617c-0.163-0.534-0.348-1.103-0.595-1.658c-0.24-0.513-0.199-1.268-0.503-1.805
		c-0.324-0.499-0.653-1.008-0.991-1.533c-0.159-0.217-0.472-0.314-0.797-0.399c-0.119-0.306-0.232-0.609-0.451-0.829
		c-0.496-0.468-0.842-1.034-1.352-1.458c-0.556-0.437-0.809-1.137-1.4-1.508c-0.623-0.41-1.729-0.127-2.338-0.401
		c-0.645-0.322-0.972-1.07-1.655-1.241c-0.816-0.239-1.259-1.07-2.026-1.137c-0.964-0.11-2.27,1.166-2.916,1.308
		c-1.54,0.429-2.271,0.667-2.492,1.638c-0.22,0.986,0.178,2.129,0.825,3.219c0.259,0.527,0.861,0.374,1.228,0.952
		c0.297,0.44,0.35,1.33,0.629,1.801c0.234,0.338,0.836,0.192,1.129,0.566c0.265,0.308,0.858,0.288,1.163,0.649
		c0.289,0.317,0.383,0.904,0.685,1.247c0.279,0.341,0.395,0.087,0.701,0.46l0.339,0.454l-0.141,0.332
		c0.158,0.169,0.023,0.16,0.425,0.478c0.393,0.289,0.942,1.275,1.292,1.602c0.368,0.375,0.907,0.598,1.285,0.938
		c0.41,0.382,0.629,0.851,1.059,1.17c0.439,0.326,0.915,0.585,1.337,0.859c0.489,0.323,0.845,0.679,1.305,0.919
		c0.588,0.306,0.206,1.172,0.731,1.332c1.214,0.37,2.725,0.008,3.463-0.505C573.25,383.056,573.641,382.095,573.758,380.864z"/>
	<path class="st2" d="M394.861,208.313c-17.428-2.677-34.719-14.569-42.616-36.101c-7.9-21.533-6.408-52.705-0.016-71.153
		c6.864-19.81,19.463-33.094,43.134-42.084c20.413-7.751,50.69-13.102,73.371-7.337c48.987,12.45,52.822,55.181,55.705,72.044
		c2.883,16.862-5.749,37.429-15.535,51.25c-13.445,18.989-25.205,25.135-49.634,34.518
		C434.84,218.833,416.248,211.598,394.861,208.313z"/>
	<path class="st2" d="M607.065,82.144c-0.787,6.794-2.113,14.019-3.687,20.049c-1.526,6.043-3.23,10.893-4.086,13.163
		c-0.835,2.288-2.683,7.094-5.462,12.492c-2.794,5.39-6.59,11.387-10.903,16.006c-1.911,2.114-4.647,5.225-7.022,8.056
		c-2.323,2.855-4.391,5.592-3.434,7.978c0.917,2.319,4.823,2.701,9.267,1.264c4.444-1.377,9.02-4.605,11.605-7.161
		c5.998-5.747,10.686-12.95,13.977-19.203c3.29-6.293,5.259-11.63,6.191-14.173c0.956-2.544,2.903-7.892,4.558-14.629
		c1.703-6.722,3.042-14.837,3.477-22.573c0.19-3.413-0.096-8.525-1.269-12.688c-1.167-4.177-3.15-7.338-5.659-7.182
		c-2.554,0.158-4.117,3.371-5.269,7.2C608.201,74.587,607.415,79.091,607.065,82.144z"/>
	<path class="st2" d="M714.04,101.822c-3.505,2.76-7.47,5.309-11.713,7.098c-4.225,1.8-8.551,3.154-12.623,3.851
		c-8.171,1.492-14.922,0.547-18.013,0.048c-3.14-0.662-9.902-2.161-17.286-6.284c-7.408-3.986-15.325-10.447-21.346-17.762
		c-2.772-3.221-6.812-8.103-10.308-12.339c-3.503-4.197-6.705-7.686-9.118-6.779c-2.334,0.871-2.338,5.948-0.539,11.894
		c1.76,5.936,5.549,12.428,8.664,16.361c6.873,9.072,16.339,17.032,25.474,21.995c9.103,5.102,17.665,7.003,21.673,7.814
		c4.096,0.702,12.935,1.936,23.361,0.007c5.198-0.932,10.712-2.656,16.098-5.076c5.39-2.423,10.521-5.811,15.016-9.694
		c4.018-3.347,9.071-9.631,11.18-15.847c2.21-6.202,1.788-11.495-0.567-12.133c-2.518-0.712-5.379,2.88-8.871,6.626
		C721.674,95.441,717.232,99.37,714.04,101.822z"/>
	<path class="st2" d="M777.391,203.01c-9.351-5.049-18.386-11.787-24.458-18.737c-3.079-3.443-5.489-6.839-7.166-9.881
		c-1.824-2.96-2.867-5.562-3.644-7.175c-1.37-3.309-4.02-10.499-5.219-19.969c-1.361-9.417-1.109-20.987-0.175-31.84
		c0.401-4.878,0.885-12.205,0.749-18.483c-0.135-6.274-0.958-11.485-3.466-11.94c-2.485-0.451-5.142,4.12-7.317,10.159
		c-2.172,6.034-3.796,13.568-4.422,18.754c-1.451,11.716-1.924,24.512-0.392,35.452c1.334,10.955,4.579,19.726,6.286,23.789
		c0.948,2.011,2.233,5.196,4.473,8.887c2.077,3.765,5.105,8.039,8.873,12.236c7.49,8.513,18.276,16.285,29.125,21.62
		c4.767,2.426,12.2,5.153,18.629,6.297c1.605,0.302,3.152,0.483,4.567,0.606c0.556,0.013,1.784,0.245,2.858,0.144
		c1.08-0.092,2.567-0.289,3.943-1.525c0.325-0.306,0.588-0.652,0.794-1.01c0.181-0.366,0.319-0.618,0.49-1.311
		c0.132-0.523,0.12-1.453-0.185-2.041c-0.279-0.669-0.71-1.031-1.034-1.254c-1.374-0.773-2.012-0.424-2.763-0.203
		c-0.382,0.182-0.762,0.342-1.185,0.919c-0.177,0.248-0.259,0.61-0.237,0.891c0.029,0.261,0.142,0.382,0.235,0.512
		c0.413,0.327,0.727,0.148,0.983-0.006l0.381-0.281l0.179-0.105l-0.241,0.09l-0.155,0.052c0.06,0.062,0.214,0.414,0.202,0.734
		c0.036,0.297-0.053,0.617-0.024,0.505l0.351-0.63c0.215-0.279,0.431-0.168,0.095-0.242l-0.113-0.051l-0.025-0.017l-0.012-0.009
		l-0.006-0.003c0.109,0.056-0.975-0.515-0.514-0.273l0.023,0.009l0.092,0.06l-0.01-0.022c-0.072-0.092-0.234-0.404-0.314-0.948
		c-0.041-0.268-0.062-0.585-0.065-0.95l0.018-0.552l-0.006-0.079c-0.115-0.228-0.098-0.408-0.8-0.863
		c-1.111-0.797-2.367-1.57-3.679-2.379C787.834,208.754,781.556,205.33,777.391,203.01z"/>
	<path class="st2" d="M778.463,301.986c-0.815-6.686-1.028-13.943-0.54-20.093c0.305-3.064,0.581-5.868,0.971-8.175
		c0.422-2.305,0.76-4.147,0.976-5.331c0.302-1.165,0.772-2.979,1.36-5.247c0.618-2.257,1.547-4.917,2.561-7.824
		c2.148-5.784,5.398-12.277,8.952-17.996c0.844-1.254,1.757-2.906,2.695-4.673c1.022-1.7,2.001-3.569,2.768-5.425
		c1.722-3.511,2.667-7.026,0.919-8.877c-1.732-1.838-5.297-0.732-9.116,1.647c-1.797,1.273-3.641,2.849-5.324,4.445
		c-1.595,1.66-2.957,3.389-4.021,4.802c-4.629,6.536-8.544,14.091-11.087,20.769c-1.198,3.361-2.271,6.432-2.968,9.041
		c-0.665,2.619-1.197,4.712-1.542,6.068c-0.259,1.376-0.658,3.498-1.157,6.155c-0.465,2.658-0.786,5.898-1.115,9.449
		c-0.506,7.128-0.138,15.627,1.308,23.505c0.371,1.731,0.878,3.872,1.626,6.049c0.854,2.157,1.863,4.363,2.957,6.274
		c2.462,3.766,5.228,6.271,7.574,5.334c2.364-0.943,2.987-4.527,2.904-8.438c0.088-2.006-0.014-4.116-0.225-6.087
		C778.831,305.362,778.699,303.478,778.463,301.986z"/>
	<path class="st1" d="M614.755,524.762c34.338,90.997-37.773,142.505-106.45,118.467"/>
	<path class="st2" d="M536.274,657.635c9.177,0.602,17.869,0.374,29.873-2.325c5.957-1.508,12.772-3.644,20.447-7.571
		c7.629-3.937,16.18-9.71,24.447-18.755c8.075-9.217,12.873-18.416,15.86-26.495c2.924-8.123,4.379-15.142,5.007-21.244
		c1.314-12.221,0.418-20.777-1.041-29.722c-0.234-1.295-0.474-2.757-0.866-4.278c-0.426-1.511-0.91-3.107-1.441-4.724
		c-0.978-3.266-2.554-6.473-4.055-9.331c-3.181-5.662-6.954-9.506-9.749-8.428c-2.894,1.109-3.196,6.284-2.858,12.197
		c0.081,2.982,0.575,6.125,0.774,9.138c0.144,1.5,0.324,2.952,0.521,4.307c0.148,1.357,0.287,2.628,0.409,3.761
		c0.953,7.755,1.511,15.009,0.333,24.972c-0.547,4.983-1.779,10.594-4.089,17.008c-2.372,6.378-6.122,13.506-12.384,20.691
		c-6.447,7.022-13.139,11.585-19.205,14.728c-6.096,3.139-11.585,4.887-16.405,6.167c-9.746,2.277-16.912,2.663-24.603,2.466
		c-2.239,0.015-5.011-0.194-7.975-0.17c-2.935-0.178-6.092-0.082-8.994-0.171c-1.457-0.006-2.875,0.065-4.193,0.179
		c-1.3,0.054-2.51,0.188-3.577,0.422c-2.132,0.471-3.699,1.336-4.205,2.772c-0.506,1.438,0.227,3.029,1.839,4.68
		c0.805,0.825,1.827,1.665,3.012,2.501c1.203,0.775,2.58,1.512,4.058,2.241c2.937,1.532,6.403,2.549,9.739,3.493
		C530.328,656.891,533.598,657.527,536.274,657.635z"/>
	<path class="st1" d="M623.013,358.255c-96.131-16.485-130.26,77.276-96.794,108.017c2.953,2.713,3.63,7.173,1.44,10.532
		c-17.316,26.567-4.627,55.9,17.571,66.797c3.381,1.659,4.991,5.505,4.261,9.2c-5.832,29.512,12.597,43.725,69.663,41.467
		c61.29-2.423,89.821-61.107,98.674-141.247c8.854-80.14-44.506-105.738-29.494-205.119c7.336-48.566-13.302-65.729-50.16-49.721
		c-40.09,17.415-50.671,101.476-33.39,156.433"/>
	<path class="st2" d="M609.875,329.886c-2.753-18.662-2.954-38.534-0.103-58.074c1.4-9.764,3.657-19.445,6.911-28.593
		c3.263-9.104,7.634-17.764,13.334-24.445c2.852-3.313,6.007-6.087,9.378-8.088c2.976-1.793,7.982-3.745,12.212-4.942
		c4.318-1.192,8.57-1.825,12.045-1.524c3.507,0.324,5.974,1.281,7.852,3.056c3.959,3.345,6.412,12.173,6.351,21.591
		c0.052,4.724-0.326,9.652-0.988,14.62c-0.345,2.334-0.679,5.334-1.012,8.155l-0.993,8.525c-2.236,22.738-1.192,46.346,4.34,68.385
		c1.403,5.473,2.76,10.958,4.506,16.183c1.591,5.344,3.419,10.41,5.189,15.505c3.537,10.045,7.289,19.741,10.146,29.116
		c6.205,18.761,8.492,37.047,7.288,55.182c-0.147,2.261-0.294,4.514-0.439,6.756c-0.271,2.336-0.54,4.662-0.806,6.978
		c-0.597,4.632-1.25,9.209-1.984,13.718c-1.477,9.015-3.27,17.759-5.429,26.146c-4.283,16.639-10.402,33.537-19.855,48.462
		c-9.443,14.855-22.761,27.112-39.711,32.325c-4.239,1.259-8.605,2.336-13.189,2.782c-2.295,0.312-4.542,0.387-6.991,0.533
		c-2.556,0.058-5.121,0.116-7.695,0.174c-10.207,0.053-20.531-0.417-29.857-2.347c-4.539-1.036-9.016-2.33-12.174-4.264
		c-3.288-1.899-5.257-3.923-6.374-6.432c-1.154-2.509-1.558-6.151-1.12-10.484l0.782-5.184c0.339-2.811,0.155-5.627-0.615-8.304
		c-1.492-5.379-5.204-10.015-10.372-12.559l-2.18-1.225c-0.413-0.224-0.837-0.429-1.21-0.729l-2.343-1.622
		c-1.444-1.255-2.938-2.461-4.21-3.923c-2.606-2.841-4.774-6.112-6.365-9.64c-2.952-7.126-3.676-15.114-1.196-22.665
		c0.463-1.922,1.414-3.739,2.182-5.614c0.19-0.47,0.507-0.899,0.753-1.353l1.022-1.766c0.628-1.227,1.399-2.284,1.916-3.481
		c0.523-1.172,0.964-2.361,1.266-3.599c1.228-4.936,0.468-10.305-2.091-14.719c-0.639-1.107-1.369-2.143-2.214-3.132
		c-0.851-0.99-1.854-1.89-2.685-2.827l-0.929-0.926l-0.792-1.081c-4.349-5.643-6.503-14.014-6.047-22.712
		c0.309-8.707,2.921-17.662,7.103-25.722c2.117-4.021,4.546-7.909,7.445-11.418c2.791-3.596,6.042-6.8,9.47-9.754
		c6.955-5.799,14.906-10.365,23.475-13.295c8.57-2.931,17.641-4.397,26.749-4.652c1.817-0.003,4.059-0.295,6.457-0.605
		c2.402-0.242,4.945-0.693,7.333-1.369c4.748-1.052,8.95-3.111,9.6-6.749c0.578-3.239-2.965-6.376-7.937-8.88
		c-2.503-1.102-5.352-2.006-8.117-2.69c-2.775-0.616-5.493-0.818-7.669-0.885c-10.981,0.058-22.313,1.602-33.334,5.151
		c-11.016,3.537-21.574,9.281-30.839,16.797c-18.383,15.166-31.443,37.727-32.864,63.031c-0.308,6.312,0.091,12.812,1.758,19.284
		c1.628,6.448,4.429,12.892,8.695,18.582l1.605,2.124l1.837,1.962l0.107,0.103l-0.003,0.185l-0.052,0.027l-0.976,1.684
		c-0.391,0.712-0.839,1.381-1.175,2.132c-1.347,2.997-2.777,5.943-3.664,9.169c-4.21,12.647-3.225,27.011,1.916,39.118
		c2.652,6.044,6.276,11.575,10.66,16.38c2.158,2.442,4.631,4.562,7.123,6.641l3.986,2.808c0.652,0.483,1.369,0.872,2.077,1.273
		l1.065,0.598l0.118,0.05l0.021,0.041l-0.005,0.021c0.102-0.867-0.277,1.742-0.506,3.301c-0.729,6.976-0.452,15.064,3.029,22.911
		c0.444,0.963,0.812,1.96,1.357,2.871l1.741,2.686c0.609,0.87,1.171,1.801,1.851,2.588l2.129,2.266
		c0.722,0.74,1.444,1.496,2.189,2.191l2.34,1.784c1.57,1.195,3.161,2.353,4.775,3.14c6.492,3.779,12.878,5.482,19.042,6.918
		c12.311,2.537,23.895,2.931,35.156,2.904c2.799-0.062,5.588-0.124,8.368-0.188c2.873-0.159,5.953-0.287,8.909-0.68
		c5.973-0.607,11.889-2,17.637-3.739c11.497-3.606,22.135-9.617,30.942-17.1c8.886-7.454,15.96-16.225,21.784-25.232
		c11.469-18.186,18.145-37.24,22.863-55.45c2.365-9.179,4.299-18.616,5.884-28.247c0.788-4.817,1.487-9.682,2.122-14.592
		c0.286-2.463,0.574-4.936,0.863-7.42c0.178-2.599,0.356-5.209,0.535-7.828c0.149-2.625,0.406-5.248,0.456-7.901
		c-0.056-2.664-0.113-5.338-0.171-8.022c0.065-5.379-0.712-10.75-1.294-16.171c-0.221-2.727-0.805-5.379-1.313-8.06
		c-0.531-2.672-1.002-5.381-1.601-8.042c-1.428-5.202-2.634-10.618-4.375-15.671c-3.178-10.389-6.986-20.183-10.442-30.015
		c-1.688-4.857-3.455-9.75-4.892-14.593c-1.634-4.856-2.821-9.734-4.09-14.625c-4.912-19.535-5.837-39.891-3.912-60.505l0.875-7.733
		c0.296-2.6,0.538-5.033,0.976-8.107c0.755-5.864,1.216-11.868,1.122-18.085c-0.093-6.204-0.736-12.665-2.682-19.363
		c-1.903-6.61-5.427-13.811-11.647-19.44c-3.069-2.789-6.751-5.048-10.562-6.493c-3.812-1.47-7.692-2.214-11.396-2.492
		c-7.443-0.512-14.1,0.762-20.242,2.484c-6.182,1.904-11.446,3.801-17.807,7.528c-5.922,3.602-10.886,8.19-15.014,13.096
		c-4.16,4.911-7.422,10.193-10.219,15.541c-2.769,5.361-5.102,10.813-6.94,16.31c-3.749,10.989-6.125,22.073-7.539,33.073
		c-2.842,22.006-2.214,43.714,1.32,64.53c0.735,4.152,2.917,10.145,5.966,14.696c2.966,4.588,6.77,7.629,9.848,6.631
		c3.571-1.152,4.829-5.52,5.396-10.463C610.657,339.217,610.393,333.623,609.875,329.886z"/>
</g>
</svg>
