<?xml version="1.0" encoding="utf-8"?>
<!-- Generator: Adobe Illustrator 22.1.0, SVG Export Plug-In . SVG Version: 6.00 Build 0)  -->
<svg version="1.1" id="_x31__1_" xmlns="http://www.w3.org/2000/svg" xmlns:xlink="http://www.w3.org/1999/xlink" x="0px" y="0px"
	 viewBox="0 0 850 815" style="enable-background:new 0 0 850 815;" xml:space="preserve">
<style type="text/css">
	.st0{fill:#E5B267;}
	.st1{fill:#FFFFFF;}
	.st2{fill:#FF9345;}
	.st3{fill:#FFD8A9;}
	.st4{fill:#4D261E;}
	.st5{fill:#4D251D;}
</style>
<g>
	<path class="st0" d="M765.554,274.321c-8.913,16.604-83.018,81.757-102.186,97.061c-19.128,15.341-65.117,37.033-65.117,37.033
		s5.09,88.148-6.388,132.869c3.827,11.479,5.089,16.605,26.818,2.527c21.696-14.041,60.028-5.09,76.634,1.3
		c16.603,6.388-6.391,34.47-24.257,44.685c-17.905,10.215-141.784,51.113-236.319,60.028c-20.43-1.263-17.866,19.167,1.298,38.333
		c19.132,19.168,40.861,28.12,49.813,39.598c8.916,11.515-2.561,33.208-12.776,30.645c-10.215-2.527-60.028-19.13-83.022-48.512
		c-14.078,17.867-30.681,44.687-72.804,48.512c-42.162,3.825-26.857-16.605-1.302-34.47c25.559-17.905,45.989-62.591,38.335-71.543
		c-7.69-8.915-157.124-44.686-203.11-63.853c-45.985-19.168-93.237-19.168-123.882-40.86c-30.645-21.73-1.298-42.16,30.645-47.286
		c31.947-5.089,98.363,6.39,120.055,34.508c-3.826-97.098,15.341-164.776,15.341-164.776s-44.426-36.628-82.166-86.774
		c-10.549-14.04-20.579-29.157-28.973-44.797C43.897,167.008,68.149,133.8,79.667,123.585c11.478-10.215,30.645-2.563,35.735,16.603
		c5.125,19.168,7.687,42.161,19.167,58.765l0.741,1.04c11.183,15.935,20.988,24.516,20.988,24.516l2.564-12.778
		c-2.564-47.25,81.72-91.973,111.1-102.188c29.382-10.215,53.675-12.778,53.675-25.555c0-12.778,5.09-54.901,15.305-66.416
		c10.215-11.477,26.818-7.652,39.597,3.825c12.776,11.516,22.991,60.028,22.991,60.028l83.022,5.125c0,0,3.827-52.375,21.729-57.463
		c11.999-3.455,24.554,2.897,33.841,13.594c4.568,5.277,8.322,11.591,10.846,18.314c7.69,20.43,11.514,54.938,11.514,54.938
		s24.257,14.04,44.686,40.86c20.467,26.82,43.425,68.978,42.159,86.846c-1.262,17.905-2.56,43.46-2.56,43.46
		s57.498-47.286,79.195-75.368c21.729-28.118,39.594-30.645,53.673-10.215C793.674,221.946,774.507,257.717,765.554,274.321z"/>
	<path class="st1" d="M399.419,206.942c-11.239-0.898-58.729-6.993-75.51-15.38c-16.782-8.391-54.536,12.583-44.749,44.746
		c9.79,32.161,30.764,83.9,8.39,117.46c-22.371,33.56-40.552,127.248,4.196,177.589c44.745,50.34,132.842,54.535,183.181,6.993
		c50.341-47.544,44.749-135.639,29.365-174.792c-15.382-39.154-13.984-72.714,4.196-96.485
		c18.178-23.773-2.796-67.122-27.968-64.325C455.351,205.543,434.376,209.738,399.419,206.942z"/>
	<path class="st2" d="M365.501,269.149c1.654,4.953,6.605,54.477,13.208,74.287c6.606,19.81,24.764-34.668,24.764-34.668
		s14.855-41.27,9.904-39.619c-4.952,1.651-26.413-11.556-23.111-18.159C385.315,259.244,365.501,269.149,365.501,269.149z"/>
	<path class="st3" d="M540.121,42.681c-16.642,29.977-15.417,70.986-35.621,73.883c-24.554,3.492-115.634-24.517-154.153-14.004
		c-38.557,10.512-117.491,41.49-147.134,91.08c-49.033,81.943-5.387,114.26-3.603,115.558c-1.6-0.593-29.643-11.254-48.216-40.86
		c-10.324-16.454-17.717-38.704-16.084-68.346c11.183,15.935,20.988,24.516,20.988,24.516l2.564-12.778
		c-2.564-47.25,81.72-91.973,111.1-102.188c29.382-10.215,53.675-12.778,53.675-25.555c0-12.778,5.09-54.901,15.305-66.416
		c10.215-11.477,26.818-7.652,39.597,3.825c12.776,11.516,22.991,60.028,22.991,60.028l83.022,5.125c0,0,3.827-52.375,21.729-57.463
		C518.279,25.633,530.834,31.985,540.121,42.681z"/>
	<path class="st4" d="M201.819,305.955c-5.409-5.726-12.584-13.347-18.997-23.009c-6.49-9.567-12.275-21.152-14.923-33.56
		c-1.444-6.178-1.97-12.533-1.767-18.796c0.101-6.268,1.096-12.456,2.641-18.302c2.957-11.753,8.303-22.023,13.396-29.945
		c5.078-7.95,12.374-17.064,21.657-25.486c4.625-4.266,9.627-8.286,15.133-11.981c5.434-3.786,11.362-7.247,17.307-10.584
		c24.006-13.161,49.18-23.193,63.977-30.051c6.171-2.892,24.841-11.195,21.91-14.526c0.276-4.456-19.614,0.567-26.289,2.416
		c-15.939,4.362-42.086,13.079-68.055,26.336c-6.46,3.386-12.939,6.969-19.124,11.109c-6.243,4.033-12.163,8.648-17.422,13.41
		c-10.662,9.491-19.056,19.896-24.961,29.132c-5.909,9.199-12.196,21.267-15.671,35.585c-1.799,7.107-2.924,14.745-2.928,22.543
		c-0.113,7.783,0.755,15.731,2.728,23.255c3.721,15.174,11.248,28.56,19.334,38.931c8.042,10.496,16.751,18.069,23.554,23.2
		c2.869,2.128,8.655,6.239,14.078,8.793c5.372,2.644,10.174,3.911,10.545,1.741c1.835-1.302-1.302-4.991-5.212-9.109
		C208.772,313.033,204.148,308.326,201.819,305.955z"/>
	<path class="st4" d="M407.043,69.705c-0.794-4.141-1.911-9.637-3.428-16.19c-1.538-6.513-3.576-14.223-7.135-21.919
		c-3.482-7.672-8.81-15.489-15.932-21.059c-7.523-5.817-15.993-8.225-23.245-8.509c-3.623-0.139-7.802,0.209-12.188,1.673
		c-4.298,1.391-9.049,4.231-12.333,7.919c-3.547,3.525-5.731,7.658-7.777,11.733c-1.741,4.093-3.17,8.246-4.099,12.285
		c-3.751,16.201-3.682,30.956-3.348,39.755c0.301,3.733,0.584,14.368,4.698,14.238c3.976,1.688,7.28-9.337,8.117-12.935
		c2.355-8.606,3.98-23.207,7.85-36.365c0.939-3.302,2.183-6.32,3.46-9.135c1.444-2.563,2.859-5.091,4.539-6.556
		c1.523-1.662,2.967-2.389,4.802-3.044c1.785-0.588,3.751-0.783,5.582-0.705c3.628,0.103,8.551,1.496,12.49,4.448
		c4.302,3.228,8.187,8.233,11.277,14.163c3.146,5.9,5.5,12.468,7.785,18.653c2.259,6.178,4.541,11.871,6.791,15.971
		c0.925,1.716,2.884,5.14,5.23,7.651c2.339,2.528,4.94,4.03,6.472,2.593c2.009-0.656,2.045-3.473,1.738-6.504
		C408.062,74.826,407.367,71.44,407.043,69.705z"/>
	<path class="st4" d="M490.954,85.575c-5.507-2.705-15.13-5.517-25.287-7.631c-10.153-2.138-20.822-3.524-28.284-4.282
		c-7.462-0.739-18.195-1.506-28.571-1.427c-10.374,0.049-20.364,0.894-26.299,2.448c-2.492,0.626-9.831,2.712-8.993,6.785
		c-0.384,4.145,6.925,5.561,9.356,6.09c5.833,1.2,15.424,1.862,25.334,2.608c9.91,0.72,20.147,1.571,27.286,2.278
		c7.139,0.728,17.339,1.93,27.195,3.196c9.863,1.239,19.389,2.498,25.348,2.482c2.485-0.035,9.929,0.03,10.379-4.107
		C500.051,90.189,493.276,86.685,490.954,85.575z"/>
	<path class="st4" d="M567.265,101.848c-0.26-8.814-3.112-22.687-7.515-36.718c-1.085-3.515-2.315-7.052-3.624-10.568
		c-0.69-1.77-1.372-3.523-2.177-5.327c-0.788-1.773-1.825-3.866-2.905-5.593c-4.336-7.188-10.15-12.547-15.769-15.964
		c-5.51-3.37-13.769-6.62-23.342-5.499c-4.382,0.39-10.462,2.512-14.452,6.236c-4.165,3.665-6.538,7.997-8.267,11.789
		c-5.949,14.325-8.989,28.313-9.334,37.142c-0.094,1.826-0.171,5.524,0.483,8.713c0.642,3.211,2.057,5.765,4.121,5.362
		c2.05,0.461,3.566-1.724,4.911-4.285c1.335-2.584,2.482-5.675,3.109-7.235c2.833-7.427,7.197-20.134,12.885-31.936
		c1.35-2.612,2.808-4.597,4.092-5.561c0.657-0.498,1.227-0.867,1.938-1.083c0.305-0.172,0.747-0.185,1.103-0.326l1.519-0.223
		c4.049-0.4,8.206,1.059,11.405,3.022c3.192,1.925,6.903,5.263,9.664,9.662c0.737,1.127,1.259,2.125,1.934,3.522
		c0.66,1.365,1.306,2.887,1.966,4.411c1.28,3.109,2.568,6.326,3.776,9.576c4.904,12.986,9.029,25.825,11.837,33.308
		c0.594,1.568,1.755,4.685,3.032,7.243c1.354,2.562,2.721,4.692,4.821,4.359c2.017,0.533,3.588-2.087,4.223-5.3
		C567.411,107.349,567.328,103.678,567.265,101.848z"/>
	<path class="st4" d="M649.5,279.373c4.186-9.457,8.083-26.827,6.49-44.891c-0.686-9.001-2.402-18.104-4.988-26.316
		c-2.663-8.18-5.844-15.551-9.094-21.294c-1.492-2.936-3.569-5.969-5.652-9.275c-2.318-3.162-4.752-6.602-7.52-9.792
		c-5.481-6.42-11.678-12.631-17.898-18.493c-12.475-11.675-24.968-21.928-32.948-27.571c-3.381-2.316-13.204-9.377-15.373-5.773
		c-3.643,2.225,3.954,11.998,6.572,15.174c6.171,7.715,17.695,19.128,29.155,30.947c5.706,5.919,11.401,11.974,16.15,17.736
		c2.404,2.861,4.338,5.722,6.272,8.361c1.704,2.793,3.46,5.307,4.705,7.782c2.735,4.813,5.423,11.024,7.813,17.917
		c2.311,6.932,3.979,14.642,4.947,22.317c2.127,15.413,0.2,30.47-1.004,39.598c-0.37,1.874-0.828,5.726-1.132,9.109
		c-0.28,3.373,0.022,6.505,2.082,6.903c1.672,1.33,4.084-0.673,6.395-3.608C646.794,285.29,648.51,281.327,649.5,279.373z"/>
	<path class="st4" d="M173.035,344.387c-14.025-14.546-36.947-39.025-57.029-67.236c-10.055-14.027-19.783-28.894-27.416-43.031
		c-7.625-14.178-13.084-27.9-15.729-39.379c-2.837-11.414-4.158-25.706-0.838-40.158c1.658-7.077,4.636-13.794,9.116-18.294
		c4.139-4.36,10.843-6.637,15.652-5.511c4.919,1.048,8.721,5.334,11.311,12.149c2.583,6.714,3.936,14.618,5.677,22.368
		c3.486,16.264,10.538,29.516,16.955,38.217c2.641,3.694,8.416,10.717,14.412,15.368c5.938,4.743,11.582,7.283,12.018,5.026
		c2.129-0.954-1.463-5.64-5.43-11.296c-4.071-5.614-8.26-12.477-10.146-16.028c-4.596-8.458-9.707-20.175-11.975-34.414
		c-1.306-7.393-2.226-15.845-5.354-25.12c-1.611-4.607-3.896-9.557-7.774-14.058c-3.921-4.517-9.232-8.129-15.511-9.659
		c-6.203-1.529-12.49-0.954-18.05,0.867c-5.554,1.818-10.681,4.953-14.747,8.986c-8.067,7.984-12.079,17.905-14.339,26.981
		c-4.379,18.28-2.604,35.75,0.664,48.969c3.102,13.394,9.301,28.698,17.641,43.91c8.401,15.246,18.602,30.351,29.419,44.746
		c21.55,28.848,46.475,53.2,62.77,66.091c3.37,2.741,10.219,8.029,16.432,11.898c6.221,3.867,11.731,6.362,12.17,4.095
		c2.112-0.963-1.538-5.724-6.322-11.062C181.825,353.47,175.925,347.472,173.035,344.387z"/>
	<path class="st4" d="M187.716,531.023c0.601-9.211,0.504-24.337,0.95-39.988c0.389-15.652,1.418-31.816,2.427-43.079
		c1.052-11.26,2.964-27.345,5.42-42.808c2.397-15.473,5.234-30.33,6.311-39.498c0.396-3.828,1.951-15.248-2.267-15.552
		c-3.642-2.137-8.626,8.536-10.164,12.193c-3.798,8.68-8.231,23.728-11.533,39.634c-3.358,15.896-5.477,32.616-6.565,44.313
		c-1.048,11.699-1.995,28.529-1.57,44.771c0.362,16.24,1.995,31.839,4.157,41.064c0.853,3.876,3.82,15.276,7.786,13.835
		C186.869,546.372,187.41,534.858,187.716,531.023z"/>
	<path class="st4" d="M623.506,400.23c12.485-5.222,28.802-13.145,46.068-24.305c17.303-11.07,35.687-25.122,52.642-41.372
		c16.98-16.214,32.56-34.509,45.339-52.794c3.185-4.582,6.341-9.059,9.095-13.644c2.825-4.556,5.644-8.86,8.143-13.416
		c5.053-9.012,9.291-18.663,10.745-28.532c0.732-4.795,0.921-10.519-0.193-16.148c-1.07-5.623-3.196-11.347-6.874-16.677
		c-3.631-5.284-9.155-10.243-16.196-12.779c-6.726-2.596-14.811-2.546-21.584-0.402c-6.852,2.092-12.562,5.723-17.48,9.693
		c-4.945,3.992-9.25,8.396-13.255,12.905c-2.013,2.255-3.914,4.546-5.789,6.836l-5.406,6.49c-3.605,4.313-7.342,8.526-11.103,12.678
		c-15.083,16.599-31.287,31.617-46.476,44.191c-15.213,12.549-29.414,22.626-40.206,30.055c-4.505,3.113-13.564,9.195-21.261,14.351
		c-7.643,5.238-13.827,9.803-11.68,11.086c-0.367,2.427,7.156,0.475,15.953-3.06c8.837-3.441,18.772-8.69,23.724-11.399
		c11.85-6.464,27.169-16.002,43.489-28.378c16.288-12.401,33.569-27.607,49.606-44.642c4.005-4.26,7.974-8.597,11.799-13.049
		l5.706-6.669c1.782-2.122,3.563-4.215,5.369-6.195c7.11-7.87,15.105-14.916,22.389-16.97c3.583-1.038,6.721-1.025,9.758,0.132
		c2.786,1.021,5.249,3.083,7.156,5.86c1.908,2.76,3.204,6.12,3.817,9.437c0.649,3.33,0.555,6.465,0.068,9.84
		c-0.946,6.582-4.022,14.094-8.542,22.179c-2.213,4.067-4.94,8.267-7.581,12.562c-2.579,4.355-5.554,8.608-8.543,12.967
		c-12.006,17.397-26.608,34.905-42.485,50.618c-15.855,15.741-33.013,29.572-49.109,40.825
		c-16.058,11.341-31.2,19.846-42.656,26.104c-2.409,1.291-6.007,3.222-10.019,5.376c-4.073,2.026-8.546,4.322-12.61,6.562
		c-8.259,4.085-14.883,8.051-12.942,9.535c-0.65,2.424,6.986,1.213,16.239-1.061c4.546-1.328,9.476-2.945,13.937-4.466
		C616.991,402.959,620.873,401.276,623.506,400.23z"/>
	<path class="st4" d="M593.005,555.059c3.193-6.977,6.697-19.137,9.218-31.994c2.572-12.849,4.07-26.363,4.792-35.809
		c0.693-9.449,1.222-23.037,0.588-36.127c-0.585-13.091-2.253-25.641-4.383-33.014c-0.852-3.103-3.732-12.199-7.701-10.878
		c-4.182-0.209-4.81,9.058-5.115,12.141c-0.635,7.406-0.508,19.501-0.741,32.016c-0.188,12.515-0.816,25.44-1.472,34.453
		c-0.693,9.011-1.999,21.887-3.672,34.293c-1.625,12.412-3.544,24.362-4.008,31.781c-0.148,3.095-0.896,12.353,3.276,12.764
		C587.521,566.573,591.704,558.003,593.005,555.059z"/>
	<path class="st4" d="M665.138,541.591c5.55,0.489,11.347,1.905,16.825,4.323c5.427,2.428,10.295,6.543,12.311,11.437
		c2.275,4.828,0.976,10.124-3.073,15.021c-1.262,1.092-2.318,2.342-3.74,3.388c-1.552,0.977-2.822,2.085-4.585,3.053
		c-3.471,1.971-7.469,3.86-11.506,5.673c-8.133,3.614-16.828,7.003-25.698,9.859c-9.257,2.728-18.721,5.518-28.341,8.355
		c-19.378,5.677-39.318,11.521-59.499,16.841c-40.312,10.754-81.835,18.772-120.907,20.459c-19.515,0.894-38.364,0.523-55.91-1.012
		c-17.572-1.525-33.929-4.081-48.613-6.896c-29.4-5.56-64.706-15.32-102.519-27.511c-37.893-12.458-78.553-25.828-118.5-38.962
		c-20.001-6.538-39.822-13.016-59.03-19.293c-4.806-1.561-9.573-3.11-14.292-4.643c-4.694-1.478-8.561-2.922-10.713-4.664
		c-1.113-0.866-1.752-1.683-2.233-2.636c-0.483-0.966-0.78-2.158-0.817-3.52c-0.097-2.727,0.922-5.958,2.623-8.489
		c1.571-2.428,4.218-4.612,7.323-6.303c3.112-1.687,6.7-2.918,10.459-3.857c3.747-0.958,7.755-1.558,11.669-2.102
		c3.892-0.665,7.762-0.845,11.516-1.232c15.076-0.919,28.796,0.129,40.392,2.077c9.701,1.508,28.832,6.336,44.057,13.271
		c15.398,6.485,26.977,14.2,26.292,10.915c3.221,0.061-6.824-10.244-22.171-19.022c-15.102-9.198-35.339-15.602-45.67-17.797
		c-12.341-2.796-27.141-4.59-43.632-4.142c-4.109,0.268-8.346,0.348-12.634,0.933c-4.295,0.47-8.68,0.987-13.324,2.022
		c-4.626,1.031-9.479,2.476-14.303,4.926c-4.77,2.457-9.599,5.935-13.262,11.149c-3.497,5.053-5.749,11.06-5.771,17.853
		c0.015,3.377,0.678,6.975,2.25,10.36c1.552,3.403,4.044,6.434,6.736,8.59c5.492,4.394,11.18,6.102,15.848,7.757
		c4.694,1.608,9.435,3.23,14.216,4.867c19.131,6.507,38.875,13.224,58.794,19.999c39.902,13.462,80.337,27.272,118.437,39.754
		c38.114,12.427,74.258,22.478,104.678,28.235c15.188,2.909,32.19,5.564,50.578,7.136c18.406,1.586,38.091,1.928,58.446,0.925
		c40.78-1.893,83.802-10.499,124.644-21.822c20.459-5.605,40.479-11.732,59.799-17.702c4.824-1.496,9.613-2.98,14.353-4.448
		c4.756-1.495,9.344-2.846,14.267-4.506c9.583-3.283,18.558-6.994,27.202-11.061c4.332-2.07,8.528-4.15,12.772-6.695
		c2.13-1.236,4.285-2.99,6.36-4.477c2.052-1.618,3.889-3.686,5.731-5.559l2.383-3.374l1.147-1.691
		c0.345-0.599,0.609-1.27,0.907-1.904c0.555-1.291,1.106-2.577,1.658-3.855c0.359-1.375,0.638-2.782,0.915-4.168
		c0.352-1.374,0.402-2.786,0.348-4.208c-0.055-1.409,0.039-2.835-0.225-4.189c-0.595-2.701-1.132-5.42-2.412-7.716
		c-4.6-9.614-12.736-15.02-20.144-18.072c-7.556-2.986-14.876-4.26-21.507-4.495c-5.557-0.226-13.773,0.016-22.519,1.843
		c-8.793,1.699-18.112,4.87-26.121,8.642c-16.087,7.601-26.825,17.047-23.626,17.267c-0.975,3.219,11.256-3.602,27.01-8.828
		c7.871-2.609,16.603-4.75,24.594-5.693C653.397,540.902,660.546,541.146,665.138,541.591z"/>
	<path class="st4" d="M419.181,682.696c3.145,6.455,8.935,14.133,16.671,21.288c7.767,7.11,17.357,13.698,27.439,19.385
		c5.14,2.929,10.12,5.32,13.686,7.877c1.807,1.269,3.283,2.59,4.385,3.901c0.958,1.155,1.756,2.568,2.166,3.881
		c0.446,1.318,0.5,2.496,0.367,3.243c-0.109,0.744-0.406,1.209-0.842,1.756c-0.758,0.958-3.171,2.029-6.019,2.375
		c-2.912,0.341-6.268,0.373-10.584-0.424c-4.288-0.58-8.815-1.598-13.436-2.944c-9.243-2.717-18.776-7.132-27.381-12.753
		c-17.409-11.154-30.145-27.185-36.521-37.506c-1.517-2.087-4.006-6.493-6.538-10.188c-2.274-3.761-4.802-6.821-6.587-5.651
		c-2.19-0.111-2.463,3.863-1.962,8.742c0.736,4.77,2.445,10.28,3.595,12.916c4.599,12.977,18.042,32.755,37.939,46.535
		c9.823,6.944,20.995,12.418,32.012,15.81c5.507,1.683,10.944,2.945,16.128,3.682c5.092,0.946,10.777,1.161,15.859,0.488
		c2.59-0.354,5.43-0.972,8.481-2.222c3.014-1.25,6.348-3.223,9.098-6.343c2.706-3.045,4.745-7.162,5.336-11.452
		c0.638-4.263,0.048-8.4-1.222-12.072c-1.273-3.702-3.229-7.033-5.812-10.02c-2.465-2.815-5.248-5.081-8.023-6.944
		c-5.611-3.735-10.944-5.992-15.558-8.454c-9.534-4.927-18.37-10.378-25.556-15.917c-7.127-5.582-12.566-11.209-16.185-15.794
		c-0.734-0.98-1.828-2.444-3.052-4.079c-1.084-1.711-2.481-3.556-3.551-5.378c-1.241-1.77-2.253-3.472-3.293-4.604
		c-1.049-1.125-2.094-1.696-3.023-1.177c-1.091-0.133-1.777,0.764-2.161,2.373c-0.396,1.607-0.512,3.927-0.113,6.398
		c0.236,2.534,1.074,5.133,1.814,7.537C417.621,679.28,418.531,681.345,419.181,682.696z"/>
	<path class="st4" d="M345.362,669.102c-2.63,6.402-6.516,14.726-12.239,23.308c-5.618,8.64-13.331,17.304-22.28,24.669
		c-4.56,3.569-9.348,6.91-14.368,9.669c-4.777,2.858-12.05,5.45-18.003,13.004c-2.856,3.915-4.611,8.345-4.799,13.52
		c-0.244,5.45,2.176,11.268,6.301,14.733c4.415,3.729,8.775,4.625,12.224,5.14c3.479,0.428,6.533,0.368,8.978,0.114
		c10.03-0.551,22.099-3.005,34.197-7.868c12.105-4.843,24.097-12.234,34.279-21.255c10.203-8.994,18.674-19.508,24.457-29.901
		c1.588-2.505,2.68-5.21,3.943-7.667c0.594-1.251,1.211-2.461,1.741-3.676c0.463-1.249,0.917-2.47,1.359-3.662
		c0.846-2.396,1.749-4.622,2.359-6.805c0.526-2.202,1.019-4.266,1.477-6.174c0.391-1.581,0.907-3.961,1.103-6.692
		c0.217-2.718,0.63-5.659,0.439-8.411c-0.396-5.524-1.389-9.852-3.53-9.199c-1.966-0.858-3.907,3.134-5.459,7.831
		c-0.784,2.358-1.93,4.85-2.681,7.137c-0.729,2.298-1.585,4.289-2.201,5.608c-0.664,1.587-1.386,3.305-2.159,5.139
		c-0.794,1.813-1.857,3.661-2.818,5.649c-0.493,0.99-0.994,2.005-1.509,3.04c-0.599,0.994-1.207,2.009-1.832,3.045
		c-1.309,2.031-2.398,4.286-3.957,6.354c-5.655,8.619-13.404,17.33-22.411,24.77c-8.996,7.462-19.316,13.536-29.52,17.486
		c-10.203,3.956-20.176,5.958-28.404,6.411c-2.093,0.244-3.892,0.19-5.405,0.016c-1.487-0.152-2.434-0.701-2.161-0.553l-0.022-0.164
		c-0.029-0.575,0.367-1.913,1.048-2.825c0.671-0.941,2.245-2.356,4.291-3.639c2.071-1.349,4.773-2.69,7.759-4.473
		c5.961-3.431,11.565-7.545,16.811-11.95c10.309-9.031,18.79-19.595,24.532-30.013c5.852-10.366,9.225-20.345,10.784-27.98
		c0.382-1.583,0.835-3.976,1.114-6.676c0.399-2.672,0.504-5.668,0.442-8.396c-0.167-5.482-1.36-9.856-3.438-9.223
		c-2.028-0.895-3.759,3.106-5.539,7.779c-0.879,2.338-1.825,4.865-2.685,7.155C346.758,665.763,345.964,667.777,345.362,669.102z"/>
	<path class="st4" d="M358.24,137.882c-5.507,0.236-14.964,6.297-19.861,9.918c-4.908,3.486-13.882,10.98-15.572,16.7
		c-0.396,1.13-1.299,4.692,1.948,7.228c2.928,2.91,5.999,2.152,7.073,1.964c4.858-1.099,13.009-7.315,17.674-10.641
		c4.551-3.366,13.276-9.537,15.729-14.352c0.497-1.014,2.009-4.052-0.403-7.395C362.828,137.702,359.389,137.817,358.24,137.882z"/>
	<path class="st4" d="M493.537,184.231c0.591-2.546-0.051-6.36-1.353-10.094c-1.28-3.743-3.232-7.358-4.719-9.792
		c-1.495-2.427-3.831-5.807-6.584-8.65c-2.735-2.853-5.845-5.156-8.383-5.785c-1.063-0.29-4.244-0.94-6.903,2.207
		c-2.974,2.856-2.466,5.788-2.347,6.755c0.78,4.578,5.811,11.337,8.126,15.339c2.514,3.878,6.254,11.427,9.979,14.2
		c0.809,0.544,3.192,2.328,7.084,0.976C492.448,188.443,493.312,185.313,493.537,184.231z"/>
	<path class="st4" d="M390.531,224.87c-0.775,3.663-1.813,8.464-3.855,13.423c-2.021,4.989-5.01,10.015-9.167,14.078
		c-4.114,4.102-9.225,7.212-14.22,8.622c-5.039,1.46-9.631,1.222-13.386,0.157c-3.696-0.976-8.129-3.168-11.379-6.76
		c-3.276-3.521-5.114-8.28-5.118-13.781c-0.051-5.456,1.705-11.083,4.088-15.725c2.426-4.735,5.427-8.716,7.694-11.812
		c1.752-2.63,8.322-10.069,5.652-12.068c-1.441-3.142-10.19,2.455-12.987,4.835c-3.366,2.657-7.651,6.699-11.47,12.47
		c-3.817,5.808-6.951,13.415-7.328,21.93c-0.181,4.233,0.312,8.694,1.767,12.9c1.441,4.237,3.781,8.128,6.559,11.249
		c5.594,6.318,12.624,9.732,18.569,11.335c5.884,1.727,13.988,2.037,21.623-0.384c7.687-2.327,14.884-7.091,20.336-13.074
		c5.539-5.969,9.163-13.27,10.995-19.831c1.9-6.613,2.19-12.585,1.915-16.953c-0.109-1.832-0.493-5.457-1.502-8.379
		c-1.001-2.937-2.489-5.117-4.056-4.488c-1.694-0.197-2.554,2.189-3.206,4.902C391.406,220.247,390.865,223.338,390.531,224.87z"/>
	<path class="st4" d="M457.266,264.983c-4.596,0.086-11.789,1.35-18.878,1.75c-7.113,0.513-14.023-0.294-18.561-1.647
		c-4.505-1.212-10.628-4.144-14.419-8.538c-2.009-2.194-3.54-4.792-4.64-7.202c-1.07-2.433-1.683-4.697-2.144-6.478
		c-0.21-0.747-0.54-2.25-0.987-3.72c-0.485-1.457-1.124-3.004-2.745-3.412c-1.419-0.838-3.059,0.02-4.31,1.647
		c-1.287,1.597-1.991,3.871-2.248,5.012c-0.693,2.736-0.824,6.574,0.087,10.716c0.932,4.118,2.848,8.539,5.782,12.409
		c5.96,8.095,15.196,12.361,21.478,14.086c6.294,1.907,15.744,2.748,24.184,1.403c8.478-1.218,15.914-3.843,20.071-6.078
		c1.763-0.938,6.83-3.821,5.481-6.861C464.97,264.778,459.171,264.96,457.266,264.983z"/>
	<path class="st4" d="M408.738,286.67c-2.296,7.353-5.608,19.525-10.473,31.603c-2.416,6.037-5.169,12.054-7.987,17.522
		c-1.372,2.822-2.656,4.745-3.403,5.34c-0.369,0.316-0.413,0.273-0.388,0.265l-0.113-0.02c-0.323-0.055-1.389-0.681-1.987-1.629
		c-0.618-0.9-1.314-2.835-1.6-5.404c-0.164-1.298-0.266-2.764-0.363-4.39c-0.142-1.749-0.254-3.639-0.493-5.393
		c-0.403-3.593-1.023-7.077-1.665-10.512c-2.717-13.645-6.128-26.069-8.304-33.475c-0.482-1.55-1.4-4.612-2.47-7.171
		c-1.088-2.551-2.351-4.677-3.986-4.208c-1.651-0.348-2.732,2.012-3.25,4.939c-0.541,2.925-0.516,6.332-0.471,8.025
		c0.065,8.159,2.383,21.24,4.331,34.276c0.446,3.248,0.896,6.517,1.15,9.638c0.169,1.594,0.203,3.056,0.304,4.607
		c0.062,1.681,0.142,3.483,0.345,5.376c0.417,3.792,1.321,8.014,3.892,12.003c2.612,3.9,6.217,6.641,10.614,7.893
		c2.161,0.606,4.93,0.777,7.523,0.144c2.651-0.6,5.147-2.057,6.929-3.68c3.616-3.307,5.314-6.973,6.769-9.878
		c2.97-6,5.782-12.618,8.083-19.276c4.639-13.322,6.986-26.767,7.179-34.914c0.21-3.423-0.098-13.539-3.498-12.988
		C412.237,274.297,409.811,283.637,408.738,286.67z"/>
	<path class="st4" d="M412.8,359.861c-2.184,2.609-5.372,7.032-9.498,10.508c-4.048,3.58-8.913,5.869-12.441,6.676
		c-3.298,0.822-8.605,0.813-13.339-1.054c-4.785-1.754-8.368-4.995-10.392-7.175c-0.497-0.426-1.244-1.4-2.209-2.224
		c-0.857-0.842-1.985-1.6-3.149-1.188c-1.258,0.051-1.846,1.28-2.038,2.88c-0.098,1.546,0.268,3.376,0.602,4.211
		c1.179,4.253,6.094,10.297,12.91,13.375c6.714,3.299,14.851,3.559,20.252,2.188c5.249-1.163,12.272-4.714,17.187-9.85
		c5.046-5.021,8.093-11.086,9.047-14.935c0.504-1.615,1.236-6.469-1.273-6.883C416.261,355.291,413.775,358.833,412.8,359.861z"/>
	<path class="st5" d="M404.928,187.644c-26.567-1.928-24.035,9.651-23.93,15.178c0.109,5.53,12.253,15.69,23.216,16.251
		c10.962,0.561,26.176-7.812,28.004-16.255C434.043,194.376,420.549,188.777,404.928,187.644z"/>
	<path class="st4" d="M424.84,760.15c-3.16-0.182-8.1,0.336-13.216,0.688c-5.111,0.382-10.393,0.551-14.081,0.548
		c-3.693-0.027-8.974-0.246-14.078-0.671c-5.111-0.399-10.048-0.958-13.211-0.806c-1.309,0.093-5.282,0.179-5.858,3.023
		c-1.193,2.638,2.329,4.976,3.569,5.698c2.909,1.774,8.184,3.489,13.814,4.53c5.623,1.07,11.567,1.412,15.707,1.438
		c4.135,0.009,10.085-0.28,15.718-1.302c5.637-0.99,10.925-2.661,13.853-4.409c1.244-0.709,4.788-3.018,3.617-5.668
		C430.122,760.373,426.149,760.254,424.84,760.15z"/>
	<path class="st4" d="M421.619,784.748c-2.587,0.099-6.425,1.018-10.404,1.821c-3.972,0.828-8.093,1.495-10.992,1.854
		c-2.902,0.333-7.066,0.655-11.122,0.785c-4.056,0.157-8.003,0.166-10.538,0.68c-1.045,0.242-4.259,0.784-4.691,3.646
		c-0.946,2.731,2.043,4.65,3.105,5.229c2.485,1.435,6.969,2.564,11.707,2.998c4.741,0.462,9.689,0.179,13.105-0.221
		c3.414-0.414,8.289-1.306,12.787-2.871c4.502-1.536,8.593-3.689,10.669-5.668c0.895-0.813,3.351-3.38,1.791-5.813
		C425.943,784.508,422.689,784.738,421.619,784.748z"/>
</g>
</svg>
