<?xml version="1.0" encoding="utf-8"?>
<!-- Generator: Adobe Illustrator 22.1.0, SVG Export Plug-In . SVG Version: 6.00 Build 0)  -->
<svg version="1.1" id="_x31__1_" xmlns="http://www.w3.org/2000/svg" xmlns:xlink="http://www.w3.org/1999/xlink" x="0px" y="0px"
	 viewBox="0 0 850 815" style="enable-background:new 0 0 850 815;" xml:space="preserve">
<style type="text/css">
	.st0{fill:#FFFFFF;}
	.st1{fill:#F4CD9A;}
	.st2{fill:#A88C82;}
	.st3{fill:#4D261E;}
	.st4{fill:#4C251D;}
	.st5{fill:#4D251D;}
	.st6{fill:#FCB5A2;}
</style>
<g>
	<path class="st0" d="M230.99,637.059c5.078-2.539,71.083-43.158,86.312-74.891c50.775-2.538,105.355-50.772,115.511-77.429
		c10.152-26.656-88.853-66.005-119.316-91.391c-30.464-25.386-86.312-40.617-86.312-40.617L230.99,637.059z"/>
	<path class="st0" d="M563.627,311.047c-7.305-26.574-67.822-77.35-78.956-84.905c-16.599-11.261-37.863-18.943-56.047-26.523
		c-21.029-8.765-36.007-13.784-58.088-19.785c-43.607-11.852-93.484-17.219-140.449-11.21v267.353
		c25.675,11.618,50.917,20.815,79.504,29.061c35.86,10.344,144.321,28.288,204.254,4.575
		C573.779,445.897,579.061,367.198,563.627,311.047z"/>
	<path class="st1" d="M572.733,333.985c-18.169-52.545-96.608-114.369-114.053-123.456c-13.544-5.485-67.374-23.447-92.321-30.645
		c-23.773-6.857-43.786-12.63-66.729-15.35l-26.405,1.961c0,0-18.15-3.438-43.363-0.758c0.136,0.597,0.225,1.228,0.225,1.918
		v156.427c47.413-4.133,96.277-22.033,130.485-59.306c5.214,68.416,81.728,185.664,184.09,174.644
		C544.661,439.42,590.902,386.531,572.733,333.985z"/>
	<path class="st1" d="M374.074,181.493c-13.706,27.744-42.39,45.167-64.066,38.914c-21.68-6.254-28.146-33.817-14.443-61.559
		c13.703-27.746,42.387-45.168,64.067-38.914C381.311,126.188,387.777,153.749,374.074,181.493z"/>
	<path class="st2" d="M363.851,194.016c-10,18.812,16.213,56.331,61.429,55.136c45.212-1.195,57.316-20.204,53.823-24.604
		c-3.495-4.398-28.623-12.323-29.186-22.657c-0.563-10.333,12.492-49.522-6.456-59.277c-18.949-9.754-38.225,0.882-51.325,12.775
		C379.036,167.281,363.851,194.016,363.851,194.016z"/>
	<path class="st3" d="M374.986,174.578c2.48-3.406,5.535-8.206,8.115-14.45c1.28-3.118,2.421-6.609,3.158-10.425
		c0.751-3.887,1.007-8.155,0.459-12.405c-0.531-4.259-1.797-8.584-3.967-12.578c-2.172-3.984-5.366-7.562-9.106-10.117
		c-3.738-2.583-7.91-4.059-11.7-4.732c-3.819-0.684-7.312-0.644-10.336-0.371c-6.091,0.522-12.903,2.504-19.536,5.628
		c-6.684,3.14-13.07,7.372-18.872,12.096c-11.701,9.437-20.134,21.516-23.451,29.507c-0.739,1.647-2.059,5.012-2.556,8.065
		c-0.523,3.053-0.268,5.701,1.446,5.922c1.423,1.011,3.365-0.651,5.282-2.728c1.901-2.098,3.854-4.629,4.892-5.863
		c4.771-5.991,12.951-15.662,23.45-23.338c5.209-3.845,10.862-7.343,16.217-9.738c5.385-2.435,10.553-3.833,14.536-4.154
		c3.989-0.405,8.606,0.075,12.038,2.399c1.741,1.157,3.314,2.761,4.548,4.839c1.214,2.089,2.096,4.586,2.565,7.233
		c0.484,2.66,0.496,5.393,0.182,8.114c-0.328,2.808-0.952,5.59-1.713,8.242c-1.525,5.31-3.532,10.085-4.905,13.793
		c-1.088,3.084-5.023,12.429-1.718,13.456C366.467,185.446,372.917,177.488,374.986,174.578z"/>
	<path class="st3" d="M454.515,200.816c1.509-3.822,3.054-9.044,4.265-15.156c1.187-6.133,2.13-13.086,1.783-20.815
		c-0.17-3.85-1.004-8.305-2.519-12.14c-1.506-3.912-3.648-7.538-6.271-10.647c-5.212-6.3-12.528-10.118-18.79-11.365
		c-6.285-1.382-14.174-0.707-21.184,2.02c-7.095,2.633-13.608,6.853-19.24,11.51c-5.658,4.672-10.588,9.965-14.387,15.127
		c-3.778,5.18-6.459,10.178-7.986,14.128c-0.639,1.649-1.831,4.973-2.163,7.986c-0.387,3.001,0.04,5.587,1.75,5.736
		c1.479,0.936,3.292-0.757,5.102-2.818c1.767-2.093,3.602-4.579,4.548-5.808c2.257-2.945,5.25-6.794,8.978-10.85
		c3.744-4.035,8.257-8.232,13.252-11.956c4.99-3.743,10.35-6.897,15.376-8.646c5.047-1.833,9.489-1.993,12.79-1.297
		c3.307,0.697,7.159,2.577,10.293,6.181c1.561,1.777,2.915,3.933,3.913,6.296c1.016,2.436,1.591,4.757,1.89,7.669
		c0.566,5.817,0.243,12.208-0.219,17.837c-0.469,5.665-1.081,10.702-1.433,14.525c-0.156,3.223-1.643,12.626,1.71,13.021
		C448.935,213.337,453.392,204.062,454.515,200.816z"/>
	<path class="st4" d="M374.29,481.31c19.748,7.556,40.074,10.688,60.202,11.606c10.079,0.501,20.15,0.103,30.183-0.817
		c10.035-0.93,20.044-2.733,29.917-5.748c39.608-12.528,71.328-45.688,82.987-86.889c3.024-10.253,4.524-20.857,4.7-31.387
		c0.28-5.271-0.271-10.517-0.611-15.737c-0.63-5.187-1.458-10.332-2.665-15.372c-4.765-20.206-14.019-38.758-25.758-55.11
		c-5.883-8.189-12.385-15.877-19.374-23.089c-6.967-7.147-14.098-13.941-21.682-20.521c-15.127-13.049-31.751-25.258-51.201-33.553
		c-1.911-0.872-5.939-1.671-9.398-1.814c-3.518-0.035-6.411,0.538-6.407,2.177c-0.862,1.357,1.168,3.528,3.741,5.471
		c2.55,2.066,5.681,3.962,7.396,4.838c17.543,7.977,33.041,19.785,47.294,32.576c7.117,6.405,14.014,13.209,20.531,20.11
		c6.456,6.875,12.425,14.149,17.786,21.808c10.702,15.307,18.899,32.303,23.036,50.347c1.052,4.506,1.758,9.078,2.301,13.677
		c0.255,4.611,0.76,9.228,0.477,13.878c-0.179,9.284-1.499,18.646-4.189,27.725c-2.653,9.07-6.167,17.856-10.891,25.92
		c-4.707,8.063-10.254,15.551-16.536,22.33c-6.42,6.643-13.517,12.538-21.156,17.609l-5.884,3.543
		c-1.937,1.226-4.068,2.088-6.088,3.158l-3.07,1.536l-3.121,1.252c-2.076,0.844-4.153,1.685-6.368,2.293
		c-8.671,2.773-17.859,4.596-27.196,5.599c-9.335,1.001-18.814,1.555-28.337,1.254c-18.993-0.486-38.37-3.115-56.479-9.559
		c-0.892-0.34-2.236-0.69-3.775-0.981c-1.536-0.251-3.231-0.527-4.832-0.788c-3.179-0.416-6.164-0.303-6.529,1.255
		c-1.177,1.15,0.462,3.582,3.009,6.039c0.633,0.609,1.317,1.229,2.026,1.809c0.724,0.523,1.466,1.023,2.185,1.482
		C371.956,480.152,373.316,480.896,374.29,481.31z"/>
	<path class="st4" d="M288.616,160.496c-8.862-2.232-17.354-3.299-26.475-3.319c-9.121-0.013-17.57,1.02-26.417,3.089
		c-0.441,0.14-1.354,2.895-0.843,5.973c0.311,3.102,1.838,5.558,2.266,5.59c8.577-0.026,16.459-0.052,24.969-0.078
		c8.47,0.041,16.313,0.083,24.872,0.28c0.426-0.026,1.993-2.455,2.367-5.549C289.927,163.414,289.06,160.644,288.616,160.496z"/>
	<path class="st5" d="M304.242,189.944c-17.381-7.537-31.654,16.716-40.33,40.276c-8.677,23.56-7.883,48.045,5.33,53.656
		c14.956,6.348,29.621-9.612,40.768-40.283C322.599,208.968,318.078,195.944,304.242,189.944z"/>
	<path class="st0" d="M278.281,221.539c1.519-4.574,11.85-20.968,21.334-15.77c9.486,5.198,5.242,23.122,3.252,27.991
		c-1.989,4.87-2.205,0.65-4.6,3.421c-2.397,2.772-5.06,5.202-5.056,2.523c0.003-2.678,0.511-5.657-1.57-3.743
		c-2.08,1.912-2.494,5.171-4.189,2.84c-1.698-2.331-0.213-6.897-2.057-5.628c-1.843,1.27-3.313,6.331-4.471,2.007
		c-1.16-4.324,1.652-10.354-0.667-7.796C277.937,229.939,276.48,226.966,278.281,221.539z"/>
	<path class="st5" d="M438.028,236.712c-17.385-7.536-31.657,16.716-40.334,40.278c-8.676,23.56-7.882,48.045,5.334,53.653
		c14.953,6.35,29.617-9.612,40.768-40.281C456.386,255.737,451.865,242.711,438.028,236.712z"/>
	<path class="st0" d="M412.566,268.294c1.467-4.419,11.446-20.254,20.607-15.233c9.164,5.021,5.065,22.335,3.143,27.038
		c-1.923,4.704-0.982,0.567-3.295,3.244c-2.315,2.675-6.036,5.083-6.033,2.497c0.003-2.588,0.332-3.386-1.677-1.539
		c-2.011,1.848-3.27,1.71-4.911-0.541c-1.64-2.25,0.819-5.455-0.961-4.229c-1.78,1.228-4.442,4.484-5.562,0.308
		c-1.12-4.178,2.836-8.37,0.597-5.9C412.235,276.407,410.826,273.535,412.566,268.294z"/>
	<path class="st5" d="M347.979,281.521c-12.504-3.678-19.344,4.856-17.664,8.48c1.679,3.623,8.549,7.281,14.564,7.945
		c6.019,0.661,15.599,2.47,16.804-3.918C362.889,287.641,356.93,284.155,347.979,281.521z"/>
	<path class="st6" d="M312.292,379.156c-2.985-21.924,7.341-52.107,9.766-53.423c2.428-1.314,17.238-7.772,17.308-5.716
		c0.067,2.055,6.709,16.245,10.147,20.66c3.438,4.414-20.266,40.801-28.86,42.319C312.058,384.516,312.292,379.156,312.292,379.156z
		"/>
	<path class="st3" d="M337.814,315.123c-2.543,1.1-6.367,3.286-10.533,5.092c-4.152,1.855-8.588,3.35-11.512,3.859
		c-2.911,0.601-7.164,0.7-10.104-0.708c-3.064-1.387-5.144-4.374-5.939-6.137c-0.176-0.392-0.526-1.159-0.894-1.968
		c-0.402-0.796-0.819-1.734-1.847-1.981c-0.889-0.516-1.947,0.053-2.663,1.215c-0.769,1.141-0.971,2.74-1.028,3.531
		c-0.368,3.849,2.364,10.015,8.072,13.279c5.81,3.321,12.257,2.842,16.149,2.107c4.031-0.728,9.21-2.595,13.779-5.109
		c4.616-2.483,8.562-5.681,10.484-8.052c0.843-0.975,3.048-4.046,1.412-5.383C342.013,313.162,338.885,314.703,337.814,315.123z"/>
	<path class="st3" d="M374.847,335.105c-1.999,1.246-5.187,3.253-8.933,3.999c-3.718,0.863-7.533,0.298-9.824-0.672
		c-2.303-0.939-5.397-3.238-7.411-6.48c-2.117-3.181-2.949-6.854-3.478-9.148c-0.159-0.49-0.292-1.451-0.66-2.385
		c-0.302-0.907-0.837-1.847-1.859-2.018c-0.952-0.447-1.861,0.138-2.623,1.104c-0.693,0.962-1.189,2.268-1.326,2.931
		c-0.938,3.142-0.657,8.916,2.099,13.984c2.574,5.159,7.564,9.181,11.616,10.785c4.001,1.738,10.372,2.43,15.842,0.608
		c5.535-1.626,9.821-5.505,11.385-8.386c0.374-0.566,0.949-1.839,1.141-3.008c0.143-1.222-0.082-2.279-1.074-2.636
		c-0.84-0.603-1.884-0.319-2.742,0.106C376.078,334.289,375.306,334.873,374.847,335.105z"/>
	<path class="st3" d="M347.054,342.469c-3.231,4.635-7.916,12.699-12.611,21.148c-2.398,4.183-4.6,8.819-6.846,11.647
		c-1.156,1.468-2.312,2.505-3.456,3.132c-1.177,0.669-2.381,0.971-3.276,0.987c-1.777-0.008-3.204-0.611-4.326-3.735
		c-1.098-3.121-0.906-7.654-0.56-12.352c0.639-9.246,2.617-18.024,3.739-23.378c0.371-2.255,2.151-8.882,0.073-9.197
		c-1.689-1.413-5.233,4.871-6.213,7.115c-2.543,5.224-5.464,14.558-6.586,24.59c-0.502,4.865-1.174,10.39,0.578,16.092
		c0.863,2.793,2.537,5.8,5.211,7.747c2.543,2,5.847,2.735,8.376,2.612c2.595-0.078,5.23-0.846,7.654-2.227
		c2.483-1.396,4.594-3.461,6.231-5.617c1.665-2.181,2.948-4.501,4.089-6.702c1.092-2.153,2.2-4.334,3.296-6.498
		c4.332-8.64,8.351-17.055,10.356-22.339c0.84-2.207,3.323-8.791,1.22-9.243C352.442,334.771,348.405,340.533,347.054,342.469z"/>
	<path class="st6" d="M502.396,376.259c-7.024,20.875-29.642,32.099-50.515,25.073c-20.874-7.026-32.1-29.643-25.076-50.517
		c7.028-20.873,29.645-32.1,50.519-25.073C498.198,332.768,509.424,355.385,502.396,376.259z"/>
	<path class="st3" d="M453.261,342c2.027,0.623,5.373,1.194,8.808,1.908c3.435,0.699,6.949,1.565,9.386,2.249
		c2.431,0.696,5.877,1.802,9.17,3.01c3.298,1.195,6.447,2.464,8.5,2.997c0.858,0.206,3.413,0.936,4.056-0.528
		c1.015-1.231-0.968-3.184-1.674-3.81c-1.652-1.519-4.792-3.435-8.242-5.029c-3.444-1.611-7.189-2.864-9.833-3.619
		c-2.647-0.744-6.493-1.643-10.271-2.079c-3.772-0.455-7.451-0.471-9.653-0.046c-0.929,0.164-3.642,0.786-3.423,2.365
		C449.863,341.003,452.421,341.723,453.261,342z"/>
	<path class="st3" d="M449.382,358.143c3.365,2.367,11.859,5.931,16.369,7.968c4.539,1.976,12.881,5.879,16.894,6.785
		c0.839,0.178,3.352,0.728,3.906-0.768c0.919-1.303-0.998-3.059-1.655-3.639c-3.1-2.816-11.57-6.991-16.204-9.008
		c-4.606-2.081-13.387-5.557-17.554-5.966c-0.87-0.095-3.459-0.338-3.806,1.219C446.592,356.145,448.685,357.639,449.382,358.143z"
		/>
	<path class="st3" d="M439.655,372.097c3.071,3.108,11.431,8.313,15.942,11.061c4.51,2.746,12.97,7.79,17.139,9.09
		c0.872,0.273,3.474,1.071,4.109-0.394c1.011-1.236-0.894-3.182-1.533-3.832c-3.07-3.109-11.43-8.313-15.942-11.061
		c-4.508-2.747-12.969-7.79-17.141-9.09c-0.87-0.273-3.475-1.071-4.107,0.394C437.112,369.501,439.013,371.447,439.655,372.097z"/>
	<path class="st4" d="M223.195,771.038c-1.047-173.081-1.564-196.766-1.552-369.847c0.01-169.381,0.527-204.677,1.552-374.058
		c0.092-8.64,2.878-26.939,6.191-24.988c3.313-1.954,6.1,16.348,6.192,24.988c1.022,169.381,1.542,204.677,1.551,374.058
		c0.013,173.081-0.504,196.765-1.551,369.847c-0.092,8.64-2.879,32.801-6.192,30.85C226.073,803.841,223.287,779.68,223.195,771.038
		z"/>
	<path class="st3" d="M230.272,533.074c3.522,5.252,9.364,11.483,17.019,17.249c7.645,5.779,17.195,10.922,27.519,14.444
		c10.31,3.561,21.341,5.514,31.692,5.896c10.326,0.452,20.116-0.855,27.539-2.245c7.56-1.465,16.758-3.701,26.32-7.341
		c9.565-3.607,19.426-8.68,28.272-14.827c8.857-6.131,16.742-13.187,23.043-20.063c6.261-6.915,11.18-13.441,14.43-18.611
		c2.905-4.241,10.14-17.504,6.809-18.112c-1.954-2.655-11.123,8.741-14.528,12.207c-3.907,4.323-9.149,9.964-15.385,15.97
		c-6.277,5.967-13.752,12.068-21.905,17.362c-8.151,5.305-17.031,9.684-25.685,12.848c-8.646,3.191-17.025,5.214-24.001,6.569
		c-7.126,1.317-15.309,2.415-24.434,2.131c-9.072-0.24-18.798-1.79-27.95-4.647c-9.167-2.825-17.707-6.957-24.734-11.544
		c-7.037-4.577-12.688-9.463-16.56-13.511c-1.78-1.568-4.782-5.119-7.627-8.051c-2.598-3.061-5.227-5.471-6.322-4.255
		c-1.694,0.139-1.004,3.646,0.481,7.854C225.973,526.443,228.639,531.01,230.272,533.074z"/>
	<path class="st3" d="M282.966,508.841c2.504-5.747,5.661-15.84,6.794-27.152c0.563-5.612,0.56-11.559-0.17-17.081
		c-0.684-5.508-2.074-10.552-3.593-14.596c-1.518-4.034-3.827-8.89-7.429-13.546c-1.765-2.339-3.87-4.605-6.255-6.634
		c-2.325-2.068-5.197-3.923-8.053-5.295c-5.78-2.825-12.069-3.881-17.613-3.612c-5.567,0.294-10.347,2.047-13.453,4.034
		c-1.309,0.803-3.837,2.632-5.236,4.848c-1.464,2.161-1.857,4.335-0.497,5.099c0.968,1.278,2.882,0.778,4.776,0.264
		c1.874-0.597,3.919-1.134,4.948-1.351c2.451-0.54,5.71-1.028,9.437-0.717c3.709,0.347,7.85,1.421,11.473,3.487
		c1.831,1.043,3.444,2.16,4.998,3.654c1.573,1.438,2.988,3.036,4.202,4.726c2.485,3.333,4.211,6.964,5.373,10.067
		c1.161,3.104,2.294,7.064,2.935,11.499c0.676,4.413,0.852,9.272,0.651,14.199c-0.387,9.809-2.233,19.589-2.705,25.709
		c-0.186,2.544-0.898,10.243,2.264,10.443C278.643,518.317,281.913,511.272,282.966,508.841z"/>
	<path class="st3" d="M237.523,637.632c5.81-1.427,15.047-5.082,24.123-10.03c9.109-4.885,17.914-11.112,23.767-15.779
		c5.857-4.67,13.843-11.863,20.685-19.533c6.882-7.634,12.686-15.596,15.547-20.821c1.193-2.198,4.585-8.773,1.737-10.154
		c-2.12-2.34-7.524,2.512-9.34,4.103c-4.387,3.808-10.81,10.734-17.734,17.521c-6.888,6.829-14.354,13.421-19.779,17.751
		c-5.431,4.325-13.487,10.138-21.689,15.209c-8.165,5.125-16.416,9.579-21.199,12.824c-1.99,1.339-8.072,5.251-6.393,7.926
		C227.807,639.768,235.076,638.222,237.523,637.632z"/>
	<path class="st3" d="M320.025,85.062c-0.322-3.141-1.923-8.176-4.52-12.949c-2.55-4.804-6.098-9.225-8.796-12.071
		c-2.72-2.824-6.975-6.57-11.658-9.336c-4.649-2.811-9.608-4.639-12.729-5.106c-1.309-0.248-5.206-0.57-5.303,1.177
		c-0.696,1.614,2.504,3.268,3.499,3.915c2.464,1.461,6.553,3.61,10.466,6.343c3.934,2.696,7.612,6.003,10.003,8.477
		c2.361,2.502,5.498,6.323,8.013,10.379c2.553,4.03,4.513,8.214,5.86,10.74c0.6,1.026,2.106,4.297,3.751,3.674
		C320.36,90.288,320.214,86.38,320.025,85.062z"/>
	<path class="st3" d="M346.193,66.408c-0.73-3.152-2.969-8.082-6.167-12.645c-3.158-4.597-7.265-8.706-10.328-11.315
		c-3.082-2.581-7.823-5.945-12.882-8.289c-5.031-2.391-10.267-3.773-13.496-3.964c-1.36-0.132-5.37-0.114-5.297,1.637
		c-0.56,1.67,2.89,3.041,3.98,3.601c2.677,1.244,7.097,3.035,11.402,5.432c4.327,2.356,8.458,5.355,11.184,7.632
		c2.702,2.309,6.35,5.88,9.395,9.75c3.085,3.845,5.588,7.902,7.265,10.333c0.733,0.981,2.663,4.151,4.214,3.323
		C347.201,71.682,346.549,67.725,346.193,66.408z"/>
</g>
</svg>
