<?xml version="1.0" encoding="utf-8"?>
<!-- Generator: Adobe Illustrator 22.1.0, SVG Export Plug-In . SVG Version: 6.00 Build 0)  -->
<svg version="1.1" id="_x31__1_" xmlns="http://www.w3.org/2000/svg" xmlns:xlink="http://www.w3.org/1999/xlink" x="0px" y="0px"
	 viewBox="0 0 850 815" style="enable-background:new 0 0 850 815;" xml:space="preserve">
<style type="text/css">
	.st0{fill:#7F7877;}
	.st1{fill:#C97F71;}
	.st2{fill:#F29C88;}
	.st3{fill:#E5B267;}
	.st4{fill:#FFFFFF;}
	.st5{fill:#FF9345;}
	.st6{fill:#CAAF95;}
	.st7{fill:#4D261E;}
	.st8{fill:#4D251D;}
</style>
<g>
	<rect x="285.498" y="84.572" class="st0" width="389.854" height="598.707"/>
	<rect x="12.253" y="11.406" class="st1" width="46.988" height="779.71"/>
	<polygon class="st2" points="285.498,679.728 59.241,791.116 59.241,11.406 288.977,89.725 	"/>
	<path class="st3" d="M337.002,360.817c-16.313,8.897-106.767,38.555-139.389,50.418c-32.625,11.864-31.14,38.555-8.899,40.038
		c22.244,1.484,99.355-7.414,99.355-7.414l-4.45,220.948c0,0,180.911-60.799,244.675-38.555
		c63.765,22.243,91.937,31.14,127.526,47.452c35.589,16.311,38.557-7.415,35.589-34.107c-2.964-26.692-56.347-45.968-69.693-48.934
		c-13.346-2.966-19.276-4.45-19.276-4.45s51.898-59.313,57.829-74.142c5.932-14.829,26.694,17.795,65.247,14.829
		c38.557-2.966,54.866-10.381,60.798-29.659c5.932-19.277,4.449-20.76-19.276-17.794c-23.727,2.965-37.072-2.966-60.798-16.313
		c-23.726-13.345-23.726-13.345-23.726-13.345s11.863-4.449,34.107-22.244c22.241-17.795,80.074-60.797,74.142-114.181
		c-5.931-53.384-87.491-99.353-87.491-99.353s5.932-74.143-16.309-81.559c-22.244-7.414-59.315,54.868-59.315,54.868H526.811
		c0,0,13.346-37.073,4.449-56.35c-8.898-19.277-44.488-4.448-59.315,26.691c-14.83,31.14-34.107,48.935-34.107,48.935
		s-53.384,26.692-75.628,84.525C339.969,348.954,337.002,360.817,337.002,360.817z"/>
	<path class="st4" d="M645.297,316.638c-21.935,3.133-82.332,0.875-113.866-3.505c-31.531-4.379-48.176,21.021-34.16,36.788
		c14.015,15.765-15.766,68.32-41.166,95.471c-25.402,27.154-39.417,71.824-25.402,105.108
		c14.015,33.284,46.424,67.444,109.489,53.428c63.062-14.013,93.11-96.452,101.602-114.741
		c11.386-24.525,32.494-92.763,59.561-120.873c22.773-23.649,35.034-53.43,28.028-63.064c-7.66-10.53-23.65,0.876-23.65,0.876
		l-3.503-4.38C702.23,301.747,688.218,310.506,645.297,316.638z"/>
	<path class="st5" d="M620.47,359.902c0.699,35.076,0,54.72,15.435,47.002c15.432-7.717,18.938-50.51,18.938-50.51l-16.135-8.419
		L620.47,359.902z"/>
	<path class="st6" d="M185.456,424.683c0,19.599-12.71,35.486-28.388,35.486c-15.679,0-28.386-15.887-28.386-35.486
		c0-19.596,12.707-35.483,28.386-35.483C172.746,389.2,185.456,405.087,185.456,424.683z"/>
	<path class="st6" d="M138.297,432.123c0,11.269-7.308,20.405-16.322,20.405s-16.323-9.136-16.323-20.405
		c0-11.268,7.308-20.404,16.323-20.404S138.297,420.856,138.297,432.123z"/>
	<path class="st7" d="M429.704,203.212c-7.653,3.588-19.299,11.541-29.993,21.427c-10.772,9.811-20.354,21.554-26.466,30.119
		c-6.054,8.608-13.956,21.542-19.642,34.956c-5.787,13.363-9.427,26.99-10.275,35.397c-0.461,3.523-0.999,14,2.812,13.81
		c3.536,1.478,7.076-7.862,8.479-10.87c3.148-7.325,7.765-19.492,13.75-31.543c5.892-12.093,13.253-23.918,18.829-31.864
		c5.646-7.895,14.365-18.759,23.821-28.327c9.382-9.64,19.333-18.031,25.202-23.428c2.372-2.319,10.01-8.756,7.443-11.602
		C442.58,197.63,432.873,201.609,429.704,203.212z"/>
	<path class="st7" d="M534.931,174.35c1.041-3.952,2.36-9.292,3.857-15.515c0.737-3.127,1.522-6.417,2.242-10.083
		c0.759-3.731,1.255-8.261,0.91-12.722c-0.315-4.495-1.347-9.385-4.15-14.117c-2.718-4.799-7.924-8.74-13.329-10.129
		c-5.505-1.409-10.555-0.626-14.459,0.557c-3.963,1.214-7.135,2.842-9.806,4.423c-1.348,0.785-2.686,1.671-4.056,2.619
		c-1.254,0.925-2.566,1.891-3.923,2.89c-2.658,2.041-5.442,4.285-8.185,6.775c-5.518,4.938-10.986,10.73-15.767,16.87
		c-9.654,12.251-16.168,25.936-18.455,34.607c-0.546,1.789-1.4,5.439-1.604,8.636c-0.125,3.239,0.351,5.97,2.273,6.105
		c1.637,0.973,3.677-0.897,5.479-3.313c1.887-2.393,3.594-5.349,4.554-6.789c4.295-7.005,11.238-18.531,20.331-28.951
		c4.506-5.228,9.475-10.192,14.403-14.454c2.448-2.152,4.919-4.09,7.263-5.867c1.179-0.862,2.323-1.697,3.421-2.497
		c1.035-0.711,2.031-1.37,2.977-1.917c3.684-2.322,8.741-4.039,11.288-3.289c1.308,0.409,2.4,0.952,3.394,2.501
		c1.013,1.528,1.854,4.013,2.163,6.806c0.354,2.856,0.279,5.637-0.116,8.853c-0.43,3.444-0.848,6.779-1.242,9.927
		c-0.786,6.449-1.216,12.317-1.064,16.837c0.042,1.867,0.226,5.692,1.245,9.028c0.933,3.392,3.211,6.01,4.788,4.791
		c1.85-0.365,2.533-2.422,3.447-5.035C533.666,179.263,534.467,176.015,534.931,174.35z"/>
	<path class="st7" d="M629.333,180.635c-10.332-2.673-34.495-2.707-47.426-2.237c-12.934,0.332-37.049,1.858-47.197,5.167
		c-2.125,0.671-8.425,2.756-7.59,6.426c-0.23,3.759,6.266,4.839,8.439,5.208c10.403,1.676,34.13,0.616,46.877,0.289
		c12.744-0.462,36.493-0.872,46.775-3.188c2.143-0.504,8.558-1.983,8.097-5.722C637.916,182.865,631.498,181.174,629.333,180.635z"
		/>
	<path class="st7" d="M706.981,198.509c0.408-7.492,0.402-20.011,0.306-33.176l-0.073-4.99c-0.003-0.771-0.056-1.802-0.118-2.827
		c-0.037-1.015-0.195-2.004-0.303-3.001c-0.535-3.969-1.577-7.81-3.148-11.432c-1.567-3.614-3.676-7.029-6.395-9.927
		c-2.698-2.902-6.073-5.208-9.514-6.54c-3.421-1.388-7.63-1.954-11.79-1.472c-4.144,0.505-8.032,1.962-11.42,3.779
		c-3.45,1.888-6.296,3.847-9.293,6.307c-3.033,2.514-5.57,5.108-7.91,7.737c-9.286,10.503-16.214,21.309-19.832,28.275
		c-1.509,2.918-5.751,11.63-2.242,13.134c2.584,2.792,9.373-4.032,11.666-6.258c5.482-5.319,13.493-15.188,22.218-23.983
		c2.163-2.186,4.41-4.24,6.493-5.84c2.123-1.65,4.7-3.3,6.767-4.357c2.142-1.097,4.029-1.666,5.51-1.836
		c1.46-0.124,2.639,0.033,3.642,0.454c1.942,0.694,4.647,3.061,6.592,7.369c0.965,2.095,1.715,4.547,2.145,7.075
		c0.082,0.633,0.227,1.269,0.266,1.903c0.059,0.623,0.135,1.24,0.178,2.122l0.315,4.921c0.835,13.192,2.211,26.084,4.338,33.807
		c0.427,1.607,1.344,4.835,2.734,7.467c1.373,2.655,3.309,4.595,4.975,3.675c1.903-0.159,2.635-2.426,3.142-5.07
		C706.721,203.174,706.879,200.081,706.981,198.509z"/>
	<path class="st7" d="M716.708,433.198c26.721-13.969,78.037-64.363,84.478-106.935c0.801-5.079,1.146-10.933,0.404-17.192
		c-0.69-6.272-2.6-12.815-5.478-18.935c-5.777-12.346-15.097-22.674-24.062-31.741c-18.077-18.444-38.405-33.061-51.49-40.193
		c-2.737-1.495-8.199-4.434-13.145-6.265c-4.922-1.878-9.247-2.713-9.478-0.73c-1.567,1.28,1.42,4.416,5.252,7.802
		c3.867,3.347,8.547,7.037,10.893,8.897c11.216,8.889,29.642,23.786,46.26,41.76c8.399,8.953,16.158,18.189,20.394,27.606
		c4.377,9.341,4.82,18.558,3.552,26.359c-1.166,7.758-4.577,17.268-10.042,27.025c-5.442,9.723-12.688,20.019-20.216,29.448
		c-15.093,19.062-32.882,34.556-43.933,43.482c-2.278,1.921-6.928,5.584-10.763,8.935c-3.828,3.344-6.828,6.469-5.28,7.762
		c0.206,1.994,4.534,1.177,9.497-0.683C708.503,437.745,714.008,434.784,716.708,433.198z"/>
	<path class="st7" d="M302.457,433.889c-14.765,5.284-39.726,13.075-66.463,15.286c-6.662,0.608-13.401,0.95-20.049,0.931
		c-6.733,0.069-13.063-0.147-18.172-1.385c-2.537-0.611-4.887-1.51-6.687-2.563c-1.874-1.095-3.493-2.48-4.673-3.928
		c-2.383-3.023-2.859-5.577-2.307-8.233c0.529-2.663,2.559-6.151,5.827-8.842c3.322-2.79,8.205-5.1,14.074-7.168
		c3.085-1.074,6.227-2.167,9.408-3.275c3.224-1.157,6.484-2.33,9.766-3.51c6.53-2.404,13.109-4.887,19.596-7.397
		c25.948-10.053,50.649-20.23,65.306-26.868c6.102-2.862,24.393-10.887,21.666-13.848c0.404-4.124-19.177,0.994-25.668,2.89
		c-15.619,4.335-40.9,13.278-66.959,22.588c-6.51,2.301-13.079,4.622-19.562,6.914c-6.533,2.22-12.984,4.41-19.205,6.523
		c-6.517,2.263-13.427,5.163-19.306,10.002c-5.892,4.889-10.129,11.296-11.677,18.472c-0.755,3.547-0.824,7.686,0.227,11.711
		c1.019,4.015,3.037,7.744,5.629,10.884c2.603,3.148,5.768,5.766,9.346,7.83c3.667,2.093,7.456,3.414,11.317,4.319
		c7.746,1.746,15.183,1.731,22.234,1.579c7.171-0.102,14.419-0.619,21.554-1.463c28.665-3.136,54.974-12.868,69.473-20.77
		c3.072-1.584,9.062-5.003,13.709-8.511c4.656-3.513,7.983-7.006,6.319-8.177c-0.232-2.04-4.837-0.878-10.154,0.886
		C311.75,430.622,305.569,432.794,302.457,433.889z"/>
	<path class="st7" d="M616.007,585.267c6.698-5.074,16.477-15.046,25.28-26.5c8.873-11.406,16.596-24.283,21.498-33.505
		c4.851-9.25,11.124-22.892,15.534-36.653c4.492-13.729,7.209-27.431,7.621-35.823c0.253-3.518,0.358-13.951-3.447-13.634
		c-3.578-1.359-6.75,8.177-7.982,11.288c-2.784,7.536-6.622,20.087-11.515,32.752c-4.814,12.693-10.788,25.406-15.333,34.087
		c-4.604,8.649-11.731,20.754-19.494,31.891c-7.699,11.182-15.895,21.434-20.545,27.983c-1.877,2.772-7.959,10.768-4.82,12.958
		C604.689,593.432,613.247,587.46,616.007,585.267z"/>
	<path class="st7" d="M690.754,523.089c5.287,2.814,12.764,5.878,21.689,7.846c8.909,1.996,19.22,2.89,29.684,2.15
		c10.463-0.686,21.038-3.069,30.375-6.776c4.646-1.835,9.109-3.802,13.328-6.513c4.191-2.661,8.052-6.044,10.839-9.976
		c1.36-1.878,2.776-4.39,3.68-7.028c0.923-2.649,1.485-5.519,1.548-8.587c0.036-3.065-0.441-6.369-1.795-9.682
		c-1.284-3.285-3.818-6.612-6.877-8.841c-3.037-2.29-6.763-3.684-10.115-4.177c-3.382-0.532-6.481-0.424-9.319-0.146
		c-5.646,0.566-10.579,1.928-14.64,2.419c-4.256,0.577-8.555,0.741-12.731,0.567c-4.176-0.226-8.209-0.822-11.994-1.592
		c-7.542-1.669-13.983-4.178-18.734-6.355c-1.969-0.937-5.906-2.836-9.307-4.583c-3.46-1.638-6.555-3.008-7.515-1.267
		c-1.723,0.841-0.417,4.205,2.232,7.589c2.559,3.467,6.523,6.668,8.544,8.237c4.856,3.702,12.103,7.702,21.032,10.509
		c4.475,1.338,9.345,2.412,14.475,2.987c5.13,0.524,10.5,0.576,15.899,0.051c5.609-0.546,10.217-1.671,14.232-1.934
		c1.972-0.152,3.72-0.111,5.035,0.128c1.344,0.234,2.1,0.644,2.744,1.134c0.631,0.52,0.966,0.915,1.291,1.743
		c0.306,0.784,0.496,1.815,0.476,2.913c-0.033,1.099-0.256,2.231-0.611,3.228c-0.365,1.019-0.775,1.772-1.462,2.745
		c-2.432,3.651-8.479,7.574-16.503,10.671c-7.762,3.207-16.641,5.424-25.55,6.344c-8.906,0.968-17.804,0.701-25.665-0.348
		c-7.877-1.024-14.686-2.835-19.839-4.244c-1.064-0.324-2.665-0.803-4.489-1.288c-1.774-0.578-3.759-1.205-5.668-1.656
		c-3.701-1.089-7.118-1.626-7.647,0.241c-1.522,1.246,0.546,4.079,3.674,6.975c1.61,1.346,3.457,2.721,5.188,3.896
		C688.026,521.549,689.659,522.472,690.754,523.089z"/>
	<path class="st7" d="M329.016,658.313c25.767-5.561,68.306-16.062,112.945-20.399c22.301-2.223,45.038-2.744,66.079-1.154
		c21.055,1.381,40.262,5.043,55.684,9.096c15.429,4.034,33.762,10.64,52.062,20.528c4.552,2.558,9.077,5.085,13.809,8.1
		c4.761,2.935,9.809,6.052,15.448,8.764c5.6,2.677,11.906,5.03,18.817,5.862c6.786,0.812,13.921,0.336,20.804-2.284
		c3.422-1.313,6.753-3.207,9.659-5.698c1.446-1.23,2.836-2.608,3.959-4.121l1.722-2.259l1.423-2.468
		c3.766-6.724,4.273-14.307,3.54-20.836c-0.826-6.607-3.011-12.494-5.705-17.816c-2.728-5.309-6.057-10.077-9.866-14.242
		c-14.748-15.948-32.22-24.519-45.625-28.269c-5.59-1.682-17.079-4.091-26.835-3.57c-9.763,0.31-17.295,2.72-15.692,4.359
		c-1.134,2.049,6.391,2.362,15.169,3.864c8.84,1.3,18.807,4.45,23.631,6.404c11.578,4.435,26.362,12.861,38.399,26.896
		c5.567,6.599,10.128,15.464,11.045,24.114c0.917,8.641-2.879,15.724-10.565,18.437c-3.809,1.396-8.436,1.743-12.964,1.124
		c-4.469-0.581-9.034-2.263-13.627-4.518c-4.582-2.252-9.136-5.086-13.832-8.039c-4.646-3.012-9.704-5.91-14.567-8.669
		c-19.703-10.793-39.371-17.881-55.799-22.183c-16.428-4.325-36.799-8.155-58.928-9.485c-22.102-1.55-45.934-0.77-68.95,1.902
		c-46.155,5.256-88.989,17.298-114.267,25.296c-10.615,3.327-41.892,13.847-38.222,16.691
		C286.152,668.06,318.244,660.603,329.016,658.313z"/>
	<path class="st7" d="M288.071,670.508c3.085-22.654,4.686-75.441,5.425-103.751c0.736-28.308,1.893-81.108-0.007-103.892
		c-0.397-4.759-1.614-18.944-5.369-17.863c-3.697-1.275-5.649,12.826-6.297,17.559c-3.086,22.655-4.686,75.442-5.422,103.751
		c-0.739,28.308-1.893,81.109,0.007,103.892c0.397,4.762,1.613,18.944,5.369,17.865
		C285.471,689.343,287.426,675.241,288.071,670.508z"/>
	<path class="st7" d="M279.524,104.031c-2.494,27.657-2.715,91.931-2.715,126.394c0,34.465,0.221,98.738,2.715,126.396
		c0.521,5.78,2.106,22.998,5.832,21.564c3.73,1.434,5.315-15.783,5.833-21.564c2.494-27.657,2.718-91.931,2.718-126.396
		c0-34.463-0.224-98.736-2.718-126.394c-0.519-5.781-2.103-22.998-5.833-21.564C281.63,81.033,280.045,98.251,279.524,104.031z"/>
	<path class="st7" d="M648.008,76.549c-36.549-2.493-121.48-2.716-167.022-2.716c-45.539,0-130.471,0.223-167.022,2.716
		c-7.637,0.521-30.387,2.106-28.495,5.834c-1.893,3.727,20.857,5.31,28.495,5.833c36.552,2.494,121.483,2.716,167.022,2.716
		c45.543,0,130.474-0.222,167.022-2.716c7.638-0.523,30.391-2.106,28.495-5.833C678.398,78.656,655.645,77.07,648.008,76.549z"/>
	<path class="st7" d="M679.427,134.08c2.494-5.363,2.718-17.824,2.718-24.505c0-6.683-0.224-19.144-2.718-24.505
		c-0.519-1.121-2.106-4.46-5.833-4.182c-3.727-0.278-5.314,3.061-5.833,4.182c-2.494,5.361-2.717,17.822-2.717,24.505
		c0,6.681,0.223,19.142,2.717,24.505c0.52,1.121,2.106,4.46,5.833,4.18C677.32,138.54,678.907,135.201,679.427,134.08z"/>
	<path class="st7" d="M674.895,597.26c2.494-8.042,2.717-26.734,2.717-36.758c0-10.023-0.223-28.714-2.717-36.759
		c-0.523-1.68-2.106-6.687-5.833-6.27c-3.727-0.417-5.314,4.589-5.833,6.27c-2.495,8.044-2.717,26.736-2.717,36.759
		c0,10.024,0.223,28.715,2.717,36.758c0.519,1.68,2.106,6.687,5.833,6.272C672.789,603.947,674.373,598.941,674.895,597.26z"/>
	<path class="st7" d="M618.912,674.636c-17.006-0.575-45.21-0.415-74.478-0.226c-29.286,0.281-59.614,0.573-80.787,0.777
		c-21.189,0.267-51.556,0.687-80.892,1.625c-29.336,0.925-57.629,2.447-74.609,4.364c-7.098,0.768-28.218,3.325-26.266,6.957
		c-1.574,3.813,19.609,4.426,26.713,4.701c17.006,0.576,45.211,0.417,74.478,0.228c29.286-0.281,59.615-0.573,80.787-0.777
		c21.189-0.268,51.557-0.687,80.892-1.625c29.336-0.925,57.629-2.447,74.609-4.364c7.098-0.77,28.219-3.326,26.266-6.957
		C647.199,675.524,626.017,674.911,618.912,674.636z"/>
	<path class="st7" d="M271.956,77.707c-25.238-11.286-85.691-32.24-118.144-43.364c-16.224-5.561-39.463-13.467-62.013-20.806
		c-2.819-0.913-5.629-1.821-8.409-2.719c-1.39-0.447-2.774-0.89-4.15-1.331c-1.519-0.45-3.023-0.899-4.522-1.344
		c-6.027-1.62-12.001-2.497-17.571-2.849c-11.17-0.679-20.628,0.45-27.542,1.521c-5.846,0.962-22.635,3.937-20.988,7.497
		c-1.197,3.882,16.177,4.041,21.81,4.142c6.799,0.172,15.718,0.103,25.29,1.39c4.785,0.65,9.724,1.678,14.634,3.253
		c1.219,0.423,2.445,0.849,3.681,1.277c1.358,0.496,2.724,0.998,4.098,1.499c2.75,0.996,5.53,2.003,8.32,3.014
		c22.336,8.044,45.586,16.071,61.82,21.634c32.454,11.125,93.051,31.658,119.906,38.225c5.609,1.372,22.34,5.43,22.194,1.442
		C292.927,87.122,277.229,80.065,271.956,77.707z"/>
	<path class="st7" d="M65.551,720.596c2.491-70.353,2.715-233.842,2.715-321.507c0-87.667-0.224-251.154-2.715-321.508
		c-0.521-14.701-2.106-58.499-5.836-54.85c-3.726-3.649-5.31,40.149-5.832,54.85c-2.494,70.354-2.718,233.842-2.718,321.508
		c0,87.665,0.224,251.154,2.718,321.507c0.522,14.703,2.106,58.499,5.832,54.851C63.444,779.095,65.029,735.299,65.551,720.596z"/>
	<path class="st7" d="M16.383,720.596c2.491-70.353,2.714-233.842,2.714-321.507c0-87.667-0.223-251.154-2.714-321.508
		c-0.523-14.701-2.106-58.499-5.833-54.85c-3.73-3.649-5.314,40.149-5.833,54.85C2.224,147.936,2,311.423,2,399.089
		c0,87.665,0.224,251.154,2.717,321.507c0.519,14.703,2.103,58.499,5.833,54.851C14.277,779.095,15.861,735.299,16.383,720.596z"/>
	<path class="st7" d="M257.976,685.215c-12.402,6.305-32.77,17.097-54.311,27.845c-21.491,10.802-43.936,21.951-59.486,30.192
		c-15.488,8.224-37.38,19.893-58.924,30.328c-2.691,1.293-5.372,2.582-8.028,3.858c-1.328,0.624-2.649,1.247-3.96,1.864
		c-1.157,0.49-2.31,0.976-3.454,1.46c-4.679,1.763-9.605,2.834-14.445,3.445c-9.698,1.2-18.859,0.986-25.807,1.125
		c-2.908,0.043-8.754,0.081-13.782,0.645c-5.031,0.564-9.142,1.759-8.468,3.64c-0.783,1.845,3.111,3.301,7.887,4.578
		c4.778,1.279,10.556,2.29,13.486,2.773c7.022,1.095,16.562,2.385,28.018,1.799c5.714-0.322,11.932-1.255,18.228-3.29
		c1.557-0.578,3.128-1.16,4.709-1.747c1.377-0.582,2.76-1.168,4.154-1.758c2.757-1.211,5.541-2.435,8.337-3.664
		c22.29-9.969,44.647-21.763,60.023-29.926c15.333-8.129,37.679-19.354,59.042-30.916c21.384-11.492,41.568-23.736,52.931-32.335
		c2.402-1.741,7.078-5.399,10.726-8.878c3.611-3.549,6.187-6.887,4.522-8.011c-0.461-1.937-4.522-0.805-9.063,1.138
		C265.715,681.261,260.605,683.946,257.976,685.215z"/>
	<path class="st7" d="M155.217,455.258c-1.978,0.526-4.85,0.899-7.364,0.078c-2.639-0.759-5.538-2.8-7.732-5.815
		c-4.531-5.798-5.038-15.28-4.475-22.027c0.401-6.824,2.057-16.288,7.081-22.019c2.477-2.962,5.544-4.949,8.389-5.802
		c2.705-0.835,5.649-0.632,7.729-0.174c0.884,0.177,2.626,0.648,4.259,1.276c1.653,0.547,3.385,1.37,4.765,0.366
		c1.637-0.421,1.923-2.773,0.72-5.355c-1.124-2.603-3.717-4.793-5.084-5.696c-3.237-2.253-8.458-4.13-14.77-3.356
		c-6.133,0.751-12.294,4.135-16.783,8.85c-4.607,4.712-7.548,10.776-9.158,16.23c-1.653,5.521-2.211,10.573-2.504,14.621
		c-0.27,4.07-0.394,9.225,0.631,14.995c0.515,2.876,1.347,5.893,2.615,8.852c1.302,3.018,3.04,5.898,5.205,8.428
		c4.25,5.084,10.457,8.868,16.839,9.586c6.536,0.775,11.767-1.505,14.922-3.963c1.335-1.002,3.815-3.449,4.696-6.214
		c0.962-2.754,0.354-5.085-1.321-5.272c-1.506-0.803-3.109,0.227-4.657,0.885C157.695,454.478,156.065,455.038,155.217,455.258z"/>
	<path class="st7" d="M119.697,442.271c-1.643-1.582-4.229-3.612-5.967-6.477c-1.831-2.811-2.349-5.864-2.195-7.714
		c0.154-1.852,1.173-4.774,3.444-7.244c2.191-2.535,5.08-4.11,6.963-5.398c0.402-0.325,1.209-0.769,2.054-1.59
		c0.819-0.741,1.772-1.851,1.926-3.514c0.453-1.632-0.24-2.922-1.449-3.884c-1.18-0.882-2.8-1.358-3.595-1.456
		c-3.845-0.831-10.621,0.618-15.78,5.058c-2.6,2.153-4.831,4.929-6.346,7.928c-1.537,2.992-2.3,6.169-2.553,8.82
		c-0.19,2.657,0.037,5.915,1.055,9.119c0.996,3.209,2.734,6.32,4.942,8.873c4.348,5.233,10.792,7.788,14.722,7.606
		c0.802,0.036,2.474-0.166,3.786-0.84c1.351-0.748,2.248-1.905,2.074-3.588c0.122-1.668-0.634-2.92-1.314-3.786
		C120.762,443.231,120.039,442.659,119.697,442.271z"/>
	<path class="st7" d="M643.016,325.288c-1.334,4.172-3.762,10.966-8.428,16.615c-4.495,5.778-10.891,9.821-15.626,11.465
		c-4.712,1.712-12.228,2.611-19.359,0.962c-7.188-1.435-13.355-5.176-17.023-7.571c-0.828-0.451-2.267-1.558-3.792-2.343
		c-1.437-0.839-3.017-1.387-3.95-0.462c-1.236,0.521-1.154,2.19-0.546,4.077c0.677,1.806,1.896,3.756,2.626,4.613
		c3.181,4.389,10.65,10.258,19.898,12.718c4.571,1.291,9.461,1.835,14.028,1.61c4.574-0.202,8.777-1.186,12.124-2.325
		c3.312-1.225,7.196-3.115,10.873-5.845c3.684-2.708,7.138-6.214,9.869-10.101c5.622-7.742,7.712-17.007,7.414-22.42
		c0.022-1.125-0.26-3.408-0.875-5.235c-0.719-1.847-1.709-3.196-2.997-2.819c-1.308-0.128-2.185,1.292-2.77,2.849
		C643.792,322.647,643.375,324.415,643.016,325.288z"/>
	<path class="st7" d="M659.224,282.416c7.046,1.59,19.227,3.502,27.719,10.532c4.232,3.352,7.393,8.022,9.234,12.86
		c1.88,4.833,2.363,9.719,2.087,13.586c-0.227,3.858-1.413,8.544-3.947,13.107c-2.508,4.556-6.372,8.881-10.944,11.997
		c-4.537,3.151-9.776,5-14.702,5.81c-4.933,0.792-9.447,0.605-12.849,0.285c-1.423-0.139-4.245-0.543-6.756-0.896
		c-2.501-0.327-4.745-0.564-5.057,0.78c-0.973,0.923,0.483,2.865,2.845,4.545c2.34,1.696,5.531,2.982,7.164,3.534
		c3.891,1.326,9.421,2.348,15.786,1.922c6.32-0.424,13.516-2.463,19.79-6.453c6.277-3.924,11.554-9.548,15.047-15.677
		c3.53-6.119,5.245-12.706,5.567-18.158c0.382-5.429-0.322-12.122-2.983-18.712c-2.581-6.567-7.214-13.074-13.322-17.532
		c-6.001-4.528-12.866-6.949-18.82-8.219c-5.997-1.233-11.222-1.513-15.096-1.444c-3.28,0.002-12.724,0.659-12.048,3.312
		C647.061,280.158,656.269,281.715,659.224,282.416z"/>
	<path class="st7" d="M616.139,370.197c-0.884,5.292-1.085,14.182-0.295,23.352c0.473,4.359,0.539,9.705,3.687,15.236
		c1.528,2.738,4.522,5.461,7.913,6.432c3.47,1.058,6.628,0.509,8.988-0.324c2.355-0.807,4.807-2.415,6.634-4.298
		c1.88-1.887,3.306-4.037,4.492-6.084c2.244-3.983,4.315-8.166,6.112-12.507c3.628-8.613,5.807-17.389,6.267-22.787
		c0.26-2.266,0.506-8.985-2.193-8.912c-2.445-0.974-4.8,4.974-5.721,6.89c-2.074,4.663-4.959,12.454-8.735,20.152
		c-1.843,3.835-3.959,7.753-5.948,11.129c-1.961,3.298-3.641,4.747-4.942,5.145c-0.66,0.24-1.245,0.253-1.472,0.165
		c-0.316-0.117-0.64-0.218-1.242-1.145c-1.279-1.867-1.939-5.912-2.533-10.357c-1.246-8.618-1.985-17.004-2.847-22.095
		c-0.401-2.115-1.321-8.504-3.93-8.091C617.772,361.435,616.464,367.971,616.139,370.197z"/>
	<path class="st7" d="M645.58,426.289c-1.84,1.326-4.371,3.605-7.469,5.151c-3.046,1.626-6.448,2.366-8.758,2.449
		c-2.309,0.091-5.757-0.391-8.921-1.781c-3.204-1.309-5.898-3.391-7.834-4.574c-0.855-0.408-3.132-2.248-5.38-0.97
		c-2.543,0.835-1.754,4.606-1.183,5.828c1.045,2.95,4.424,7.161,9.182,9.827c4.686,2.795,10.525,3.829,14.587,3.632
		c4.064-0.11,9.809-1.579,14.271-4.719c4.545-3.017,7.598-7.471,8.416-10.489c0.481-1.263,0.98-5.082-1.619-5.723
		C648.534,423.812,646.401,425.819,645.58,426.289z"/>
	<path class="st7" d="M540.35,282.93c2.267-1.106,4.942-3.557,7.653-6.087c2.701-2.523,5.485-5.117,7.43-6.932
		c2.017-1.735,4.906-4.214,7.709-6.621c2.816-2.413,5.547-4.801,6.897-6.935c0.539-0.897,2.31-3.549,0.493-6.815
		c-1.377-3.47-4.847-3.516-6.027-3.458c-2.797,0.079-6.819,1.641-10.65,3.868c-3.841,2.208-7.44,5.089-9.826,7.218
		c-2.383,2.138-5.64,5.395-8.261,8.972c-2.636,3.561-4.63,7.387-5.018,10.159c-0.19,1.163-0.529,4.618,2.77,6.368
		C536.567,284.836,539.397,283.368,540.35,282.93z"/>
	<path class="st7" d="M686.814,261.314c-0.575-2.388-2.76-5.374-5.524-7.951c-2.751-2.598-6.059-4.731-8.442-6.057
		c-2.389-1.315-5.955-2.989-9.616-3.94c-3.651-0.973-7.341-1.24-9.671-0.462c-0.992,0.301-3.821,1.413-4.186,5.128
		c-0.756,3.657,1.131,5.598,1.703,6.27c1.432,1.581,3.933,2.952,6.493,4.299c2.547,1.335,5.162,2.706,6.993,3.667
		c1.788,1.042,4.338,2.531,6.822,3.981c2.501,1.453,4.989,2.848,7.089,3.222c0.874,0.127,3.52,0.695,6.217-1.888
		C687.649,265.305,687.087,262.314,686.814,261.314z"/>
	<path class="st8" d="M635.876,288.071c-28.666-0.064-25.08,12.175-24.545,18.102c0.532,5.929,14.337,15.92,26.148,15.695
		c11.81-0.225,27.511-10.361,28.835-19.562C667.639,293.104,652.73,288.11,635.876,288.071z"/>
</g>
</svg>
