<?xml version="1.0" encoding="utf-8"?>
<!-- Generator: Adobe Illustrator 22.1.0, SVG Export Plug-In . SVG Version: 6.00 Build 0)  -->
<svg version="1.1" id="_x32_" xmlns="http://www.w3.org/2000/svg" xmlns:xlink="http://www.w3.org/1999/xlink" x="0px" y="0px"
	 viewBox="0 0 804 804" style="enable-background:new 0 0 804 804;" xml:space="preserve">
<style type="text/css">
	.st0{fill:#C99965;}
	.st1{fill:#FFD9B6;}
	.st2{fill:#FFFFFF;}
	.st3{fill:#F2BD88;}
	.st4{fill:#593614;}
</style>
<g>
	<path class="st0" d="M662.896,387.585c-13.565,58.282-58.281,88.112-66.415,93.515c-8.132,5.432,4.052,149.125,2.701,161.31
		c-1.35,12.215-13.565,42.045-21.697,42.045c-8.135,0-56.933-46.096-60.985-65.093c-4.08-18.967-8.132-13.535-8.132-13.535
		s-44.747,134.18-48.799,151.826c-4.08,17.617-33.911,18.967-42.046,18.967c-8.132,0-31.15-1.351-36.584-18.967
		c-5.431-17.647-1.35-81.36-23.047-92.194c-21.697-10.834-29.831-8.133-32.532,1.35c-2.701,9.484,1.351,84.061,1.351,84.061
		l-28.452,12.185l-17.645,2.731c-16.266-10.864-85.382-189.791,6.784-310.435c-49.475-27.248-87.673-80.421-81.566-140.023
		c0.556-5.667,1.557-11.422,2.965-17.207c16.266-66.444,84.032-116.593,140.962-124.726c6.784-1.351,25.751-37.963,47.448-37.963
		c21.7,0,31.182,36.612,31.182,36.612s27.159,6.9,54.261,14.358c23.899,6.606,47.741,13.653,52.819,16.824
		c10.836,6.783,17.617,4.051,17.617,4.051s24.401-33.883,42.017-32.532c17.645,1.352,27.13,37.965,21.697,52.88
		c18.379,16.207,45.421,71.259,48.71,122.465C666.331,363.068,665.625,375.782,662.896,387.585z"/>
	<path class="st1" d="M376.871,368.599c-18.976,5.422-37.954,2.711-67.777-9.489c-29.82-12.2-6.778-60.999,42.023-69.132
		c48.799-8.134,85.4,13.555,105.732,27.11c20.335,13.555,23.044,44.733,14.913,60.999c-8.135,16.268-28.467,25.755-36.601,23.044
		c-8.135-2.711-20.332-16.266-25.754-20.333C403.984,376.732,376.871,368.599,376.871,368.599z"/>
	<path class="st2" d="M483.959,315.732c-17.829,0-10.844-40.665,6.778-58.288c17.622-17.622,28.467-5.422,28.467,17.622
		C519.204,298.111,500.228,315.732,483.959,315.732z"/>
	<path class="st2" d="M344.339,273.71c-11.653-10.682-6.778-47.444,20.332-52.866c27.113-5.422,28.467,6.778,20.335,25.756
		C376.871,265.577,360.605,288.622,344.339,273.71z"/>
	<path class="st2" d="M253.517,325.221c-12.2-16.266-10.844-31.178-4.066-43.378c6.778-8.133,2.71,2.711,14.91,12.2
		c12.2,9.489,18.979,12.2,17.622,20.333C280.627,322.51,261.652,336.065,253.517,325.221z"/>
	<path class="st2" d="M523.27,410.621c-6.775-6.778-9.488-48.8,1.356-51.511c10.844-2.711,12.2,23.044,24.401,31.178
		C561.227,398.421,532.76,432.309,523.27,410.621z"/>
	<path class="st1" d="M536.826,670.886c2.713,6.778,14.91,32.534,25.757,31.178c10.844-1.355,12.198-9.489,24.398-8.133
		c12.2,1.356,18.979-9.489,16.266-21.688c-2.71-12.2-8.132-24.401-10.844-18.979c-2.71,5.422-24.398,12.2-35.245,12.2
		C546.314,665.464,536.826,670.886,536.826,670.886z"/>
	<path class="st1" d="M390.428,787.463c-12.2-8.133-16.266-33.889-8.135-36.6c8.135-2.711,36.601,6.778,55.58,2.711
		c18.976-4.067,14.91-1.356,21.688,4.067c6.778,5.422-4.069,32.532-13.557,35.243c-9.488,2.711-20.332-9.489-28.466-6.778
		C409.406,788.819,390.428,787.463,390.428,787.463z"/>
	<path class="st1" d="M326.716,750.863c0,0,5.422,18.977-4.066,21.688c-9.488,2.711-12.2-5.422-17.622-2.711
		c-5.422,2.711-2.713,13.555-16.266,2.711c-13.557-10.844-17.622-29.821-18.979-39.311c-1.356-9.489,1.356,1.356,14.913,1.356
		c13.554,0,42.02,6.777,42.02,6.777V750.863z"/>
	<path class="st3" d="M665.508,350.091c-31.681-63.597-95.364-134.181-184.359-158.197c-22.695-6.107-47.064-9.19-72.99-8.34
		c-105.112,3.436-170.854,69.528-202.328,131.774c0.556-5.667,1.557-11.422,2.965-17.207
		c16.266-66.444,84.032-116.593,140.962-124.726c6.784-1.351,25.751-37.963,47.448-37.963c21.7,0,31.182,36.612,31.182,36.612
		s27.159,6.9,54.261,14.358c23.899,6.606,47.741,13.653,52.819,16.824c10.836,6.783,17.617,4.051,17.617,4.051
		s24.401-33.883,42.017-32.532c17.645,1.352,27.13,37.965,21.697,52.88C635.177,243.833,662.219,298.885,665.508,350.091z"/>
	<path class="st3" d="M258.916,528.048c6.079-21.618,26.425-58.722,30.829-54.318c4.404,4.404-49.914,135.061-23.489,227.549
		C238.363,668.982,245.704,575.026,258.916,528.048z"/>
	<path class="st4" d="M396.956,285.493c12.877,2.755,20.005,5.158,27.076,7.704c7.025,2.659,14.099,5.403,25.585,12.362
		c11.099,7.066,17.169,12.622,22.428,18.871c0.659,0.781,1.368,1.508,1.981,2.345c0.599,0.853,1.204,1.713,1.821,2.592
		c1.21,1.769,2.569,3.521,3.618,5.719c1.07,2.169,2.512,4.311,3.378,7.056c0.493,1.333,1.009,2.727,1.548,4.191
		c0.591,1.442,0.769,3.105,1.187,4.767c0.281,1.424-1.127,4.655-3.705,4.741c-2.44,0.65-5.152-1.391-5.485-2.456
		c-0.444-1.352-0.625-2.702-1.216-3.867c-0.53-1.177-1.032-2.298-1.517-3.371c-0.814-2.201-2.214-3.922-3.194-5.657
		c-0.955-1.758-2.248-3.171-3.355-4.598c-0.559-0.71-1.11-1.405-1.651-2.093c-0.556-0.68-1.221-1.275-1.821-1.913
		c-4.768-5.111-10.17-9.836-20.26-16.26c-10.491-6.35-17.055-9.118-23.512-11.965c-6.506-2.753-13.078-5.59-25.143-8.967
		c-1.184-0.35-4.135-3.236-3.338-5.652C391.618,286.499,395.646,285.255,396.956,285.493z"/>
	<path class="st4" d="M409.616,385.908c-5.024-4.109-9.253-7.51-13.316-9.725c-4.095-2.291-7.616-3.161-11.332-3.383
		c-3.676-0.166-7.26,0.3-10.798,0.973c-3.596,0.662-6.919,1.58-10.824,2.315c-7.811,1.447-15.615,1.887-24.885,0.933
		c-4.622-0.595-9.628-1.362-15.076-3.167c-5.402-1.829-11.406-4.376-17.21-9.203c-5.637-4.705-9.614-10.834-11.197-16.873
		c-0.588-1.472-0.76-2.963-0.989-4.418c-0.186-1.451-0.531-2.887-0.536-4.267c0.012-1.379,0.023-2.731,0.034-4.057
		c-0.009-1.329,0.034-2.625,0.31-3.877c1.431-10.153,5.789-17.997,11.085-24.452c5.399-6.44,11.954-11.757,20.475-16.107
		c2.156-1.044,4.358-2.176,6.821-2.986c1.219-0.436,2.44-0.925,3.722-1.336c1.31-0.34,2.646-0.688,4.011-1.044
		c5.482-1.276,11.707-2.173,18.681-1.319c0.708,0.096,1.606,0.238,2.506,0.667c0.9,0.443,1.812,0.998,2.572,1.601
		c1.528,1.213,2.406,2.598,1.758,3.749c-0.086,1.273-1.58,2.145-3.191,2.678c-0.811,0.264-1.663,0.437-2.446,0.516
		c-0.786,0.095-1.546,0.261-2.113,0.215c-1.402-0.026-2.741-0.278-4.092-0.136c-1.342,0.09-2.655,0.178-3.934,0.264
		c-1.279,0.146-2.52,0.446-3.736,0.645c-0.605,0.109-1.207,0.218-1.801,0.324c-0.582,0.172-1.158,0.341-1.729,0.508
		c-1.138,0.334-2.254,0.661-3.343,0.982c-1.069,0.386-2.093,0.844-3.111,1.246c-2.062,0.737-3.894,1.784-5.689,2.721
		c-7.097,3.921-12.427,8.592-16.628,13.889c-4.14,5.32-7.263,11.419-8.221,18.837c-0.221,0.918-0.224,1.868-0.192,2.837
		c-0.003,0.966-0.009,1.951-0.014,2.956c-0.006,1.005,0.295,1.954,0.413,2.966c0.164,1.001,0.244,2.054,0.68,2.995
		c1.055,4.033,3.564,7.861,7.535,11.221c4.094,3.423,8.814,5.515,13.23,7.025c4.453,1.51,8.768,2.202,12.742,2.767
		c8.008,0.925,14.959,0.655,21.522-0.38c6.778-1.061,14.411-3.416,24.426-2.701c4.949,0.377,10.681,2.148,15.569,5.181
		c5.006,2.971,9.591,6.993,14.382,11.151c1.855,1.75,5.987,7.55,4.169,9.286C418.903,390.447,411.588,387.588,409.616,385.908z"/>
	<path class="st4" d="M411.649,157.798c0.201-1.206,0.077-2.295,0.066-3.336c-0.029-1.038,0.009-2.036-0.215-2.896
		c-0.146-0.876-0.287-1.708-0.421-2.503c-0.252-0.72-0.49-1.406-0.723-2.067c-1.035-2.516-2.234-4.272-3.793-5.432
		c-1.445-1.299-3.22-2.092-5.62-2.496c-2.374-0.396-5.537-0.41-9.628,1.127c-1.97,0.843-3.785,1.577-5.348,2.628
		c-1.632,0.866-2.993,1.963-4.295,2.936c-1.267,0.874-2.644,2.103-3.831,3.094c-1.216,1.031-2.334,2.026-3.435,3.028
		c-2.171,2.01-4.201,4.066-6.145,6.608c-1.907,2.543-3.791,5.577-4.568,9.644c-0.249,0.731-2.655,2.555-5.56,2.426
		c-2.853,0.37-5.276-2.437-5.089-3.851c0.682-6.559,3.134-11.277,5.359-14.91c2.302-3.654,4.619-6.406,7.002-8.955
		c1.201-1.259,2.42-2.484,3.707-3.693c1.33-1.227,2.506-2.387,4.261-3.739c1.663-1.332,3.421-2.776,5.666-4.053
		c2.107-1.417,4.731-2.596,7.679-3.795c6.153-2.311,11.919-2.532,16.728-1.543c1.213,0.198,2.363,0.476,3.455,0.955
		c1.087,0.442,2.168,0.793,3.14,1.335c1.915,1.18,3.765,2.282,5.207,3.875c3.125,2.919,5.181,6.724,6.471,11.155
		c0.261,1.117,0.533,2.28,0.814,3.497c0.1,1.2,0.204,2.456,0.31,3.776c0.163,1.332,0.031,2.659-0.055,4.072
		c-0.103,1.406-0.123,2.912-0.47,4.391c-0.261,1.253-3.148,4.116-5.912,3.206C413.57,161.858,411.585,158.699,411.649,157.798z"/>
	<path class="st4" d="M421.999,166.079c0.201-1.206,0.077-2.294,0.066-3.336c-0.029-1.038,0.009-2.036-0.215-2.896
		c-0.146-0.876-0.287-1.707-0.422-2.503c-0.252-0.72-0.49-1.406-0.72-2.067c-1.038-2.516-2.237-4.272-3.796-5.432
		c-1.445-1.299-3.22-2.092-5.62-2.496c-2.374-0.396-5.537-0.41-9.628,1.127c-1.97,0.843-3.785,1.577-5.348,2.628
		c-1.632,0.866-2.993,1.963-4.295,2.936c-1.267,0.876-2.644,2.103-3.831,3.094c-1.216,1.031-2.334,2.026-3.435,3.028
		c-2.168,2.01-4.201,4.066-6.142,6.608c-1.91,2.543-3.793,5.577-4.57,9.644c-0.25,0.733-2.655,2.555-5.56,2.426
		c-2.853,0.37-5.276-2.437-5.089-3.849c0.682-6.56,3.134-11.279,5.359-14.911c2.302-3.654,4.619-6.406,7.002-8.954
		c1.201-1.259,2.42-2.485,3.707-3.693c1.33-1.227,2.506-2.387,4.264-3.738c1.66-1.333,3.418-2.777,5.663-4.053
		c2.108-1.418,4.731-2.598,7.679-3.796c6.153-2.311,11.922-2.532,16.728-1.543c1.213,0.198,2.363,0.476,3.455,0.955
		c1.087,0.442,2.168,0.793,3.14,1.335c1.915,1.18,3.765,2.282,5.207,3.875c3.125,2.919,5.181,6.725,6.471,11.155
		c0.261,1.117,0.533,2.279,0.817,3.497c0.098,1.2,0.201,2.456,0.307,3.776c0.164,1.332,0.032,2.659-0.054,4.071
		c-0.103,1.406-0.123,2.912-0.47,4.391c-0.261,1.253-3.148,4.116-5.912,3.206C423.921,170.139,421.936,166.979,421.999,166.079z"/>
	<path class="st4" d="M531.86,207.203c-11.83-5.198-18.729-7.693-25.576-10.269c-6.867-2.519-13.703-5.111-25.877-9.145
		c-11.94-3.864-19.24-5.855-26.54-7.843c-7.309-1.917-14.646-3.868-26.95-5.887c-1.239-0.217-3.673-2.923-3.111-5.753
		c-0.026-2.896,3.031-4.989,4.384-4.916c13.063,1.219,20.857,2.586,28.593,4.139c7.719,1.627,15.4,3.481,27.793,7.481
		c12.631,4.173,19.618,7.064,26.525,10.084c6.884,3.077,13.717,6.282,25.424,12.43c1.161,0.644,3.415,4.41,1.867,6.856
		C537.374,207.08,533.053,207.688,531.86,207.203z"/>
	<path class="st4" d="M524.468,214.82c-11.931-5.109-18.878-7.585-25.794-10.1c-6.939-2.457-13.866-4.945-26.23-8.712
		c-12.123-3.601-19.549-5.386-26.976-7.122c-7.441-1.665-14.913-3.315-27.417-4.869c-1.267-0.156-3.871-1.806-3.458-3.462
		c-0.178-1.706,2.724-2.876,4.054-2.806c12.937,1.074,20.668,2.378,28.352,3.822c7.67,1.518,15.317,3.217,27.707,6.893
		c12.633,3.842,19.655,6.503,26.623,9.253c6.944,2.807,13.863,5.7,25.734,11.367c1.181,0.583,3.931,3.379,2.947,4.783
		C529.566,215.514,525.664,215.311,524.468,214.82z"/>
	<path class="st4" d="M203.033,348.26c-2.973-14.1-3.254-25.562-2.69-35.312c0.579-9.776,2.087-17.928,4.264-25.856
		c2.151-7.937,4.909-15.739,9.238-24.494c4.321-8.742,10.093-18.556,19.099-29.763c8.937-10.864,17.221-18.563,24.822-24.819
		c7.61-6.261,14.655-10.995,21.932-15.288c7.271-4.301,14.818-8.16,23.951-11.802c9.121-3.63,19.822-7.174,33.573-9.723
		c2.859-0.419,9.15,1.001,8.886,3.954c0.966,2.755-4.267,6.073-6.836,6.593c-12.742,2.804-22.609,6.469-30.993,10.153
		c-8.393,3.692-15.3,7.532-21.955,11.723c-6.661,4.18-13.118,8.714-20.105,14.61c-6.979,5.888-14.606,13.062-22.838,23.072
		c-8.289,10.327-13.6,19.273-17.637,27.196c-4.046,7.935-6.689,14.954-8.843,22.091c-2.185,7.131-3.816,14.454-4.659,23.295
		c-0.831,8.823-0.969,19.234,1.325,32.257c0.373,2.561-0.055,10.37-2.993,10.628C208.016,358.225,203.623,351.127,203.033,348.26z"
		/>
	<path class="st4" d="M193.966,366.284c-2.584-14.438-3.022-26.058-2.506-36c0.579-9.947,1.812-18.278,3.745-26.449
		c2.05-8.136,4.593-16.179,8.677-25.311c4.186-9.059,9.797-19.328,19.053-30.851c9.066-11.258,17.694-19.111,25.662-25.358
		c8.011-6.223,15.412-10.871,23.059-15.023c7.69-4.08,15.696-7.57,25.298-10.76c9.611-3.128,20.894-5.924,35.233-7.213
		c2.953-0.191,9.201,0.899,8.576,2.611c0.671,1.659-5.233,3.395-8.005,3.659c-13.697,1.491-24.438,4.384-33.565,7.557
		c-9.118,3.231-16.696,6.708-23.971,10.715c-7.234,4.074-14.233,8.586-21.817,14.56c-7.547,5.998-15.719,13.489-24.318,24.171
		c-8.78,10.929-14.11,20.629-18.13,29.175c-3.92,8.616-6.411,16.193-8.482,23.87c-1.955,7.715-3.283,15.592-4.034,25.055
		c-0.685,9.461-0.499,20.567,1.726,34.502c0.476,2.751,0.751,10.795-1.026,10.589C197.656,376.841,194.56,369.176,193.966,366.284z"
		/>
	<path class="st4" d="M613.34,482.156c6.208-3.431,11.426-7.074,15.655-10.963c4.275-3.832,7.802-7.638,10.709-11.452
		c5.875-7.581,9.783-14.734,13.066-22.138c3.243-7.435,5.803-15.198,8.017-24.659c2.196-9.458,3.963-20.68,4.602-35.123
		c0.542-14.134-0.186-25.538-1.448-35.325c-1.276-9.507-4.232-17.44-7.633-25.181c-3.51-7.707-7.65-15.195-13.124-23.503
		c-5.488-8.291-12.329-17.442-22.07-27.768c-1.941-2.126-5.382-7.408-3.748-8.193c0.657-1.684,6.188,1.672,8.281,3.822
		c10.228,10.461,17.47,19.754,23.323,28.233c5.838,8.499,10.299,16.212,14.127,24.289c3.705,8.093,7.039,16.65,8.545,27.248
		c1.391,10.286,2.171,22.04,1.617,36.701c-0.659,14.976-2.526,26.673-4.894,36.582c-2.386,9.908-5.187,18.084-8.757,25.935
		c-3.616,7.822-7.948,15.405-14.437,23.443c-3.214,4.036-7.102,8.077-11.799,12.12c-4.648,4.102-10.351,7.935-17.078,11.491
		c-2.667,1.583-11.048,3.478-10.982,1.66C604.125,488.008,610.98,483.675,613.34,482.156z"/>
	<path class="st4" d="M583.17,476.015c14.099-5.686,23.552-13.227,30.829-20.365c7.185-7.303,12.326-14.329,16.851-21.733
		c4.444-7.464,8.31-15.326,12.008-25.074c3.604-9.769,7.145-21.473,9.511-36.766c1.141-7.472,1.672-14.268,1.758-20.362
		c-0.017-6.056-0.401-11.832-0.955-17.137c-1.081-10.653-2.675-19.78-4.731-28.755c-2.099-8.966-4.631-17.837-8.522-27.753
		c-3.954-9.852-9.215-20.92-18.402-32.691c-1.884-2.295-4.556-8.722-2.079-10.297c1.471-2.618,8.057,0.889,10.354,3.444
		c10.54,12.732,16.561,24.544,21.135,34.987c4.499,10.51,7.461,19.862,9.909,29.31c2.403,9.462,4.255,19.046,5.525,30.349
		c0.642,5.669,1.11,11.699,1.158,18.626c-0.063,6.886-0.634,14.232-1.858,22.283c-2.54,16.441-6.383,28.961-10.388,39.491
		c-4.106,10.501-8.476,19.01-13.568,27.093c-5.178,8.023-11.119,15.663-19.42,23.576c-8.384,7.739-19.351,15.912-35.276,21.81
		c-3.214,1.309-12.891,1.494-12.802-1.515C572.897,481.915,580.492,477.283,583.17,476.015z"/>
	<path class="st4" d="M281.783,312.704c-6.81-1.669-11.529-5.131-14.835-8.241c-3.346-3.178-5.614-6.18-7.693-9.162
		c-2.064-2.993-3.891-6.037-5.972-9.539c-0.361-0.602-0.275-0.44-0.361-0.543l-0.143-0.115l-0.327-0.077l-0.301,0.126
		c0.115-0.178-0.832,1.046-1.313,1.996c-2.208,4.087-2.916,8.431-3.22,12.056c-0.304,3.684-0.095,6.917,0.344,10.054
		c0.51,3.11,1.29,6.209,2.833,9.257c1.586,2.991,3.928,5.915,7.856,6.46c0.419-0.009,1.032,0.596,1.723,1.234
		c0.659,0.688,1.376,1.652,1.434,2.766c0.33,1.085-0.092,2.171-0.938,3.022c-0.811,0.902-2.093,1.276-2.882,1.307
		c-3.94-0.255-7.426-1.887-9.849-3.881c-2.454-2.007-4.106-4.225-5.399-6.329c-2.506-4.259-3.687-8.162-4.536-12.066
		c-0.751-3.917-1.15-7.882-0.877-12.519c0.344-4.612,0.966-9.998,4.361-16.42c0.456-0.814,0.917-1.599,1.459-2.341
		c0.404-0.615,1.276-1.788,2.277-2.591c1.978-1.674,4.487-2.532,6.813-2.555c2.34-0.04,4.553,0.658,6.305,1.858
		c0.88,0.588,1.657,1.293,2.285,2.06c0.622,0.697,1.236,1.772,1.391,2.05c2.027,3.585,3.641,6.512,5.353,9.28
		c1.712,2.754,3.481,5.389,5.915,8.024c1.219,1.315,2.618,2.604,4.327,3.771c1.683,1.214,3.716,2.232,6.179,2.999
		c0.869,0.414,3.57,2.664,3.122,4.887C287.219,311.781,283.199,313.149,281.783,312.704z"/>
	<path class="st4" d="M524.414,421.544c-4.063-5.902-6.202-10.977-7.899-15.363c-1.654-4.407-2.718-8.211-3.584-12.06
		c-0.846-3.855-1.485-7.763-1.801-12.506c-0.181-2.367-0.206-4.959-0.077-7.871c0.163-2.918,0.473-6.159,1.588-9.944
		c0.499-1.838,1.325-3.661,2.285-5.376c1.104-1.723,2.437-3.395,4.355-4.656c1.907-1.201,4.218-1.96,6.236-1.904
		c2.105-0.153,4.777,0.728,6.334,1.976c3.197,2.556,4.129,4.998,5.176,7.045c0.961,2.09,1.654,3.988,2.337,5.844
		c1.351,3.693,2.572,7.234,4.37,11.064c1.815,3.788,4.149,7.95,8.312,11.843c0.783,0.786,1.778,3.712,0.396,5.35
		c-0.9,1.99-4.45,1.676-5.631,0.694c-5.56-4.682-8.653-9.643-10.982-13.869c-2.302-4.279-3.822-8.063-5.31-11.634
		c-0.737-1.778-1.462-3.518-2.251-5.092c-0.734-1.554-1.781-3.042-2.228-3.264c-0.252-0.113,0.069-0.044-0.281-0.03
		c-0.453-0.044-0.625,0.152-0.986,0.3c-0.333,0.212-0.786,0.746-1.273,1.474c-0.433,0.854-0.938,1.821-1.273,3.11
		c-1.468,5.221-1.37,10.294-1.224,14.382c0.201,4.168,0.654,7.703,1.259,11.204c0.625,3.5,1.391,6.992,2.652,11.022
		c1.284,4,2.97,8.658,6.147,13.816c0.565,1.015,1.247,4.775-0.505,5.987C529.15,424.778,525.251,422.77,524.414,421.544z"/>
	<path class="st4" d="M433.87,176.287c-4.803,6.585-5.078,7.76-10.081,13.732c-2.366,2.963-3.814,4.708-5.339,6.411
		c-1.514,1.71-3.154,3.347-5.494,6.348c-0.272,0.274-3.662-0.572-7.191-2.497c-3.621-1.758-6.168-4.17-6.039-4.636
		c1.597-4.238,2.701-6.767,3.94-9.2c1.256-2.423,2.71-4.731,5.474-8.215c2.856-3.524,4.691-5.317,6.641-6.972
		c1.958-1.643,4.037-3.16,7.624-5.759c0.396-0.231,3.613,1.368,6.311,4.351C432.554,172.701,434.077,175.934,433.87,176.287z"/>
	<path class="st4" d="M473.596,188.262c-2.457,1.862-3.633,3.753-4.877,5.409c-1.239,1.717-2.566,3.418-4.895,6.821
		c-2.259,3.375-3.642,5.563-5.15,7.699c-1.511,2.153-3.12,4.277-5.608,8.107c-0.295,0.371-3.779-0.174-7.378-1.97
		c-3.69-1.604-6.325-3.954-6.219-4.436c1.439-4.523,2.363-7.373,3.487-10.137c1.141-2.767,2.431-5.492,5.296-9.8
		c2.985-4.391,5.236-6.734,7.742-8.846c2.581-2.019,5.193-4.216,11.257-6.471c0.705-0.201,3.521,2.274,4.711,6.132
		C473.344,184.543,473.751,188.081,473.596,188.262z"/>
	<path class="st4" d="M512.087,196.589c-4.717,8.635-5.112,9.975-10.11,17.624c-2.308,3.657-3.699,5.864-5.107,8.096
		c-1.382,2.178-2.899,4.292-4.774,8.11c-0.227,0.357-3.753,0.291-7.593-0.905c-3.902-0.986-6.813-3.022-6.747-3.596
		c1.038-5.283,1.996-8.417,3.088-11.446c1.121-3.021,2.512-5.915,5.224-10.288c5.66-8.712,7.131-9.337,13.901-16.486
		c0.373-0.324,3.905,0.582,7.088,3.042C510.372,193.022,512.291,196.127,512.087,196.589z"/>
	<path class="st4" d="M235.255,667.101c-0.797-2.892-1.548-5.626-2.265-8.224c-0.588-2.635-1.144-5.131-1.674-7.508
		c-1.015-4.768-2.107-9.029-2.661-13.071c-0.657-4.024-1.259-7.727-1.835-11.27c-0.447-3.564-0.745-6.986-1.107-10.403
		c-0.169-1.71-0.338-3.421-0.51-5.151c-0.118-1.735-0.149-3.498-0.227-5.297c-0.098-3.604-0.347-7.369-0.304-11.468
		c0.123-4.099,0.209-8.529,0.43-13.443c0.519-4.896,0.777-10.318,1.692-16.321c0.906-5.875,1.643-11.182,2.804-15.961
		c0.522-2.4,1.024-4.692,1.502-6.894c0.531-2.189,1.161-4.259,1.709-6.272c1.11-4.026,2.148-7.765,3.435-11.267
		c1.267-3.505,2.265-6.957,3.69-10.241c5.227-13.296,11.231-26.36,23.48-46.351c1.296-2.027,5.967-5.091,8.172-3.088
		c2.75,1.087,2.334,6.602,1.227,8.625c-11.108,19.826-16.192,32.537-20.745,45.322c-1.256,3.158-2.093,6.454-3.217,9.798
		c-1.144,3.342-2.05,6.891-3.042,10.704c-0.49,1.907-1.064,3.865-1.546,5.934c-0.433,2.079-0.883,4.242-1.356,6.507
		c-1.075,4.507-1.741,9.508-2.595,15.038c-0.866,5.651-1.104,10.762-1.632,15.372c-0.192,4.641-0.367,8.817-0.528,12.686
		c-0.095,3.872,0.083,7.442,0.086,10.857c0.032,1.707,0.014,3.379,0.077,5.028c0.115,1.649,0.224,3.279,0.336,4.907
		c0.221,3.262,0.442,6.525,0.671,9.941c0.41,3.409,0.837,6.97,1.302,10.843c0.353,3.889,1.233,8.024,2.016,12.649
		c0.413,2.311,0.849,4.737,1.308,7.296c0.593,2.538,1.216,5.207,1.875,8.028c0.493,2.246-0.272,9.191-3.206,9.494
		C239.946,675.231,235.929,669.417,235.255,667.101z"/>
	<path class="st4" d="M251.817,667.101c-0.794-2.892-1.548-5.626-2.265-8.224c-0.588-2.635-1.144-5.131-1.674-7.508
		c-1.015-4.768-2.107-9.029-2.661-13.071c-0.657-4.024-1.259-7.727-1.835-11.27c-0.447-3.564-0.745-6.986-1.107-10.403
		c-0.169-1.71-0.338-3.421-0.508-5.151c-0.12-1.735-0.152-3.498-0.229-5.297c-0.097-3.604-0.347-7.369-0.304-11.468
		c0.123-4.099,0.209-8.529,0.43-13.443c0.519-4.896,0.777-10.318,1.692-16.321c0.906-5.875,1.643-11.182,2.804-15.961
		c0.522-2.4,1.024-4.692,1.503-6.894c0.53-2.189,1.161-4.259,1.709-6.272c1.11-4.026,2.15-7.765,3.438-11.267
		c1.264-3.505,2.262-6.957,3.687-10.241c5.227-13.296,11.231-26.36,23.48-46.351c1.296-2.027,5.967-5.091,8.175-3.088
		c2.747,1.087,2.331,6.602,1.224,8.625c-11.108,19.826-16.192,32.537-20.745,45.322c-1.256,3.158-2.093,6.454-3.217,9.798
		c-1.144,3.342-2.05,6.891-3.042,10.704c-0.49,1.907-1.064,3.865-1.546,5.934c-0.433,2.079-0.883,4.242-1.356,6.507
		c-1.075,4.507-1.741,9.508-2.595,15.038c-0.866,5.651-1.104,10.762-1.632,15.372c-0.192,4.641-0.367,8.817-0.525,12.686
		c-0.097,3.872,0.08,7.442,0.083,10.857c0.032,1.707,0.014,3.379,0.08,5.028c0.112,1.649,0.221,3.279,0.333,4.907
		c0.221,3.262,0.442,6.525,0.674,9.941c0.407,3.409,0.834,6.97,1.299,10.843c0.356,3.889,1.236,8.024,2.016,12.649
		c0.413,2.311,0.849,4.737,1.308,7.296c0.593,2.538,1.219,5.207,1.875,8.028c0.493,2.246-0.272,9.191-3.206,9.494
		C256.508,675.231,252.491,669.417,251.817,667.101z"/>
	<path class="st4" d="M599.23,675.403c-3.134-8.983-4.786-16.08-6.018-22.197c-1.282-6.12-2.056-11.274-2.816-16.434
		c-1.328-10.319-2.477-20.668-3.062-38.866c-0.508-17.809-0.112-28.57,0.51-39.322c0.281-5.373,0.78-10.751,1.362-17
		c0.367-3.127,0.76-6.473,1.193-10.149c0.588-3.689,1.032-7.68,1.927-12.152c0.384-1.839,3.438-5.243,6.234-4.264
		c2.925,0.179,4.74,4.279,4.536,5.984c-0.622,4.198-0.849,8.12-1.219,11.643c-0.221,3.57-0.422,6.82-0.611,9.856
		c-0.232,6.1-0.436,11.333-0.487,16.589c-0.155,10.496-0.313,21.017,0.195,38.396c0.579,17.756,1.479,27.778,2.311,37.782
		c0.508,4.983,0.975,9.978,1.861,15.83c0.826,5.858,2.033,12.625,4.401,20.758c0.502,1.513-0.097,6.864-2.87,7.762
		C604.193,681.275,600.01,677.245,599.23,675.403z"/>
	<path class="st4" d="M605.908,656.31c-2.463-9.191-3.587-16.389-4.367-22.58c-0.826-6.199-1.219-11.396-1.597-16.597
		c-0.565-10.39-0.949-20.794-0.192-38.985c0.809-17.799,1.996-28.501,3.406-39.179c0.677-5.339,1.571-10.665,2.612-16.854
		c0.596-3.091,1.236-6.398,1.935-10.033c0.86-3.636,1.597-7.583,2.819-11.977c0.516-1.806,3.813-4.975,6.529-3.793
		c2.905,0.394,4.413,4.618,4.083,6.302c-0.929,4.14-1.442,8.036-2.073,11.521c-0.482,3.544-0.923,6.771-1.333,9.785
		c-0.68,6.066-1.27,11.27-1.709,16.508c-0.926,10.456-1.858,20.937-2.635,38.304c-0.731,17.751-0.571,27.814-0.479,37.851
		c0.141,5.008,0.238,10.024,0.688,15.925c0.396,5.902,1.098,12.739,2.862,21.026c0.39,1.545-0.602,6.837-3.435,7.528
		C610.424,662.532,606.55,658.203,605.908,656.31z"/>
	<path class="st4" d="M481,375.737c-0.809,4.021-2.027,6.957-3.165,9.409c-0.519,1.269-1.158,2.32-1.752,3.348
		c-0.619,1.006-1.118,2.053-1.809,2.936c-1.307,1.834-2.638,3.67-4.513,5.588c-0.88,1.014-1.933,2.009-3.157,3.059
		c-0.605,0.53-1.241,1.087-1.915,1.674c-0.725,0.529-1.488,1.087-2.294,1.676c-6.426,4.48-11.237,6.086-16.169,6.979
		c-1.276,0.136-2.495,0.407-3.859,0.384c-1.368-0.05-2.773-0.033-4.287-0.214c-1.522-0.358-3.177-0.545-4.886-1.216
		c-1.689-0.753-3.604-1.404-5.324-2.814c-0.774-0.584-0.975-3.292,0.831-5.114c1.537-1.996,3.848-3.064,4.258-2.873
		c4.51,2.321,7.899,1.587,11.076,0.822c3.186-0.932,6.537-2.142,11.495-5.613c4.975-3.689,7.403-6.396,9.711-9.074
		c2.122-2.768,4.611-5.581,6.583-11.294c0.189-0.516,2.701-1.794,5.175-1.29C479.549,372.302,481.14,374.876,481,375.737z"/>
	<path class="st4" d="M302.757,469.65c-1.973-0.625-3.716-1.406-5.373-2.149c-1.666-0.733-3.246-1.428-4.751-2.089
		c-2.896-1.495-5.502-2.842-7.917-4.087c-4.665-2.721-8.656-4.95-12.358-7.547c-7.555-5.004-14.818-10.434-26.454-21.255
		c-11.248-10.744-17.198-18.15-22.844-25.766c-1.339-1.973-2.675-3.945-4.069-5.998c-1.37-2.067-2.604-4.393-4.026-6.793
		c-2.675-4.927-5.623-10.727-7.684-18.92c-0.347-1.788,1.236-5.717,4.178-5.704c2.779-0.665,5.858,1.765,6.216,2.98
		c0.313,1.587,1.07,3.092,1.66,4.526c0.665,1.424,1.055,2.818,1.849,4.08c1.491,2.529,2.538,4.919,4.043,6.983
		c1.431,2.083,2.627,4.072,3.997,5.888c1.376,1.809,2.701,3.548,4.023,5.286c5.571,6.773,11.274,13.541,21.9,23.677
		c10.988,10.205,17.717,15.509,24.55,20.55c3.358,2.631,6.919,4.913,11.096,7.74c2.15,1.293,4.473,2.688,7.051,4.238
		c1.325,0.684,2.715,1.401,4.183,2.156c1.468,0.773,3.013,1.586,4.699,2.219c1.282,0.566,4.321,4.314,3.163,6.945
		C309.383,469.488,304.357,470.178,302.757,469.65z"/>
	<path class="st4" d="M303.964,468.001c-13.992-4.225-22.004-6.854-29.857-9.922c-3.951-1.468-7.822-3.214-12.401-5.339
		c-2.254-1.164-4.72-2.34-7.383-3.816c-2.595-1.62-5.603-3.117-8.674-5.346c-12.226-8.398-18.302-15.443-23.584-22.756
		c-1.181-1.932-2.368-3.868-3.601-5.881c-1.256-1.997-2.085-4.331-3.234-6.694c-1.21-2.348-2.016-5.045-2.933-7.988
		c-0.442-1.474-1.012-2.988-1.402-4.624c-0.321-1.652-0.657-3.382-1.009-5.203c-0.272-1.507,0.47-4.849,2.208-4.757
		c1.603-0.553,3.627,2.148,3.96,3.494c0.387,1.676,0.754,3.269,1.107,4.788c0.419,1.498,1.004,2.863,1.46,4.202
		c0.946,2.665,1.766,5.105,2.965,7.191c1.138,2.105,1.944,4.196,3.16,5.96c1.176,1.782,2.302,3.494,3.432,5.206
		c5.006,6.466,10.509,12.719,21.872,20.527c2.839,2.072,5.697,3.491,8.112,5.025c2.509,1.408,4.852,2.548,6.97,3.682
		c4.353,2.085,8.014,3.848,11.802,5.392c7.515,3.214,15.168,6.147,28.98,10.871c1.373,0.492,4.814,3.098,3.98,4.599
		C309.685,468.315,305.366,468.407,303.964,468.001z"/>
	<path class="st4" d="M595.543,229.168c3.424-5.908,5.161-11.213,6.368-15.694c1.127-4.525,1.697-8.384,1.815-12.117
		c0.123-3.712-0.141-7.409-1.353-11.016c-1.284-3.607-3.332-6.793-8.269-8.639c-0.639-0.191-1.267-0.376-1.878-0.558
		c-0.659-0.123-1.302-0.245-1.933-0.363c-1.049-0.1-1.99-0.161-2.91-0.009c-1.826,0.241-3.584,0.955-5.29,1.961
		c-3.421,2.053-6.405,4.91-9.382,7.915c-3.013,3.032-5.964,6.368-10.004,10.209c-2.042,1.908-4.352,3.973-7.458,5.967
		c-3.082,1.891-7.369,3.983-12.691,3.71c-1.069-0.001-2.658-0.902-3.567-2.11c-0.926-1.263-1.21-2.728-0.559-4.031
		c0.324-1.396,1.408-2.477,2.297-3.234c0.92-0.806,1.666-1.285,2.102-1.365c4.226-0.093,8.238-3.938,11.446-7.355
		c3.263-3.523,6.024-7.045,9.115-10.5c3.131-3.439,6.417-7.079,11.808-10.537c2.707-1.677,6.125-3.286,10.348-3.898
		c2.096-0.334,4.364-0.288,6.632-0.019c1.015,0.188,2.056,0.38,3.12,0.576c1.075,0.3,2.176,0.595,3.297,0.969
		c4.602,1.626,8.513,4.434,11.182,7.603c2.704,3.173,4.246,6.527,5.216,9.56c1.872,6.129,1.87,11.185,1.488,15.985
		c-0.419,4.816-1.434,9.43-3.128,14.693c-1.798,5.226-4.169,11.147-8.734,18.044c-0.903,1.452-5.663,3.69-7.641,1.507
		C594.622,234.807,594.978,230.357,595.543,229.168z"/>
	<path class="st4" d="M605.894,239.519c3.424-5.908,5.161-11.213,6.368-15.694c1.127-4.525,1.698-8.384,1.815-12.117
		c0.123-3.712-0.141-7.409-1.353-11.016c-1.282-3.607-3.332-6.793-8.269-8.639c-0.639-0.191-1.267-0.376-1.878-0.558
		c-0.659-0.123-1.302-0.245-1.932-0.363c-1.049-0.1-1.99-0.16-2.91-0.009c-1.826,0.241-3.584,0.955-5.29,1.961
		c-3.421,2.053-6.406,4.91-9.382,7.917c-3.013,3.031-5.964,6.367-10.004,10.207c-2.042,1.908-4.353,3.973-7.458,5.967
		c-3.082,1.891-7.369,3.983-12.691,3.71c-1.069-0.001-2.658-0.902-3.567-2.11c-0.926-1.263-1.21-2.727-0.559-4.031
		c0.324-1.396,1.408-2.477,2.297-3.234c0.92-0.804,1.666-1.285,2.102-1.365c4.229-0.093,8.238-3.938,11.446-7.355
		c3.263-3.523,6.024-7.044,9.118-10.5c3.128-3.439,6.414-7.079,11.805-10.537c2.707-1.676,6.125-3.286,10.351-3.898
		c2.093-0.334,4.361-0.288,6.629-0.019c1.015,0.188,2.056,0.38,3.122,0.576c1.072,0.3,2.173,0.595,3.295,0.969
		c4.602,1.626,8.513,4.434,11.182,7.603c2.704,3.173,4.249,6.527,5.216,9.559c1.872,6.129,1.87,11.185,1.488,15.985
		c-0.419,4.816-1.434,9.431-3.128,14.693c-1.798,5.226-4.169,11.147-8.734,18.044c-0.903,1.452-5.663,3.69-7.641,1.507
		C604.973,245.158,605.329,240.708,605.894,239.519z"/>
	<path class="st4" d="M540.046,669.723c-1.511-1.395-2.483-2.963-3.578-4.37c-1.021-1.439-2.148-2.751-2.927-4.11
		c-1.54-2.721-3.111-5.14-4.224-7.474c-1.09-2.347-2.09-4.507-3.051-6.573c-0.788-2.109-1.543-4.12-2.297-6.133
		c-2.744-8.097-5.124-16.339-7.309-30.935c-2.036-14.288-2.449-22.943-2.701-31.579c-0.206-8.636-0.201-17.268,0.456-31.49
		c0.103-1.456,2.612-4.469,5.525-4.066c2.922-0.245,5.325,2.823,5.379,4.237c0.25,13.919,0.92,22.295,1.566,30.636
		c0.691,8.332,1.327,16.682,3.272,30.257c2.085,13.85,4.086,21.449,6.156,28.943c0.565,1.855,1.13,3.71,1.72,5.654
		c0.717,1.872,1.465,3.829,2.277,5.958c0.826,2.123,2.013,4.198,3.157,6.651c0.582,1.221,1.428,2.285,2.185,3.538
		c0.809,1.198,1.534,2.619,2.641,3.72c0.751,0.906,1.48,5.326-0.631,7.32C545.993,672.378,541.25,670.919,540.046,669.723z"/>
	<path class="st4" d="M531.003,675.158c-1.626-1.259-2.732-2.738-3.943-4.046c-1.141-1.345-2.377-2.553-3.272-3.841
		c-1.769-2.578-3.547-4.85-4.854-7.081c-1.287-2.244-2.474-4.31-3.607-6.285c-0.969-2.031-1.895-3.971-2.819-5.911
		c-3.435-7.831-6.517-15.836-9.958-30.188c-3.263-14.057-4.421-22.645-5.422-31.226c-0.949-8.586-1.692-17.185-2.265-31.411
		c-0.023-1.461,2.214-4.678,5.15-4.529c2.893-0.497,5.551,2.351,5.729,3.756c1.451,13.845,2.841,22.131,4.209,30.385
		c1.408,8.242,2.761,16.506,5.875,29.862c3.272,13.618,5.921,21.014,8.633,28.302c0.723,1.799,1.445,3.598,2.202,5.484
		c0.875,1.804,1.789,3.69,2.784,5.739c1.006,2.044,2.368,4.009,3.719,6.354c0.685,1.166,1.62,2.152,2.483,3.336
		c0.912,1.124,1.755,2.477,2.953,3.477c0.829,0.839,1.932,5.178,0.003,7.349C537.156,677.287,532.305,676.245,531.003,675.158z"/>
	<path class="st4" d="M456.912,757.722c0.479-19.979,1.359-31.364,2.615-42.7c1.408-11.316,2.804-22.692,7.598-42.284
		c4.854-19.136,9.086-30.396,13.714-41.434c1.23-2.733,2.457-5.465,3.739-8.31c1.408-2.787,2.873-5.684,4.447-8.8
		c1.675-3.068,3.521-6.322,5.563-9.884c2.242-3.457,4.427-7.363,7.363-11.396c1.198-1.666,5.583-3.835,7.713-1.768
		c2.621,1.325,2.388,6.126,1.408,7.75c-2.592,3.917-4.482,7.739-6.434,11.091c-1.763,3.472-3.358,6.636-4.794,9.615
		c-1.35,3.025-2.603,5.838-3.811,8.543c-1.098,2.755-2.153,5.402-3.209,8.049c-3.988,10.675-7.802,21.452-12.456,39.828
		c-4.599,18.825-6.17,29.8-7.98,40.707c-1.663,10.942-3.2,21.936-4.579,41.451c-0.161,1.938-2.842,7.326-5.743,6.811
		C459.131,765.369,456.909,759.727,456.912,757.722z"/>
	<path class="st4" d="M455.312,746.083c3.555-19.665,6.185-30.776,9.178-41.784c3.137-10.962,6.271-21.986,14.035-40.602
		c7.75-18.159,13.668-28.63,19.945-38.82c1.637-2.51,3.274-5.021,4.978-7.633c1.824-2.536,3.716-5.173,5.755-8.008
		c2.125-2.773,4.456-5.702,7.022-8.906c2.747-3.068,5.511-6.591,9.032-10.122c1.442-1.462,6.11-2.927,7.894-0.556
		c2.386,1.713,1.414,6.421,0.195,7.874c-3.165,3.471-5.623,6.956-8.069,9.965c-2.279,3.158-4.341,6.039-6.222,8.76
		c-1.801,2.781-3.475,5.366-5.084,7.854c-1.511,2.552-2.962,5.005-4.413,7.456c-5.591,9.929-11.022,19.989-18.457,37.427
		c-7.452,17.889-10.698,28.491-14.167,38.988c-3.335,10.552-6.549,21.178-10.927,40.245c-0.456,1.891-3.94,6.8-6.724,5.844
		C456.324,753.981,454.999,748.065,455.312,746.083z"/>
	<path class="st4" d="M380.103,755.034c-3.203-8.681-4.166-15.852-4.7-21.826c-0.47-5.983-0.585-10.977-0.562-15.819
		c-0.014-4.856,0.115-9.641,0.029-15.131c-0.117-5.479-0.261-11.763-1.967-19.07c-1.763-7.306-4.195-11.813-7.401-15.328
		c-3.171-3.481-6.73-5.821-10.569-7.672c-3.862-1.824-8.083-3.181-13.21-3.925c-5.112-0.708-11.205-0.809-18.491,0.784
		c-1.422,0.303-5.328-0.983-6.053-3.828c-1.442-2.582,1.431-6.143,3.263-6.717c8.768-2.44,16.169-2.763,22.58-2.264
		c6.426,0.548,11.936,1.938,17.201,4.133c5.23,2.237,10.354,5.294,15.142,10.325c1.11,1.332,2.348,2.645,3.432,4.178
		c0.978,1.599,2.228,3.147,3.051,5.023c0.9,1.842,1.864,3.793,2.452,5.773c0.341,1.001,0.691,2.026,1.049,3.075
		c0.318,1.055,0.542,2.151,0.823,3.267c2.128,9.172,2.153,16.275,2.182,22.184c-0.026,5.937-0.33,10.75-0.542,15.495
		c-0.249,4.757-0.41,9.375-0.315,14.802c0.146,5.398,0.639,11.568,2.89,18.906c0.433,1.389-0.103,6.38-2.856,7.386
		C385.1,760.487,380.834,756.807,380.103,755.034z"/>
	<path class="st4" d="M367.681,765.385c-3.203-8.681-4.166-15.852-4.699-21.826c-0.473-5.983-0.585-10.978-0.562-15.819
		c-0.014-4.854,0.115-9.641,0.029-15.131c-0.118-5.479-0.261-11.763-1.967-19.07c-1.763-7.306-4.195-11.813-7.401-15.329
		c-3.171-3.481-6.729-5.821-10.569-7.672c-3.862-1.824-8.083-3.181-13.21-3.925c-5.112-0.708-11.205-0.809-18.491,0.784
		c-1.422,0.302-5.327-0.984-6.053-3.828c-1.442-2.582,1.431-6.143,3.263-6.717c8.768-2.44,16.169-2.763,22.58-2.264
		c6.426,0.548,11.937,1.938,17.201,4.133c5.23,2.237,10.354,5.295,15.142,10.325c1.11,1.332,2.348,2.645,3.432,4.178
		c0.978,1.599,2.228,3.147,3.051,5.023c0.9,1.842,1.861,3.793,2.452,5.775c0.341,0.999,0.691,2.024,1.049,3.074
		c0.318,1.055,0.542,2.151,0.823,3.267c2.128,9.172,2.153,16.275,2.182,22.184c-0.026,5.937-0.333,10.75-0.542,15.495
		c-0.25,4.757-0.41,9.375-0.315,14.802c0.146,5.398,0.639,11.568,2.89,18.906c0.433,1.389-0.103,6.38-2.856,7.386
		C372.679,770.838,368.413,767.158,367.681,765.385z"/>
	<path class="st4" d="M302.138,776.675c-0.955,0.581-1.723,1.272-2.798,1.666c-1.038,0.427-2.07,0.816-3.082,1.16
		c-2.176,0.386-4.295,0.641-6.228,0.284c-1.001-0.085-1.921-0.261-2.73-0.566c-0.834-0.281-1.652-0.556-2.449-0.826
		c-1.359-0.715-2.781-1.379-3.894-2.148c-4.559-3.061-7.28-6.182-9.838-9.3c-5.009-6.307-9.063-12.967-14.514-25.129
		c-5.167-11.948-7.487-19.393-9.628-26.898c-1.049-3.758-1.99-7.551-2.976-12.001c-0.923-4.52-2.039-9.461-2.609-16.463
		c-0.032-0.75,0.528-2.007,1.511-3.005c1.044-1.123,2.432-1.591,3.862-1.217c1.445,0.083,2.767,0.829,3.722,1.315
		c0.998,0.608,1.674,1.356,1.763,1.885c0.846,5.527,2.285,10.41,3.467,14.484c1.253,4.12,2.408,7.647,3.624,11.158
		c2.454,6.998,4.903,14.057,9.749,25.234c5.078,11.329,8.576,17.359,12.335,22.755c1.878,2.664,3.928,5.249,6.48,7.257
		c0.631,0.532,1.282,0.832,1.953,1.336c0.628,0.152,1.339,0.731,1.947,0.711c0.654,0.254,1.262,0.109,1.964,0.171
		c0.35-0.139,0.717-0.252,1.115-0.338c0.401-0.03,0.823-0.454,1.273-0.645c0.181-0.103,0.536-0.072,1.003-0.072
		c0.459-0.047,1.038-0.036,1.677,0.044c1.273,0.173,2.839,0.563,3.811,1.643c1.184,0.883,1.537,2.394,1.305,3.955
		c-0.109,0.774-0.355,1.545-0.651,2.195C302.964,775.948,302.485,776.417,302.138,776.675z"/>
	<path class="st4" d="M312.489,770.464c-0.955,0.581-1.723,1.272-2.799,1.666c-1.038,0.427-2.07,0.816-3.082,1.16
		c-2.176,0.386-4.295,0.641-6.228,0.284c-1.001-0.085-1.921-0.261-2.73-0.566c-0.834-0.281-1.651-0.556-2.449-0.826
		c-1.359-0.715-2.781-1.379-3.894-2.148c-4.559-3.061-7.28-6.182-9.838-9.3c-5.009-6.307-9.064-12.969-14.511-25.129
		c-5.17-11.948-7.489-19.393-9.631-26.898c-1.049-3.758-1.99-7.551-2.976-12.001c-0.923-4.52-2.039-9.461-2.609-16.463
		c-0.031-0.75,0.528-2.007,1.511-3.005c1.044-1.123,2.432-1.591,3.862-1.217c1.445,0.083,2.767,0.829,3.722,1.315
		c0.998,0.608,1.674,1.356,1.763,1.885c0.846,5.527,2.285,10.41,3.466,14.484c1.253,4.12,2.409,7.647,3.624,11.158
		c2.454,6.998,4.903,14.057,9.749,25.234c5.078,11.329,8.576,17.359,12.335,22.755c1.878,2.664,3.928,5.247,6.48,7.257
		c0.631,0.532,1.282,0.83,1.953,1.336c0.628,0.151,1.339,0.731,1.947,0.711c0.654,0.254,1.262,0.109,1.964,0.171
		c0.35-0.139,0.717-0.254,1.115-0.338c0.401-0.03,0.823-0.454,1.273-0.645c0.181-0.103,0.536-0.072,1.004-0.072
		c0.459-0.047,1.038-0.036,1.677,0.044c1.273,0.173,2.839,0.563,3.811,1.643c1.187,0.883,1.537,2.394,1.305,3.956
		c-0.109,0.774-0.355,1.545-0.651,2.193C313.315,769.737,312.836,770.206,312.489,770.464z"/>
	<path class="st4" d="M323.321,748.092c0.207-1.637,0.138-3.457-0.115-5.194c-0.198-1.71-0.545-3.355-0.895-4.885
		c-0.688-3.059-1.451-5.722-2.185-8.444c-0.731-2.715-1.485-5.502-2.231-9c-0.37-1.751-0.748-3.68-1.021-5.991
		c-0.158-1.125-0.252-2.391-0.295-3.779c-0.074-1.419-0.014-2.479-0.02-3.838c0.227-10.154,0.966-16.16,1.855-22.193
		c1.021-6.029,1.973-11.99,5.066-21.965c0.373-1.044,3.404-2.46,6.087-1.279c2.827,0.753,4.57,3.365,4.407,4.244
		c-1.895,8.954-2.199,14.823-2.701,20.498c-0.398,5.713-0.872,11.491-1.072,20.901c0.006,1.138-0.049,2.446,0.009,3.27
		c0.023,0.86,0.069,1.716,0.186,2.602c0.175,1.719,0.456,3.385,0.734,4.949c0.614,3.244,1.133,5.973,1.649,8.704
		c0.519,2.82,1.044,5.697,1.479,9.306c0.215,1.801,0.433,3.773,0.476,6.109c0.072,2.295,0.017,4.988-0.746,8.251
		c-0.218,0.662-1.032,1.771-2.443,2.406c-1.342,0.641-2.813,0.641-4.04-0.178c-1.313-0.611-2.285-1.792-3.008-2.615
		C323.838,749.183,323.261,748.384,323.321,748.092z"/>
	<path class="st4" d="M462.188,787.942c-3.318,4.786-6.242,8.669-10.686,11.398c-1.058,0.674-2.354,1.171-3.495,1.677
		c-1.161,0.496-2.526,0.634-3.756,0.877c-2.486,0.267-4.889,0.007-6.864-0.515c-7.891-2.11-12.367-6.166-21.097-8.305
		c-1.061-0.262-2.085-0.361-3.051-0.555l-0.682-0.12l-0.054,0.011l-0.029-0.024c0,0,0.06-0.06-0.387,0.227
		c-0.439,0.324-1.098,0.896-1.984,1.631c-1.674,1.49-5.006,3.441-8.183,3.653c-3.12,0.271-5.66-0.389-7.616-1.146
		c-4.287-1.505-8.166-4.786-10.672-8.87c-2.538-4.107-4.011-8.93-4.972-14.52c-0.172-1.173,1.821-3.943,4.745-4.185
		c2.833-0.72,5.643,0.994,5.924,1.924c1.221,4.708,2.738,7.957,4.332,10.023c1.643,2.041,3.082,2.903,4.846,3.385
		c1.024,0.341,1.7,0.274,1.875,0.232c0.143-0.116-0.029,0.105,1.084-0.826c0.53-0.459,1.287-1.181,2.429-2.084
		c1.161-0.892,3.022-2.062,5.144-2.611c1.041-0.234,2.185-0.459,3.274-0.426c0.551,0.003,1.11,0.021,1.674,0.057l1.067,0.159
		c1.382,0.241,2.859,0.417,4.355,0.781c6.156,1.477,10.489,3.69,13.78,5.389c3.289,1.723,5.74,3.041,7.63,3.685
		c1.947,0.586,2.71,0.76,4.708-0.066c2.004-0.823,4.768-3.471,7.845-7.277c0.619-0.744,4.29-1.687,6.618,0.07
		C462.598,782.951,462.807,786.927,462.188,787.942z"/>
	<path class="st4" d="M607.356,676.147c0.344,4.669,0.106,8.754-1.153,12.543c-1.216,3.782-3.791,7.101-6.787,9.115
		c-6.07,3.974-12.037,4.237-19.781,5.441l-0.66,0.135l-0.313,0.113l-0.195,0.126l-0.338,0.378l-0.565,0.649
		c-0.513,0.634-1.072,1.174-1.652,1.662c-1.179,0.922-2.446,1.663-3.808,1.994c-1.356,0.323-2.698,0.443-4.023,0.321
		c-1.262-0.12-2.698-0.477-3.707-0.704c-0.786-0.264-1.594-0.529-2.311-0.804l-1.967-0.842c-0.533-0.222-2.033-0.958-2.672-1.464
		c-0.866-0.572-1.505-1.148-2.179-1.745c-1.284-1.187-2.325-2.416-3.369-3.736c-2.047-2.642-3.943-5.65-6.05-9.451
		c-0.413-0.804,0.751-3.65,3.375-4.953c2.426-1.627,5.408-1.416,5.889-0.799c2.251,3.181,4.209,5.555,5.941,7.299
		c0.857,0.854,1.669,1.59,2.36,2.077c0.33,0.217,0.665,0.457,0.88,0.533l0.261,0.099c0.04,0.003,0.055,0.024,0.393,0.129l1.525,0.5
		c0.439,0.116,0.88,0.234,1.33,0.353l0.189-0.063l0.003-0.047l-0.006-0.019l0.241-0.285c0.158-0.175,0.166-0.222,0.508-0.558
		c1.015-1.1,2.546-2.225,4.12-2.975c0.783-0.378,1.545-0.615,2.365-0.899c0.751-0.195,1.497-0.346,2.282-0.502
		c4.493-0.672,7.547-0.972,9.935-1.422c2.348-0.43,3.943-0.905,4.975-1.455c1.018-0.571,1.72-1.075,2.523-2.612
		c0.774-1.525,1.411-4.096,1.537-7.822c0.037-0.717,2.383-3.036,5.296-3.15C604.646,672.817,607.233,675.187,607.356,676.147z"/>
	<path class="st4" d="M593.057,654.156c-2.469,5.307-4.857,7.918-7.266,10.272c-2.489,2.282-5.325,4.397-10.887,6.373
		c-5.488,1.745-9,1.895-12.392,1.74c-3.383-0.271-6.801-0.771-11.942-2.745c-0.539-0.245-0.855-2.909,0.246-5.621
		c0.889-2.776,2.532-4.85,2.916-4.816c3.948,0.681,6.342,0.423,8.648,0.238c2.302-0.269,4.591-0.594,8.123-1.71
		c3.55-1.275,5.342-2.398,7.111-3.531c1.72-1.191,3.599-2.337,5.892-5.464c0.229-0.264,2.973-0.168,5.591,1.114
		C591.815,651.096,593.286,653.57,593.057,654.156z"/>
	<path class="st4" d="M439.447,758.287c-4.714,1.94-7.544,2.536-10.357,3.042c-2.821,0.446-5.697,0.701-10.672,0.204
		c-4.854-0.581-7.727-1.414-10.497-2.497c-2.747-1.128-5.477-2.388-9.568-5.211c-0.419-0.333-0.04-2.952,1.614-5.363
		c1.482-2.512,3.478-4.199,3.822-4.092c3.438,1.421,5.717,1.812,7.92,2.287c2.214,0.444,4.441,0.867,8.16,1.309
		c3.814,0.373,5.987,0.374,8.155,0.433c2.162,0.017,4.396,0.169,8.12-0.505c0.35-0.033,2.194,1.95,3.145,4.707
		C440.43,755.293,439.934,758.046,439.447,758.287z"/>
	<path class="st4" d="M309.438,743.5c-3.811,0.275-6.018,0.303-8.206,0.209c-2.185-0.116-4.373-0.39-8.094-1.368
		c-3.627-1.008-5.74-1.88-7.767-2.907c-2.019-1.044-3.983-2.212-7.071-4.294c-0.307-0.248,0.141-2.78,1.594-5.313
		c1.313-2.606,3.082-4.459,3.395-4.385c3.031,1.038,4.915,1.435,6.75,1.917c1.844,0.5,3.647,0.991,6.635,1.803
		c3.068,0.796,4.817,1.221,6.566,1.728c1.752,0.489,3.501,1.097,6.701,1.715c0.304,0.092,1.138,2.586,0.998,5.501
		C310.955,741.027,309.831,743.438,309.438,743.5z"/>
	<path class="st4" d="M333.099,754.748c1.233,3.782,1.755,6.117,1.961,8.592c0.092,1.242,0.12,2.512-0.077,4.112
		c-0.135,0.817-0.189,1.643-0.516,2.681c-0.258,1.001-0.622,2.122-1.296,3.428c-0.548,1.236-1.488,2.416-2.277,3.373
		c-0.984,0.935-1.829,1.824-2.887,2.37c-1.015,0.598-1.984,1.108-2.95,1.335c-0.955,0.265-1.918,0.545-2.761,0.54
		c-3.578,0.294-6.546-0.594-10.242-2.429c-0.396-0.228-0.275-2.8,0.963-5.449c1.092-2.702,2.598-4.774,2.856-4.767
		c2.669,0.529,3.968,0.189,4.456-0.151l0.258-0.215l0.072-0.145c0.026-0.065,0.06-0.095,0.336-0.618
		c0.571-1.191,0.834-2.834,1.092-4.218c0.247-1.479,0.485-3.127,0.347-6.166c0.017-0.291,2.228-1.705,5.072-2.351
		C330.315,753.872,332.935,754.36,333.099,754.748z"/>
	<path class="st4" d="M361.282,270.568c2.778-1.103,5.345-3.105,7.426-5.167c2.102-2.087,3.799-4.277,5.256-6.376
		c2.841-4.271,4.765-8.219,6.119-12.203c1.348-3.931,2.262-8.149,1.858-12.139c-0.209-1.978-0.823-3.666-1.844-4.841
		c-0.955-1.201-2.767-2.193-5.872-2.637c-1.611-0.271-2.661-0.208-3.934-0.069c-1.224,0.209-2.434,0.52-3.598,1.015
		c-2.334,0.953-4.456,2.341-6.331,3.852c-3.753,3.058-6.586,6.55-8.946,10.243c-2.345,3.707-4.33,7.772-5.534,12.587
		c-0.588,2.398-0.963,4.998-0.831,7.669c0.109,2.682,0.794,5.368,2.423,7.686c0.315,0.483,0.424,1.564,0.401,2.857
		c-0.026,1.259-0.247,2.84-1.244,3.9c-0.703,1.306-2.151,1.858-3.808,1.753c-1.623-0.095-3.3-0.995-3.997-1.864
		c-3.449-4.33-4.84-9.172-5.273-13.306c-0.453-4.185-0.103-7.874,0.496-11.185c1.259-6.625,3.495-11.861,6.271-16.764
		c1.393-2.454,2.976-4.804,4.84-7.117c1.849-2.322,3.974-4.615,6.606-6.821c2.629-2.199,5.737-4.373,9.757-6.066
		c1.999-0.855,4.272-1.515,6.761-1.923c2.463-0.364,5.402-0.381,7.896,0.046c2.655,0.324,5.333,1.145,7.808,2.3
		c1.224,0.626,2.42,1.378,3.51,2.172c1.032,0.925,2.133,1.73,2.925,2.804c3.466,4.115,4.611,8.705,4.94,12.391
		c0.51,7.51-1.193,12.913-3.123,17.994c-2.013,5.065-4.651,9.734-8.493,14.811c-1.973,2.507-4.249,5.115-7.203,7.719
		c-2.979,2.556-6.572,5.283-11.83,7.029c-0.551,0.138-1.396,0.196-2.314,0.136c-0.926-0.069-2.007-0.401-2.885-0.784
		c-1.852-0.935-2.899-2.413-2.489-3.823c0.023-1.462,1.161-2.743,1.999-3.743C359.92,271.65,360.737,270.761,361.282,270.568z"/>
	<path class="st4" d="M486.02,314.995c3.203-0.32,6.242-1.838,8.797-3.704c2.566-1.888,4.708-4.054,6.523-6.229
		c3.621-4.368,6.165-8.615,8.244-13.002c2.073-4.385,3.768-8.999,4.797-14.411c0.895-5.259,1.173-12.078-2.77-15.399
		c-2.343-2.232-4.43-2.906-6.612-2.895c-2.188-0.019-4.565,0.774-6.753,1.986c-4.416,2.463-8,6.023-11.108,9.842
		c-3.068,3.888-5.852,8.208-8.103,13.565c-1.121,2.671-2.151,5.617-2.747,8.838c-0.622,3.203-0.771,6.728,0.06,9.984
		c0.115,0.691-0.063,1.808-0.522,3.098c-0.416,1.22-1.101,2.724-2.389,3.393c-1.075,1.034-2.669,1.006-4.289,0.201
		c-1.534-0.79-2.913-2.384-3.237-3.521c-1.741-5.634-1.589-10.649-1.027-14.941c0.574-4.327,1.666-8.041,2.87-11.415
		c2.437-6.742,5.488-12.074,9.109-17.079c3.73-4.919,7.96-9.671,14.812-13.717c3.432-1.941,7.762-3.751,13.236-3.829
		c2.712-0.123,5.631,0.526,8.459,1.557c2.721,1.206,5.416,2.84,7.541,4.95c0.565,0.551,1.107,1.008,1.654,1.627
		c0.536,0.672,1.064,1.336,1.586,1.99c0.875,1.365,1.743,2.757,2.242,4.128c1.213,2.761,1.62,5.35,1.95,7.763
		c0.447,4.788-0.043,8.801-0.714,12.378c-1.482,7.101-3.748,12.562-6.463,17.749c-2.738,5.17-6.004,10.059-10.813,15.254
		c-2.42,2.582-5.284,5.223-9.021,7.679c-3.725,2.378-8.533,4.764-14.789,5.054c-0.625-0.013-1.543-0.181-2.497-0.485
		c-0.958-0.379-1.953-0.959-2.761-1.583c-1.606-1.449-2.348-3.131-1.6-4.408c0.347-1.418,1.907-2.348,3.188-3.005
		c0.674-0.419,1.302-0.715,1.835-0.939C485.255,315.169,485.705,315.005,486.02,314.995z"/>
	<path class="st4" d="M543.475,269.827c0.811,1.594,1.021,3.131,1.474,4.484c0.261,1.369,0.413,2.614,0.588,3.771
		c0.117,2.287,0.201,4.236-0.023,6.122c-0.367,3.779-1.001,7.585-3.576,13.618c-2.632,5.849-4.926,9.033-7.432,12.004
		c-2.595,2.876-5.207,5.905-11.117,9.125c-0.648,0.311-2.52-0.274-3.088-1.879c-0.809-1.472-0.433-3.315-0.02-3.596
		c4.361-2.883,6.388-5.715,8.372-8.298c1.938-2.665,3.805-5.475,6.062-10.5c2.208-5.178,2.821-8.311,3.36-11.359
		c0.404-3.013,1.052-6.298-0.479-11.237c-0.141-0.446,0.582-2.43,2.105-3.131C541.121,267.994,543.151,269.15,543.475,269.827z"/>
	<path class="st4" d="M335.585,220.509c-1.884,1.074-3.246,2.735-4.278,4.175c-1.055,1.457-1.801,2.856-2.52,4.254
		c-1.325,2.804-2.819,5.882-3.902,11.076c-0.184,1.118-0.301,2.443-0.373,3.614c-0.08,1.166-0.126,2.224-0.146,3.206
		c-0.04,1.967-0.014,3.644,0.092,5.3c0.295,3.264,0.528,6.667,2.776,11.408c0.215,0.456-0.353,2.204-1.803,3.064
		c-1.299,1.091-3.263,0.658-3.664,0.059c-3.432-5.849-4.092-9.917-4.74-13.752c-0.27-1.943-0.407-3.885-0.43-6.129
		c-0.014-1.122,0.011-2.318,0.083-3.623c0.069-1.299,0.152-2.67,0.447-4.507c1.422-6.8,3.249-10.023,5.112-13.352
		c0.998-1.623,2.053-3.217,3.601-4.982c1.568-1.719,3.447-3.835,7.065-5.508c0.344-0.179,1.213-0.131,1.978,0.262
		c0.757,0.367,1.319,1.011,1.411,1.857c0.227,0.807,0.037,1.68-0.135,2.331C335.972,219.89,335.766,220.359,335.585,220.509z"/>
	<path class="st4" d="M415.307,240.495c-0.376,4.093-0.8,6.365-1.325,8.644c-0.556,2.268-1.155,4.535-2.97,8.364
		c-1.824,3.733-3.507,5.875-5.491,7.778c-0.961,0.963-2.156,1.816-3.613,2.659c-1.517,0.767-3.424,1.611-5.932,1.694
		c-0.553,0.01-1.6-1.326-1.442-3.021c-0.017-1.677,0.562-3.176,0.774-3.24c2.506-0.569,3.673-1.963,4.849-3.294
		c1.135-1.402,2.282-2.953,3.77-6.016c1.491-3.154,2.151-5.124,2.873-7.046c0.7-1.931,1.454-3.908,2.28-7.445
		c0.092-0.335,1.637-1.166,3.303-0.902C414.069,238.762,415.322,240.068,415.307,240.495z"/>
	<path class="st4" d="M468.63,257.456c-2.331,2.7-3.203,4.751-4.126,6.629c-0.88,1.922-1.806,3.861-2.916,7.449
		c-1.021,3.524-1.376,5.706-1.643,7.854c-0.218,2.129-0.53,4.361,0.138,7.696c0.049,0.318-1.078,1.515-2.675,2.037
		c-1.546,0.701-3.174,0.227-3.363-0.245c-1.508-4.463-1.525-7.253-1.56-9.958c0.043-2.714,0.336-5.418,1.563-9.654
		c1.325-4.305,2.563-6.585,3.891-8.785c1.402-2.158,2.776-4.37,6.288-7.521c0.393-0.313,2.277-0.133,3.272,1.24
		C468.63,255.441,468.837,257.202,468.63,257.456z"/>
	<path class="st4" d="M708.119,269.779c-19.148,0.532-21.768,0.796-40.914,0.79c-18.738-0.006-22.643-0.27-41.378-0.79
		c-0.958-0.046-2.982-1.464-2.764-3.148c-0.218-1.684,1.806-3.102,2.764-3.148c18.735-0.522,22.64-0.786,41.378-0.791
		c19.145-0.006,21.766,0.258,40.914,0.791c0.955,0.046,3.627,1.462,3.412,3.148C711.746,268.315,709.073,269.733,708.119,269.779z"
		/>
	<path class="st4" d="M713.498,293.067c-15.116,0.532-17.184,0.796-32.3,0.79c-14.792-0.006-17.875-0.268-32.667-0.79
		c-0.754-0.046-2.354-1.464-2.182-3.148c-0.172-1.685,1.428-3.102,2.182-3.148c14.792-0.521,17.875-0.784,32.667-0.79
		c15.116-0.006,17.184,0.258,32.3,0.79c0.754,0.046,2.865,1.464,2.692,3.148C716.362,291.604,714.252,293.022,713.498,293.067z"/>
	<path class="st4" d="M703.281,330.329c-20.157,0.533-22.913,0.796-43.067,0.79c-19.724-0.006-23.833-0.268-43.557-0.79
		c-1.006-0.046-3.137-1.464-2.91-3.148c-0.227-1.684,1.904-3.102,2.91-3.148c19.724-0.52,23.833-0.784,43.557-0.79
		c20.154-0.006,22.91,0.258,43.067,0.79c1.003,0.046,3.819,1.464,3.59,3.148C707.101,328.866,704.285,330.284,703.281,330.329z"/>
	<path class="st4" d="M676.085,379.927c10.076-0.533,11.455-0.797,21.531-0.791c9.864,0.006,11.917,0.27,21.78,0.791
		c0.502,0.046,1.568,1.462,1.454,3.148c0.115,1.685-0.952,3.102-1.454,3.147c-9.864,0.522-11.917,0.786-21.78,0.791
		c-10.076,0.006-11.455-0.258-21.531-0.791c-0.505-0.045-1.912-1.462-1.798-3.147C674.173,381.389,675.581,379.972,676.085,379.927z
		"/>
	<path class="st4" d="M593.326,445.135c16.123-0.533,18.331-0.796,34.453-0.79c15.779,0.006,19.065,0.268,34.843,0.79
		c0.806,0.046,2.512,1.464,2.328,3.148c0.184,1.685-1.522,3.102-2.328,3.148c-15.779,0.52-19.065,0.784-34.843,0.79
		c-16.123,0.006-18.331-0.258-34.453-0.79c-0.806-0.046-3.057-1.464-2.873-3.148C590.27,446.598,592.521,445.181,593.326,445.135z"
		/>
	<path class="st4" d="M666.918,539.929c-15.114,0.532-17.184,0.796-32.3,0.79c-14.792-0.006-17.875-0.27-32.667-0.79
		c-0.754-0.046-2.351-1.464-2.182-3.148c-0.169-1.686,1.428-3.102,2.182-3.148c14.792-0.522,17.875-0.786,32.667-0.791
		c15.116-0.006,17.187,0.258,32.3,0.791c0.754,0.046,2.864,1.462,2.695,3.148C669.783,538.465,667.675,539.883,666.918,539.929z"/>
	<path class="st4" d="M653.488,567.875c-12.094,0.532-13.749,0.796-25.84,0.79c-11.836-0.006-14.302-0.27-26.135-0.79
		c-0.602-0.046-1.881-1.464-1.746-3.148c-0.135-1.685,1.144-3.102,1.746-3.148c11.833-0.522,14.299-0.784,26.135-0.79
		c12.091-0.006,13.746,0.257,25.84,0.79c0.602,0.046,2.291,1.464,2.153,3.148C655.779,566.411,654.09,567.829,653.488,567.875z"/>
	<path class="st4" d="M569.496,617.471c13.101-0.532,14.893-0.796,27.993-0.79c12.82,0.006,15.492,0.27,28.312,0.79
		c0.654,0.046,2.039,1.464,1.892,3.148c0.146,1.686-1.239,3.102-1.892,3.148c-12.82,0.522-15.492,0.786-28.312,0.791
		c-13.101,0.006-14.893-0.258-27.993-0.791c-0.654-0.046-2.483-1.462-2.334-3.148C567.013,618.934,568.842,617.517,569.496,617.471z
		"/>
	<path class="st4" d="M509.097,702.949c-12.091,0.533-13.749,0.797-25.84,0.791c-11.833-0.006-14.299-0.269-26.133-0.791
		c-0.605-0.046-1.884-1.462-1.746-3.148c-0.138-1.685,1.141-3.102,1.746-3.148c11.833-0.521,14.299-0.784,26.133-0.79
		c12.091-0.006,13.749,0.258,25.84,0.79c0.605,0.046,2.291,1.464,2.156,3.148C511.387,701.487,509.702,702.903,509.097,702.949z"/>
	<path class="st4" d="M477.393,735.553c-7.053,0.533-8.02,0.797-15.073,0.791c-6.902-0.006-8.341-0.27-15.243-0.791
		c-0.353-0.046-1.098-1.462-1.021-3.148c-0.077-1.685,0.668-3.102,1.021-3.147c6.902-0.522,8.341-0.786,15.243-0.791
		c7.053-0.006,8.02,0.258,15.073,0.791c0.353,0.044,1.339,1.462,1.259,3.147C478.732,734.091,477.745,735.509,477.393,735.553z"/>
	<path class="st4" d="M481.149,148.678c-12.091,0.532-13.746,0.796-25.84,0.79c-11.833-0.006-14.299-0.27-26.133-0.79
		c-0.605-0.046-1.881-1.464-1.746-3.148c-0.138-1.685,1.141-3.102,1.746-3.148c11.833-0.522,14.299-0.784,26.133-0.79
		c12.094-0.006,13.749,0.257,25.84,0.79c0.605,0.046,2.294,1.464,2.156,3.148C483.443,147.214,481.754,148.632,481.149,148.678z"/>
	<path class="st4" d="M504.44,176.624c-12.094,0.533-13.749,0.796-25.84,0.79c-11.836-0.006-14.302-0.268-26.135-0.79
		c-0.602-0.046-1.881-1.464-1.746-3.148c-0.135-1.684,1.144-3.102,1.746-3.148c11.833-0.52,14.299-0.784,26.135-0.79
		c12.091-0.006,13.746,0.258,25.84,0.79c0.602,0.046,2.291,1.464,2.153,3.148C506.731,175.16,505.042,176.578,504.44,176.624z"/>
	<path class="st4" d="M658.506,185.939c-10.078,0.532-11.458,0.796-21.533,0.79c-9.861-0.006-11.917-0.27-21.78-0.79
		c-0.502-0.046-1.568-1.464-1.454-3.148c-0.115-1.685,0.952-3.102,1.454-3.148c9.864-0.522,11.919-0.784,21.78-0.79
		c10.076-0.006,11.455,0.257,21.533,0.79c0.502,0.046,1.91,1.464,1.795,3.148C660.415,184.476,659.008,185.894,658.506,185.939z"/>
	<path class="st4" d="M657.964,218.544c-13.101,0.532-14.893,0.796-27.993,0.79c-12.82-0.006-15.492-0.268-28.312-0.79
		c-0.654-0.046-2.039-1.464-1.89-3.148c-0.149-1.685,1.236-3.102,1.89-3.148c12.82-0.52,15.492-0.784,28.312-0.79
		c13.101-0.006,14.893,0.258,27.993,0.79c0.654,0.046,2.483,1.464,2.337,3.148C660.447,217.08,658.618,218.498,657.964,218.544z"/>
	<path class="st4" d="M345.311,341.991c-4.324,0.447-6.572-1.535-7.303-4.595c-2.196-9.177,9.256-28.029,19.294-19.939
		c6.692,5.393,3.693,11.528-0.978,16.312C351.656,338.554,345.311,341.991,345.311,341.991z"/>
	<path class="st4" d="M416.517,359.918c-3.736-4.024-5.838-9.641-6.463-14.973c-1.273-10.904,3.639-20.622,13.388-13.107
		c3.63,2.797,5.657,6.645,6.491,10.668C432.442,354.578,424.245,368.239,416.517,359.918z"/>
	<path class="st4" d="M139.482,145.268c0,0-10.778,3.607-8.137,1.627l-2.171,1.084l8.679-4.882l5.425-5.425l1.308-0.933
		c8.605-25.371,18.571-55.527,26.402-79.787l-7.096,5.323l-2.171,0.542l5.425-7.594c0,0,0.548,0.467,5.505-3.439
		c6.621-20.61,11.377-36.028,11.85-38.871c1.33-7.971-25.53-13.767-43.414-9.433l1.104,1.839l2.171,4.34l-7.051-3.798l-1.987-0.466
		c-1.68,0.743-3.211,1.614-4.522,2.635c-5.955,4.632-12.45,29.166-18.058,58.623l4.496-1.124l-0.542,3.254l-2.713,0.542l-2.17,4.882
		c0,0-0.336,0.91-0.875,2.292c-1.614,9.075-3.134,18.422-4.525,27.684l1.061-0.142l4.338-3.254c0,0,2.17-2.171,3.796-2.171
		l3.254,1.087l-2.71,4.338l-4.883,2.713l-1.626,4.34l-1.087,2.712l-3.819,1.911c-2.52,17.988-4.456,34.861-5.531,47.62
		c1.62-1.094,3.085-2.003,3.925-2.34c0,0-0.542,4.34-2.71,5.967c-0.55,0.411-1.098,0.892-1.611,1.381
		c-0.358,4.973-0.559,9.148-0.559,12.18c0,11.392,14.646,14.646,14.646,14.646s8.135,1.627,13.018-6.51
		c1.591-2.652,8.203-21.228,16.444-45.392C140.514,144.256,139.482,145.268,139.482,145.268z"/>
	<path class="st4" d="M109.031,255.843l-1.012-3.716c0,0-0.358-0.414-0.806-0.922c-0.978-0.694-1.695-1.366-1.907-1.789
		c-0.364-0.731,0.981,0.741,1.907,1.789c1.525,1.082,3.704,2.219,5.689,2.55c0.45,0.075,0.923,0.162,1.405,0.254
		c4.396-2.03,7.271-4.593,7.271-4.593s0-8.137,0-13.019c0-4.882,1.629-9.763-6.509-13.018c-8.134-3.256-8.134-17.901-22.781-8.137
		c-14.646,9.765-9.026,29.225-1.629,35.801C96.96,256.643,103.554,257.112,109.031,255.843z"/>
</g>
</svg>
