<?xml version="1.0" encoding="utf-8"?>
<!-- Generator: Adobe Illustrator 22.1.0, SVG Export Plug-In . SVG Version: 6.00 Build 0)  -->
<svg version="1.1" id="_x31__1_" xmlns="http://www.w3.org/2000/svg" xmlns:xlink="http://www.w3.org/1999/xlink" x="0px" y="0px"
	 viewBox="0 0 850 815" style="enable-background:new 0 0 850 815;" xml:space="preserve">
<style type="text/css">
	.st0{fill:#BF9660;}
	.st1{fill:#F4CA7F;}
	.st2{fill:#FFF7A9;}
	.st3{fill:#D1A775;}
	.st4{fill:#FFFFFF;}
	.st5{fill:#AE8756;}
	.st6{fill:#EDC89A;}
	.st7{fill:#AA8765;}
	.st8{fill:#FF9B8B;}
	.st9{fill:#4D251D;}
	.st10{fill:#4D261E;}
	.st11{fill:#4C251D;}
</style>
<g>
	<path class="st0" d="M405.095,362.056c-11.88-14.622-19.192-91.387,31.071-127.94c-2.741-30.158,7.312-54.832,31.072-55.746
		c23.76-0.913,21.019,19.191,29.243,19.191c8.225,0,36.555-11.88,36.555-11.88s0-36.554,28.329-32.899
		c28.33,3.656,31.071,24.675,31.071,24.675s74.023,23.76,95.955,96.869c26.502-25.588,36.555-100.524,27.416-112.404
		c-9.138-11.88-18.277-15.536-22.847-23.76c-4.569-8.226,7.312-28.33,21.933-20.106c-5.483-30.157,22.847-52.089,51.176-43.865
		c28.33,8.225,32.899,38.382,27.416,59.401c-5.482,21.019-13.707,40.21-13.707,40.21s-15.536,94.128-34.727,134.337
		c-19.192,40.21-24.675,52.091-24.675,52.091s42.038,101.439-25.588,180.945c-5.483,14.621-2.742,25.587,6.397,31.985
		c9.138,6.397,15.536,20.104,13.707,32.898c-1.827,12.795-15.536,31.073-51.176,31.073s-63.969-3.657-80.419-31.073
		c-16.449-27.414,9.138-54.83,18.277-61.227c9.138-6.398-21.019-5.483-21.019-5.483s-31.986-0.915-43.866,0.913
		c-11.88,1.828-4.568,21.933,9.139,28.33c13.708,6.397,37.469,21.932,31.072,45.693c-6.398,23.76-38.382,31.985-76.764,25.588
		c-38.382-6.398-62.143-34.727-65.798-57.574c-3.656-22.846,2.742-49.348,2.742-49.348S425.2,510.1,424.286,499.134
		c-0.914-10.967-5.483,4.569-28.33-5.483c-22.846-10.052-35.64-54.831-23.76-88.644
		C384.076,371.193,405.095,362.056,405.095,362.056z"/>
	<path class="st1" d="M87.129,509.772c-17.242-8.36,4.701-71.051,63.737-100.83c-3.135-11.493-4.702-36.047,5.224-51.199
		c9.926-15.151,23.509-7.837,27.166,3.135c2.09-17.24,9.404-23.51,20.897-20.897c11.494,2.612,18.286,14.105,17.764,25.599
		c-0.522,11.493-0.522,11.493-0.522,11.493s61.647-1.045,83.066,24.554c9.404-7.837,13.583-26.122,15.15-41.272
		c1.568-15.151,18.807-19.33,27.167-5.746c8.359,13.583-9.404,66.872-23.51,76.798c4.703,13.06-8.881,63.737-26.121,71.051
		c13.583,6.792,28.211,84.112-8.882,133.744c14.629,15.672,3.657,48.586-16.718,56.945c-20.374,8.36-35.525,6.27-47.019-4.179
		c-11.493-10.45-8.882-17.764,8.36-17.764c17.24,0,27.689-1.044,28.211-12.537c0.522-11.494-9.926-10.45-18.807-10.45
		c-8.882,0-45.453,5.747-67.918,36.571c-22.464,30.823-27.166,44.929-47.541,47.541c-20.375,2.613-39.704-3.657-52.766-15.672
		c-13.06-12.017-0.523-30.824,15.151-27.168c15.673,3.657,30.823,7.836,30.823,7.836l-3.134-17.24c0,0-43.885,3.657-83.068-30.823
		c-39.182-34.482-29.778-74.187-10.971-84.635c18.808-10.448,44.407-5.746,48.587,6.27c4.179,12.016,14.628,36.048,27.689,40.751
		c-3.135-9.927,4.18-48.588,4.18-48.588s-45.451-28.733-69.484-48.586c-24.032-19.852-21.942-36.048-15.672-43.884
		c6.268-7.837,18.807-5.225,24.554,3.657C48.468,483.128,77.725,506.637,87.129,509.772z"/>
	<path class="st2" d="M193.656,367.495c2.09-17.24,9.404-23.51,20.897-20.898c0.343,0.078,0.667,0.189,1.002,0.282
		c-2.932-3.347-6.777-5.849-11.402-6.899c-10.491-2.385-17.486,2.66-20.217,16.668C188.356,358.394,192.012,362.563,193.656,367.495
		z"/>
	<path class="st2" d="M87.129,509.771c-0.91-0.303-2.051-0.846-3.292-1.497c5.646,4.02,10.685,7.113,13.69,8.115
		c-17.24-8.36,4.702-71.051,63.737-100.83c-3.134-11.493-4.701-36.048,5.225-51.199c4.402-6.718,9.519-9.005,14.175-8.528
		c-5.483-7.714-16.292-10.732-24.574,1.911c-9.926,15.15-8.359,39.704-5.224,51.198C91.83,438.719,69.887,501.412,87.129,509.771z"
		/>
	<path class="st2" d="M314.861,408.245c9.404-7.836,13.583-26.122,15.151-41.272c0.998-9.656,8.362-14.827,15.736-13.812
		c-8.661-11.748-24.629-7.372-26.136,7.193c-1.488,14.378-5.337,31.563-13.762,39.977
		C309.289,402.639,312.358,405.254,314.861,408.245z"/>
	<path class="st2" d="M75.89,544.566c-11.236-7.788-22.873-16.223-31.652-23.476c-24.031-19.852-21.942-36.047-15.673-43.884
		c3.299-4.124,8.333-5.331,13.201-4.277c-6.083-7.796-17.655-9.773-23.6-2.341c-6.27,7.836-8.36,24.031,15.672,43.884
		c11.372,9.394,27.534,20.772,41.413,30.158L75.89,544.566z"/>
	<path class="st2" d="M44.239,655.88c-39.182-34.482-29.779-74.187-10.971-84.635c11.705-6.503,26.037-7.132,36.203-3.788
		c-7.43-9.361-29.726-12.206-46.603-2.83c-18.807,10.449-28.211,50.154,10.971,84.634c6.882,6.056,13.906,10.914,20.814,14.844
		C51.167,661.634,47.685,658.912,44.239,655.88z"/>
	<path class="st3" d="M510.166,205.163c8.224,0,36.554-11.88,36.554-11.88s0-36.554,28.331-32.899
		c3.204,0.414,6.064,1.058,8.647,1.861c-4.631-4.25-11.667-8.086-22.332-9.463c-28.329-3.656-28.329,32.899-28.329,32.899
		s-19.425,8.144-30.774,10.943C504.964,201.046,506.446,205.163,510.166,205.163z"/>
	<path class="st3" d="M622.396,192.02c-6.271-3.849-12.013-6.852-16.766-9.1c0.381,1.325,0.491,2.139,0.491,2.139
		S612.662,187.171,622.396,192.02z"/>
	<path class="st3" d="M715.808,161.92c8.227,10.696,0.892,72.48-19.988,103.37c2.368,5.247,4.496,10.766,6.256,16.637
		c26.503-25.588,36.555-100.524,27.416-112.404c-9.138-11.88-18.277-15.536-22.846-23.76c-4.57-8.226,7.31-28.33,21.933-20.106
		c-5.483-30.157,22.847-52.089,51.176-43.865c0.486,0.141,0.913,0.338,1.385,0.493c-4.034-3.493-8.972-6.324-15.071-8.095
		c-28.329-8.224-56.658,13.708-51.176,43.865c-14.621-8.224-26.501,11.88-21.933,20.104
		C697.531,146.384,706.669,150.04,715.808,161.92z"/>
	<path class="st3" d="M385.882,412.609c11.88-33.813,32.899-42.951,32.899-42.951c-11.88-14.622-19.192-91.387,31.07-127.94
		c-2.741-30.158,7.311-54.833,31.072-55.746c2.115-0.081,4.013,0.01,5.734,0.233c-3.371-4.372-8.689-8.247-19.419-7.835
		c-23.76,0.914-33.813,25.588-31.071,55.746c-50.263,36.554-42.952,113.318-31.072,127.94c0,0-21.019,9.138-32.899,42.951
		c-11.88,33.813,0.914,78.592,23.76,88.644c1.891,0.832,3.646,1.475,5.297,1.986C383.882,479.694,375.551,442.012,385.882,412.609z"
		/>
	<path class="st3" d="M596.984,613.658c-16.451-27.416,9.138-54.83,18.277-61.229c6.821-4.775-8.253-5.476-16.333-5.525
		c-7.966,6.791-21.423,22.79-21.001,41.045c8.198,7.167,14.743,16.825,13.579,28.837c5.805,6.051,12.538,10.385,20.134,13.406
		C606.048,625.975,601.134,620.577,596.984,613.658z"/>
	<path class="st3" d="M448.024,589.898c-3.656-22.846,2.741-49.349,2.741-49.349s-11.88-22.847-12.794-33.813
		c-0.645-7.749-3.126-2.272-12.581-1.935c3.143,11.685,11.691,28.145,11.691,28.145s-6.398,26.503-2.742,49.348
		c2.907,18.169,18.565,39.766,44.142,51.081C461.03,621.446,450.369,604.557,448.024,589.898z"/>
	<path class="st4" d="M239.956,536.596c-22.952,3.367-38.076,26.122-40.29,48.702c-2.214,22.58,15.053,45.603,41.618,44.274
		c26.563-1.327,38.075-29.663,40.29-50.473C283.788,558.29,273.162,531.726,239.956,536.596z"/>
	<path class="st5" d="M638.751,310.882c0.197-1.397-0.175-3.584-0.879-5.755c-0.694-2.174-1.734-4.31-2.529-5.753
		c-0.801-1.441-2.056-3.454-3.531-5.199c-1.463-1.75-3.121-3.226-4.409-3.802c-0.537-0.254-2.162-0.905-3.253,0.374
		c-1.271,1.099-0.768,2.642-0.628,3.156c0.798,2.419,3.79,6.675,5.093,9.193c1.441,2.442,3.457,7.237,5.083,9.198
		c0.362,0.394,1.399,1.638,3.006,1.146C638.367,313.196,638.679,311.472,638.751,310.882z"/>
	<path class="st5" d="M654.468,293.071c0.051-1.398-0.569-3.518-1.559-5.56c-0.978-2.049-2.333-3.986-3.352-5.269
		c-1.028-1.279-2.615-3.029-4.396-4.437c-1.773-1.419-3.704-2.492-5.078-2.75c-0.577-0.126-2.293-0.363-3.047,1.139
		c-0.968,1.375-0.165,2.724,0.069,3.181c1.255,2.104,4.829,5.497,6.443,7.665c1.756,2.053,4.272,6.289,6.048,7.978
		c0.394,0.33,1.529,1.411,3.085,0.772C654.315,295.388,654.463,293.662,654.468,293.071z"/>
	<path class="st5" d="M622.088,260.43c-0.221-2.878-3.43-8.238-5.427-10.894c-1.909-2.722-6.011-7.432-8.681-8.533
		c-0.549-0.245-2.202-0.909-3.29,0.371c-1.278,1.095-0.697,2.702-0.515,3.24c0.936,2.542,4.507,6.935,6.263,9.44
		c1.839,2.447,4.913,7.202,7.041,8.878c0.456,0.339,1.803,1.389,3.239,0.512C622.271,262.806,622.153,261.028,622.088,260.43z"/>
	<path class="st5" d="M640.032,242.896c0.064-2.408-2.743-6.631-4.608-8.541c-1.736-2.027-5.694-5.197-8.097-5.348
		c-0.495-0.056-1.962-0.124-2.728,1.37c-0.941,1.392-0.352,2.593-0.18,2.997c0.918,1.879,3.903,4.519,5.331,6.171
		c1.519,1.569,3.884,4.778,5.674,5.859c0.387,0.208,1.532,0.902,3.003,0.088C639.98,244.861,640.044,243.396,640.032,242.896z"/>
	<path class="st5" d="M675.807,260.313c0.066-1.312-0.5-3.278-1.394-5.178c-0.884-1.909-2.103-3.725-3.014-4.937
		c-0.918-1.207-2.337-2.873-3.932-4.243c-1.586-1.378-3.325-2.456-4.605-2.748c-0.537-0.137-2.141-0.429-3.01,1.008
		c-1.059,1.306-0.426,2.654-0.243,3.107c0.992,2.11,4.191,5.453,5.659,7.516c1.585,1.973,3.933,5.959,5.694,7.488
		c0.387,0.299,1.512,1.275,3.056,0.609C675.637,262.489,675.79,260.868,675.807,260.313z"/>
	<path class="st5" d="M685.456,301.269c0.482-2.786-1.466-8.581-2.901-11.492c-1.303-2.971-4.487-8.193-6.93-9.614
		c-0.498-0.314-2.007-1.173-3.27-0.064c-1.416,0.905-1.118,2.522-1.037,3.058c0.483,2.548,3.098,7.212,4.268,9.867
		c1.278,2.603,3.167,7.607,4.807,9.616c0.359,0.407,1.404,1.675,3.009,1.173C685.062,303.56,685.378,301.85,685.456,301.269z"/>
	<path class="st5" d="M713.59,362.922c0.719-1.655-0.035-4.857-0.49-6.558c-0.456-1.702-1.401-4.851-2.85-5.928
		c-0.303-0.225-1.219-0.891-2.82-0.387c-1.638,0.362-2.098,1.397-2.248,1.744c-0.716,1.655,0.035,4.855,0.49,6.558
		c0.456,1.701,1.401,4.85,2.849,5.926c0.303,0.225,1.219,0.891,2.82,0.388C712.979,364.303,713.44,363.268,713.59,362.922z"/>
	<path class="st5" d="M689.404,357.822c0.943-2.557,0.084-8.349-0.746-11.346c-0.709-3.028-2.736-8.521-4.792-10.313
		c-0.416-0.385-1.694-1.474-3.159-0.653c-1.569,0.6-1.628,2.195-1.663,2.72c-0.081,2.518,1.522,7.426,2.165,10.15
		c0.744,2.697,1.694,7.773,2.975,9.943c0.283,0.445,1.099,1.815,2.765,1.588C688.628,359.93,689.224,358.362,689.404,357.822z"/>
	<path class="st5" d="M660.405,357.613c0.65-2.782-0.943-8.767-2.199-11.805c-1.121-3.091-3.977-8.585-6.334-10.201
		c-0.477-0.355-1.935-1.335-3.273-0.315c-1.478,0.801-1.278,2.455-1.232,3.003c0.325,2.608,2.66,7.522,3.67,10.292
		c1.123,2.729,2.711,7.932,4.228,10.078c0.335,0.437,1.303,1.791,2.935,1.388C659.876,359.904,660.292,358.197,660.405,357.613z"/>
	<path class="st5" d="M626.903,344.278c0.404-1.983-0.976-5.651-1.764-7.596c-0.79-1.947-2.354-5.539-4.026-6.68
		c-0.35-0.237-1.404-0.943-2.926-0.232c-1.585,0.549-1.852,1.79-1.935,2.203c-0.407,1.984,0.972,5.651,1.764,7.597
		c0.788,1.947,2.354,5.538,4.026,6.679c0.35,0.239,1.404,0.943,2.923,0.233C626.551,345.933,626.817,344.692,626.903,344.278z"/>
	<path class="st5" d="M601.951,286.369c0.404-1.983-0.975-5.65-1.763-7.596c-0.79-1.947-2.355-5.538-4.027-6.68
		c-0.349-0.237-1.404-0.943-2.925-0.231c-1.586,0.548-1.852,1.789-1.936,2.203c-0.407,1.983,0.973,5.65,1.761,7.597
		c0.79,1.947,2.354,5.539,4.029,6.679c0.347,0.24,1.404,0.943,2.924,0.233C601.599,288.024,601.865,286.783,601.951,286.369z"/>
	<path class="st5" d="M668.929,329.786c0.793-2.163-0.239-6.792-1.064-9.169c-0.739-2.404-2.64-6.75-4.556-8.028
		c-0.392-0.277-1.584-1.049-3.025-0.188c-1.532,0.687-1.648,2.033-1.697,2.476c-0.175,2.122,1.307,5.985,1.968,8.129
		c0.734,2.12,1.82,6.111,3.214,7.72c0.3,0.329,1.189,1.346,2.832,0.996C668.271,331.568,668.779,330.24,668.929,329.786z"/>
	<path class="st5" d="M604.537,313.384c-0.123-2.002-2.098-5.247-3.058-7.073c-1.017-1.793-2.682-5.207-4.3-6.393
		c-0.348-0.239-1.377-0.989-2.928-0.346c-1.61,0.469-1.894,1.78-1.97,2.226c-0.426,2.131,1.298,6.175,2.453,8.201
		c1.081,2.064,3.553,5.698,5.578,6.49c0.416,0.177,1.672,0.648,2.936-0.455C604.626,315.076,604.552,313.806,604.537,313.384z"/>
	<path class="st5" d="M580.791,190.455c0.562-1.926-0.199-5.648-0.482-7.691c-0.352-2.032-0.761-5.809-1.882-7.473
		c-0.246-0.341-0.961-1.395-2.638-1.316c-1.677-0.104-2.386,1.034-2.608,1.428c-1.123,1.861-0.869,6.249-0.471,8.546
		c0.318,2.309,1.414,6.565,3.049,7.996c0.333,0.307,1.355,1.176,2.918,0.567C580.301,192.077,580.661,190.856,580.791,190.455z"/>
	<path class="st5" d="M591.174,232.977c-0.206-1.927-2.563-4.747-3.868-6.223c-1.303-1.476-3.813-4.163-5.699-4.605
		c-0.394-0.092-1.579-0.358-2.781,0.813c-1.31,1.047-1.194,2.257-1.15,2.66c0.207,1.928,2.564,4.748,3.869,6.224
		c1.303,1.476,3.81,4.163,5.699,4.605c0.394,0.092,1.579,0.358,2.78-0.813C591.334,234.591,591.218,233.38,591.174,232.977z"/>
	<path class="st5" d="M608.401,221.741c-0.286-2.798-3.66-7.848-5.766-10.294c-2.005-2.528-6.329-6.794-9.023-7.602
		c-0.554-0.188-2.219-0.669-3.192,0.701c-1.173,1.206-0.503,2.714-0.296,3.218c1.071,2.375,4.768,6.296,6.583,8.58
		c1.902,2.215,5.054,6.583,7.186,8.082c0.456,0.299,1.81,1.24,3.216,0.318C608.64,224.046,608.48,222.321,608.401,221.741z"/>
	<path class="st5" d="M640.807,210.774c0.01-1.199-0.638-2.928-1.612-4.546c-0.965-1.627-2.256-3.114-3.217-4.083
		c-0.963-0.965-2.44-2.267-4.061-3.242c-1.613-0.987-3.337-1.646-4.536-1.642c-0.507-0.013-1.99,0.068-2.583,1.638
		c-0.781,1.49-0.079,2.614,0.123,2.996c1.079,1.751,4.15,4.103,5.602,5.669c1.557,1.463,3.889,4.55,5.635,5.64
		c0.38,0.206,1.501,0.913,2.992,0.144C640.726,212.764,640.817,211.281,640.807,210.774z"/>
	<path class="st5" d="M674.172,238.163c0.281-1.32-0.024-3.439-0.775-5.497c-0.732-2.066-1.914-4.023-2.832-5.308
		c-0.928-1.278-2.414-3.017-4.142-4.363c-1.717-1.359-3.631-2.318-4.973-2.469c-0.567-0.085-2.231-0.165-2.866,1.39
		c-0.845,1.454-0.076,2.672,0.135,3.089c0.554,0.988,1.669,2.144,2.761,3.373c1.095,1.22,2.152,2.529,2.846,3.48
		c0.685,0.959,1.594,2.374,2.404,3.799c0.823,1.422,1.569,2.845,2.33,3.684c0.33,0.332,1.244,1.446,2.891,1.103
		C673.625,240.331,674.076,238.726,674.172,238.163z"/>
	<path class="st5" d="M604.768,187.859c0.256-1.252-0.049-3.225-0.741-5.151c-0.678-1.933-1.749-3.779-2.576-5
		c-0.835-1.219-2.163-2.89-3.714-4.227c-1.539-1.348-3.265-2.354-4.523-2.572c-0.529-0.11-2.099-0.291-2.891,1.191
		c-0.976,1.368-0.37,2.621-0.204,3.043c0.928,1.949,3.763,4.959,4.979,6.896c1.359,1.84,3.123,5.579,4.598,7.156
		c0.333,0.308,1.278,1.33,2.908,0.921C604.271,189.919,604.678,188.393,604.768,187.859z"/>
	<path class="st5" d="M560.194,216.943c0.585-1.994,0.106-5.919,0.106-8.082c-0.114-2.161,0.16-6.107-0.532-8.066
		c-0.165-0.404-0.606-1.657-2.255-1.967c-1.601-0.503-2.581,0.561-2.889,0.942c-1.576,1.768-2.158,6.687-2.01,9.294
		c-0.01,2.61,0.83,7.491,2.497,9.173c0.327,0.365,1.362,1.376,2.933,0.79C559.676,218.628,560.05,217.354,560.194,216.943z"/>
	<path class="st5" d="M537.689,225.412c0.813-1.968,0.749-6.07,0.961-8.301c0.099-2.237,0.729-6.305,0.185-8.371
		c-0.131-0.427-0.481-1.742-2.111-2.152c-1.566-0.602-2.615,0.414-2.952,0.777c-1.687,1.681-2.682,6.572-2.793,9.213
		c-0.256,2.628,0.057,7.625,1.509,9.523c0.286,0.407,1.195,1.554,2.825,1.162C536.983,227.071,537.502,225.816,537.689,225.412z"/>
	<path class="st5" d="M497.891,237.006c1.051-1.815,1.788-5.72,2.582-7.771c0.645-2.102,2.482-5.626,2.779-7.703
		c0.032-0.438,0.23-1.776-1.091-2.816c-1.181-1.193-2.598-0.622-3.065-0.385c-1.118,0.523-2.452,1.898-3.53,3.538
		c-1.089,1.633-1.892,3.514-2.359,4.851c-0.461,1.338-0.993,3.313-1.147,5.27c-0.168,1.954,0.028,3.861,0.584,4.964
		c0.22,0.474,0.98,1.798,2.646,1.592C496.972,238.547,497.645,237.372,497.891,237.006z"/>
	<path class="st5" d="M491.502,209.798c1.556-0.231,3.151-2.244,3.962-3.355c0.812-1.112,2.244-3.244,1.989-4.796
		c-0.053-0.324-0.223-1.3-1.611-2.243c-1.32-1.034-2.301-0.898-2.627-0.85c-1.557,0.23-3.151,2.244-3.962,3.355
		c-0.812,1.111-2.244,3.243-1.989,4.796c0.054,0.324,0.225,1.3,1.611,2.241C490.195,209.982,491.177,209.846,491.502,209.798z"/>
	<path class="st5" d="M515.492,215.379c0.757-1.818,0.691-5.45,0.952-7.434c0.138-1.998,0.921-5.544,0.539-7.476
		c-0.103-0.4-0.344-1.644-1.908-2.255c-1.485-0.783-2.62,0.048-2.985,0.359c-1.845,1.405-3.137,6.07-3.297,8.606
		c-0.344,2.516-0.002,7.346,1.528,9.087c0.297,0.377,1.245,1.417,2.854,0.943C514.831,216.921,515.312,215.751,515.492,215.379z"/>
	<path class="st5" d="M457.259,236.774c1.192-1.575,2.025-5.133,2.755-7.008c0.617-1.913,2.217-5.199,2.289-7.173
		c-0.007-0.415,0.042-1.683-1.343-2.631c-1.271-1.097-2.561-0.549-2.988-0.331c-2.108,0.942-4.439,5.151-5.204,7.559
		c-0.928,2.349-1.778,7.086-0.738,9.146c0.192,0.437,0.847,1.679,2.524,1.63C456.23,238.105,456.992,237.09,457.259,236.774z"/>
	<path class="st5" d="M454.868,205.006c2.016-1.973,5.109-6.994,7.163-9.461c1.91-2.581,6.055-6.776,7.493-9.201
		c0.274-0.523,1.181-2.07,0.1-3.36c-0.845-1.453-2.713-0.972-3.335-0.77c-1.49,0.447-3.566,1.795-5.486,3.473
		c-1.931,1.667-3.677,3.663-4.818,5.11c-1.136,1.452-2.66,3.621-3.822,5.892c-1.173,2.265-1.992,4.602-2.073,6.155
		c-0.048,0.652-0.073,2.581,1.539,3.058C453.139,206.645,454.426,205.396,454.868,205.006z"/>
	<path class="st5" d="M477.733,249.971c0.875-1.895,0.941-5.88,1.221-8.04c0.173-2.17,0.933-6.082,0.47-8.117
		c-0.115-0.422-0.412-1.721-2.017-2.212c-1.536-0.678-2.626,0.265-2.977,0.604c-1.757,1.568-2.924,6.34-3.123,8.925
		c-0.341,2.57-0.187,7.482,1.208,9.378c0.273,0.406,1.143,1.552,2.786,1.209C476.973,251.569,477.532,250.361,477.733,249.971z"/>
	<path class="st5" d="M414.321,274.333c0.78-1.099,1.545-2.965,2.376-4.86c0.82-1.9,1.725-3.822,2.404-5.146
		c0.691-1.316,1.742-3.164,2.822-4.928c1.072-1.771,2.156-3.471,2.606-4.742c0.171-0.531,0.788-2.117-0.448-3.259
		c-1.035-1.325-2.768-0.644-3.341-0.37c-1.373,0.613-3.172,2.193-4.741,4.092c-1.582,1.889-2.899,4.089-3.722,5.667
		c-0.817,1.581-1.856,3.925-2.49,6.307c-0.647,2.375-0.903,4.755-0.614,6.23c0.106,0.626,0.548,2.436,2.226,2.519
		C413.045,276.196,413.985,274.779,414.321,274.333z"/>
	<path class="st5" d="M437.618,280.19c1.077-1.594,1.604-5.072,2.141-6.929c0.433-1.886,1.657-5.182,1.488-7.099
		c-0.056-0.4-0.16-1.632-1.638-2.431c-1.382-0.951-2.582-0.313-2.975-0.068c-1.954,1.085-3.789,5.31-4.319,7.672
		c-0.682,2.322-1.125,6.907,0.055,8.804c0.225,0.403,0.965,1.545,2.635,1.382C436.686,281.539,437.374,280.513,437.618,280.19z"/>
	<path class="st5" d="M462.772,316.773c0.377-1.859-0.304-5.199-0.346-7.093c-0.177-1.887,0.11-5.283-0.481-7.086
		c-0.149-0.37-0.523-1.539-2.136-2.008c-1.55-0.643-2.597,0.283-2.927,0.629c-0.802,0.794-1.467,2.379-1.816,4.1
		c-0.362,1.719-0.387,3.549-0.317,4.813c0.076,1.263,0.315,3.079,0.873,4.743c0.547,1.668,1.392,3.165,2.281,3.861
		c0.367,0.307,1.515,1.103,2.98,0.285C462.432,318.362,462.666,317.158,462.772,316.773z"/>
	<path class="st5" d="M454.437,275.246c1.477-1.013,2.51-4.091,3.012-5.757c0.503-1.666,1.344-4.802,0.672-6.463
		c-0.139-0.348-0.571-1.385-2.196-1.799c-1.584-0.554-2.517,0.072-2.826,0.284c-1.477,1.013-2.51,4.092-3.012,5.758
		c-0.501,1.666-1.342,4.802-0.672,6.464c0.14,0.347,0.572,1.385,2.198,1.798C453.195,276.085,454.129,275.458,454.437,275.246z"/>
	<path class="st5" d="M465.188,371.839c0.638-2.196,0.582-6.688,1.002-9.127c0.243-2.46,1.488-6.777,1.456-9.064
		c-0.038-0.478-0.055-1.949-1.57-2.682c-1.396-0.932-2.728,0.035-3.154,0.402c-1.033,0.836-2.125,2.614-2.902,4.607
		c-0.791,1.991-1.239,4.177-1.449,5.708c-0.205,1.531-0.352,3.757-0.117,5.887c0.219,2.129,0.801,4.133,1.575,5.214
		c0.312,0.467,1.34,1.752,2.934,1.224C464.616,373.703,465.024,372.289,465.188,371.839z"/>
	<path class="st5" d="M438.49,359.162c0.243-1.428,0.17-3.619,0.196-5.871c0.009-2.252,0.141-4.564,0.302-6.176
		c0.174-1.611,0.523-3.9,0.977-6.105c0.441-2.211,0.963-4.338,1.02-5.786c0.005-0.6,0.147-2.422-1.395-3.103
		c-1.396-0.939-2.896,0.41-3.371,0.91c-1.156,1.15-2.416,3.457-3.294,6.015c-0.898,2.552-1.378,5.329-1.586,7.272
		c-0.197,1.943-0.299,4.759,0.051,7.442c0.333,2.683,1.09,5.201,1.984,6.565c0.359,0.587,1.551,2.216,3.109,1.585
		C438.132,361.563,438.37,359.75,438.49,359.162z"/>
	<path class="st5" d="M430.361,322.553c1.297-2.632,2.175-8.824,2.817-12.133c0.475-2.743,1.322-7.644,1.78-10.296
		c-0.059-0.093-0.024-0.425,0.159-0.85c0.147-0.434,0.464-0.912,0.417-1.725c0.096-0.808-0.373-1.562-1.203-1.868
		c-0.801-0.335-1.813-0.116-2.345,0.12c-2.48,0.966-4.177,4.084-4.815,6.634c-0.725,2.362-1.246,4.866-1.56,6.623
		c-0.682,3.499-1.413,10.145-0.479,13.067c0.178,0.613,0.771,2.419,2.452,2.378C429.249,324.748,430.076,323.099,430.361,322.553z"
		/>
	<path class="st5" d="M403.028,319.526c1.117-1.832,1.809-5.906,2.48-8.068c0.55-2.195,2.076-6.037,2.072-8.182
		c-0.022-0.45-0.024-1.821-1.497-2.631c-1.36-0.983-2.653-0.225-3.076,0.061c-2.103,1.277-4.247,6.016-4.903,8.677
		c-0.822,2.614-1.453,7.778-0.319,9.961c0.213,0.463,0.924,1.783,2.597,1.65C402.061,321.07,402.776,319.898,403.028,319.526z"/>
	<path class="st5" d="M410.955,356.141c0.886-1.794,0.967-5.535,1.247-7.565c0.177-2.041,0.93-5.707,0.466-7.653
		c-0.116-0.402-0.411-1.647-2.006-2.174c-1.526-0.699-2.612,0.169-2.961,0.486c-1.753,1.451-2.932,6.009-3.139,8.482
		c-0.348,2.455-0.212,7.161,1.176,8.967c0.27,0.387,1.136,1.475,2.778,1.132C410.189,357.656,410.754,356.509,410.955,356.141z"/>
	<path class="st5" d="M424.656,405.966c0.296-2.501-1.026-7.515-1.593-10.258c-0.641-2.727-1.554-7.832-2.876-9.975
		c-0.287-0.442-1.131-1.789-2.791-1.526c-1.679,0.024-2.25,1.569-2.424,2.095c-0.898,2.508-0.11,8.125,0.583,11.064
		c0.61,2.958,2.261,8.384,4.131,10.281c0.381,0.404,1.549,1.565,3.082,0.878C424.385,408.065,424.582,406.487,424.656,405.966z"/>
	<path class="st5" d="M458.385,410.434c0.809-2.393,0.209-7.623-0.166-10.421c-0.376-2.798-1.175-8-2.587-10.096
		c-0.296-0.438-1.19-1.742-2.835-1.401c-1.677,0.106-2.196,1.598-2.366,2.098c-0.81,2.394-0.209,7.625,0.166,10.421
		c0.376,2.798,1.175,8.001,2.587,10.097c0.296,0.437,1.19,1.74,2.835,1.401C457.696,412.426,458.215,410.935,458.385,410.434z"/>
	<path class="st5" d="M645.795,381.214c0.502-2.003-0.702-5.849-1.399-7.894c-0.7-2.045-2.094-5.827-3.714-7.106
		c-0.337-0.267-1.362-1.059-2.918-0.433c-1.616,0.455-1.943,1.708-2.047,2.126c-0.502,2.003,0.702,5.849,1.399,7.894
		c0.697,2.044,2.093,5.825,3.714,7.105c0.337,0.267,1.362,1.059,2.918,0.433C645.364,382.884,645.691,381.633,645.795,381.214z"/>
	<path class="st5" d="M614.491,394.053c1.042-2.141,0.224-7.071-0.68-9.542c-0.741-2.524-3.012-6.975-5.122-8.078
		c-0.425-0.251-1.724-0.901-3.039,0.142c-1.431,0.882-1.399,2.206-1.411,2.639c0.047,2.067,1.655,5.642,2.271,7.702
		c0.729,2.022,1.559,5.853,2.75,7.543c0.269,0.341,1.029,1.425,2.701,1.284C613.642,395.801,614.297,394.507,614.491,394.053z"/>
	<path class="st5" d="M587.249,397.095c0.16-2.891-1.953-8.504-3.13-11.477c-1.18-2.98-3.455-8.47-5.339-10.422
		c-0.411-0.425-1.522-1.55-3.1-1.016c-1.675,0.287-1.81,2.208-1.838,2.787c-0.162,2.89,1.95,8.504,3.128,11.477
		c1.18,2.98,3.456,8.47,5.339,10.421c0.411,0.426,1.522,1.551,3.101,1.017C587.084,399.596,587.222,397.674,587.249,397.095z"/>
	<path class="st5" d="M554.647,415.602c0.832-1.975,0.293-6.19-0.046-8.443c-0.343-2.251-1.081-6.435-2.463-8.074
		c-0.291-0.342-1.165-1.36-2.808-1.014c-1.672,0.158-2.204,1.39-2.378,1.802c-0.835,1.975-0.296,6.19,0.046,8.441
		c0.342,2.252,1.079,6.436,2.463,8.075c0.289,0.342,1.162,1.359,2.805,1.014C553.938,417.247,554.472,416.014,554.647,415.602z"/>
	<path class="st5" d="M526.154,407.799c1.211-1.922,1.53-6.505,1.645-8.967c0.118-2.46,0.234-7.054-0.793-9.081
		c-0.214-0.425-0.867-1.687-2.546-1.664c-1.67-0.182-2.438,1.013-2.692,1.415c-1.214,1.922-1.531,6.506-1.647,8.966
		c-0.118,2.46-0.234,7.055,0.793,9.082c0.214,0.424,0.867,1.687,2.546,1.664C525.13,409.396,525.901,408.201,526.154,407.799z"/>
	<path class="st5" d="M517.254,366.953c1.212-1.922,1.53-6.506,1.646-8.967c0.118-2.46,0.234-7.055-0.794-9.082
		c-0.214-0.423-0.867-1.687-2.546-1.664c-1.668-0.181-2.439,1.015-2.693,1.416c-1.213,1.922-1.53,6.505-1.648,8.967
		c-0.116,2.46-0.232,7.055,0.794,9.082c0.215,0.425,0.869,1.686,2.547,1.663C516.229,368.55,517,367.355,517.254,366.953z"/>
	<path class="st5" d="M504.126,404.602c0.645-1.911,0.143-5.689,0.053-7.762c-0.176-2.069-0.16-5.88-1.043-7.693
		c-0.2-0.374-0.763-1.528-2.438-1.681c-1.644-0.337-2.505,0.733-2.778,1.11c-1.378,1.763-1.627,6.342-1.416,8.756
		c0.1,2.422,0.931,6.931,2.522,8.503c0.319,0.339,1.31,1.289,2.898,0.746C503.564,406.216,503.977,404.999,504.126,404.602z"/>
	<path class="st5" d="M479.387,409.3c1.649-2.01,2.578-7.465,2.717-10.398c0.254-2.925,0.064-8.455-1.303-10.668
		c-0.27-0.469-1.128-1.824-2.78-1.516c-1.678,0.078-2.248,1.489-2.448,1.951c-0.89,2.232-0.915,7.093-1.14,9.718
		c-0.129,2.631-0.753,7.452-0.17,9.783c0.138,0.484,0.514,1.959,2.167,2.259C478.024,410.955,479.055,409.729,479.387,409.3z"/>
	<path class="st5" d="M395.346,411.737c1.851-1.495,3.848-5.948,4.869-8.356c1.02-2.408,2.833-6.939,2.62-9.309
		c-0.045-0.496-0.192-1.978-1.776-2.532c-1.501-0.753-2.667,0.171-3.054,0.484c-1.852,1.495-3.849,5.948-4.87,8.356
		c-1.021,2.408-2.834,6.939-2.62,9.309c0.044,0.495,0.191,1.976,1.776,2.53C393.792,412.975,394.958,412.05,395.346,411.737z"/>
	<path class="st5" d="M617.434,364.529c0.495-1.875-0.697-5.352-1.389-7.197c-0.69-1.846-2.072-5.252-3.677-6.341
		c-0.335-0.228-1.347-0.9-2.889-0.235c-1.598,0.51-1.921,1.682-2.024,2.073c-0.496,1.874,0.699,5.352,1.389,7.197
		c0.69,1.846,2.073,5.253,3.677,6.34c0.335,0.228,1.347,0.901,2.888,0.237C617.008,366.092,617.331,364.92,617.434,364.529z"/>
	<path class="st5" d="M586.35,361.662c0.729-1.795-0.014-5.396-0.465-7.314c-0.451-1.919-1.392-5.473-2.845-6.755
		c-0.303-0.269-1.221-1.064-2.835-0.6c-1.649,0.303-2.117,1.425-2.27,1.8c-0.731,1.797,0.013,5.397,0.466,7.315
		c0.451,1.918,1.388,5.473,2.842,6.756c0.306,0.267,1.224,1.063,2.837,0.6C585.729,363.159,586.198,362.038,586.35,361.662z"/>
	<path class="st5" d="M684.737,393.119c0.773-2.251-0.549-7.053-1.653-9.439c-0.97-2.443-3.541-6.71-5.703-7.701
		c-0.441-0.224-1.773-0.81-3.034,0.298c-1.384,0.95-1.269,2.291-1.249,2.731c0.183,2.099,2.101,5.656,2.921,7.705
		c0.918,2.006,2.177,5.846,3.571,7.424c0.308,0.318,1.199,1.326,2.842,0.976C684.104,394.961,684.596,393.592,684.737,393.119z"/>
	<path class="st5" d="M727.706,405.477c0.456-2.351-0.884-7.086-1.653-9.607c-0.771-2.523-2.303-7.197-3.992-8.896
		c-0.352-0.355-1.418-1.406-2.99-0.813c-1.635,0.384-1.933,1.852-2.027,2.344c-0.456,2.351,0.884,7.084,1.653,9.607
		c0.771,2.523,2.303,7.197,3.992,8.894c0.352,0.355,1.419,1.408,2.989,0.814C727.314,407.437,727.612,405.968,727.706,405.477z"/>
	<path class="st5" d="M706.83,338.74c0.467-1.174,0.507-3.148,0.165-5.14c-0.333-1.996-1.057-3.974-1.655-5.305
		c-0.604-1.327-1.611-3.179-2.891-4.746c-1.266-1.574-2.776-2.848-3.967-3.271c-0.497-0.196-1.998-0.637-3.039,0.682
		c-1.199,1.177-0.835,2.506-0.749,2.946c0.554,2.063,2.79,5.469,3.639,7.558c1.005,2.017,2.086,5.945,3.27,7.725
		c0.273,0.355,1.03,1.506,2.707,1.383C705.988,340.662,706.647,339.244,706.83,338.74z"/>
	<path class="st5" d="M720.318,451.528c0.84-2.29-0.175-7.301-1.034-9.871c-0.759-2.603-2.786-7.297-4.78-8.701
		c-0.404-0.304-1.642-1.154-3.073-0.274c-1.532,0.69-1.6,2.112-1.638,2.579c-0.101,2.24,1.475,6.383,2.152,8.694
		c0.761,2.282,1.827,6.586,3.189,8.368c0.296,0.363,1.162,1.491,2.815,1.186C719.626,453.414,720.16,452.011,720.318,451.528z"/>
	<path class="st5" d="M707.822,415.348c0.458-2.214-0.86-6.583-1.615-8.909c-0.759-2.326-2.266-6.633-3.938-8.152
		c-0.35-0.318-1.406-1.259-2.968-0.644c-1.625,0.422-1.925,1.805-2.021,2.266c-0.458,2.215,0.859,6.584,1.615,8.909
		c0.756,2.327,2.266,6.633,3.938,8.154c0.349,0.317,1.406,1.259,2.967,0.643C707.426,417.194,707.726,415.812,707.822,415.348z"/>
	<path class="st5" d="M671.364,415.683c0.433-2.356-0.951-7.077-1.741-9.592c-0.793-2.515-2.367-7.175-4.071-8.857
		c-0.357-0.352-1.433-1.394-2.999-0.786c-1.63,0.399-1.913,1.869-2.005,2.362c-0.433,2.355,0.949,7.076,1.742,9.592
		c0.793,2.515,2.364,7.175,4.07,8.858c0.358,0.352,1.433,1.393,2.998,0.785C670.99,417.645,671.274,416.175,671.364,415.683z"/>
	<path class="st5" d="M645.57,419.736c0.396-2.106-1.024-6.102-1.837-8.227c-0.813-2.124-2.421-6.051-4.12-7.355
		c-0.355-0.272-1.426-1.078-2.958-0.392c-1.598,0.511-1.86,1.826-1.941,2.267c-0.396,2.104,1.024,6.102,1.837,8.227
		c0.811,2.124,2.419,6.049,4.118,7.353c0.358,0.273,1.429,1.08,2.961,0.393C645.228,421.491,645.489,420.175,645.57,419.736z"/>
	<path class="st5" d="M606.773,421.583c0.921-1.395,0.586-4.26,0.355-5.788c-0.232-1.53-0.764-4.364-2.059-5.423
		c-0.27-0.22-1.091-0.876-2.738-0.561c-1.667,0.187-2.256,1.058-2.448,1.349c-0.924,1.396-0.589,4.261-0.357,5.789
		c0.234,1.529,0.766,4.363,2.062,5.423c0.268,0.221,1.091,0.877,2.736,0.562C605.99,422.745,606.578,421.874,606.773,421.583z"/>
	<path class="st5" d="M577.814,431.438c0.781-1.818,0.138-5.553-0.258-7.545c-0.396-1.992-1.236-5.687-2.655-7.067
		c-0.296-0.288-1.192-1.144-2.82-0.734c-1.66,0.245-2.163,1.379-2.325,1.76c-0.781,1.817-0.138,5.552,0.259,7.545
		c0.396,1.992,1.236,5.688,2.653,7.067c0.298,0.288,1.194,1.144,2.822,0.734C577.149,432.952,577.649,431.818,577.814,431.438z"/>
	<path class="st5" d="M535.665,447.516c0.515-1.935-0.121-5.623-0.225-7.67c-0.209-2.039-0.143-5.781-0.948-7.614
		c-0.187-0.376-0.699-1.549-2.364-1.782c-1.625-0.418-2.539,0.639-2.824,1.016c-1.468,1.754-1.793,6.485-1.53,8.967
		c0.118,2.495,1.16,7.12,2.876,8.631c0.343,0.329,1.407,1.234,2.948,0.574C535.21,449.154,535.537,447.917,535.665,447.516z"/>
	<path class="st5" d="M508.244,442.037c0.858-1.852,0.827-5.724,1.016-7.827c0.095-2.109,0.647-5.94,0.046-7.892
		c-0.141-0.403-0.527-1.647-2.159-2.041c-1.576-0.576-2.592,0.383-2.919,0.727c-1.634,1.588-2.533,6.206-2.64,8.689
		c-0.228,2.474,0.043,7.171,1.448,8.966c0.277,0.384,1.155,1.471,2.795,1.112C507.501,443.6,508.049,442.418,508.244,442.037z"/>
	<path class="st5" d="M484.675,436.465c0.778-1.519,0.485-4.405,0.454-5.994c-0.096-1.586-0.036-4.487-0.933-5.939
		c-0.199-0.296-0.771-1.228-2.434-1.445c-1.638-0.362-2.491,0.446-2.764,0.735c-1.362,1.344-1.675,5.018-1.551,6.956
		c0.032,1.942,0.639,5.58,2.103,6.809c0.295,0.267,1.21,1.004,2.814,0.512C484.006,437.751,484.5,436.777,484.675,436.465z"/>
	<path class="st5" d="M480.676,306.173c0.778-1.519,0.485-4.405,0.454-5.994c-0.096-1.586-0.035-4.487-0.933-5.939
		c-0.199-0.298-0.771-1.228-2.434-1.445c-1.638-0.361-2.491,0.447-2.764,0.736c-1.362,1.344-1.674,5.018-1.551,6.956
		c0.032,1.942,0.639,5.579,2.103,6.809c0.296,0.266,1.21,1.004,2.814,0.512C480.006,307.459,480.501,306.485,480.676,306.173z"/>
	<path class="st5" d="M512.412,263.051c1.14-1.27,1.595-4.136,1.97-5.68c0.312-1.558,1.109-4.347,0.612-5.979
		c-0.116-0.339-0.432-1.385-1.985-2.018c-1.491-0.768-2.522-0.205-2.859,0.006c-1.659,0.951-2.9,4.424-3.275,6.33
		c-0.464,1.886-0.805,5.558,0.296,7.122c0.217,0.332,0.912,1.278,2.589,1.212C511.437,264.123,512.165,263.308,512.412,263.051z"/>
	<path class="st5" d="M451.291,441.667c0.922-1.613,1.124-4.927,1.486-6.72c0.258-1.814,1.172-5.004,0.842-6.833
		c-0.09-0.381-0.295-1.56-1.819-2.266c-1.442-0.86-2.581-0.179-2.951,0.081c-1.855,1.157-3.333,5.388-3.65,7.715
		c-0.478,2.299-0.495,6.781,0.867,8.491c0.262,0.369,1.11,1.391,2.755,1.061C450.493,443.038,451.08,441.996,451.291,441.667z"/>
	<path class="st5" d="M427.36,445.045c1.02-2.144,1.443-6.896,1.944-9.442c0.385-2.565,1.582-7.182,1.344-9.546
		c-0.07-0.492-0.228-1.994-1.816-2.544c-1.496-0.762-2.703,0.308-3.092,0.691c-1.946,1.767-3.577,7.144-4.012,10.087
		c-0.58,2.918-0.852,8.531,0.387,10.849c0.237,0.491,1.013,1.903,2.68,1.69C426.474,446.846,427.128,445.486,427.36,445.045z"/>
	<path class="st5" d="M408.391,428.898c0.45-2.062-0.017-6.046,0.136-8.259c-0.009-2.218,0.72-6.162,0.407-8.25
		c-0.096-0.434-0.292-1.78-1.858-2.389c-1.476-0.799-2.671,0.171-3.051,0.537c-0.921,0.838-1.8,2.561-2.352,4.464
		c-0.567,1.902-0.781,3.957-0.831,5.385c-0.043,1.43,0.036,3.495,0.476,5.428c0.426,1.935,1.189,3.713,2.054,4.609
		c0.353,0.391,1.482,1.438,3.008,0.738C407.983,430.656,408.266,429.324,408.391,428.898z"/>
	<path class="st5" d="M404.246,484.209c0.674-2.5,0.241-7.834,0.227-10.73c-0.115-2.895,0.076-8.242-0.708-10.71
		c-0.18-0.511-0.683-2.069-2.36-2.191c-1.639-0.372-2.557,1.073-2.848,1.574c-1.468,2.359-1.9,8.323-1.771,11.499
		c0.013,3.178,0.712,9.117,2.284,11.407c0.313,0.486,1.296,1.89,2.916,1.445C403.655,486.306,404.09,484.728,404.246,484.209z"/>
	<path class="st5" d="M427.808,480.471c0.259-1.782-0.533-4.786-0.619-6.531c-0.225-1.734,0.02-4.831-0.552-6.538
		c-0.148-0.348-0.5-1.467-2.092-2.006c-1.524-0.702-2.594,0.158-2.929,0.491c-0.82,0.751-1.508,2.304-1.85,3.999
		c-0.357,1.693-0.344,3.498-0.236,4.739c0.113,1.24,0.422,3.019,1.074,4.622c0.637,1.608,1.591,3.012,2.53,3.605
		c0.389,0.269,1.596,0.925,2.971-0.036C427.575,482.003,427.724,480.839,427.808,480.471z"/>
	<path class="st5" d="M450.205,483.732c0.251-1.82-0.756-4.907-1.05-6.682c-0.407-1.75-0.655-4.99-1.582-6.575
		c-0.214-0.322-0.804-1.35-2.476-1.508c-1.645-0.329-2.491,0.694-2.752,1.065c-1.361,1.719-1.278,6.225-0.731,8.517
		c0.37,2.327,2.016,6.521,3.931,7.59c0.381,0.244,1.554,0.866,2.949-0.068C449.977,485.285,450.13,484.111,450.205,483.732z"/>
	<path class="st5" d="M474.946,479.103c0.42-2.364-0.293-7.133-0.335-9.765c-0.187-2.624,0.107-7.435-0.515-9.755
		c-0.155-0.478-0.556-1.956-2.214-2.236c-1.6-0.51-2.621,0.795-2.94,1.259c-1.648,2.157-2.241,7.984-2.012,11.068
		c0.04,3.092,1.139,8.844,2.967,10.849c0.359,0.435,1.49,1.646,3.04,0.999C474.563,481.1,474.834,479.593,474.946,479.103z"/>
	<path class="st5" d="M508.302,479.753c-0.516-1.099-1.574-2.487-2.539-3.997c-0.98-1.5-1.837-3.131-2.366-4.307
		c-0.508-1.185-1.128-2.92-1.567-4.656c-0.458-1.734-0.763-3.452-1.222-4.575c-0.214-0.452-0.703-1.92-2.375-2.125
		c-1.617-0.458-2.587,1.11-2.854,1.688c-0.686,1.33-1.008,3.738-0.76,6.199c0.221,2.467,1.028,4.925,1.738,6.559
		c0.722,1.63,1.984,3.887,3.65,5.72c1.646,1.85,3.634,3.242,5.078,3.638c0.604,0.195,2.416,0.543,3.173-0.957
		C509.238,481.569,508.491,480.215,508.302,479.753z"/>
	<path class="st5" d="M530.23,480.709c0.153-1.796-1.084-4.695-1.549-6.371c-0.561-1.646-1.177-4.738-2.315-6.134
		c-0.251-0.28-0.978-1.184-2.655-1.111c-1.675-0.091-2.374,0.987-2.583,1.37c-1.111,1.795-0.527,6.029,0.206,8.145
		c0.589,2.161,2.495,5.987,4.423,6.844c0.392,0.197,1.574,0.693,2.906-0.327C530.09,482.238,530.178,481.083,530.23,480.709z"/>
	<path class="st5" d="M562.324,477.78c0.549-2.252-0.593-6.829-1.256-9.27c-0.665-2.44-1.999-6.964-3.615-8.628
		c-0.338-0.348-1.357-1.381-2.946-0.839c-1.645,0.339-1.999,1.745-2.115,2.216c-0.549,2.252,0.591,6.829,1.255,9.27
		c0.665,2.439,2,6.964,3.616,8.628c0.337,0.348,1.357,1.379,2.945,0.838C561.854,479.657,562.208,478.251,562.324,477.78z"/>
	<path class="st5" d="M587.256,467.319c0.466-2.077-0.822-6.084-1.563-8.214c-0.742-2.131-2.217-6.07-3.872-7.412
		c-0.344-0.28-1.388-1.111-2.94-0.471c-1.613,0.462-1.916,1.76-2.014,2.194c-0.463,2.079,0.823,6.085,1.563,8.215
		c0.742,2.13,2.219,6.071,3.872,7.411c0.347,0.28,1.388,1.111,2.943,0.47C586.857,469.051,587.16,467.754,587.256,467.319z"/>
	<path class="st5" d="M610.652,457.794c0.98-1.797,0.162-5.805-0.653-7.789c-0.687-2.032-2.705-5.593-4.623-6.302
		c-0.392-0.166-1.569-0.574-2.857,0.501c-1.384,0.95-1.445,2.077-1.485,2.445c-0.106,1.754,1.219,4.473,1.763,6.052
		c0.626,1.546,1.414,4.468,2.645,5.721c0.271,0.251,1.057,1.061,2.724,0.868C609.844,459.256,610.467,458.175,610.652,457.794z"/>
	<path class="st5" d="M649.151,454.657c-0.013-2.542-2.285-7.331-3.551-9.874c-1.266-2.544-3.719-7.244-5.739-8.785
		c-0.421-0.323-1.691-1.276-3.14-0.422c-1.554,0.64-1.559,2.229-1.557,2.759c0.013,2.542,2.285,7.331,3.551,9.876
		c1.266,2.544,3.719,7.242,5.739,8.784c0.421,0.323,1.691,1.276,3.14,0.424C649.149,456.776,649.153,455.187,649.151,454.657z"/>
	<path class="st5" d="M681.987,447.252c0.664-2.109-0.833-6.388-1.995-8.474c-1.039-2.148-3.682-5.832-5.79-6.499
		c-0.43-0.158-1.726-0.54-2.899,0.66c-1.295,1.069-1.152,2.301-1.125,2.706c0.217,1.925,2.138,4.925,2.992,6.68
		c0.946,1.708,2.298,5.003,3.748,6.286c0.318,0.255,1.244,1.079,2.862,0.634C681.437,448.975,681.868,447.694,681.987,447.252z"/>
	<path class="st5" d="M712.979,472.94c0.108-2.386-1.899-6.858-3.027-9.233c-1.125-2.375-3.314-6.762-5.23-8.187
		c-0.402-0.298-1.609-1.178-3.077-0.362c-1.561,0.619-1.642,2.11-1.664,2.609c-0.111,2.386,1.898,6.859,3.024,9.234
		c1.126,2.375,3.318,6.762,5.233,8.186c0.401,0.298,1.608,1.18,3.076,0.363C712.875,474.931,712.957,473.439,712.979,472.94z"/>
	<path class="st5" d="M679.422,484.448c0.857-2.598-0.443-8.358-1.627-11.247c-1.017-2.951-3.844-8.135-6.201-9.522
		c-0.475-0.311-1.926-1.141-3.211-0.059c-1.428,0.888-1.221,2.426-1.177,2.935c0.333,2.415,2.515,6.825,3.396,9.359
		c1.01,2.484,2.283,7.238,3.628,9.271c0.303,0.413,1.163,1.705,2.82,1.429C678.728,486.577,679.27,484.995,679.422,484.448z"/>
	<path class="st5" d="M637.724,482.5c0.657-2.077-0.251-6.322-0.79-8.585c-0.54-2.264-1.643-6.462-3.167-8.019
		c-0.318-0.326-1.281-1.292-2.889-0.809c-1.652,0.294-2.076,1.59-2.214,2.024c-0.657,2.077,0.251,6.322,0.791,8.585
		c0.54,2.263,1.643,6.462,3.167,8.019c0.318,0.326,1.281,1.291,2.889,0.808C637.162,484.23,637.586,482.933,637.724,482.5z"/>
	<path class="st5" d="M609.024,497.215c0.842-1.935,0.318-6.052-0.017-8.253c-0.335-2.199-1.056-6.287-2.433-7.885
		c-0.289-0.333-1.16-1.326-2.802-0.983c-1.67,0.161-2.21,1.367-2.384,1.771c-0.84,1.935-0.315,6.052,0.017,8.252
		c0.335,2.2,1.057,6.288,2.433,7.885c0.288,0.333,1.16,1.325,2.802,0.983C608.312,498.824,608.849,497.618,609.024,497.215z"/>
	<path class="st5" d="M579.533,502.046c0.746-2.545,0.008-8.083-0.443-11.044c-0.451-2.961-1.389-8.469-2.857-10.677
		c-0.308-0.462-1.237-1.835-2.876-1.459c-1.675,0.128-2.155,1.714-2.31,2.246c-0.749,2.545-0.008,8.082,0.441,11.044
		c0.451,2.961,1.388,8.469,2.859,10.677c0.306,0.462,1.237,1.835,2.874,1.46C578.895,504.163,579.375,502.576,579.533,502.046z"/>
	<path class="st5" d="M541.024,505.704c0.113-1.92-0.872-5.242-1.002-7.182c-0.293-1.921-0.057-5.379-0.586-7.228
		c-0.142-0.378-0.468-1.586-2.066-2.11c-1.524-0.701-2.625,0.265-2.967,0.636c-0.838,0.841-1.545,2.542-1.875,4.39
		c-0.347,1.849-0.292,3.809-0.15,5.155c0.153,1.345,0.53,3.271,1.268,4.998c0.727,1.733,1.786,3.239,2.786,3.878
		c0.416,0.287,1.701,0.991,3.036-0.028C540.911,507.355,540.967,506.104,541.024,505.704z"/>
	<path class="st5" d="M511.906,516.714c0.6-1.825,0.416-5.286,0.701-7.2c0.136-1.93,1.062-5.271,0.869-7.182
		c-0.07-0.397-0.18-1.638-1.66-2.435c-1.378-0.957-2.619-0.228-3.018,0.062c-0.966,0.65-1.958,2.141-2.64,3.839
		c-0.694,1.694-1.047,3.569-1.194,4.88c-0.14,1.311-0.199,3.219,0.113,5.023c0.296,1.804,0.946,3.475,1.747,4.318
		c0.327,0.37,1.381,1.35,2.934,0.713C511.376,518.276,511.751,517.086,511.906,516.714z"/>
	<path class="st5" d="M476.19,519.764c1.249-2.653,2.313-8.767,3.228-12.002c0.773-3.273,2.815-9.134,3.013-12.058
		c0.017-0.613,0.133-2.464-1.43-3.093c-1.426-0.891-2.868,0.428-3.334,0.898c-2.329,2.163-4.842,8.702-5.691,12.323
		c-1.017,3.579-2,10.512-1.016,13.537c0.18,0.635,0.799,2.49,2.478,2.404C475.108,521.982,475.907,520.309,476.19,519.764z"/>
	<path class="st5" d="M451.137,525.036c0.727-2.266,0.662-7.03,0.977-9.612c0.17-2.596,1.121-7.264,0.827-9.625
		c-0.087-0.491-0.277-1.999-1.876-2.513c-1.512-0.734-2.705,0.403-3.086,0.813c-1.935,1.885-3.329,7.539-3.519,10.608
		c-0.383,3.051-0.064,8.866,1.486,11.077c0.298,0.474,1.259,1.813,2.881,1.374C450.494,526.947,450.961,525.502,451.137,525.036z"/>
	<path class="st5" d="M479.634,345.493c0.965-2.203,1.263-7.049,1.693-9.654c0.314-2.62,1.379-7.357,1.066-9.744
		c-0.085-0.496-0.289-2.012-1.897-2.501c-1.523-0.708-2.695,0.422-3.074,0.824c-1.888,1.863-3.355,7.349-3.707,10.337
		c-0.495,2.969-0.617,8.647,0.678,10.963c0.25,0.491,1.06,1.902,2.72,1.647C478.794,347.345,479.414,345.947,479.634,345.493z"/>
	<path class="st5" d="M586.202,331.978c0.318-1.218,0.086-3.183-0.579-5.089c-0.647-1.915-1.728-3.724-2.576-4.908
		c-0.853-1.18-2.224-2.782-3.832-4.004c-1.596-1.236-3.384-2.084-4.639-2.167c-0.532-0.058-2.086-0.057-2.709,1.502
		c-0.813,1.471-0.147,2.618,0.03,3.008c0.473,0.926,1.445,1.968,2.401,3.064c0.965,1.088,1.894,2.244,2.509,3.085
		c0.6,0.85,1.401,2.099,2.125,3.359c0.736,1.255,1.414,2.509,2.14,3.253c0.313,0.292,1.188,1.288,2.842,0.986
		C585.592,333.972,586.086,332.5,586.202,331.978z"/>
	<path class="st5" d="M732.922,435.301c0.436-2.729-0.97-8.428-1.775-11.47c-0.805-3.043-2.406-8.691-4.137-10.845
		c-0.359-0.451-1.453-1.788-3.039-1.232c-1.653,0.302-1.941,2.005-2.032,2.575c-0.436,2.729,0.971,8.429,1.776,11.47
		c0.805,3.043,2.406,8.691,4.134,10.846c0.362,0.45,1.453,1.787,3.042,1.233C732.543,437.574,732.828,435.871,732.922,435.301z"/>
	<path class="st5" d="M696.75,503.484c0.6-2.275-0.433-6.977-1.039-9.483c-0.608-2.508-1.837-7.162-3.413-8.911
		c-0.33-0.365-1.327-1.451-2.931-0.952c-1.653,0.291-2.044,1.71-2.17,2.187c-0.601,2.277,0.433,6.977,1.04,9.485
		c0.608,2.507,1.837,7.16,3.413,8.91c0.33,0.365,1.327,1.451,2.931,0.952C696.233,505.381,696.625,503.961,696.75,503.484z"/>
	<path class="st5" d="M658.297,525.105c0.86-2.272,0.37-7.256,0.052-9.922c-0.315-2.665-1.005-7.625-2.372-9.632
		c-0.285-0.42-1.152-1.668-2.805-1.359c-1.677,0.087-2.226,1.502-2.406,1.977c-0.86,2.272-0.37,7.256-0.052,9.921
		c0.315,2.666,1.007,7.626,2.375,9.633c0.285,0.42,1.15,1.668,2.802,1.358C657.568,526.995,658.118,525.579,658.297,525.105z"/>
	<path class="st5" d="M660.159,487.837c0.921-1.409,0.581-4.31,0.347-5.856c-0.236-1.547-0.773-4.417-2.071-5.49
		c-0.271-0.225-1.091-0.891-2.739-0.575c-1.667,0.188-2.253,1.068-2.448,1.362c-0.919,1.411-0.578,4.311-0.345,5.858
		c0.234,1.547,0.774,4.417,2.069,5.49c0.271,0.224,1.094,0.891,2.742,0.574C659.381,489.012,659.967,488.132,660.159,487.837z"/>
	<path class="st5" d="M627.125,517.376c0.963-1.716,0.705-5.466,0.512-7.472c-0.192-2.006-0.648-5.736-1.918-7.24
		c-0.266-0.314-1.072-1.248-2.731-1.006c-1.675,0.076-2.29,1.147-2.49,1.505c-0.963,1.716-0.707,5.467-0.515,7.472
		c0.192,2.006,0.65,5.737,1.919,7.241c0.266,0.314,1.071,1.248,2.731,1.006C626.31,518.804,626.923,517.734,627.125,517.376z"/>
	<path class="st5" d="M603.485,535.237c0.641-2.178-0.313-6.666-0.874-9.061c-0.564-2.395-1.712-6.838-3.253-8.504
		c-0.323-0.347-1.298-1.381-2.906-0.898c-1.655,0.284-2.066,1.643-2.202,2.099c-0.64,2.178,0.313,6.666,0.875,9.061
		c0.563,2.395,1.708,6.838,3.253,8.502c0.322,0.348,1.298,1.381,2.906,0.899C602.938,537.052,603.35,535.693,603.485,535.237z"/>
	<path class="st5" d="M556.755,525.405c0.98-2.141,0.764-6.948,0.591-9.524c-0.169-2.575-0.589-7.369-1.844-9.361
		c-0.262-0.416-1.059-1.655-2.724-1.437c-1.679,0.004-2.305,1.337-2.509,1.784c-0.983,2.14-0.764,6.949-0.593,9.524
		c0.169,2.575,0.589,7.369,1.844,9.361c0.264,0.416,1.059,1.656,2.724,1.438C555.923,527.185,556.549,525.852,556.755,525.405z"/>
	<path class="st5" d="M515.312,543.925c1.462-1.878,2.392-6.667,2.838-9.244c0.445-2.577,1.177-7.401,0.431-9.66
		c-0.158-0.471-0.638-1.88-2.308-2.058c-1.632-0.393-2.557,0.773-2.862,1.165c-1.463,1.878-2.393,6.666-2.839,9.244
		c-0.444,2.577-1.177,7.4-0.43,9.659c0.156,0.473,0.635,1.882,2.306,2.06C514.082,545.484,515.007,544.317,515.312,543.925z"/>
	<path class="st5" d="M493.454,541.628c0.143-2.197-0.879-6.327-1.005-8.673c-0.298-2.329-0.037-6.576-0.574-8.712
		c-0.143-0.438-0.484-1.815-2.114-2.224c-1.561-0.618-2.647,0.556-2.984,0.987c-0.825,0.995-1.502,2.901-1.824,4.947
		c-0.336,2.047-0.293,4.207-0.161,5.696c0.138,1.49,0.485,3.623,1.184,5.576c0.684,1.956,1.693,3.708,2.684,4.538
		c0.408,0.365,1.688,1.322,3.111,0.433C493.305,543.501,493.391,542.086,493.454,541.628z"/>
	<path class="st5" d="M388.18,434.59c-0.984,0.546-2.049,1.883-2.857,3.431c-0.818,1.545-1.356,3.283-1.646,4.509
		c-0.286,1.228-0.579,3.024-0.534,4.771c0.033,1.745,0.392,3.417,1.029,4.345c0.258,0.401,1.107,1.506,2.753,1.176
		c1.673-0.149,2.261-1.234,2.478-1.572c0.924-1.672,1.257-5.111,1.758-6.959c0.374-1.88,1.608-5.106,1.524-7.015
		c-0.042-0.399-0.086-1.633-1.518-2.511C389.842,433.734,388.589,434.345,388.18,434.59z"/>
	<path class="st5" d="M693.11,279.798c0.552-1.831-0.534-5.263-1.167-7.085c-0.633-1.823-1.909-5.188-3.475-6.282
		c-0.328-0.229-1.318-0.905-2.874-0.28c-1.611,0.474-1.968,1.618-2.084,2.001c-0.549,1.832,0.537,5.262,1.169,7.084
		c0.633,1.823,1.909,5.189,3.475,6.284c0.327,0.229,1.318,0.905,2.874,0.279C692.639,281.325,692.997,280.18,693.11,279.798z"/>
	<path class="st5" d="M581.966,530.662c0.859-1.804,0.381-5.617,0.071-7.655c-0.31-2.036-0.985-5.821-2.341-7.287
		c-0.284-0.307-1.143-1.218-2.788-0.88c-1.67,0.166-2.219,1.292-2.399,1.668c-0.861,1.803-0.381,5.617-0.073,7.654
		c0.31,2.038,0.985,5.821,2.345,7.288c0.283,0.307,1.143,1.217,2.785,0.88C581.235,532.163,581.787,531.038,581.966,530.662z"/>
	<path class="st5" d="M585.581,600.303c0.776-2.348,0.106-7.428-0.305-10.145c-0.414-2.716-1.283-7.767-2.721-9.778
		c-0.301-0.42-1.212-1.671-2.852-1.305c-1.675,0.138-2.172,1.602-2.335,2.093c-0.778,2.348-0.108,7.429,0.306,10.146
		c0.411,2.716,1.281,7.766,2.721,9.777c0.3,0.42,1.212,1.67,2.85,1.306C584.919,602.257,585.419,600.793,585.581,600.303z"/>
	<path class="st5" d="M491.779,368.88c1.355-1.663,2.023-5.865,2.328-8.124c0.304-2.261,0.774-6.488-0.093-8.452
		c-0.181-0.41-0.735-1.634-2.41-1.764c-1.648-0.318-2.506,0.716-2.789,1.064c-1.356,1.664-2.024,5.865-2.329,8.124
		c-0.304,2.261-0.773,6.488,0.094,8.452c0.181,0.411,0.735,1.634,2.408,1.765C490.637,370.262,491.495,369.227,491.779,368.88z"/>
	<path class="st5" d="M434.218,386.967c0.121-0.91-0.072-2.065-0.212-3.248c-0.151-1.181-0.233-2.391-0.241-3.245
		c0.007-0.853,0.087-2.065,0.238-3.244c0.139-1.184,0.329-2.34,0.206-3.25c-0.073-0.369-0.14-1.545-1.546-2.468
		c-1.292-1.073-2.6-0.409-3.017-0.118c-1.013,0.629-2.072,2.177-2.709,3.965c-0.657,1.784-0.858,3.758-0.862,5.121
		c0.005,1.362,0.21,3.336,0.868,5.119c0.637,1.786,1.701,3.334,2.713,3.961c0.418,0.291,1.727,0.953,3.017-0.121
		C434.078,388.513,434.146,387.337,434.218,386.967z"/>
	<path class="st5" d="M503.719,300.121c0.816-1.919,0.637-5.922,0.714-8.1c-0.005-2.178,0.308-6.172-0.443-8.118
		c-0.17-0.403-0.652-1.638-2.311-1.891c-1.62-0.442-2.555,0.608-2.855,0.98c-1.497,1.728-2.089,6.405-2.078,8.901
		c-0.094,2.494,0.341,7.187,1.779,8.967c0.287,0.379,1.187,1.46,2.821,1.073C503.014,301.737,503.535,300.518,503.719,300.121z"/>
	<path class="st5" d="M549.932,255.233c0.815-1.92,0.635-5.923,0.714-8.1c-0.005-2.178,0.306-6.172-0.443-8.118
		c-0.173-0.403-0.653-1.639-2.313-1.891c-1.62-0.442-2.556,0.608-2.854,0.98c-1.497,1.728-2.088,6.405-2.078,8.901
		c-0.094,2.495,0.342,7.187,1.78,8.966c0.286,0.379,1.187,1.46,2.82,1.073C549.225,256.849,549.746,255.63,549.932,255.233z"/>
	<path class="st5" d="M503.749,326.164c0.476-1.879-0.1-5.372-0.114-7.329c-0.139-1.951,0.164-5.478-0.458-7.314
		c-0.154-0.377-0.548-1.563-2.173-1.984c-1.569-0.598-2.592,0.352-2.915,0.704c-1.66,1.605-2.332,6.377-2.137,8.894
		c0.002,2.524,1.044,7.23,2.824,8.7c0.348,0.326,1.444,1.195,2.961,0.475C503.324,327.764,503.624,326.553,503.749,326.164z"/>
	<path class="st5" d="M474.896,279.914c0.499-1.597,0.236-4.289,0.472-5.83c0.095-1.556,0.923-4.131,0.776-5.799
		c-0.065-0.346-0.127-1.447-1.478-2.448c-1.244-1.127-2.506-0.641-2.917-0.416c-0.99,0.475-2.063,1.779-2.789,3.328
		c-0.742,1.543-1.103,3.292-1.237,4.516c-0.128,1.221-0.145,3.01,0.252,4.674c0.381,1.667,1.154,3.17,2.021,3.844
		c0.355,0.306,1.486,1.048,2.939,0.211C474.466,281.301,474.76,280.239,474.896,279.914z"/>
	<path class="st5" d="M571.236,284.071c0.418,1.621,2.062,3.769,2.672,5.204c0.738,1.374,1.394,3.997,2.396,5.336
		c0.24,0.261,0.872,1.163,2.547,1.301c1.649,0.303,2.467-0.775,2.699-1.182c0.591-0.926,0.815-2.601,0.615-4.298
		c-0.182-1.702-0.798-3.38-1.327-4.49c-0.535-1.106-1.463-2.634-2.679-3.839c-1.199-1.217-2.65-2.086-3.741-2.203
		c-0.463-0.073-1.815-0.109-2.609,1.37C570.872,282.665,571.182,283.722,571.236,284.071z"/>
	<path class="st5" d="M474.637,216.892c0.445-0.805,0.691-1.954,0.992-3.111c0.292-1.158,0.661-2.319,0.967-3.119
		c0.322-0.794,0.84-1.897,1.415-2.943c0.565-1.054,1.168-2.063,1.39-2.956c0.068-0.371,0.436-1.493-0.535-2.867
		c-0.81-1.47-2.272-1.329-2.768-1.21c-1.174,0.217-2.728,1.273-3.977,2.707c-1.267,1.423-2.178,3.189-2.68,4.46
		c-0.496,1.272-1.03,3.187-1.07,5.092c-0.061,1.9,0.361,3.732,1.073,4.689c0.284,0.425,1.258,1.523,2.852,0.998
		C473.941,218.283,474.434,217.21,474.637,216.892z"/>
	<path class="st5" d="M677.701,539.552c1.224-0.473,2.785-1.791,4.155-3.38c1.379-1.583,2.539-3.431,3.273-4.757
		c0.729-1.329,1.67-3.299,2.27-5.311c0.611-2.006,0.892-4.03,0.636-5.317c-0.094-0.545-0.478-2.126-2.145-2.337
		c-1.623-0.438-2.598,0.686-2.936,1.038c-1.525,1.76-3.276,6.038-4.561,8.217c-1.152,2.251-3.834,6.016-4.507,8.245
		c-0.115,0.475-0.546,1.9,0.693,3.038C675.647,540.283,677.189,539.764,677.701,539.552z"/>
	<path class="st5" d="M629.358,566.446c1.611-0.805,3.761-2.839,5.472-5.337c1.739-2.484,2.975-5.396,3.652-7.472
		c0.665-2.081,1.359-5.167,1.396-8.198c0.072-3.029-0.487-5.934-1.325-7.528c-0.325-0.69-1.497-2.578-3.069-1.979
		c-1.662,0.287-1.953,2.198-2.11,2.808c-0.32,1.491-0.436,3.801-0.783,6.158c-0.325,2.359-0.911,4.744-1.426,6.381
		c-0.536,1.627-1.453,3.906-2.568,6.012c-1.094,2.116-2.347,4.058-2.961,5.457c-0.226,0.587-1.108,2.307,0.074,3.512
		C626.637,567.665,628.691,566.816,629.358,566.446z"/>
	<path class="st5" d="M625.674,606.959c-1.029-0.828-2.713-1.776-4.322-2.962c-1.618-1.169-3.118-2.591-4.083-3.66
		c-0.946-1.09-2.177-2.75-3.14-4.497c-0.983-1.739-1.719-3.527-2.418-4.65c-0.315-0.44-1.087-1.943-2.768-1.824
		c-1.675-0.171-2.315,1.793-2.436,2.497c-0.371,1.637-0.056,4.396,0.976,7.014c1,2.636,2.697,5.039,4.029,6.556
		c1.348,1.507,3.524,3.482,6.021,4.794c2.473,1.341,5.174,1.988,6.844,1.816c0.715-0.033,2.742-0.431,2.773-2.113
		C627.472,608.273,626.073,607.325,625.674,606.959z"/>
	<path class="st5" d="M660.743,607.327c-1.601-0.85-4.275-1.787-6.969-2.914c-2.702-1.108-5.406-2.434-7.25-3.445
		c-1.838-1.025-4.396-2.612-6.77-4.312c-2.386-1.684-4.6-3.453-6.171-4.359c-0.663-0.356-2.594-1.57-3.798-0.384
		c-1.433,0.886-0.468,3.166-0.081,3.915c0.867,1.801,2.958,4.318,5.492,6.541c2.522,2.243,5.477,4.141,7.605,5.327
		c2.135,1.173,5.314,2.668,8.553,3.612c3.229,0.967,6.472,1.403,8.459,1.181c0.84-0.07,3.285-0.464,3.273-2.15
		C663.452,608.691,661.395,607.699,660.743,607.327z"/>
	<path class="st5" d="M671.007,584.666c-1.876-1.13-5.989-2.099-8.119-3.049c-2.196-0.79-5.834-2.94-7.969-3.424
		c-0.456-0.07-1.83-0.386-2.935,0.88c-1.258,1.11-0.715,2.604-0.486,3.099c0.505,1.182,1.887,2.645,3.551,3.856
		c1.661,1.224,3.591,2.165,4.97,2.723c1.379,0.552,3.425,1.21,5.469,1.476c2.042,0.28,4.049,0.18,5.233-0.322
		c0.508-0.197,1.936-0.899,1.795-2.572C672.596,585.653,671.384,584.93,671.007,584.666z"/>
	<path class="st5" d="M701.008,605.308c0.015,0.511,0.148,1.107,0.362,1.755l1.175-4.561c-1.664,0.339-3.822,0.771-5.216,0.722
		c-0.887,0.016-2.159-0.085-3.393-0.286c-1.244-0.186-2.436-0.475-3.378-0.445c-0.402,0.059-1.604-0.023-2.648,1.306
		c-1.184,1.184-0.559,2.631-0.248,3.068c0.623,1.113,2.256,2.347,4.182,3.074c1.921,0.757,4.07,1,5.56,0.972
		c2.281,0.096,6.191-0.865,8.297-2.732l3.064-2.72l-1.887-1.842c-0.49-0.477-0.968-0.856-1.421-1.092
		c-0.411-0.214-1.646-0.844-3.014,0.129C700.969,603.46,700.995,604.847,701.008,605.308z"/>
	<path class="st5" d="M677.154,570.102c-0.581-0.845-1.645-1.738-2.684-2.701c-1.047-0.954-2.051-1.999-2.714-2.769
		c-0.653-0.779-1.519-1.94-2.29-3.127c-0.786-1.182-1.492-2.377-2.231-3.086c-0.318-0.276-1.204-1.24-2.857-0.926
		c-1.674,0.106-2.147,1.608-2.246,2.143c-0.291,1.245,0.022,3.248,0.805,5.155c0.766,1.918,1.999,3.684,2.958,4.818
		c0.963,1.129,2.507,2.633,4.275,3.699c1.753,1.082,3.679,1.714,4.954,1.63c0.545-0.009,2.103-0.232,2.48-1.869
		C678.184,571.49,677.373,570.46,677.154,570.102z"/>
	<path class="st5" d="M657.739,623.887c-1.345,0.009-3.293,0.374-5.327,0.547c-2.029,0.193-4.132,0.156-5.598,0.031
		c-1.463-0.15-3.536-0.506-5.494-1.073c-1.967-0.547-3.812-1.27-5.132-1.528c-0.547-0.078-2.2-0.522-3.222,0.817
		c-1.236,1.142-0.229,2.906,0.195,3.467c0.929,1.362,3.086,2.993,5.613,4.096c2.519,1.132,5.347,1.684,7.322,1.877
		c1.977,0.177,4.859,0.163,7.543-0.482c2.686-0.612,5.11-1.814,6.277-2.979c0.52-0.471,1.838-2.018,0.838-3.37
		C659.996,623.782,658.29,623.913,657.739,623.887z"/>
	<path class="st5" d="M463.639,558.867c-0.092-1.337-0.619-3.246-1.022-5.242c-0.42-1.991-0.689-4.067-0.795-5.526
		c-0.087-1.46-0.099-3.554,0.053-5.583c0.136-2.032,0.404-3.995,0.315-5.331c-0.059-0.548-0.08-2.246-1.649-2.861
		c-1.442-0.865-2.835,0.5-3.262,1.016c-1.052,1.177-2.085,3.52-2.63,6.084c-0.571,2.563-0.619,5.3-0.499,7.188
		c0.132,1.887,0.545,4.594,1.451,7.056c0.882,2.469,2.216,4.655,3.415,5.682c0.493,0.454,2.055,1.622,3.369,0.572
		C463.858,561.104,463.652,559.419,463.639,558.867z"/>
	<path class="st5" d="M464.826,596.682c-0.582-1.136-1.779-2.575-2.923-4.118c-1.155-1.533-2.235-3.181-2.932-4.371
		c-0.682-1.199-1.57-2.958-2.318-4.726c-0.764-1.762-1.411-3.518-2.104-4.59c-0.303-0.431-1.113-1.832-2.787-1.64
		c-1.678-0.073-2.274,1.679-2.419,2.296c-0.392,1.446-0.252,3.851,0.374,6.237c0.605,2.395,1.71,4.722,2.595,6.267
		c0.895,1.54,2.359,3.661,4.129,5.382c1.753,1.737,3.766,3.059,5.214,3.443c0.607,0.184,2.422,0.545,3.199-0.946
		C465.855,598.562,465.047,597.159,464.826,596.682z"/>
	<path class="st5" d="M501.278,619.239c-1.183-0.779-3.155-1.578-5.13-2.519c-1.98-0.926-3.947-2.018-5.282-2.848
		c-1.325-0.846-3.159-2.147-4.849-3.534c-1.703-1.374-3.276-2.806-4.489-3.538c-0.512-0.284-2.003-1.28-3.365-0.289
		c-1.512,0.738-1.088,2.709-0.883,3.367c0.436,1.573,1.858,3.799,3.717,5.773c1.846,1.991,4.116,3.679,5.77,4.728
		c1.66,1.038,4.163,2.358,6.756,3.162c2.583,0.825,5.205,1.147,6.81,0.86c0.684-0.097,2.646-0.567,2.657-2.25
		C503.298,620.492,501.757,619.579,501.278,619.239z"/>
	<path class="st5" d="M536.581,615.675c-1.121-0.225-2.743-0.125-4.405-0.073c-1.663,0.065-3.364,0.057-4.554,0.002
		c-1.192-0.069-2.886-0.239-4.531-0.475c-1.647-0.224-3.251-0.494-4.388-0.387c-0.468,0.063-1.913,0.135-2.609,1.668
		c-0.895,1.421,0.116,2.725,0.503,3.139c0.882,1.005,2.726,2.024,4.779,2.686c2.055,0.675,4.288,0.964,5.844,1.049
		c1.557,0.077,3.807,0.024,5.921-0.436c2.113-0.442,4.053-1.265,5.033-2.174c0.426-0.37,1.569-1.563,0.828-3.069
		C538.47,616.009,537.039,615.786,536.581,615.675z"/>
	<path class="st5" d="M558.903,604.683c-1.785-1.121-5.928-1.221-8.152-1.221c-2.221,0-6.366,0.1-8.151,1.221
		c-0.372,0.234-1.483,0.947-1.389,2.623c-0.094,1.676,1.017,2.389,1.389,2.623c1.785,1.122,5.93,1.221,8.151,1.221
		c2.224,0,6.367-0.099,8.152-1.221c0.372-0.233,1.482-0.946,1.389-2.623C560.385,605.63,559.275,604.917,558.903,604.683z"/>
	<path class="st5" d="M498.831,597.507c-0.941-0.942-2.592-2.018-4.216-3.226c-1.633-1.194-3.22-2.539-4.279-3.535
		c-1.047-1.01-2.467-2.528-3.741-4.1c-1.286-1.563-2.443-3.159-3.431-4.052c-0.421-0.352-1.614-1.545-3.166-0.891
		c-1.637,0.388-1.696,2.311-1.65,2.969c0.049,1.556,0.901,3.923,2.235,6.129c1.315,2.222,3.108,4.229,4.451,5.515
		c1.352,1.28,3.446,2.972,5.728,4.176c2.27,1.222,4.674,1.958,6.232,1.931c0.659,0.013,2.577-0.142,2.885-1.794
		C500.453,599.043,499.203,597.91,498.831,597.507z"/>
	<path class="st5" d="M485.516,565.452c-0.787-1.644-3.154-3.761-4.209-5.2c-1.166-1.352-2.7-4.13-4.127-5.266
		c-0.318-0.214-1.234-0.969-2.858-0.537c-1.659,0.256-2.071,1.581-2.165,2.049c-0.263,1.092,0.026,2.785,0.686,4.407
		c0.648,1.629,1.667,3.148,2.451,4.137c0.788,0.985,2.04,2.317,3.483,3.312c1.434,1.007,3.019,1.668,4.142,1.655
		c0.478,0.013,1.861-0.092,2.482-1.653C486.185,566.871,485.654,565.809,485.516,565.452z"/>
	<path class="st5" d="M520.527,583.106c-0.79-0.865-2.206-1.777-3.627-2.75c-1.427-0.962-2.852-2.004-3.818-2.772
		c-0.959-0.779-2.283-1.946-3.531-3.132c-1.256-1.178-2.452-2.364-3.467-2.95c-0.427-0.227-1.681-1.02-3.118-0.144
		c-1.542,0.666-1.432,2.337-1.344,2.903c0.163,1.344,1.113,3.258,2.433,5.006c1.308,1.76,2.981,3.316,4.211,4.31
		c1.235,0.987,3.115,2.285,5.115,3.185c1.992,0.911,4.066,1.426,5.412,1.295c0.571-0.037,2.229-0.289,2.547-1.938
		C521.886,584.528,520.84,583.474,520.527,583.106z"/>
	<path class="st5" d="M526.971,601.677c-1.268-1.145-4.031-1.831-5.494-2.458c-1.5-0.528-3.997-1.895-5.706-1.911
		c-0.359,0.019-1.464-0.007-2.548,1.276c-1.198,1.175-0.891,2.396-0.751,2.802c0.559,2.013,4.129,4.283,6.212,4.995
		c2.014,0.886,6.178,1.633,7.951,0.53c0.38-0.203,1.431-0.895,1.345-2.571C528.053,602.664,527.223,601.933,526.971,601.677z"/>
	<path class="st5" d="M543.903,584.088c-0.291-1.364-2.003-2.252-2.943-2.679c-0.94-0.427-2.735-1.133-3.952-0.456
		c-0.256,0.141-1.02,0.576-1.675,2.12c-0.734,1.508-0.56,2.37-0.497,2.655c0.29,1.364,2.002,2.252,2.943,2.681
		c0.941,0.427,2.736,1.132,3.955,0.454c0.254-0.141,1.017-0.576,1.672-2.12C544.14,585.235,543.964,584.372,543.903,584.088z"/>
	<path class="st5" d="M516.461,566.495c-0.416-1.4-1.876-2.746-2.539-3.706c-0.738-0.905-1.625-2.68-2.854-3.468
		c-0.272-0.143-1.057-0.701-2.725-0.498c-1.677,0.072-2.271,1.095-2.429,1.474c-0.413,0.867-0.36,2.284,0.062,3.647
		c0.411,1.369,1.186,2.644,1.799,3.464c0.617,0.818,1.626,1.917,2.828,2.692c1.191,0.784,2.538,1.23,3.486,1.075
		c0.407-0.047,1.556-0.333,2.09-1.924C516.838,567.707,516.523,566.797,516.461,566.495z"/>
	<path class="st5" d="M725.285,308.286c-1.524,1.354-3.435,4.631-4.871,6.186c-1.303,1.67-4.231,4.086-5.32,5.81
		c-0.199,0.38-0.919,1.49-0.177,2.999c0.552,1.586,2.084,1.672,2.611,1.649c1.241-0.009,3.044-0.731,4.691-1.835
		c1.66-1.09,3.125-2.555,4.053-3.642c0.924-1.093,2.133-2.774,2.941-4.588c0.822-1.805,1.243-3.7,1.051-4.928
		c-0.061-0.523-0.394-2.021-2.049-2.309C726.607,307.14,725.628,308.028,725.285,308.286z"/>
	<path class="st5" d="M717.449,287.31c-1.768,1.112-4.177,4.249-5.781,5.727c-1.5,1.585-4.667,3.951-5.799,5.705
		c-0.214,0.383-0.95,1.509-0.19,3.007c0.574,1.578,2.079,1.668,2.594,1.656c1.217,0.01,2.977-0.647,4.63-1.635
		c1.657-0.978,3.177-2.288,4.166-3.262c0.988-0.978,2.318-2.48,3.318-4.126c1.007-1.639,1.686-3.391,1.692-4.608
		c0.02-0.515-0.052-2.021-1.623-2.613C718.969,286.381,717.833,287.102,717.449,287.31z"/>
	<path class="st5" d="M712.997,272.728c-2.65,0.795-7.182,4.543-9.575,6.594c-2.394,2.051-6.792,5.951-7.985,8.448
		c-0.248,0.522-0.983,2.088,0.207,3.275c0.992,1.359,2.652,0.876,3.203,0.709c2.653-0.794,7.182-4.542,9.575-6.594
		c2.396-2.05,6.795-5.951,7.987-8.448c0.248-0.522,0.98-2.088-0.21-3.275C715.21,272.079,713.551,272.563,712.997,272.728z"/>
	<path class="st5" d="M732.102,245.594c-1.745,1.274-3.485,5.2-4.368,7.324c-0.884,2.125-2.438,6.127-2.114,8.262
		c0.069,0.448,0.286,1.782,1.869,2.337c1.512,0.731,2.611-0.057,2.975-0.322c1.746-1.275,3.485-5.2,4.369-7.324
		c0.884-2.125,2.438-6.127,2.113-8.262c-0.068-0.448-0.285-1.782-1.869-2.337C733.565,244.54,732.467,245.328,732.102,245.594z"/>
	<path class="st5" d="M737.416,273.412c-1.852,0.675-3.561,4.178-3.999,6.156c-0.601,1.935-0.86,5.825,0.411,7.331
		c0.241,0.326,1.034,1.213,2.692,0.958c1.675-0.112,2.319-0.933,2.549-1.182c1.017-1.25,1.367-3.765,1.778-5.128
		c0.323-1.387,1.266-3.745,1.005-5.334c-0.074-0.329-0.226-1.362-1.623-2.294C738.916,272.874,737.788,273.25,737.416,273.412z"/>
	<path class="st5" d="M750.535,224.066c-1.478,0.877-2.539,3.71-3.056,5.248c-0.517,1.537-1.389,4.436-0.742,6.026
		c0.135,0.333,0.552,1.328,2.162,1.799c1.566,0.599,2.5,0.059,2.81-0.125c1.478-0.875,2.538-3.709,3.056-5.246
		c0.517-1.537,1.389-4.436,0.741-6.026c-0.135-0.333-0.552-1.329-2.162-1.799C751.779,223.343,750.843,223.884,750.535,224.066z"/>
	<path class="st5" d="M736.249,206.789c-1.567,1.869-2.758,6.758-3.345,9.391c-0.589,2.632-1.586,7.565-0.963,9.923
		c0.131,0.492,0.534,1.963,2.195,2.218c1.61,0.475,2.601-0.686,2.925-1.076c1.567-1.868,2.761-6.758,3.347-9.391
		c0.586-2.634,1.583-7.566,0.961-9.923c-0.131-0.492-0.532-1.964-2.192-2.219C737.565,205.238,736.576,206.398,736.249,206.789z"/>
	<path class="st5" d="M751.661,180.44c-0.254,2.78,0.742,8.528,0.88,11.697c0.303,3.157,0.116,8.989,0.753,11.707
		c0.16,0.561,0.571,2.285,2.244,2.474c1.616,0.465,2.63-1.136,2.943-1.697c0.771-1.319,1.355-3.668,1.623-6.148
		c0.281-2.48,0.229-5.072,0.106-6.87c-0.128-1.798-0.436-4.373-1.059-6.788c-0.611-2.419-1.515-4.665-2.46-5.864
		c-0.386-0.512-1.613-1.957-3.15-1.272C751.91,178.096,751.739,179.861,751.661,180.44z"/>
	<path class="st5" d="M731.668,163.16c-0.318,2.029,1.229,5.716,2.106,7.673c0.877,1.955,2.605,5.562,4.334,6.672
		c0.359,0.232,1.448,0.917,2.94,0.15c1.567-0.604,1.779-1.874,1.845-2.297c0.318-2.028-1.226-5.717-2.106-7.673
		c-0.876-1.955-2.605-5.562-4.332-6.673c-0.362-0.232-1.45-0.917-2.943-0.149C731.946,161.467,731.735,162.735,731.668,163.16z"/>
	<path class="st5" d="M764.895,139.94c-1.47,2.832-2.694,9.627-3.48,13.259c-0.719,3.645-2.295,10.367-2.071,13.55
		c0.057,0.665,0.212,2.661,1.862,2.995c1.559,0.634,2.785-1,3.184-1.559c1.958-2.646,3.807-9.638,4.553-13.428
		c0.82-3.776,1.899-10.926,1.153-14.132c-0.146-0.672-0.623-2.659-2.305-2.694C766.144,137.581,765.211,139.353,764.895,139.94z"/>
	<path class="st5" d="M748.757,130.761c-0.813,1.669-0.244,5.062,0.113,6.87c0.36,1.809,1.123,5.163,2.512,6.398
		c0.289,0.257,1.167,1.023,2.795,0.623c1.66-0.25,2.179-1.292,2.349-1.64c0.813-1.67,0.247-5.062-0.113-6.871
		c-0.357-1.809-1.123-5.163-2.509-6.397c-0.291-0.258-1.167-1.023-2.798-0.623C749.449,129.371,748.927,130.412,748.757,130.761z"/>
	<path class="st5" d="M750.491,94.776c-1.505,0.192-3.694,1.425-5.423,3.252c-1.76,1.804-2.987,4.124-3.632,5.797
		c-0.633,1.679-1.263,4.226-1.15,6.744c0.073,2.514,0.887,4.892,1.881,6.037c0.392,0.519,1.753,1.782,3.174,0.88
		c1.542-0.686,1.68-2.103,1.803-2.537c0.219-1.084,0.228-2.601,0.445-4.166c0.197-1.563,0.636-3.144,1.03-4.219
		c0.421-1.065,1.147-2.537,2.041-3.835c0.879-1.311,1.884-2.45,2.441-3.404c0.197-0.405,1.037-1.556,0.345-3.092
		C752.985,94.616,751.129,94.65,750.491,94.776z"/>
	<path class="st5" d="M775.559,103.414c-0.655-0.968-2.248-1.909-4.046-2.351c-1.795-0.469-3.732-0.417-5.041-0.234
		c-1.311,0.191-3.18,0.684-4.773,1.637c-1.604,0.93-2.869,2.279-3.226,3.391c-0.182,0.467-0.478,1.867,0.884,2.85
		c1.256,1.121,2.337,0.983,2.682,0.999c0.845-0.026,1.797-0.351,2.785-0.633c0.983-0.292,2.007-0.517,2.736-0.632
		c0.731-0.094,1.778-0.165,2.802-0.16c1.027-0.006,2.035,0.039,2.852-0.173c0.326-0.113,1.404-0.285,2.296-1.71
		C776.541,105.071,775.864,103.81,775.559,103.414z"/>
	<path class="st5" d="M775.741,88.843c-0.448-0.805-1.586-1.517-2.874-1.89c-1.29-0.388-2.694-0.42-3.652-0.344
		c-0.961,0.079-2.342,0.333-3.551,0.922c-1.214,0.575-2.224,1.458-2.537,2.325c-0.153,0.362-0.443,1.46,0.648,2.732
		c1,1.351,1.876,1.592,2.143,1.71c1.305,0.442,2.91,0.017,3.913-0.025c0.995-0.118,2.648,0.045,3.864-0.6
		c0.244-0.158,1.074-0.538,1.842-2.029C776.41,90.213,775.95,89.177,775.741,88.843z"/>
	<path class="st5" d="M786.872,122.87c-0.679-1.763-4.125-3.06-6.009-3.196c-1.859-0.333-5.516,0.072-6.612,1.612
		c-0.247,0.298-0.864,1.241-0.251,2.802c0.495,1.604,1.313,2.093,1.556,2.278c1.226,0.791,3.216,0.752,4.349,0.937
		c1.145,0.101,3.063,0.63,4.445,0.166c0.284-0.118,1.197-0.391,2.074-1.823C787.404,124.286,787.037,123.221,786.872,122.87z"/>
	<path class="st5" d="M778.625,140.359c-1.298,0.641-1.874,2.69-2.13,3.802c-0.256,1.112-0.638,3.207,0.248,4.35
		c0.185,0.239,0.751,0.954,2.397,1.285c1.622,0.423,2.445,0.028,2.716-0.105c1.298-0.641,1.874-2.69,2.13-3.801
		c0.256-1.111,0.637-3.207-0.252-4.351c-0.184-0.239-0.751-0.954-2.393-1.284C779.718,139.831,778.895,140.227,778.625,140.359z"/>
	<path class="st6" d="M538.137,291.315c-26.778,8.375-38.171,16.924-35.734,37.24c1.864,15.536,21.535,22.065,36.769,16.757
		c5.305,7.449,9.7,14.292,20.665,8.296c7.021-3.839,8.906-11.488,9.215-17.434c13.66-3.841,24.4-15.036,20.848-32.925
		C586.235,284.788,567.977,281.982,538.137,291.315z"/>
	<path class="st7" d="M228.127,441.32c-9.766,2.171-24.409,9.945-31.641,17.628c-6.793,7.219-23.956,5.876-28.476-3.163
		c-5.101-10.204,3.702-39.621,43.392-51.528c31.64-9.492,51.965,3.625,55.595,9.491c5.877,9.492-0.904,21.696-10.848,21.696
		C246.208,435.444,232.194,440.416,228.127,441.32z"/>
	<path class="st7" d="M38.683,516.365c2.195-12.617,16.459-25.784,16.459-25.784s-9.876-15.909-20.847-21.395
		c-10.972-5.486-21.944,3.292-19.201,19.2C17.837,504.297,38.683,516.365,38.683,516.365z"/>
	<path class="st7" d="M21.129,631.572c-0.549-15.909,32.367-61.444,54.86-47.729c-17.008-31.818-27.431-32.367-43.34-27.979
		c-15.909,4.389-31.27,22.494-26.332,47.728C11.254,628.828,21.129,631.572,21.129,631.572z"/>
	<path class="st7" d="M319.017,376.473c11.521-3.291,21.396,6.583,22.493,14.264c8.777-15.91,8.777-36.757-2.743-41.694
		c-11.521-4.936-18.653,14.812-18.653,14.812L319.017,376.473z"/>
	<path class="st7" d="M153.34,384.154c5.486-6.035,24.138-18.103,31.27-10.971c8.778-7.132,24.688-18.105,35.658-10.973
		c-5.485-18.103-12.068-24.138-21.394-23.041c-9.326,1.097-15.909,18.103-15.909,20.297c0,2.196-4.938-15.909-18.105-10.423
		C151.696,354.53,149.5,376.473,153.34,384.154z"/>
	<path class="st7" d="M106.709,698.501c-9.874,10.423-10.423,27.43-10.423,27.43s-14.812,0-23.041-12.617
		c-8.229-12.619,6.584-21.945,15.909-21.396C98.48,692.466,106.709,698.501,106.709,698.501z"/>
	<path class="st7" d="M252.638,669.424c-4.389,10.424-2.743,21.396,0,26.334c-19.202,0-23.59-1.097-29.076-9.875
		c-5.487-8.778,1.645-15.361,10.423-15.909C242.762,669.424,252.638,669.424,252.638,669.424z"/>
	<path class="st8" d="M537.618,318.296c0,0,6.784,37.795,20.212,30.455c3.075-5.499,3.69-19.505-2.188-36.243
		c-6.834-0.329-13.121-7.729-13.121-7.729S540.336,316.935,537.618,318.296z"/>
	<path class="st9" d="M542.224,296.502c-6.482,2.808-12.734,0.422-14.582-3.492c-1.458-3.087-0.176-7.126,5.895-10.319
		c8.524-4.482,15.025-0.372,15.52,4.802C549.361,290.677,547.393,294.264,542.224,296.502z"/>
	<path class="st9" d="M536.084,322.077c-2.495,1.525-5.312,2.367-8.045,2.491c-2.724,0.135-5.384-0.578-7.157-1.793
		c-1.15-0.741-1.736-2.028-1.684-3.126c0.076-1.15,0.719-2.069,1.697-2.695c0.975-0.627,2.062-0.95,2.857-1.14
		c0.852-0.208,1.416-0.283,1.815-0.037c0.862,0.623,2.16,1.158,3.529,1.331c1.364,0.16,2.749-0.071,3.603-0.619
		c3.564-2.129,5.49-7.36,5.337-12.344c-0.013-2.758-1.598-6.644-2.734-10.527c-0.48-1.697,0.895-3.663,3.126-4.322
		c2.229-0.659,4.464,0.213,4.98,2.039c0.79,2.857,1.071,7.788,1.159,12.688c0.069,3.287-0.456,6.673-1.758,9.851
		C541.511,317.044,539.33,320.089,536.084,322.077z"/>
	<path class="st9" d="M560.543,308.586c2.722-0.473,4.559-2.73,5.731-3.683c0.715-0.645,2.69,0.099,4.411,1.671
		c1.716,1.56,2.123,3.806,0.828,4.923c-3.032,2.464-7.253,3.105-9.833,3.524c-2.515,0.412-5.068,0.386-7.558-0.017
		c-2.485-0.459-4.871-1.344-7.085-2.553c-2.288-1.243-6.007-3.202-8.108-6.424c-0.879-1.443,0.185-3.449,2.288-4.429
		c2.111-0.987,4.226-1.095,4.716-0.243c0.852,1.293,1.911,4.04,4.33,5.414c1.566,0.84,3.245,1.473,4.999,1.802
		C557.016,308.844,558.802,308.863,560.543,308.586z"/>
	<path class="st9" d="M557.534,336.31c-1.143-7.326-2.977-14.686-3.64-19.309c-0.404-2.956,1.071-5.633,3.371-6.005
		c2.292-0.37,4.553,1.804,4.969,4.854c0.946,7,0.943,14.461,1.756,19.458c0.372,2.445,0.788,5.138,0.411,8.191
		c-0.197,1.517-0.628,3.221-1.719,4.847c-1.027,1.615-2.866,2.969-4.805,3.457c-3.861,0.994-7.403-0.626-9.7-2.465
		c-2.379-1.898-3.953-3.95-5.521-6.053c-3.303-4.386-7.679-11.53-8.913-19.159c-0.589-3.337,1.263-6.138,3.568-6.168
		c2.344-0.037,4.253,2.099,4.731,4.739c0.365,2.106,0.768,4.867,1.655,7.855c0.884,2.975,2.266,6.173,4.256,8.905
		c1.313,1.791,2.783,3.595,4.248,4.733c1.451,1.184,2.977,1.573,3.997,1.299c0.808-0.214,1.478-0.965,1.724-2.843
		C558.165,340.831,557.911,338.641,557.534,336.31z"/>
	<path class="st10" d="M569.791,352.746c-1.022,1.129-2.451,3.013-4.303,4.494c-1.815,1.526-3.985,2.545-5.546,2.963
		c-1.559,0.436-3.947,0.662-6.29,0.277c-2.352-0.329-4.546-1.215-6.004-1.66c-0.618-0.14-2.423-0.886-3.255,0.224
		c-1.111,0.905,0.224,2.814,0.793,3.389c1.237,1.429,3.953,3.209,7.204,4.006c3.228,0.874,6.851,0.629,9.242-0.055
		c2.406-0.628,5.652-2.262,7.984-4.666c2.391-2.347,3.815-5.271,4.142-7.133c0.195-0.787,0.357-3.111-1.059-3.318
		C571.414,350.745,570.249,352.31,569.791,352.746z"/>
	<path class="st11" d="M430.294,233.869c-1.743,1.421-3.102,3.081-4.565,4.511c-1.388,1.498-2.862,2.81-3.979,4.306
		c-1.175,1.452-2.295,2.839-3.367,4.167c-0.532,0.669-1.052,1.322-1.56,1.963c-0.457,0.676-0.902,1.338-1.34,1.986
		c-3.635,5.109-6.035,9.719-8.224,13.887c-3.966,8.538-6.405,15.661-8.877,25.673c-2.143,10.083-3.05,17.527-3.34,26.887
		c0.061,4.68,0.104,9.842,0.898,16.011c0.694,6.168,2.087,13.336,4.606,21.863c0.896,2.887,4.019,7.554,5.729,6.261
		c2.08-0.03,2.252-5.486,1.519-8.185c-1.742-8.216-2.613-14.989-2.968-20.787c-0.456-5.795-0.339-10.602-0.34-14.957
		c0.405-8.701,1.056-15.634,3.039-24.998c2.3-9.285,4.735-15.786,8.259-23.699c1.966-3.854,4.03-8.164,7.135-13.023
		c0.371-0.618,0.749-1.251,1.136-1.898c0.435-0.613,0.879-1.239,1.333-1.88c0.913-1.284,1.865-2.625,2.863-4.031
		c0.939-1.462,2.217-2.741,3.399-4.222c1.255-1.414,2.398-3.067,3.912-4.498c1.992-1.921,4.624-6.684,2.875-7.792
		C437.651,229.409,432.563,231.828,430.294,233.869z"/>
	<path class="st11" d="M496.015,193.386c-3.482-6.891-8.322-11.339-12.941-14.154c-4.628-2.884-9.215-4.141-13.462-4.563
		c-4.324-0.33-8.131,0.322-11.818,1.566c-3.675,1.265-7.181,3.197-10.649,6.05c-3.475,2.85-5.971,5.797-8.045,8.863
		c-2.067,3.069-3.705,6.329-5.015,10.018c-1.32,3.699-2.322,7.9-2.816,12.972c-0.492,5.067-0.462,11.018,0.622,18.09
		c0.279,2.424,2.67,6.404,4.557,5.501c2.051,0.125,3.041-4.128,2.901-6.295c-0.352-6.538,0.069-11.807,0.775-16.17
		c0.709-4.367,1.695-7.847,2.838-10.864c1.145-3.03,2.409-5.558,4.005-7.988c1.593-2.418,3.51-4.733,6.127-6.872
		c2.606-2.151,5.175-3.493,7.754-4.346c2.564-0.842,5.233-1.266,8.054-1.103c2.841,0.247,6.122,0.936,9.718,2.877
		c3.587,1.868,7.589,4.96,10.824,10.031c0.549,0.849,1.496,1.954,2.558,2.783c1.019,0.834,2.207,1.407,3.079,0.872
		c1.047-0.045,1.621-1.192,1.787-2.744C497,196.392,496.656,194.51,496.015,193.386z"/>
	<path class="st10" d="M536.281,183.728c-2.664-0.62-7.156-0.74-11.779-0.282c-4.628,0.433-9.343,1.478-12.583,2.368
		c-3.235,0.905-7.817,2.439-12.006,4.451c-4.197,1.989-7.985,4.406-9.952,6.312c-0.841,0.784-3.19,3.237-1.897,4.727
		c0.848,1.783,3.93,0.834,4.965,0.569c2.477-0.689,6.255-2.289,10.225-3.763c3.961-1.495,8.124-2.827,11.062-3.652
		c2.943-0.807,7.198-1.808,11.363-2.568c4.162-0.782,8.225-1.357,10.703-2.044c1.025-0.305,4.155-1.081,3.962-3.046
		C540.684,184.858,537.406,183.967,536.281,183.728z"/>
	<path class="st11" d="M593.856,171.104c-1.765-6.656-5.154-11.337-8.457-14.746c-3.391-3.375-6.819-5.597-10.227-7.044
		c-3.435-1.45-6.79-2.124-10.171-2.299c-3.399-0.164-6.903,0.18-10.755,1.21c-3.837,1.08-6.948,2.544-9.767,4.252
		c-2.813,1.727-5.346,3.728-7.804,6.303c-2.416,2.564-4.903,5.744-6.787,10.328c-1.817,4.516-2.952,10.82-0.445,17.679
		c0.389,1.163,1.495,2.624,2.748,3.398c1.249,0.801,2.534,0.888,3.177,0.1c0.94-0.436,1.189-1.589,1.33-2.721
		c0.116-1.143,0.094-2.313-0.121-3.082c-0.567-2.318-0.547-4.59-0.227-6.554c0.323-1.948,0.963-3.701,1.714-5.238
		c1.537-3.073,3.478-5.4,5.408-7.349c3.891-3.788,7.629-6.378,13.261-8.07c5.661-1.419,10.063-1.013,14.811,0.768
		c2.404,0.952,4.967,2.449,7.695,4.779c2.655,2.37,5.566,5.666,7.462,10.532c0.323,0.814,0.998,1.894,1.847,2.765
		c0.815,0.866,1.854,1.549,2.817,1.226c1.032,0.131,1.835-0.774,2.323-2.111C594.144,173.916,594.213,172.199,593.856,171.104z"/>
	<path class="st11" d="M684.111,256.753c-6.218-15.333-11.916-24.224-16.802-31.392c-5.089-7.063-9.598-12.379-16.316-19.258
		c-3.527-3.282-6.467-6.223-9.696-8.705c-3.071-2.66-6.378-4.866-10.033-7.343c-3.8-2.261-7.999-4.773-13.488-6.987
		c-5.408-2.332-12.109-4.36-20.477-5.626c-2.877-0.35-8.119,0.639-7.625,2.727c-0.722,1.921,3.805,4.26,6.32,4.657
		c7.491,1.794,13.36,4.01,18.143,6.393c4.841,2.255,8.58,4.673,12.008,6.775c3.3,2.331,6.337,4.315,9.191,6.755
		c2.995,2.248,5.758,4.962,9.041,8.002c6.268,6.427,10.353,11.536,15.254,18.111c4.716,6.702,10.476,14.808,17.628,28.933
		c1.076,2.411,4.528,6.242,6.164,4.962C685.537,264.611,685.153,259.355,684.111,256.753z"/>
	<path class="st4" d="M525.318,258.69c3.177,12.561-2.557,24.865-12.804,27.479c-10.249,2.616-21.133-5.449-24.309-18.01
		c-3.177-12.563,2.556-24.866,12.804-27.48C511.258,238.064,522.141,246.128,525.318,258.69z"/>
	<path class="st9" d="M521.427,259.763c1.705,8.377-0.132,20.072-9.985,22.516c-9.559,2.369-17.277-6.924-19.345-15.192
		c-2.077-8.298,0.416-20.144,9.985-22.516C511.947,242.124,518.952,251.61,521.427,259.763c1.505,4.955,9.297,2.843,7.782-2.146
		c-3.777-12.442-15.018-24.532-29.273-20.829c-13.815,3.59-18.861,19.829-15.622,32.444c3.152,12.268,14.66,23.776,28.171,21.027
		c14.995-3.05,19.406-19.453,16.723-32.642C528.175,252.532,520.394,254.685,521.427,259.763z"/>
	<path class="st4" d="M572.35,246.191c3.177,12.562-2.556,24.866-12.804,27.48c-10.248,2.616-21.132-5.449-24.309-18.009
		c-3.177-12.562,2.557-24.866,12.804-27.48C558.29,225.566,569.174,233.63,572.35,246.191z"/>
	<path class="st9" d="M568.46,247.264c1.704,8.378-0.132,20.074-9.985,22.517c-9.558,2.37-17.277-6.925-19.345-15.193
		c-2.076-8.297,0.416-20.144,9.985-22.517C558.979,229.626,565.985,239.112,568.46,247.264c1.505,4.956,9.297,2.844,7.782-2.145
		c-3.778-12.441-15.019-24.532-29.273-20.828c-13.814,3.59-18.862,19.83-15.622,32.444c3.152,12.268,14.66,23.777,28.171,21.028
		c14.995-3.05,19.406-19.454,16.724-32.643C575.207,240.033,567.427,242.185,568.46,247.264z"/>
	<path class="st10" d="M507.737,256.992c-0.93-0.051-2.249,0.547-3.331,1.486c-1.097,0.93-1.915,2.167-2.373,3.064
		c-0.482,0.887-0.983,2.259-1.13,3.636c-0.158,1.375,0.057,2.723,0.554,3.454c0.203,0.324,0.891,1.168,2.263,0.891
		c1.39-0.148,1.916-0.86,2.104-1.06c0.836-1.042,1.313-3.006,1.902-3.984c0.483-1.063,1.69-2.458,2.088-3.641
		c0.051-0.267,0.377-1.042-0.154-2.341C509.254,257.16,508.131,256.98,507.737,256.992z"/>
	<path class="st10" d="M560.615,252.301c-0.145-0.883-0.889-2.025-1.896-2.986c-1-0.969-2.244-1.743-3.163-2.177
		c-0.909-0.448-2.288-0.978-3.701-1.162c-1.411-0.195-2.814-0.05-3.605,0.427c-0.344,0.181-1.268,0.844-1.049,2.224
		c0.081,1.399,0.825,1.941,1.039,2.148c1.099,0.862,3.315,1.466,4.497,2.116c1.226,0.522,3.152,1.969,4.573,2.271
		c0.301,0.043,1.221,0.258,2.313-0.62C560.794,253.778,560.689,252.677,560.615,252.301z"/>
	<path class="st11" d="M441.545,433.029c-2.187-8.804-2.155-17.184-0.807-24.494c1.339-7.224,4.345-13.953,5.816-21.107
		c1.597-7.162,1.268-14.732-1.909-21.113c-1.578-3.189-4.036-6.047-6.995-7.953c-2.939-1.936-6.226-2.931-9.275-3.282
		c-6.156-0.689-11.603,0.582-16.437,2.408c-4.807,1.783-9.26,4.174-13.347,7.108c-8.182,5.87-15.154,13.589-21.2,23.548
		c-5.985,10.028-9.522,19.431-12.042,28.816c-2.404,9.424-3.707,19.044-2.82,29.782c0.959,10.644,4.216,22.742,13.069,34.313
		c4.457,5.703,10.407,11.252,18.397,15.081c7.948,3.737,17.726,5.647,28.155,3.828c3.518-0.528,8.271-2.464,11.364-4.855
		c1.549-1.198,2.736-2.375,3.329-3.356c0.619-0.944,0.708-1.585,0.107-1.785c0.009-0.608-0.666-0.737-1.708-0.571
		c-1.021,0.204-2.474,0.594-4.087,1.062c-3.248,0.925-7.302,1.714-10.22,2.104c-8.687,1.214-16.861-0.67-23.257-3.923
		c-6.423-3.308-11.325-8.081-14.977-12.992c-3.68-4.936-6.129-10.134-7.826-15.129c-1.69-5.011-2.552-9.862-2.932-14.563
		c-0.716-9.402,0.406-18.025,2.569-26.626c2.267-8.587,5.509-17.308,10.909-26.336c5.455-8.992,11.662-15.706,18.632-20.671
		c3.486-2.486,7.216-4.464,11.205-5.942c3.878-1.506,8.092-2.353,11.999-1.922c3.91,0.449,7.14,2.247,9.131,6.079
		c1.004,1.89,1.659,4.248,1.907,6.819c0.262,2.598,0.089,5.282-0.495,8.325c-1.036,6.044-3.892,12.841-5.293,21.449
		c-1.309,8.474-1.017,18.005,1.799,27.854c0.884,3.336,2.984,7.77,5.249,10.811c2.255,3.065,4.483,4.76,4.926,3.616
		c1.256,0.083,0.643-2.538-0.236-5.893C443.342,440.157,442.276,435.989,441.545,433.029z"/>
	<path class="st11" d="M737.48,140.294c0.077-8.515-3.46-16.488-9.383-21.268c-5.854-4.781-12.828-6.337-19.059-5.806
		c-6.275,0.539-12.001,3.514-15.616,7.983c-3.505,4.435-5.078,9.496-5.206,14.317c-0.098,2.415,0.187,4.808,0.847,7.093
		c0.613,2.289,1.642,4.481,3.034,6.424c2.844,4.085,6.848,6.305,10.048,8.036c3.317,1.78,6.016,3.15,7.955,5.306
		c2.01,2.151,3.575,5.001,4.477,8.595c0.958,3.561,1.13,7.262,1.108,10.805c-0.044,3.573-0.409,7.015-0.894,10.512
		c-0.956,7.078-2.054,13.91-3.635,21.377c-1.611,7.46-3.78,15.513-7.583,24.819c-1.965,4.63-4.329,9.584-7.23,14.949
		c-2.93,5.354-6.373,11.129-10.282,17.47c-2.674,4.236-6.321,12.774-4.016,12.936c1.039,2.058,7.506-4.624,10.306-8.855
		c4.233-6.226,7.996-11.972,11.25-17.419c3.231-5.468,5.92-10.636,8.164-15.531c4.371-9.861,6.858-18.51,8.617-26.332
		c1.731-7.841,2.847-14.92,3.793-22.175c0.49-3.664,0.887-7.528,0.921-11.63c0-4.109-0.18-8.507-1.438-13.287
		c-1.19-4.759-3.467-9.219-6.701-12.682c-1.618-1.697-3.46-3.216-5.266-4.321c-1.782-1.125-3.497-2.019-5.033-2.857
		c-3.11-1.668-5.479-3.207-6.807-5.196c-0.731-1.01-1.31-2.196-1.662-3.525c-0.394-1.309-0.584-2.756-0.527-4.251
		c0.022-2.985,1.044-6.186,2.995-8.771c1.928-2.478,5.194-4.42,9.292-4.91c4.044-0.495,8.996,0.433,12.942,3.454
		c3.935,2.88,6.848,8.365,7.093,14.815c0.079,2.163,0.086,5.238-0.091,7.818c-0.147,2.553-0.352,4.679,0.81,4.685
		c0.567,0.991,2.48-0.321,4.13-3.02C736.493,147.19,737.53,143.178,737.48,140.294z"/>
	<path class="st11" d="M730.329,349.139c6.208-10.647,11.395-20.724,15.407-30.24c4.056-9.498,7.191-18.292,9.957-26.394
		c2.761-8.108,5.086-15.552,7.248-22.49c1.058-3.474,2.08-6.819,3.073-10.064c0.99-3.172,1.933-6.618,2.684-9.744
		c3.002-12.685,4.976-24.001,7.144-35.623c1.081-5.789,2.177-11.655,3.325-17.798c1.197-6.096,2.456-12.513,4.172-19.052
		c3.448-12.78,9.949-23.033,14.266-34.705c2.17-5.806,3.798-11.982,4.26-18.475c0.451-6.476-0.211-13.184-2.218-19.875
		c-1.98-6.68-5.33-13.366-10.422-19.479c-5.069-6.06-12.099-11.621-21.096-14.641c-4.457-1.519-9.334-2.354-14.448-2.396
		c-5.111-0.058-10.494,0.743-15.789,2.736c-5.285,1.918-10.499,5.2-14.744,9.777c-4.219,4.568-7.504,10.317-9.216,16.849
		c-0.65,2.177-0.978,4.925-1.02,7.708c0.054,2.791,0.389,5.631,1.18,7.995c1.495,4.783,3.916,7.443,4.406,6.178
		c1.318,0.436,0.731-2.837,0.741-7.009c-0.056-2.089,0.2-4.442,0.503-6.69c0.401-2.247,0.854-4.414,1.416-6.176
		c1.529-5.264,4.344-9.859,7.767-13.377c3.428-3.499,7.526-5.961,11.808-7.402c4.263-1.496,8.642-2.059,12.801-1.919
		c4.162,0.12,8.125,0.872,11.688,2.167c7.142,2.541,12.725,7.067,16.857,12.116c4.13,5.075,6.896,10.677,8.509,16.251
		c1.64,5.567,2.18,11.141,1.805,16.526c-0.389,5.386-1.724,10.599-3.664,15.845c-3.761,10.512-10.469,21.093-14.449,35.552
		c-1.85,7.062-3.113,13.503-4.349,19.694c-1.172,6.171-2.292,12.064-3.396,17.878c-2.192,11.585-4.196,22.915-7.023,35.137
		c-1.387,5.965-3.434,12.37-5.45,19.329c-2.066,6.92-4.271,14.35-6.846,22.386c-2.583,8.034-5.479,16.702-9.193,25.986
		c-3.669,9.303-8.408,19.115-14.222,29.753c-3.931,7.134-10.21,20.744-7.528,20.196
		C717.018,368.279,726.213,356.377,730.329,349.139z"/>
	<path class="st11" d="M440.248,529.044c-2.097-3.423-3.092-5.657-4.042-7.454c-0.888-1.828-1.65-3.261-2.433-5.362
		c-0.724-2.122-1.04-3.715-1.51-5.691c-0.403-1.993-1.047-4.352-1.589-8.329c-0.013-0.644-1.624-2.011-3.632-2.051
		c-1.984-0.374-3.757,0.922-3.861,1.747c-0.831,4.769-0.561,7.896-0.199,10.396c0.436,2.506,1.052,4.445,1.955,7.08
		c0.968,2.612,1.719,4.502,2.968,6.72c1.303,2.165,3.072,4.755,6.734,7.922c0.602,0.574,2.795,0.456,4.097-1.091
		C440.263,531.629,440.645,529.551,440.248,529.044z"/>
	<path class="st11" d="M581.144,535.887c-11.966,0.094-22.821,0.179-32.768,0.258c-2.524,0.039-4.81-0.002-7.455,0.139
		c-2.608,0.161-5.578,0.546-8.491,2.074c-0.692,0.384-1.465,0.863-2.017,1.326c-0.574,0.469-1.15,0.9-1.682,1.476
		c-1.099,1.034-2.046,2.407-2.78,3.874c-0.715,1.511-1.091,3.166-1.197,4.773c-0.05,1.591,0.135,3.113,0.502,4.474
		c1.582,5.412,4.603,8.897,7.482,11.985c2.966,3.034,6.055,5.508,9.358,7.64c1.626,1.033,3.467,2.088,5.366,2.824
		c1.665,0.681,3.263,1.276,4.818,1.867c3.098,1.165,5.97,2.259,8.529,3.498c5.162,2.461,8.851,5.539,10.781,9.713
		c1.99,4.158,2.487,9.167,1.5,13.867c-1.999,9.483-9.732,18.367-20.91,24.178c-11.311,5.744-22.799,7.022-33.668,6.587
		c-10.941-0.584-21.561-3.01-32.656-7.499c-10.984-4.61-22.729-11.302-33.553-22.843c-2.689-2.881-5.271-6.149-7.524-9.593
		c-2.109-3.587-4.107-7.499-5.423-11.938c-2.703-8.825-3.499-19.303-1.922-30.724c0.505-3.859,1.215-9.294,1.783-13.638
		c0.509-4.352,0.749-7.639-0.518-7.117c-0.626-1.185-2.623,1.522-4.5,5.703c-1.902,4.162-3.546,9.817-4.181,13.95
		c-2.039,12.23-1.552,23.93,1.33,34.196c1.402,5.151,3.615,9.816,6.031,14.085c2.629,4.222,5.39,7.814,8.315,11.078
		c11.783,13.023,24.594,20.473,36.539,25.566c12.068,4.958,23.701,7.617,35.839,8.228c6.073,0.255,12.294-0.035,18.726-1.166
		c6.42-1.142,13.082-3.135,19.704-6.549c6.6-3.434,12.2-7.741,16.675-12.861c4.453-5.115,7.772-11.097,9.181-17.716
		c1.369-6.583,0.802-13.543-2.212-19.913c-1.485-3.176-3.777-6.133-6.45-8.491c-2.69-2.349-5.724-4.171-8.802-5.624
		c-3.085-1.469-6.23-2.629-9.339-3.77c-1.515-0.57-3.054-1.149-4.617-1.738c-1.305-0.482-2.507-1.159-3.884-2.002
		c-2.677-1.675-5.389-3.787-7.807-6.197c-2.384-2.377-4.602-5.279-5.371-7.915c-0.37-1.314-0.328-2.297,0.059-3.211
		c0.251-0.458,0.504-0.965,1.029-1.456c0.202-0.261,0.532-0.495,0.815-0.749c0.299-0.272,0.503-0.376,0.788-0.562
		c1.111-0.638,2.832-1.036,4.943-1.194c2.096-0.166,4.672-0.197,7.118-0.291c9.937-0.337,20.785-0.705,32.741-1.11
		c8.055-0.223,22.601-2.215,20.719-4.183C603.847,537.157,589.202,535.775,581.144,535.887z"/>
	<path class="st11" d="M705.32,537.542c1.916-2.35,3.374-4.85,4.965-7.108c1.517-2.307,3.096-4.433,4.268-6.663
		c2.438-4.403,4.906-8.293,6.575-12.169c3.78-7.558,6.133-14.158,8.29-20.126c1.82-6.077,3.564-11.517,4.684-17.27
		c1.426-5.687,2.199-11.653,3.285-18.533c0.667-6.933,1.366-12.904,1.426-18.757c0.367-5.843,0.027-11.533-0.148-17.861
		c-0.552-6.306-1.111-13.268-2.687-21.538c-0.576-4.167-1.845-8.573-2.951-13.465c-0.515-2.458-1.397-4.941-2.177-7.578
		c-0.86-2.615-1.556-5.409-2.664-8.219c-1.399-3.842-5.406-10.166-6.967-8.563c-2.158-0.096-1.396,7.202-0.165,10.879
		c0.913,2.75,1.43,5.483,2.122,8.028c0.616,2.569,1.345,4.978,1.72,7.362c0.83,4.743,1.876,8.988,2.273,12.998
		c1.219,7.953,1.596,14.605,2.064,20.624c0.091,6.04,0.445,11.462,0.121,17.033c-0.02,5.583-0.645,11.276-1.273,17.885
		c-1.044,6.55-1.817,12.228-3.214,17.624c-1.088,5.468-2.771,10.618-4.428,16.413c-1.992,5.679-4.076,11.992-7.397,19.286
		c-1.446,3.752-3.638,7.515-5.748,11.823c-1.012,2.183-2.413,4.263-3.738,6.535c-1.404,2.221-2.657,4.696-4.356,7.029
		c-2.27,3.119-5.184,9.84-3.11,10.411C697.083,545.637,702.816,540.801,705.32,537.542z"/>
	<path class="st11" d="M686.985,554.842c-0.022,5.589,1.525,10.983,4.435,15.392c2.983,4.507,6.91,7.327,10.203,9.756
		c3.347,2.41,6.278,4.501,8.344,6.776c2.084,2.224,3.248,4.675,3.938,7.346c1.305,5.34,0.243,10.852-1.862,15.122
		c-2.194,4.411-5.455,7.953-9.006,10.852c-3.578,2.9-7.487,5.121-11.503,6.984c-4.014,1.851-8.149,3.277-12.461,4.375
		c-8.627,2.182-17.939,3.104-28.812,2.854c-10.902-0.321-20.352-1.383-28.981-3.557c-8.579-2.244-16.626-5.607-23.498-11.694
		c-6.755-6.014-12.604-15.254-14.318-27.513c-0.84-6.105-0.396-12.911,2.137-19.847c2.519-6.914,7.159-13.993,14.168-19.689
		c2.359-1.905,5.743-4.516,8.6-6.502c1.414-1.013,2.667-1.898,3.46-2.609c0.782-0.736,1.091-1.351,0.593-1.71
		c0.204-0.601-0.37-0.912-1.495-0.993c-1.136-0.104-2.802,0.074-4.682,0.551c-3.778,0.895-8.292,3.163-11.079,5.344
		c-8.386,6.346-14.099,14.429-17.365,22.617c-3.29,8.227-4.048,16.562-3.203,23.886c0.379,3.684,1.138,7.163,2.189,10.401
		c0.998,3.257,2.315,6.267,3.795,9.059c2.982,5.576,6.676,10.278,10.887,14.035c8.437,7.55,17.931,11.368,27.484,13.839
		c9.669,2.382,19.576,3.411,31.089,3.759c11.545,0.263,21.687-0.652,31.343-3.054c4.824-1.211,9.518-2.809,14.124-4.932
		c4.583-2.128,9.164-4.726,13.503-8.287c4.3-3.562,8.484-8.103,11.376-14.122c2.846-6.081,4.226-13.541,2.154-21.431
		c-1.034-3.872-3.177-7.936-6.272-11.038c-3.032-3.13-6.558-5.408-9.836-7.65c-3.273-2.236-6.395-4.488-8.424-7.399
		c-2.093-2.943-3.397-6.819-3.524-10.981c-0.081-2.788,0.199-6.787,1.113-9.923c0.815-3.132,1.943-5.566,0.693-5.713
		c-0.188-1.224-2.88,0.05-5.352,3.378C688.399,545.777,686.917,551.072,686.985,554.842z"/>
	<path class="st11" d="M113.972,516.142c-15.827-5.074-27.839-11.536-37.411-17.872c-9.621-6.309-16.812-12.615-22.974-18.629
		c-3.098-3.025-5.698-6.008-8.823-9.218c-3.117-3.087-6.518-6.275-11.474-8.312c-2.461-0.987-5.409-1.53-8.347-1.194
		c-2.91,0.29-5.974,1.505-8.271,3.405c-4.695,3.809-7.234,9.393-7.55,15.63c-0.151,6.19,1.847,11.283,4,15.538
		c2.17,4.308,4.711,7.773,7.287,11.328c5.276,6.847,11.043,12.756,17.777,18.906c6.762,6.116,14.547,12.422,24.478,19.247
		c4.988,3.379,10.454,6.976,16.735,10.521c6.25,3.589,13.223,7.282,21.329,10.599c1.334,0.613,3.025,1.18,4.806,1.623
		c1.782,0.433,3.553,0.935,5.238,1.044c3.33,0.319,5.755,0.099,5.388-1.064c0.871-0.778-1.05-2.342-3.748-3.884
		c-1.363-0.718-2.874-1.72-4.404-2.478c-1.549-0.764-3.048-1.505-4.294-2.119c-7.544-3.437-14.138-7.238-20.044-10.897
		c-5.94-3.616-11.128-7.254-15.863-10.64c-9.431-6.84-16.839-13.039-23.246-18.923c-6.375-5.906-11.834-11.505-16.632-17.681
		c-1.121-1.582-2.294-3.127-3.415-4.774c-1.095-1.674-2.124-3.368-3.024-5.111c-1.802-3.456-3.106-7.232-2.993-10.905
		c0.121-3.514,1.84-6.944,4.01-8.576c2.111-1.65,4.613-1.842,7.283-0.799c2.717,1.084,5.52,3.451,8.225,6.194
		c2.661,2.724,5.65,6.105,8.952,9.283c6.622,6.367,14.398,12.964,24.772,19.4c10.321,6.457,23.265,12.878,40.119,17.553
		c2.817,0.849,6.955,1.416,10.229,1.46c3.295-0.013,5.699-0.459,5.243-1.578c0.813-0.855-1.238-2.224-4.12-3.513
		C120.335,518.357,116.632,517.001,113.972,516.142z"/>
	<path class="st11" d="M145.252,408.171c-15.467,7.041-23.979,13.912-30.685,19.714c-6.637,5.955-11.417,11.28-17.335,19.093
		c-5.818,7.911-9.549,13.95-13.386,22.132c-1.842,4.139-3.706,8.94-4.693,15.181c-0.907,6.166-0.966,14.167,3.337,22.587
		c0.69,1.426,2.248,3.147,3.817,4.076c1.569,0.954,3.053,1.118,3.552,0.206c0.95-0.47,0.867-1.861,0.609-3.345
		c-0.28-1.491-0.753-3.109-1.226-4.2c-1.383-3.254-1.917-6.533-2.04-9.523c-0.121-3.003,0.217-5.718,0.742-8.243
		c1.068-5.029,2.776-9.115,4.485-12.789c3.58-7.336,6.927-13.146,12.317-20.464c5.502-7.262,10.08-12.078,16.161-17.704
		c6.169-5.498,13.707-12.207,27.664-19.996c2.336-1.276,6.177-4.731,4.84-6.367C153.248,406.441,147.835,406.894,145.252,408.171z"
		/>
	<path class="st11" d="M193.331,388.14c-1.764-2.449-2.758-5.351-3.375-8.067c-0.604-2.694-0.861-5.439-1.138-8.053
		c-0.517-5.231-1.147-10.122-2.888-14.513c-1.822-4.594-4.665-8.177-8.621-10.887c-2.003-1.317-4.367-2.432-7.169-2.81
		c-2.783-0.384-5.911-0.026-8.704,1.347c-2.842,1.335-4.822,3.266-6.394,5.111c-1.545,1.88-2.673,3.78-3.625,5.665
		c-1.89,3.843-2.965,7.419-4.03,11.566c-0.986,4.142-1.751,8.799-1.883,14.44c-0.099,5.628,0.337,12.282,2.447,20.064
		c0.615,2.688,3.711,6.814,5.427,5.568c2.056-0.136,2.312-4.878,1.885-7.228c-1.268-7.115-1.209-13.012-0.843-17.96
		c0.399-4.956,1.213-8.994,2.132-12.591c0.965-3.553,1.991-6.881,3.345-9.657c1.356-2.788,3.233-5.412,5.555-6.501
		c2.314-1.059,4.426-0.591,6.592,0.852c2.101,1.456,3.977,3.717,5.111,6.526c1.276,3.029,1.999,6.91,2.813,12.183
		c0.44,2.634,0.889,5.627,1.926,9.062c1.055,3.362,2.586,7.091,5.617,10.614c0.98,1.207,2.947,2.488,4.733,2.844
		c1.79,0.394,3.193-0.083,3.316-1.097c0.677-0.816,0.146-2.014-0.394-3.222C194.591,390.196,193.94,388.95,193.331,388.14z"/>
	<path class="st11" d="M225.836,376.287c1.034-10.847-0.026-18.587-2.538-24.496c-1.25-2.942-2.739-5.481-4.684-7.846
		c-1.936-2.352-4.326-4.602-7.647-6.46c-3.42-1.902-6.799-2.681-10.02-2.813c-3.235-0.131-6.477,0.379-9.818,1.938
		c-3.272,1.512-6.828,4.621-8.616,9.146c-1.872,4.542-1.845,9.904-0.797,15.426c0.276,1.925,2.516,4.892,4.419,4.131
		c2.043,0.039,3.154-3.4,3.024-5.044c-0.316-5.014,0.302-8.636,1.512-10.893c1.218-2.311,2.727-3.395,4.465-4.211
		c1.734-0.751,3.578-1.097,5.475-1.035c1.901,0.05,3.848,0.466,5.786,1.549c4.025,2.379,6.222,5.587,8.219,9.842
		c1.934,4.322,3.374,10.131,3.722,20.583c0.016,1.747,1.574,5.057,3.596,4.729C223.922,381.318,225.74,378.13,225.836,376.287z"/>
	<path class="st11" d="M310.786,494.327c7.602-8.946,12.104-17.683,14.918-25.469c2.763-7.824,3.858-14.796,4.035-21.087
		c0.186-6.302-0.479-11.997-1.852-17.679c-1.405-5.674-3.545-11.387-7.169-17.423c-3.689-6.004-7.784-10.533-12.135-14.39
		c-4.364-3.855-9.03-7.062-14.493-10.006c-10.917-5.891-25.362-10.42-47.866-13.105c-3.787-0.543-10.82,0.147-10.26,2.255
		c-1.136,1.864,5.408,4.514,9.099,5.153c21.959,3.98,34.793,8.635,44.521,14c4.854,2.688,8.957,5.501,12.749,8.811
		c3.783,3.306,7.282,7.133,10.366,12.15c3.038,5.059,4.821,9.925,5.989,14.785c1.144,4.868,1.707,9.77,1.606,15.22
		c-0.091,5.449-0.882,11.452-3.05,18.47c-2.223,6.97-5.831,15.005-12.308,23.626c-2.117,2.89-5.558,8.796-3.597,9.637
		c0.405,1.017,2.118,0.597,4.095-0.493C307.382,497.672,309.544,495.862,310.786,494.327z"/>
	<path class="st11" d="M292.514,637.374c5.505-7.327,9.384-13.781,12.203-19.516c2.923-5.7,4.746-10.691,6.416-15.203
		c2.964-9.163,4.621-16.682,6.086-27.151c1.125-10.512,1.346-18.21,0.698-27.816c-0.522-4.785-1.077-10.069-2.527-16.308
		c-1.338-6.248-3.533-13.452-7.09-21.897c-1.259-2.853-4.963-7.275-6.502-5.766c-2.064,0.261-1.549,5.834-0.481,8.498
		c2.731,8.181,4.356,15.007,5.317,20.902c1.07,5.879,1.431,10.815,1.862,15.277c0.467,8.958,0.456,16.136-0.588,25.96
		c-1.376,9.785-3.11,16.75-5.743,25.325c-1.504,4.224-3.054,8.925-5.521,14.366c-2.366,5.483-5.602,11.71-10.24,18.981
		c-1.685,2.323-3.54,7.605-1.6,8.36C285.931,643.223,290.599,639.835,292.514,637.374z"/>
	<path class="st11" d="M120.918,704.49c1.765-9.581,1.364-17.665,0.61-24.324c-0.822-6.684-2.123-12.047-3.386-16.825
		c-2.57-9.529-5.26-16.794-8.009-26.832c-2.63-9.972-3.84-17.46-4.851-26.755c-0.464-4.655-0.834-9.792-0.767-15.969
		c0.071-6.169,0.577-13.41,2.682-21.992c0.74-2.832,1.143-8.491-0.943-8.658c-1.579-1.479-5.3,3.373-6.252,6.547
		c-2.991,9.225-4.014,17.108-4.407,23.773c-0.388,6.683-0.144,12.213,0.282,17.187c0.944,9.948,2.411,17.72,5.201,28.315
		c2.876,10.485,5.364,17.767,7.955,26.891c1.273,4.554,2.627,9.544,3.66,15.597c0.966,6.046,1.767,13.182,0.808,21.939
		c-0.299,2.9,0.017,8.552,2.091,8.439C117.365,713.091,120.449,707.786,120.918,704.49z"/>
	<path class="st11" d="M92.223,686.247c-2.018-0.234-4.262-0.239-6.334,0.037c-2.089,0.278-4.088,0.85-6,1.587
		c-3.795,1.53-7.248,3.925-9.792,7.283c-1.279,1.664-2.229,3.625-2.85,5.668c-0.633,2.064-0.709,4.232-0.586,6.27
		c0.432,4.148,2.321,7.913,4.684,10.625c4.778,5.521,10.507,8.456,15.942,10.787c5.394,2.184,10.621,3.838,15.811,5.049
		c10.335,2.385,20.381,3.054,29.69,1.303c9.305-1.593,17.692-5.981,23.82-11.93c6.092-6.003,9.915-12.817,13.338-19.122
		c3.416-6.348,6.392-12.411,10.239-17.74c7.69-10.735,18.379-20.1,32.927-26.565c7.271-3.207,14.466-5.202,21.454-6.25
		c3.497-0.517,6.942-0.784,10.339-0.867l1.072-0.046c0.383,0.008,1.029-0.203,1.154-0.209c0.256-0.059,0.525-0.096,0.799-0.122
		c0.545-0.06,1.124-0.046,1.711,0.019c1.173,0.118,2.385,0.489,3.496,1.027c1.107,0.545,2.159,1.294,2.73,1.975
		c0.652,0.747,1.169,1.701,1.403,2.662c0.258,0.964,0.23,1.896,0.007,2.657c-0.285,0.781-0.736,1.587-1.444,2.187
		c-1.402,1.281-4.174,2.185-7.305,2.474c-1.567,0.158-3.226,0.204-4.939,0.17c-0.891-0.034-1.787-0.068-2.687-0.102
		c-1.023-0.05-2.061-0.067-3.114-0.056c-4.193,0.107-8.707,0.428-13.541,2.814c-2.371,1.211-4.843,3.233-6.375,6.03
		c-1.495,2.701-2.178,6.066-1.504,9.284c0.637,3.192,2.268,5.849,4.133,7.961c1.883,2.132,4.068,3.78,6.41,5.182
		c2.292,1.366,5.02,2.549,7.542,3.237c1.264,0.403,2.553,0.753,3.876,1.027c1.31,0.331,2.652,0.555,4.013,0.76
		c5.435,0.828,11.221,0.943,17.156,0.006c5.919-0.924,12.044-2.767,17.814-6.086c5.773-3.225,11.217-7.976,15.225-14.193
		c3.928-6.2,6.449-13.619,6.825-21.598c0.178-2.681-0.067-5.941-0.772-9.169c-0.769-3.214-1.931-6.406-3.498-8.908
		c-0.703-1.287-1.538-2.375-2.316-3.287c-0.727-0.943-1.508-1.638-2.163-2.14c-1.294-1.017-2.07-1.26-2.129-0.496
		c-1.514-0.171,0.45,3.252,1.846,8.04c0.764,2.379,1.215,5.18,1.504,7.892c0.221,2.734,0.219,5.409,0.041,7.629
		c-0.455,6.605-2.716,12.735-6.004,17.682c-3.316,4.899-7.773,8.669-12.617,11.25c-4.808,2.652-9.982,4.109-14.995,4.803
		c-5.026,0.709-9.941,0.528-14.516-0.241c-1.145-0.19-2.274-0.392-3.369-0.69c-1.11-0.241-2.185-0.553-3.235-0.906
		c-2.162-0.626-3.813-1.414-5.528-2.436c-3.341-1.96-5.8-4.888-6.129-7.043c-0.232-1.036,0.042-2.088,0.543-3.018
		c0.497-0.867,1.296-1.602,2.506-2.226c2.447-1.242,5.967-1.698,9.348-1.714c0.856-0.004,1.713,0.013,2.572,0.058
		c0.983,0.04,1.959,0.08,2.931,0.119c2.01,0.046,4.042,0.002,6.108-0.202c4.06-0.449,8.623-1.37,12.634-4.798
		c1.979-1.732,3.438-4.028,4.25-6.583c0.773-2.62,0.72-5.322,0.081-7.745c-0.627-2.438-1.819-4.654-3.469-6.543
		c-1.747-1.963-3.667-3.211-5.705-4.23c-2.06-0.99-4.279-1.672-6.642-1.917c-1.18-0.125-2.393-0.149-3.625-0.02
		c-0.616,0.061-1.237,0.151-1.854,0.289c-0.314,0.072-0.096,0.028-0.164,0.041l0.009-0.002l0.072-0.002l-0.356,0.015
		c-3.802,0.099-7.651,0.411-11.549,0.996c-7.789,1.186-15.779,3.415-23.859,6.981c-16.152,7.185-28.127,17.557-36.836,29.651
		c-4.417,6.118-7.578,12.601-10.89,18.734c-3.305,6.132-6.762,12.095-11.578,16.859c-4.818,4.665-11.191,8.152-18.939,9.577
		c-7.703,1.545-16.577,1.139-26.002-0.895c-4.706-1.02-9.621-2.493-14.526-4.38c-4.722-1.872-9.586-4.477-12.83-8.156
		c-1.65-1.819-2.608-3.876-2.924-6.044c-0.222-2.233,0.28-4.371,1.723-6.39c2.883-4.023,8.964-6.83,14.932-6.171
		c8.458,0.132,24.227,9.39,23.464,6.341c1.449-0.234-1.232-3.167-5.709-6.527c-2.244-1.668-5.015-3.382-7.993-4.733
		C98.218,687.449,95.001,686.545,92.223,686.247z"/>
	<path class="st11" d="M334.896,424.697c5.533-9.004,8.967-16.997,11.366-23.965c2.393-6.983,3.791-12.971,4.724-18.453
		c0.927-5.501,1.362-10.456,1.566-15.647c0.065-2.633,0.025-5.425-0.462-8.459c-0.502-3.006-1.419-6.336-3.509-9.574
		c-2.071-3.148-4.823-5.68-8.23-7.17c-3.391-1.508-7.424-1.653-10.72-0.551c-3.319,1.075-6.014,3.001-8.148,5.297
		c-2.129,2.245-3.871,5.148-4.939,8.08c-2.272,5.921-2.496,12.251-3.742,18.699c-1.308,6.583-3.535,14.284-8.158,22.913
		c-1.518,2.869-3.677,8.725-1.662,9.332c1.129,1.894,6.316-2.375,8.14-5.554c5.68-9.108,8.636-17.512,10.402-24.797
		c1.694-7.462,2.121-13.092,3.839-17.201c1.467-3.935,4.315-6.808,7.13-7.746c1.401-0.455,2.704-0.411,4.133,0.169
		c1.422,0.591,2.931,1.869,4.085,3.634c2.231,3.509,2.536,8.1,2.382,12.646c-0.22,4.688-0.638,9.335-1.43,14.409
		c-0.8,5.083-1.95,10.654-3.896,17.236c-1.955,6.572-4.739,14.18-9.371,22.964c-1.568,2.915-3.529,8.92-1.469,9.432
		C328.135,432.211,333.092,427.805,334.896,424.697z"/>
	<path class="st11" d="M91.149,600.854c-4.354-6.403-7.171-13.267-10.186-19.548c-2.95-6.305-6.116-12.183-10.034-17.136
		c-4.053-5.029-8.987-8.73-14.113-11.036c-5.133-2.318-10.426-3.27-15.4-3.166c-10.02,0.244-18.568,4.421-25.196,10.423
		C9.606,566.51,4.75,575.034,2.888,585.356c-1.806,10.35-0.653,19.364,1.626,27.63c2.504,8.185,5.994,15.781,11.247,23.322
		c5.252,7.507,12.232,14.956,21.996,22.016c2.393,1.835,5.125,3.392,7.88,5.163c2.882,1.555,5.825,3.308,9.111,4.737
		c6.473,3.032,13.815,5.786,22.189,7.671c1.385,0.414,3.136,0.568,4.903,0.759c1.769,0.173,3.58,0.273,5.199,0.116
		c3.226-0.231,5.527-0.84,5.005-1.925c0.728-0.909-1.355-2.137-4.206-3.227c-1.436-0.501-3.045-1.134-4.629-1.671
		c-1.578-0.556-3.157-0.908-4.442-1.324c-7.737-2.071-14.467-4.895-20.36-7.905c-2.997-1.42-5.654-3.137-8.268-4.641
		c-2.478-1.714-4.954-3.203-7.09-4.943c-8.753-6.691-14.898-13.491-19.521-20.207c-4.615-6.728-7.695-13.455-9.915-20.552
		c-1.999-7.084-2.99-14.86-1.495-23.339c1.552-8.463,5.38-14.932,10.502-19.672c5.208-4.647,11.614-7.707,19.014-7.952
		c7.314-0.229,15.739,2.655,22.386,10.409c3.351,4.018,6.37,9.122,9.457,15.186c3.163,6.005,6.315,13.08,11.586,20.226
		c1.787,2.384,4.825,5.449,7.822,7.038c2.933,1.657,5.36,2.11,5.372,0.932c1.084-0.496-0.231-2.456-1.916-4.835
		C94.577,606.044,92.671,602.948,91.149,600.854z"/>
	<path class="st8" d="M238.301,457.909c0.453,6.513,10.859,50.137,1.779,52.362c-9.08,2.226-18.562-44.817-18.362-46.725
		c0.199-1.907,5.929-7.885,6.459-10.779C228.707,449.873,238.301,457.909,238.301,457.909z"/>
	<path class="st9" d="M226.271,447.889c6.585-0.172,11.052-4.225,11.184-7.87c0.105-2.876-2.487-5.499-8.863-5.767
		c-8.952-0.378-12.994,5.079-11.502,9.204C218.007,445.993,221.019,448.026,226.271,447.889z"/>
	<path class="st9" d="M247.738,456.529c1.861-0.06,3.696-0.656,5.033-1.422c1.367-0.765,2.131-1.649,2.594-2.154
		c0.197-0.148,0.37-0.244,0.661-0.277c0.304-0.026,0.676-0.017,1.069-0.009c0.821,0.048,1.955,0.149,3.042,0.557
		c1.087,0.406,1.905,1.154,2.211,2.246c0.172,0.552,0.166,1.137-0.009,1.717c-0.162,0.588-0.458,1.199-0.939,1.638
		c-2.146,2.185-4.876,3.197-7.218,3.673c-2.377,0.482-4.501,0.488-6.208,0.56c-1.616,0.076-3.233-0.035-4.867-0.259
		c-0.816-0.118-1.646-0.292-2.485-0.518c-0.864-0.248-1.755-0.576-2.344-0.819c-2.672-1.092-5.602-2.17-8.439-4.475
		c-1.497-1.113-3.357-3.321-4.391-5.37c-1.165-2.137-1.931-4.535-2.29-6.708c-0.314-1.917,1.393-3.568,3.691-3.876
		c2.31-0.311,4.352,0.898,4.614,2.486c0.21,1.259,0.255,2.829,0.563,4.42c0.151,0.789,0.383,1.611,0.714,2.34
		c0.25,0.6,0.68,1.187,1.287,1.693c1.612,1.353,4.074,2.396,6.65,3.413c0.72,0.292,1.182,0.446,1.69,0.6
		c0.544,0.144,1.109,0.266,1.708,0.352C245.265,456.496,246.506,456.592,247.738,456.529z"/>
	<path class="st10" d="M226.405,518.549c1.039,1.412,3.442,3.198,6.347,4.121c2.884,0.989,6.148,1.05,8.361,0.691
		c2.218-0.325,5.312-1.363,7.765-3.174c2.493-1.755,4.248-4.179,4.813-5.839c0.296-0.69,0.762-2.803-0.596-3.251
		c-1.191-0.711-2.501,0.459-2.991,0.753c-1.115,0.8-2.68,2.205-4.56,3.24c-1.852,1.073-3.941,1.715-5.407,1.938
		c-1.465,0.229-3.65,0.245-5.739-0.221c-2.105-0.422-4.019-1.291-5.323-1.719c-0.556-0.132-2.158-0.855-3.078,0.182
		C224.835,516.106,225.914,517.981,226.405,518.549z"/>
	<path class="st9" d="M210.54,475.388c-2.018,0.401-4.085,1.195-6.569,1.549c-2.446,0.436-5.526-0.21-7.229-1.438
		c-1.092-0.763-1.596-1.909-1.501-2.941c0.096-1.049,0.681-1.99,1.597-2.704c1.88-1.386,4.019-1.71,4.596-1.347
		c0.693,0.436,1.4,0.848,3.014,0.911c1.525,0.065,3.333-0.14,4.768-0.43c1.768-0.348,1.838-0.394,2.782-0.9
		c0.851-0.586,1.757-1.291,2.624-2.171c1.746-1.719,3.384-3.763,4.895-5.89c1.599-2.249,3.091-6.189,4.543-9.387
		c0.616-1.346,2.696-1.738,4.964-1.171c2.255,0.561,3.53,2.857,2.705,4.65c-1.262,2.776-4.356,6.151-6.881,9.687
		c-1.682,2.359-3.488,4.643-5.66,6.786c-1.069,1.075-2.311,2.095-3.732,3.04c-0.834,0.434-1.524,0.913-2.62,1.207
		C211.646,475.224,211.28,475.212,210.54,475.388z"/>
	<path class="st9" d="M225.364,497.44c-1.72-4.754-3.452-9.259-5.096-13.596c-1.617-4.306-2.926-8.36-3.605-11.573
		c-0.883-4.118,0.51-7.743,2.802-8.072c2.311-0.334,4.62,2.531,5.433,6.312c0.924,4.361,1.997,8.882,3.161,13.184
		c1.174,4.284,2.297,8.404,3.429,11.465c1.092,2.918,2.296,5.774,3.758,8.29c0.735,1.267,1.522,2.406,2.36,3.293l0.577,0.552
		l0.193,0.149l0.449,0.164c0.349,0.018,0.568-0.315,0.663-0.608l0.044-0.135l0.112-0.421c0.073-0.306,0.14-0.623,0.197-0.952
		c0.113-0.661,0.19-1.361,0.24-2.075c0.202-2.85-0.036-5.954-0.367-9.068c-0.784-6.648-2.945-16.542-4.101-25.702
		c-0.512-4.007,0.942-7.493,3.248-7.788c2.308-0.294,4.591,2.714,5.103,6.72c0.793,6.315,1.061,16.267,2.246,26.068
		c0.343,3.296,0.632,6.654,0.388,10.234c-0.062,0.891-0.161,1.793-0.318,2.715c-0.081,0.463-0.177,0.931-0.29,1.407l-0.2,0.738
		c-0.104,0.33-0.204,0.658-0.336,0.982c-0.928,2.643-3.096,4.81-5.842,4.876c-1.329,0.046-2.657-0.351-3.86-1.049
		c-0.612-0.326-1.171-0.771-1.721-1.201c-0.505-0.434-0.788-0.721-1.16-1.1c-1.363-1.448-2.389-2.992-3.271-4.506
		C227.829,503.681,226.538,500.559,225.364,497.44z"/>
	<path class="st10" d="M198.276,426.56c-1.346,0.426-2.907,1.841-4.067,3.477c-1.188,1.635-2.032,3.486-2.548,4.798
		c-0.5,1.316-1.106,3.247-1.337,5.221c-0.247,1.961-0.102,3.983,0.53,5.191c0.197,0.504,1.159,1.95,2.768,1.464
		c1.668-0.28,2.207-1.305,2.475-1.648c0.926-1.556,1.883-5.412,2.739-7.465c0.745-2.108,2.595-5.526,2.987-7.174
		c0.036-0.422,0.366-1.475-0.55-2.902C200.551,426.001,198.781,426.322,198.276,426.56z"/>
	<path class="st10" d="M248.279,425.908c0.098-1.11-0.518-2.655-1.449-3.986c-0.926-1.342-2.151-2.456-3.042-3.159
		c-0.895-0.698-2.258-1.598-3.726-2.176c-1.462-0.586-3.012-0.854-4.041-0.563c-0.435,0.096-1.681,0.547-1.913,2.207
		c-0.39,1.635,0.228,2.504,0.397,2.815c0.896,1.362,3.337,2.761,4.548,3.776c1.297,0.947,3.104,2.864,4.531,3.424
		c0.329,0.091,1.255,0.527,2.827-0.077C248.027,427.723,248.275,426.37,248.279,425.908z"/>
</g>
</svg>
