<?xml version="1.0" encoding="utf-8"?>
<!-- Generator: Adobe Illustrator 22.1.0, SVG Export Plug-In . SVG Version: 6.00 Build 0)  -->
<svg version="1.1" id="_x31__1_" xmlns="http://www.w3.org/2000/svg" xmlns:xlink="http://www.w3.org/1999/xlink" x="0px" y="0px"
	 viewBox="0 0 850 815" style="enable-background:new 0 0 850 815;" xml:space="preserve">
<style type="text/css">
	.st0{fill:#776C6A;}
	.st1{fill:#CCC8C8;}
	.st2{fill:#FFFFFF;}
	.st3{fill:#F4CD9A;}
	.st4{fill:#A88C82;}
	.st5{fill:#4D261E;}
	.st6{fill:#4C251D;}
	.st7{fill:#4D251D;}
	.st8{fill:#FCB5A2;}
</style>
<g>
	<polygon class="st0" points="371.052,410.349 97.919,410.349 97.919,47.282 364.388,103.907 	"/>
	<path class="st1" d="M96.137,422.748c7.291,0,430.106,120.283,448.333,134.863c18.223,14.581,58.321,147.621-45.561,240.567
		C438.766,781.777,94.318,690.651,94.318,690.651s54.672-58.318,51.028-143.976c-3.644-85.656-24.251-91.889-32.146-99.782
		C105.304,438.997,96.137,422.748,96.137,422.748z"/>
	<path class="st2" d="M89.039,415.67c1.925-5.779,0-77.038,0-77.038s308.151,36.593,338.968,44.297
		c30.813,7.703,142.519,50.074,171.407,57.778c28.892,7.703,28.892,23.112,5.781,28.889c-23.113,5.777-53.926,1.927-73.189,0
		c-19.258-1.925-36.59,5.777-15.407,19.26c21.184,13.481,38.52,57.78,38.52,82.817c0,25.038-28.89,50.074-48.149,46.222
		c-19.259-3.852-28.641-45.72-34.669-57.779c-7.703-15.407-11.555-23.112-11.555-23.112l-156.004-50.073
		c0,0,5.781,28.889-1.925,48.148c-7.704,19.26-28.888,30.816-53.927,5.78c-25.036-25.038-9.629-61.63-25.036-75.114
		c-15.407-13.48-30.813-21.185-30.813-21.185L89.039,415.67z"/>
	<path class="st2" d="M706.029,234.896c-14.277-33.911-103.52-91.139-119.637-99.306c-24.024-12.175-53.633-18.867-79.132-25.923
		c-29.492-8.16-50.283-12.353-80.697-16.691c-87.137-12.426-189.499-4.699-267.199,38.4c-24.216,13.432-47.73,31.157-61.54,55.695
		c-41.714,74.116-28.488,179.992,62.093,219.697c90.58,39.706,139.608,35.934,220.603,48.754
		c49.499,7.833,210.783,37.974,286.47-3.093C742.678,411.363,736.202,306.556,706.029,234.896z"/>
	<path class="st3" d="M74.295,280.09c66.33,55.958,285.893,64.838,377.116-105.887c45.749,102.248,129.937,253.211,263.208,203.233
		c0,0,40.661-47.267,7.463-113.72c-33.193-66.45-148.182-135.356-172.956-144.523c-18.967-5.046-93.678-20.019-128.112-25.469
		c-32.814-5.192-60.439-9.566-91.432-9.428l-34.802,6.882C294.78,91.176,107.857,79.078,74.295,280.09z"/>
	<path class="st3" d="M431.557,94.594c-13.477,38.874-48.66,66.549-78.583,61.812c-29.918-4.736-43.254-40.087-29.778-78.962
		c13.478-38.874,48.656-66.549,78.578-61.812C431.698,20.367,445.03,55.72,431.557,94.594z"/>
	<path class="st4" d="M431.557,94.594c-10.081,26.475,23.183,46.29,83.156,52.955c60.253,6.695,69.399-7.917,63.995-13.16
		c-5.405-5.24-40.199-11.625-42.72-25.18c-2.523-13.558,8.127-67.441-18.764-77.245c-26.887-9.804-50.716,7.38-66.106,25.217
		C435.722,75.017,431.557,94.594,431.557,94.594z"/>
	<path class="st5" d="M431.478,85.223c2.706-4.92,5.942-11.784,8.291-20.487c1.161-4.344,2.071-9.16,2.385-14.332
		c0.326-5.287-0.113-10.958-1.588-16.477c-1.46-5.526-3.903-11.006-7.464-15.881c-3.593-4.848-8.398-8.99-13.744-11.704
		c-5.351-2.751-11.065-3.999-16.16-4.271c-5.135-0.282-9.731,0.325-13.681,1.162c-7.959,1.648-16.65,5.347-24.934,10.522
		c-8.347,5.208-16.128,11.832-23.059,19.001c-13.978,14.36-23.192,31.712-26.275,42.83c-0.71,2.301-1.914,6.967-2.075,11.087
		c-0.196,4.122,0.568,7.58,2.843,7.577c2.028,1.094,4.299-1.437,6.476-4.507c2.153-3.096,4.314-6.771,5.479-8.577
		c5.303-8.723,14.565-22.858,27.236-34.712c6.288-5.925,13.206-11.463,19.934-15.483c6.75-4.078,13.386-6.759,18.635-7.819
		c5.235-1.169,11.488-1.294,16.512,1.234c2.545,1.248,4.923,3.134,6.953,5.662c1.989,2.563,3.601,5.721,4.688,9.139
		c1.109,3.434,1.632,7.052,1.674,10.696c0.052,3.768-0.301,7.552-0.858,11.187c-1.118,7.277-2.988,13.926-4.197,19.059
		c-0.934,4.259-4.616,17.264-0.125,18.055C422.033,101.029,429.23,89.424,431.478,85.223z"/>
	<path class="st5" d="M541.796,106.949c1.337-5.313,2.49-12.487,3.04-20.78c0.517-8.314,0.556-17.676-1.248-27.835
		c-0.898-5.072-2.804-10.808-5.487-15.585c-2.678-4.888-6.142-9.283-10.128-12.924c-7.957-7.376-18.19-11.159-26.627-11.798
		c-4.194-0.29-8.978-0.171-13.693,0.916c-4.734,1.037-9.484,2.775-13.943,5.087c-8.978,4.586-16.933,11.206-23.648,18.269
		c-6.758,7.08-12.43,14.883-16.627,22.327c-4.165,7.47-6.903,14.522-8.275,19.999c-0.585,2.287-1.613,6.882-1.565,10.92
		c-0.024,4.033,0.956,7.379,3.216,7.285c2.091,0.984,4.186-1.568,6.222-4.6c1.977-3.069,3.985-6.663,5.032-8.448
		c2.494-4.272,5.82-9.867,10.087-15.843c4.304-5.952,9.594-12.241,15.622-17.975c6.01-5.755,12.61-10.788,19.008-13.894
		c6.405-3.216,12.304-4.153,16.842-3.748c4.546,0.387,10.025,2.259,14.838,6.508c4.832,4.286,8.598,10.339,10.185,17.504
		c1.757,7.593,2.432,16.099,2.777,23.626c0.342,7.573,0.38,14.341,0.557,19.456c0.333,4.294-0.072,16.98,4.377,16.927
		C536.56,124.462,540.87,111.434,541.796,106.949z"/>
	<path class="st6" d="M524.545,484.633c25.522,4.132,51.272,4.491,76.485,0.866c12.542-2.142,25.071-4.747,37.041-9.337
		c6.108-1.894,11.822-4.913,17.708-7.423l8.446-4.655l4.212-2.353l4-2.72l7.974-5.486l7.433-6.238l3.711-3.135l3.389-3.482
		l6.765-6.993l6.048-7.622c2.019-2.545,4.044-5.091,5.757-7.834c1.844-2.666,3.558-5.413,5.162-8.231
		c1.706-2.759,3.169-5.652,4.664-8.532c11.837-23.118,18.054-49.221,18.222-75.877c0.24-26.724-6.68-52.879-18.078-75.872
		c-11.5-23.057-27.22-43.27-45.172-60.788c-18.098-17.554-38.392-32.023-59.548-45.169c-21.345-12.908-43.722-24.747-68.84-32.613
		c-2.467-0.843-7.652-1.228-11.99-0.882c-4.452,0.528-7.963,1.766-7.711,3.906c-0.859,1.92,1.962,4.413,5.351,6.499
		c3.4,2.301,7.479,4.225,9.731,5.113c22.764,7.755,44.195,19.615,64.395,32.419c20.121,13.056,39.293,27.27,55.802,43.741
		c16.497,16.527,30.723,35.3,40.957,56.153c10.13,20.877,16.092,43.767,15.904,67.438c-0.164,23.614-5.608,46.872-15.966,67.392
		c-1.31,2.555-2.582,5.132-4.075,7.573c-1.397,2.505-2.891,4.943-4.499,7.301c-1.49,2.452-3.255,4.672-5.001,6.903l-5.205,6.725
		l-5.851,6.146l-2.911,3.085l-3.224,2.761l-6.421,5.548l-6.95,4.895l-3.479,2.451l-3.703,2.122l-7.417,4.243
		c-5.24,2.286-10.249,5.103-15.748,6.882c-10.676,4.328-22.094,6.896-33.587,9.113c-23.164,3.794-47.344,4.073-71.564,0.781
		c-1.213-0.143-3.001-0.149-5.002-0.025c-1.984,0.033-4.181,0.197-6.235,0.515c-4.103,0.641-7.649,1.895-7.531,4.005
		c-0.993,1.903,1.804,4.355,5.554,6.481c1.874,1.063,3.98,2.042,5.934,2.823C521.45,483.935,523.27,484.424,524.545,484.633z"/>
	<path class="st6" d="M299.142,81.046c-48.322,1.732-94.158,15.473-134.577,38.993c-20.161,11.843-38.988,26.368-55.068,44.089
		c-16.082,17.624-29.536,38.503-37.698,62.051c-8.142,23.465-11.342,48.296-8.15,72.628c3.125,24.293,13.026,47.432,27.726,66.494
		c14.661,19.167,33.775,34.351,54.861,45.483c21.121,11.154,44.29,18.413,68.31,21.878c4.871,0.753,18.618-1.357,17.795-5.592
		c1.274-3.972-11.041-8.674-15.41-9.57c-22.295-3.847-43.538-11.127-62.568-21.705c-19.011-10.553-35.826-24.524-48.429-41.516
		c-12.645-16.928-20.885-36.862-23.463-57.893c-2.64-20.989,0.229-43.058,7.442-63.834c7.225-20.848,19.136-39.554,33.652-55.691
		c14.497-16.212,31.716-29.837,50.358-41.142c37.351-22.487,80.481-36.478,125.881-39.339c4.467-0.415,17.238-3.742,16.387-7.842
		C317.454,84.43,304.032,80.833,299.142,81.046z"/>
	<path class="st7" d="M467.147,230.304c-16.857-4.431-25.667,7.242-23.283,12.02c2.385,4.778,11.708,9.403,19.776,10.055
		c8.068,0.653,20.949,2.696,22.31-5.888C487.311,237.905,479.215,233.477,467.147,230.304z"/>
	<path class="st8" d="M679.267,331.539c-5.142,29.269-33.037,48.83-62.305,43.69c-29.267-5.14-48.828-33.035-43.69-62.303
		c5.142-29.269,33.037-48.831,62.305-43.689C664.844,274.379,684.405,302.271,679.267,331.539z"/>
	<path class="st8" d="M301.765,265.244c-5.142,29.267-33.034,48.828-62.304,43.687c-29.268-5.14-48.829-33.032-43.687-62.303
		c5.138-29.267,33.033-48.828,62.301-43.688C287.344,208.081,306.904,235.973,301.765,265.244z"/>
	<path class="st5" d="M283.35,226.001c-2.345-1.894-6.715-4.226-11.476-6.111c-4.751-1.908-9.88-3.32-13.489-4.143
		c-3.612-0.811-8.849-1.74-13.959-2.062c-5.107-0.346-10.054-0.12-12.987,0.581c-1.235,0.272-4.844,1.265-4.441,3.278
		c-0.192,2.048,3.315,2.789,4.464,3.085c2.78,0.661,7.342,1.169,12.029,1.873c4.692,0.683,9.5,1.599,12.837,2.342
		c3.334,0.763,8.068,2.006,12.595,3.409c4.534,1.381,8.871,2.883,11.664,3.483c1.17,0.227,4.648,1.064,5.362-0.865
		C287.178,229.227,284.347,226.778,283.35,226.001z"/>
	<path class="st5" d="M273.573,253.607c-5.212-2.138-17.854-3.678-24.652-4.182c-6.785-0.6-19.513-1.121-25.001,0.148
		c-1.145,0.251-4.554,1.053-4.299,3.09c-0.31,2.028,3.025,2.953,4.134,3.271c5.346,1.452,17.756,2.2,24.412,2.789
		c6.66,0.495,19.031,1.76,24.538,1.189c1.15-0.133,4.589-0.508,4.613-2.562C277.894,255.381,274.662,254.04,273.573,253.607z"/>
	<path class="st5" d="M274.306,279.718c-5.777-1.081-19.058-0.556-26.173-0.211c-7.119,0.346-20.384,1.113-26.029,2.749
		c-1.18,0.341-4.694,1.379-4.299,3.395c-0.2,2.046,3.401,2.736,4.605,2.963c5.777,1.081,19.059,0.557,26.173,0.21
		c7.119-0.345,20.384-1.112,26.029-2.75c1.18-0.34,4.694-1.378,4.299-3.394C279.11,280.634,275.509,279.944,274.306,279.718z"/>
	<path class="st5" d="M606.76,295.647c2.831,0.388,7.422,0.451,12.151,0.698c4.738,0.226,9.611,0.672,13.007,1.088
		c3.389,0.438,8.221,1.216,12.865,2.174c4.648,0.935,9.107,2.009,11.948,2.337c1.183,0.114,4.729,0.61,5.251-1.381
		c1.063-1.755-1.992-3.916-3.064-4.595c-2.514-1.659-7.086-3.556-12.009-4.972c-4.915-1.437-10.155-2.347-13.826-2.818
		c-3.675-0.456-8.974-0.875-14.093-0.7c-5.118,0.149-10.021,0.854-12.869,1.836c-1.205,0.39-4.703,1.727-4.107,3.693
		C602.025,295.064,605.584,295.462,606.76,295.647z"/>
	<path class="st5" d="M604.908,317.968c4.985,2.412,17.046,5.439,23.478,7.245c6.456,1.715,18.38,5.24,23.899,5.696
		c1.153,0.082,4.605,0.346,5.005-1.667c0.929-1.829-1.997-3.744-2.994-4.37c-4.725-3.063-16.865-6.908-23.454-8.658
		c-6.562-1.841-18.973-4.701-24.597-4.467c-1.177,0.035-4.672,0.196-4.801,2.243C600.766,315.927,603.873,317.452,604.908,317.968z"
		/>
	<path class="st5" d="M594.79,338.564c4.749,3.463,16.963,8.703,23.537,11.454c6.569,2.75,18.877,7.767,24.674,8.719
		c1.213,0.198,4.832,0.774,5.342-1.216c1.059-1.761-1.89-3.931-2.882-4.655c-4.751-3.463-16.964-8.703-23.534-11.455
		c-6.574-2.749-18.878-7.766-24.679-8.718c-1.213-0.198-4.832-0.776-5.342,1.215C590.847,335.669,593.797,337.84,594.79,338.564z"/>
	<path class="st8" d="M436.663,373.493c29.7-25.522,32.814-63.844,30.182-64.681c-2.636-0.836-19.415-24.134-19.415-24.134
		s-20.584,16.138-27.632,17.028C412.749,302.596,422.045,386.053,436.663,373.493z"/>
	<path class="st5" d="M446.999,286.184c0.325,3.834,2.023,10.243,5.809,16.466c3.682,6.322,9.794,11.556,14.508,14.138
		c4.683,2.663,12.355,5.765,20.988,4.222c4.205-0.777,8.04-2.76,10.837-5.418c2.809-2.66,4.5-6.07,4.743-8.861
		c0.109-1.148,0.12-3.532-0.91-5.191c-0.934-1.686-2.429-2.416-3.711-1.716c-1.471,0.353-2.134,1.58-2.808,2.44
		c-0.585,0.896-1.231,1.535-1.487,1.851c-0.713,0.739-1.721,1.61-3.184,2.454c-1.471,0.817-3.444,1.511-5.464,1.651
		c-3.992,0.387-9.201-1.416-12.25-3.26c-3.232-1.81-7.357-5.142-10.48-9.474c-3.227-4.274-5.711-9.386-7.828-12.394
		c-0.89-1.226-3.499-5.122-6.201-3.846C446.614,279.807,446.846,284.541,446.999,286.184z"/>
	<path class="st5" d="M385.941,274.729c-1.541,5.327,0.906,14.527,7.256,20.663c6.346,6.387,14.991,9.034,20.886,9.715
		c5.855,0.811,14.908,0.371,22.548-4.059c7.66-4.195,12.348-11.679,13.25-16.411c0.22-0.993,0.591-2.978,0.29-4.727
		c-0.259-1.751-1.106-3.15-2.593-3.201c-2.804-0.785-5.08,3.094-6.146,4.062c-2.208,2.658-5.855,6.63-10.798,8.806
		c-4.777,2.288-10.805,2.583-14.849,2.018c-4.028-0.429-9.825-2.291-13.716-5.631c-4.087-3.375-6.146-7.998-6.853-10.742
		c-0.157-0.606-0.462-1.797-0.772-3.009c-0.38-1.23-0.738-2.646-2.134-3.246c-1.13-0.945-2.765-0.4-4.055,1.061
		C386.898,271.447,386.22,273.634,385.941,274.729z"/>
	<path class="st5" d="M415.13,309.851c-0.146,7.319,0.635,19.193,1.718,31.596c0.592,6.197,1.196,12.529,1.768,18.495
		c0.318,3,0.624,5.91,0.914,8.664c0.251,1.703,0.439,3.422,1.585,5.973c1.082,2.339,2.78,4.243,4.749,5.529
		c1.388,0.841,2.617,1.386,3.867,1.688c10.517,2.141,16.612-5.487,20.576-9.836c4.46-5.169,8.288-11.427,11.089-17.823
		c5.648-12.865,7.459-25.778,7.934-33.396c0.225-3.231,0.483-12.694-2.577-12.393c-2.804-1.238-5.545,7.76-6.554,10.689
		c-2.361,7.057-5.213,18.962-10.543,29.645c-2.639,5.342-5.899,10.332-9.53,14.41c-0.847,1.077-1.875,1.943-2.761,2.901
		l-0.679,0.694l-0.471,0.405l-0.993,0.718c-0.662,0.408-1.281,0.658-1.67,0.753c-0.38,0.084-0.106,0.021-0.192,0.041
		c0.008-0.199,0.074,0.791-0.36-1.743c-0.322-2.709-0.659-5.569-1.013-8.524c-0.757-5.942-1.56-12.251-2.35-18.424
		c-1.674-12.33-3.526-24.077-5.283-31.168c-0.757-3.071-3.047-12.214-5.907-11.087C415.413,297.237,415.197,306.682,415.13,309.851z
		"/>
	<path class="st7" d="M540.517,162.785c19.96-4.466,29.656,33.764,22.24,67.959c-6.515,34.516-30.409,58.186-43.981,51.258
		c-15.889-7.699-11.527-30.615-5.24-64.574C519.341,178.747,523.907,165.769,540.517,162.785z"/>
	<path class="st2" d="M548.53,223.415c1.22-6.213-3.145-30.211-14.331-27.4c-10.515,2.685-13.026,22.464-13.858,28.115
		c-0.486,5.725,0.663,1.057,1.499,4.972c0.812,3.902,2.855,8.481,4.267,5.836c1.392-2.671,1.499-3.709,2.368-0.65
		c0.843,3.056,2.048,3.688,4.789,2.24c2.754-1.465,2.173-6.405,3.169-4.041c1.015,2.333,1.615,7.539,4.954,3.557
		c3.35-4.059,1.709-11.188,2.565-7.06C544.738,233.09,547.647,230.632,548.53,223.415z"/>
	<path class="st7" d="M379.882,131.112c19.96-4.464,29.656,33.765,22.238,67.96c-6.51,34.516-30.409,58.186-43.979,51.258
		c-15.89-7.701-11.523-30.615-5.24-64.575C358.709,147.076,363.27,134.096,379.882,131.112z"/>
	<path class="st2" d="M387.898,191.743c1.216-6.213-3.149-30.213-14.336-27.402c-10.516,2.685-13.026,22.465-13.857,28.115
		c-0.487,5.725,0.663,1.058,1.497,4.971c0.812,3.904,2.855,8.482,4.272,5.836c1.388-2.671,1.494-3.708,2.368-0.649
		c0.844,3.055,2.043,3.688,4.79,2.238c2.752-1.463,2.169-6.405,3.169-4.04c1.015,2.335,1.615,7.541,4.949,3.556
		c3.35-4.058,1.715-11.187,2.565-7.058C384.101,201.419,387.012,198.96,387.898,191.743z"/>
	<path class="st6" d="M513.006,500.762c18.164,14.775,28.97,36.721,31.139,58.795c1.012,11.007,0.105,22.48-3.817,32.112
		c-3.954,9.701-11.021,18.824-19.281,21.857c-4.021,1.643-8.32,1.59-12.348,0.408c-4.009-1.297-7.918-3.967-11.233-7.67
		c-3.346-3.646-6.122-8.192-8.166-13.008c-2.024-4.693-3.455-10.294-4.616-15.988c-2.385-11.477-3.538-24.203-7.935-37.391
		c-2.279-6.657-5.46-13.051-9.834-18.908c-4.325-5.836-10.036-11.184-17.23-14.701c-1.455-0.667-4.648-1.058-7.35-0.364
		c-2.741,0.729-4.758,2.313-4.762,4.387c-0.576,1.984,0.655,4.142,1.855,5.879c1.233,1.801,2.503,3.336,3.346,3.802
		c8.546,4.736,14.67,14.804,17.745,25.138c3.16,10.665,3.996,22.784,6.224,35.56c1.161,6.429,2.569,12.938,5.287,19.705
		c2.672,6.613,6.312,12.927,11.309,18.561c4.926,5.613,11.492,10.598,19.51,13.234c7.974,2.552,17.124,2.48,25.027-0.697
		c7.942-3.046,14.262-8.249,19.047-14.005c4.836-5.777,8.422-12.153,11.053-18.821c5.253-13.681,5.856-27.634,4.319-41.101
		c-3.4-26.891-17.332-52.327-39.924-68.945c-1.095-0.868-3.793-1.693-6.394-1.698c-2.584-0.051-4.965,0.636-5.781,2.557
		c-1.303,1.599-0.941,4.111-0.138,6.321C510.9,497.962,512.162,499.947,513.006,500.762z"/>
	<path class="st6" d="M201.337,456.02c7.208,4.501,11.959,12.973,15.16,22.233c3.271,9.389,4.989,19.286,6.706,30.021
		c1.965,11.133,4.806,22.38,10.434,33.383c2.832,5.467,6.416,10.907,11.37,15.677c4.899,4.764,11.418,8.682,18.561,10.404
		c7.036,1.832,15.006,1.467,21.788-1.023c6.844-2.437,12.575-6.584,17.149-11.363c9.068-9.663,14.379-21.771,15.335-34.744
		c0.699-13.114-2.784-24.802-7.734-35.543c-5.009-10.677-11.543-20.141-18.317-29.222c-1.399-1.804-7.856-4.869-10.888-2.048
		c-3.616,2.002-2.816,9.042-1.663,10.883c6.032,9.127,11.484,18.119,15.277,27.288c1.894,4.577,3.361,9.18,4.26,13.775
		c0.89,4.54,1.279,9.348,0.866,13.375c-0.792,8.441-4.879,17.051-10.774,23.04c-2.946,2.992-6.353,5.28-9.86,6.493
		c-3.538,1.221-7.056,1.388-10.807,0.453c-7.333-1.693-13.362-7.939-17.755-16.254c-4.424-8.264-7.265-18.007-9.293-27.933
		c-1.996-10.394-4.314-21.724-8.695-32.661c-2.204-5.492-4.926-11-8.679-16.181c-3.727-5.157-8.653-10.003-14.733-13.326
		c-1.274-0.53-3.946-1.189-6.425-0.471c-2.462,0.586-4.4,1.91-4.71,3.971c-0.781,1.893-0.023,4.187,0.843,5.973
		C199.7,453.908,200.575,455.672,201.337,456.02z"/>
	<path class="st6" d="M299.314,487.83c27.738,10.962,53.793,20.275,82.03,29.587c28.236,9.339,54.57,17.391,83.046,25.863
		c1.436,0.376,6.484-1.535,7.514-5.524c1.668-3.769-1.133-8.392-2.501-8.982c-27.738-10.965-53.794-20.279-82.035-29.589
		c-28.232-9.339-54.57-17.392-83.041-25.862c-1.436-0.379-6.484,1.534-7.516,5.522C295.145,482.615,297.945,487.238,299.314,487.83z
		"/>
	<path class="st6" d="M84.064,423.679c18.757,7.048,36.324,13.053,55.461,18.848c19.124,5.82,37.069,10.594,56.575,15.159
		c0.988,0.184,4.663-2.312,5.639-6.307c1.408-3.866-0.258-7.984-1.18-8.379c-18.757-7.049-36.325-13.053-55.458-18.849
		c-19.128-5.82-37.069-10.593-56.578-15.159c-0.988-0.185-4.663,2.312-5.639,6.307C81.476,419.164,83.143,423.283,84.064,423.679z"
		/>
	<path class="st6" d="M97.773,702.949c67.518,18.136,130.309,34.422,198.141,51.285c67.827,16.89,130.928,31.928,199.074,47.544
		c3.413,0.735,13.716-0.262,13.943-4.438c1.754-3.794-6.879-9.505-10.24-10.455c-67.514-18.136-130.305-34.422-198.141-51.284
		c-67.823-16.89-130.924-31.928-199.07-47.544c-3.413-0.735-13.716,0.262-13.943,4.438C85.783,696.289,94.415,702,97.773,702.949z"
		/>
	<path class="st6" d="M82.147,355.119c-1.298,9.339-1.942,18.006-1.925,27.344c-0.016,9.339,0.628,18.006,1.925,27.344
		c0.11,0.467,3.57,1.771,7.676,1.666c4.107,0.105,7.562-1.199,7.671-1.666c1.299-9.338,1.942-18.005,1.927-27.344
		c0.015-9.338-0.628-18.005-1.927-27.344c-0.109-0.467-3.565-1.771-7.671-1.664C85.716,353.348,82.257,354.652,82.147,355.119z"/>
	<path class="st6" d="M104.323,177.073c1.091-47.018,1.718-91.188,1.883-137.671L97.09,48.95c1.879-0.082,3.785-0.162,5.711-0.245
		l-0.007,0.003l1.29,0.282l3.186,0.692c4.255,0.909,8.577,1.83,12.924,2.757c27.318,5.682,53.656,11.157,79.994,16.633
		c26.208,5.614,52.664,10.991,78.999,18.352c2.619,0.646,10.825-0.093,11.75-4.147c2.102-3.586-4.393-9.574-7.13-10.489
		c-27.131-8.953-53.335-15.231-79.645-21.539c-26.3-6.188-52.684-11.853-80.006-17.598c-4.323-0.917-8.621-1.828-12.854-2.726
		l-3.153-0.671l-1.855-0.397c-1.067-0.247-2.091-0.502-3.169-0.344c-2.331,0.114-4.64,0.229-6.916,0.34l-9.15,0.451l0.031,9.098
		c0.164,46.482,0.792,90.652,1.887,137.671c0.109,2.791,3.565,10.592,7.671,9.961C100.754,187.664,104.209,179.864,104.323,177.073z
		"/>
	<path class="st6" d="M98.985,691.581c17.077-17.683,30.186-37.974,39.481-59.865c9.257-21.908,14.759-45.551,15.497-70.383
		c0.655-24.831-3.514-48.748-11.528-71.139c-8.055-22.379-20.003-43.371-36.065-61.984c-1.706-1.83-8.738-4.72-11.401-1.521
		c-3.357,2.388-1.82,9.507-0.463,11.258c13.826,17.937,23.894,37.581,30.66,58.181c6.723,20.612,10.174,42.294,9.602,64.668
		c-0.679,22.371-5.342,43.825-13.21,64.029c-7.911,20.189-19.062,39.236-33.872,56.371c-1.456,1.672-3.389,8.693-0.173,11.266
		C89.999,695.803,97.177,693.311,98.985,691.581z"/>
	<path class="st6" d="M519.737,792.117c13.238-13.531,23.239-28.983,31.002-45.257c7.738-16.316,13.281-33.564,16.905-51.809
		c3.612-18.252,4.91-36.218,4.388-54.106c-0.584-17.883-3.044-35.766-8.225-53.682c-0.572-1.807-5.165-5.883-9.002-4.305
		c-4.028,0.797-6.176,6.421-5.875,8.083c3.57,16.83,4.919,33.505,4.845,50.13c-0.138,16.627-1.641,33.281-4.974,50.186
		c-3.369,16.889-8.19,32.825-14.692,47.964c-6.527,15.105-14.755,29.492-25.687,42.426c-1.023,1.288-1.772,7.242,1.353,9.899
		C512.356,794.903,518.353,793.469,519.737,792.117z"/>
	<path class="st5" d="M616.456,740.162c3.381-4.079,7.719-11.777,10.892-20.322c3.248-8.522,5.193-17.814,6.1-24.337
		c0.858-6.529,1.454-16.003,0.592-25.084c-0.789-9.08-2.927-17.653-5.1-22.484c-0.851-2.058-3.859-7.904-6.205-6.537
		c-2.702,0.381-1.977,6.529-1.898,8.579c0.353,4.924,1.365,12.87,1.584,21.145c0.279,8.271-0.336,16.819-1.109,22.739
		c-0.832,5.913-2.506,14.315-4.978,22.213c-2.407,7.92-5.499,15.311-7.145,19.965c-0.62,1.953-2.955,7.689-0.452,8.772
		C610.635,746.752,615.091,741.92,616.456,740.162z"/>
	<path class="st5" d="M649.559,756.035c3.747-4.392,8.719-12.62,12.595-21.765c3.945-9.118,6.652-19.095,8.099-26.125
		c1.4-7.041,2.784-17.284,2.695-27.221c-0.016-9.931-1.401-19.448-3.147-24.948c-0.666-2.331-3.153-9.048-5.624-7.897
		c-2.737,0.03-2.545,6.849-2.643,9.112c-0.07,5.444,0.266,14.312-0.223,23.471c-0.424,9.164-1.774,18.562-3.06,25.055
		c-1.342,6.481-3.749,15.665-6.918,24.273c-3.11,8.629-6.868,16.669-8.915,21.714c-0.793,2.122-3.621,8.332-1.111,9.421
		C643.139,763.146,648.038,757.923,649.559,756.035z"/>
</g>
</svg>
