<?xml version="1.0" encoding="utf-8"?>
<!-- Generator: Adobe Illustrator 22.1.0, SVG Export Plug-In . SVG Version: 6.00 Build 0)  -->
<svg version="1.1" id="_x31__1_" xmlns="http://www.w3.org/2000/svg" xmlns:xlink="http://www.w3.org/1999/xlink" x="0px" y="0px"
	 viewBox="0 0 850 815" style="enable-background:new 0 0 850 815;" xml:space="preserve">
<style type="text/css">
	.st0{fill:#E5B267;}
	.st1{fill:#FFFFFF;}
	.st2{fill:#4C251D;}
	.st3{fill:#4D261E;}
	.st4{fill:#4D251D;}
	.st5{fill:#FF83AC;}
	.st6{fill:#F5A536;}
	.st7{fill:#63B0FC;}
</style>
<g>
	<path class="st0" d="M575.242,714.823H151.985c0,0-29.301-99.302,14.651-236.046c-61.86-83.024-61.86-141.628-1.626-203.489
		c60.232-61.86,69.999-52.093,69.999-56.977c0-4.883,22.792-89.535,68.372-96.047c45.581-6.511,27.674,55.349,42.325,55.349
		c14.651,0,109.07-11.395,109.07-11.395s27.675-61.86,55.349-60.231c27.675,1.628,26.046,96.046,43.953,102.557
		c17.909,6.512,89.536,58.605,104.187,122.093c14.652,63.488-19.534,91.163-35.813,105.814
		c-16.28,14.651-48.838,47.209-48.838,47.209s9.769,71.628,11.395,107.442C585.924,611.217,575.242,714.823,575.242,714.823z"/>
	<path class="st1" d="M424.844,342.54c-10.574,15.381-37.491,22.111-66.331,2.884c-28.839-19.228-70.176,4.805-61.524,28.839
		c8.652,24.032,34.607,38.452,31.723,78.828c-2.883,40.375-32.4,140.904-6.729,149.965c16.343,5.769,22.111-20.188,29.802-37.491
		c7.69-17.304-3.847-51.912,13.458-66.331c17.304-14.42,36.53-19.227,46.144-5.768c9.613,13.458,9.613,20.187,9.613,20.187
		s6.729-35.568,31.723-33.646c24.994,1.923,24.033,2.884,29.8,29.801c5.768,26.918,1.923,78.828,6.73,77.867
		c4.806-0.962,28.839-21.15,30.761-68.254c1.923-47.105-14.419-66.331,2.884-97.093c13.668-24.297,40.11-51.015,36.531-77.866
		c-3.845-28.839-35.568-34.608-53.834-8.652c-18.265,25.956-50.95,12.497-55.757,7.691
		C445.031,338.693,424.844,342.54,424.844,342.54z"/>
	<path class="st1" d="M330.636,683.805c23.07,27.878,127.855,35.57,165.346,0c-12.497-8.651,4.805,5.768-25.956-12.497
		c-30.761-18.264-49.989-55.756-51.911-72.098c-1.923-16.342-6.728,19.227-22.11,37.491
		C380.624,654.966,371.972,678.999,330.636,683.805z"/>
	<path class="st2" d="M226.261,212.898c-23.701,12.164-44.102,28.697-61.014,48.005c-16.963,19.338-30.53,41.279-41.828,65.134
		c-5.651,12.085-10.284,24.766-12.473,38.138c-0.568,3.331-0.917,6.712-1.139,10.102l-0.131,2.545l0.098,2.977
		c0.026,2.102,0.385,3.693,0.622,5.485c1.187,6.844,2.983,13.068,5.024,19.217c4.112,12.244,9.264,23.949,15.34,35.397
		c6.134,11.401,13.134,22.62,22.793,32.663c0.487,0.497,1.31,1.102,2.293,1.677c1.04,0.542,2.296,1.009,3.49,1.323
		c2.414,0.628,4.648,0.54,5.477-0.98c1.261-1.132,1.032-3.433,0.396-5.545c-0.319-1.068-0.77-2.067-1.211-2.949
		c-0.411-0.94-0.849-1.708-1.235-2.163c-7.915-8.91-14.164-19.598-19.537-30.456c-5.349-10.897-9.95-22.163-13.511-33.579
		c-1.768-5.686-3.276-11.492-4.131-16.942c-0.147-1.299-0.444-2.775-0.387-3.804l-0.061-1.703l0.139-2.132
		c0.227-2.845,0.547-5.697,1.067-8.549c1.985-11.42,6.122-22.773,11.386-34.029c10.786-22.743,23.426-43.616,38.907-62.034
		c15.459-18.411,33.862-34.341,55.619-46.686c2.147-1.201,7.125-6.955,5.187-9.755C236.539,210.925,228.698,211.747,226.261,212.898
		z"/>
	<path class="st3" d="M593.671,475.251c6.864-5.071,15.799-12.17,25.302-21.162c9.478-8.976,19.529-19.951,27.985-32.628
		c8.474-12.613,15.319-26.873,19.117-41.125c3.888-14.216,4.525-28.321,3.214-39.53c-1.162-11.241-4.538-24.656-10.662-37.896
		c-5.998-13.302-14.632-26.359-24.557-37.813c-9.896-11.474-20.922-21.291-31.174-29.328c-10.255-8.053-19.732-14.365-26.977-18.86
		c-6.052-3.809-24.246-14.512-24.648-10.798c-3.296,1.735,13.286,14.728,18.679,19.199c12.93,10.658,35.3,27.415,53.161,49.062
		c8.903,10.749,16.605,22.765,21.871,34.708c5.393,11.902,8.283,23.639,9.289,33.329c1.122,9.683,0.624,21.594-2.671,34.092
		c-3.222,12.491-9.155,25.38-16.656,37.1c-14.992,23.533-35.909,42.12-47.902,53.759c-5.009,4.884-20.517,19.133-17.102,20.604
		C570.633,491.642,587.935,479.543,593.671,475.251z"/>
	<path class="st3" d="M345.515,168.317c0.823-4.864,1.521-11.58,0.601-19.51c-0.479-3.971-1.341-8.13-3.049-12.506
		c-1.686-4.292-4.072-8.449-7.138-12.218c-3.087-3.745-6.905-7.093-11.362-9.6c-4.422-2.541-9.65-3.996-14.759-4.146
		c-5.11-0.202-9.906,0.999-13.901,2.662c-4.023,1.666-7.295,3.787-9.999,5.818c-5.44,4.044-10.861,9.816-15.9,15.924
		c-5.129,6.188-10.215,13.166-14.707,20.332c-9.081,14.298-15.4,29.431-17.889,38.881c-0.548,1.968-1.528,5.919-1.861,9.382
		c-0.29,3.482-0.008,6.424,1.715,6.441c2.829,1.854,7.742-8.694,9.731-12.035c4.369-8.201,11.328-21.824,20.316-34.803
		c4.451-6.508,9.32-12.883,14.159-18.562c4.893-5.774,9.445-10.467,13.508-13.482c4.013-3.04,9.154-5.733,14.471-5.585
		c5.236-0.061,11.111,3.087,15.534,8.069c9.197,9.904,9.718,25.28,10.243,34.312c0.327,3.767,0.33,15.583,3.702,15.021
		C342.089,184.109,344.892,172.48,345.515,168.317z"/>
	<path class="st3" d="M442.504,165.328c-10.102-1.345-33.158,0.43-45.512,1.488c-12.355,1.058-35.378,3.226-45.104,6.27
		c-2.033,0.635-8.085,2.559-7.291,5.796c-0.232,3.326,6.059,4.191,8.171,4.472c10.102,1.347,33.158-0.429,45.511-1.488
		c12.355-1.056,35.379-3.224,45.105-6.27c2.031-0.635,8.084-2.558,7.29-5.796C450.906,166.476,444.617,165.609,442.504,165.328z"/>
	<path class="st3" d="M545.846,190.027c0.944-9.52,0.277-25.631-3.656-41.795c-1.906-8.121-4.438-16.085-7.459-23.57
		c-3.182-7.613-7.574-15.002-14.213-19.637c-3.193-2.32-7.74-4.218-12.76-4.479c-5.042-0.257-10.118,1.223-14.26,3.456
		c-4.182,2.239-7.723,5.098-10.91,8.077c-3.091,2.976-5.989,5.962-8.737,9.16c-11.105,12.623-18.773,27.034-21.825,36.172
		c-0.673,1.901-1.902,5.727-2.362,9.127c-0.481,3.401-0.254,6.316,1.452,6.404c1.402,1.001,3.367-1.074,5.302-3.692
		c1.918-2.635,3.876-5.814,4.903-7.388c4.761-7.586,12.713-20.032,23.187-30.999c2.557-2.753,5.363-5.452,8.053-7.916
		c2.661-2.378,5.354-4.379,7.873-5.672c5.154-2.575,8.482-1.922,11.43,0.132c2.978,1.941,6.422,6.823,9.07,13.079
		c2.732,6.502,5.32,13.977,7.348,21.309c4.229,14.725,6.007,29.482,7.261,38.427c0.25,1.871,0.736,5.601,1.443,8.803
		c0.692,3.194,1.704,5.883,3.379,5.519c1.61,0.592,2.944-1.989,3.895-5.276C545.193,195.985,545.639,192.023,545.846,190.027z"/>
	<path class="st3" d="M442.504,345.352c0.738,3.84,1.334,9.039,0.542,14.877c-0.376,2.912-1.092,5.945-2.099,8.974
		c-1.109,2.988-2.43,6.007-4.202,8.761c-3.44,5.49-8.492,10.116-13.909,13.414c-5.408,3.316-11.129,5.286-15.921,6.421
		c-4.801,1.159-10.873,1.796-17.404,1.515c-6.503-0.372-13.539-1.682-19.642-4.306c-6.085-2.569-11.225-6.549-14.162-10.918
		c-2.999-4.4-4.118-9.349-4.333-12.943c-0.157-1.531-0.036-4.54,0.487-7.187c0.444-2.637,1.288-5.063-0.115-5.749
		c-0.728-1.344-3.488-0.095-5.77,2.874c-2.33,2.906-3.584,7.249-3.853,9.408c-0.875,5.167-0.309,12.448,3.629,19.596
		c3.948,7.189,10.977,13.02,18.785,16.689c15.707,7.398,33.641,7.12,45.451,4.264c5.914-1.397,13.059-3.863,19.96-8.216
		c6.878-4.301,13.479-10.556,17.876-18.21c2.21-3.77,3.77-7.793,4.955-11.753c1.081-3.997,1.707-7.96,1.855-11.725
		c0.341-7.54-1.305-14.162-3.321-18.691c-0.841-1.893-2.712-5.635-5.24-8.079c-2.413-2.525-5.004-3.797-5.778-2.491
		c-1.443,0.65-0.617,3.158,0.204,5.929C441.454,340.535,442.184,343.75,442.504,345.352z"/>
	<path class="st3" d="M477.951,306.678c6.959,5.021,18.905,13.603,29.137,23.987c2.496,2.617,4.79,5.235,6.516,7.916
		c1.765,2.727,3.158,5.675,4.152,8.624c2.054,5.915,2.286,11.756,1.663,16.227c-0.712,4.472-2.491,9.635-6.522,13.868
		c-3.943,4.27-9.889,7.632-16.373,9.323c-6.48,1.755-13.243,1.834-19.469,1.112c-6.196-0.714-11.734-2.08-15.966-3.076
		c-3.533-0.692-14.115-3.951-14.503-0.919c-2.116,2.34,7.751,8.046,11.366,9.648c4.192,2.03,10.066,4.34,17.252,5.821
		c7.111,1.484,15.818,1.943,24.381-0.033c8.519-1.881,17-6.198,23.123-12.636c3.064-3.176,5.468-6.868,7.086-10.552
		c1.637-3.68,2.569-7.308,3.076-10.589c0.934-6.557,0.486-14.654-2.376-22.594c-1.399-3.971-3.341-7.911-5.844-11.583
		c-2.542-3.726-5.534-6.887-8.475-9.742c-11.942-11.206-25.061-19.172-33.702-22.9c-1.81-0.759-5.434-2.247-8.792-2.852
		c-3.319-0.691-6.271-0.361-6.188,1.162c-0.84,1.343,1.194,2.949,3.604,4.856C473.544,303.565,476.479,305.633,477.951,306.678z"/>
	<path class="st4" d="M444.499,320.922c29.558-0.339,26.1,13.883,25.669,20.762c-0.433,6.877-14.47,18.592-26.653,18.439
		c-12.182-0.152-28.574-11.759-30.121-22.416C411.847,327.05,427.122,321.122,444.499,320.922z"/>
	<path class="st2" d="M155.986,701.387c-2.26-14.385-3.589-26.149-4.366-36.215c-0.877-10.057-1.155-18.411-1.532-25.984
		c-0.372-15.16-0.457-27.258,0.546-43.913c1.304-16.632,3.01-28.609,5.486-43.57c1.404-7.448,2.83-15.684,5.089-25.521
		c2.151-9.862,5.104-21.324,9.338-35.252c1.606-4.596,2.044-13.971-1.478-14.185c-2.742-2.323-8.572,5.225-10.425,9.968
		c-5.463,14.011-9.277,25.705-12.017,35.818c-2.847,10.094-4.591,18.612-6.162,26.341c-2.807,15.526-4.239,28.034-5.591,45.315
		c-1.045,17.304-1.305,29.888-0.682,45.651c0.503,7.872,1.058,16.547,2.482,26.935c1.324,10.392,3.473,22.497,6.937,37.13
		c1.173,4.952,5.891,13.24,8.931,11.323C156.061,715.511,156.934,706.167,155.986,701.387z"/>
	<path class="st3" d="M348.351,589.211c3.172-5.227,6.17-11.741,7.966-19.451c1.83-7.627,2.609-15.835,3.388-24.308
		c1.556-16.77,2.922-35.376,15.464-46.45c5.884-5.586,13.684-9.101,20.114-7.872c3.195,0.539,6.296,2.136,8.704,4.429
		c2.433,2.285,4.359,5.374,5.705,8.927c5.391,14.527,3.081,31.872,1.944,45.313c-1.417,13.544-4.238,29.935-9.122,47.136
		c-4.842,17.169-11.693,35.059-22.369,49.688c-5.314,7.32-11.521,13.632-18.419,18.702c-6.872,5.067-14.343,8.703-21.686,10.861
		c-7.372,2.089-14.602,2.634-20.978,1.881c-6.421-0.834-12.102-2.731-16.677-4.947c-3.842-1.776-11.122-6.395-15.85-11.958
		c-5.011-5.302-7.518-11.139-8.868-9.53c-0.986-0.306-1.213,1.131-0.881,3.775c0.168,1.317,0.682,2.839,1.226,4.598
		c0.728,1.65,1.455,3.595,2.604,5.391c4.133,7.63,12.364,14.17,16.769,16.737c5.241,3.21,11.955,6.066,19.885,7.576
		c7.993,1.438,17.004,1.165,26.07-1.035c9.046-2.269,18.117-6.381,26.366-12.138c8.247-5.719,15.779-13.11,21.967-21.354
		c12.496-16.577,20.023-36.105,25.236-54.12c5.254-18.106,8.254-35.383,9.748-49.662c0.763-7.196,1.357-14.963,1.522-23.728
		c-0.006-8.852-0.684-18.579-4.554-28.671c-1.941-4.997-4.965-10.124-9.465-14.301c-4.473-4.177-10.247-7.148-16.58-8.139
		c-6.333-1.037-12.715,0.161-18.14,2.478c-5.472,2.322-10.185,5.696-14.202,9.589c-4.014,3.907-7.356,8.369-9.95,13.24
		c-1.292,2.407-2.401,5.054-3.255,7.554c-0.837,2.476-1.522,4.958-2.088,7.417c-2.24,9.865-2.666,19.235-3.123,27.691
		c-0.438,8.448-0.848,16.209-2.033,22.81c-1.105,6.542-3.238,12.241-5.439,16.847c-1.762,3.903-6.384,11.116-12.01,15.367
		c-2.747,2.228-5.689,3.53-7.751,4.665c-2.106,0.906-3.352,1.807-2.714,2.542c-0.514,0.901,0.834,1.427,3.561,1.633
		c2.647-0.02,6.71-0.603,10.664-2.608c3.978-1.92,7.799-4.944,10.752-8.081C344.866,594.591,346.989,591.374,348.351,589.211z"/>
	<path class="st3" d="M488.9,583.438c0.889-8.61,1.135-22.89,1.095-37.691c-0.08-7.401-0.16-14.931-0.234-21.949
		c-0.069-3.512-0.137-6.896-0.199-10.071c-0.072-3.29-0.238-6.449-0.537-9.351c-0.676-5.734-1.565-13.225-6.247-21.121
		c-2.348-3.865-5.912-7.687-10.384-10.089c-4.513-2.503-9.606-3.488-14.264-3.401c-9.411,0.187-17.457,3.948-23.444,8.373
		c-6.024,4.498-10.023,9.808-12.206,14.114c-0.961,1.773-2.592,5.483-3.033,8.852c-0.48,3.378,0.064,6.166,1.753,6.127
		c1.499,0.836,3.199-1.156,4.979-3.364c1.765-2.245,3.77-4.718,4.865-5.882c2.523-2.838,6.157-6.333,10.887-9.157
		c4.688-2.81,10.648-4.909,16.144-4.707c5.536,0.154,9.396,2.619,11.891,6.887c2.541,4.27,3.543,10.079,4.027,14.875
		c0.251,2.419,0.408,5.184,0.493,8.237c0.096,3.167,0.197,6.543,0.302,10.047c0.273,7.013,0.565,14.537,0.852,21.932
		c0.689,14.785,1.641,29.036,2.955,37.592c0.55,3.575,2.214,14.227,5.483,13.256C487.394,597.758,488.528,587.038,488.9,583.438z"/>
	<path class="st3" d="M549.526,570.308c-0.915,12.378-1.685,33.096-8.691,52.222c-1.77,4.791-3.851,9.289-6.338,13.572
		c-2.498,4.268-5.434,8.188-8.491,11.733c-3.05,3.569-6.433,6.539-9.681,9.159c-3.327,2.515-6.593,4.616-9.694,6.127
		c-6.118,3.19-14.247,5.533-23.039,5.184c-8.803-0.32-18.279-3.69-26.379-9.096c-8.172-5.343-14.789-12.69-19.546-20.02
		c-4.805-7.341-7.677-14.667-9.527-20.277c-0.779-2.348-2.118-7.096-3.167-11.259c-1.068-4.138-2.027-7.719-3.725-7.15
		c-1.585-0.745-2.994,2.89-3.539,7.603c-0.566,4.696-0.032,10.311,0.383,13.104c0.964,6.675,3.418,15.533,8.486,24.597
		c5.001,9.034,12.611,18.322,22.507,25.238c9.785,6.967,21.839,11.632,33.738,12.216c11.911,0.629,22.805-2.596,30.588-6.642
		c3.975-1.949,8.078-4.585,12.178-7.726c4.007-3.237,8.092-6.916,11.725-11.24c3.644-4.306,7.077-9.046,9.968-14.199
		c2.877-5.146,5.279-10.717,7.112-16.202c3.661-11.066,5.37-22.293,5.929-32.182c0.578-9.909,0.165-18.53-0.493-24.935
		c-0.462-5.4-2.734-21.131-5.966-19.6C550.527,549.448,549.988,565.139,549.526,570.308z"/>
	<path class="st2" d="M566.52,705.852c4.265-23.76,5.497-37.462,6.89-51.097c1.289-13.648,2.528-27.316,3.447-51.406
		c0.655-23.579,0.335-37.829-0.22-52.049c-0.669-14.204-1.226-28.478-4.614-51.758c-0.318-2.365,1.606-7.909,5.014-8.021
		c3.221-1.197,6.912,3.431,7.427,5.87c4.544,23.849,5.912,38.464,7.136,53.045c1.104,14.594,1.706,29.243,1.045,53.43
		c-0.929,24.704-2.464,38.692-4.313,52.608c-1.956,13.903-4.02,27.813-9.443,51.916c-0.596,2.406-4.783,8.539-7.965,7.249
		C567.519,715.43,566.12,708.216,566.52,705.852z"/>
	<path class="st1" d="M374.746,285.341c0,25.163-12.088,45.562-27,45.562c-14.91,0-26.999-20.398-26.999-45.562
		c0-25.164,12.088-45.562,26.999-45.562C362.658,239.778,374.746,260.177,374.746,285.341z"/>
	<path class="st1" d="M467.91,296.402c12.559,5.817,24.686,12.438,36.773,19.147c7.773-7.999,12.983-22.398,12.983-38.887
		c0-25.163-12.087-45.562-26.998-45.562c-14.914,0-27.001,20.398-27.001,45.562c0,6.846,0.92,13.314,2.524,19.141
		C466.757,295.944,467.329,296.135,467.91,296.402z"/>
	<path class="st4" d="M347.745,238.849c-15.215,0-27.55,20.815-27.55,46.491c0,25.677,12.335,46.492,27.55,46.492
		c15.216,0,27.552-20.816,27.552-46.492C375.298,259.664,362.961,238.849,347.745,238.849z M339.314,317.054
		c-3.321,0-6.014-3.958-6.014-8.842c0-4.882,2.693-8.842,6.014-8.842c3.321,0,6.013,3.959,6.013,8.842
		C345.327,313.095,342.635,317.054,339.314,317.054z M353.935,287.578c-5.537,0-10.022-6.598-10.022-14.74
		c0-8.139,4.486-14.737,10.022-14.737c5.535,0,10.02,6.597,10.02,14.737C363.955,280.98,359.469,287.578,353.935,287.578z"/>
	<path class="st4" d="M490.667,230.239c-15.217,0-27.552,20.816-27.552,46.491c0,6.987,0.939,13.586,2.573,19.531
		c0.579,0.144,1.164,0.34,1.757,0.613c12.815,5.935,25.191,12.691,37.522,19.538c7.934-8.162,13.248-22.855,13.248-39.682
		C518.215,251.055,505.881,230.239,490.667,230.239z M483.787,300.137c-3.055,0-5.534-3.643-5.534-8.136
		c0-4.493,2.478-8.135,5.534-8.135c3.055,0,5.531,3.642,5.531,8.135C489.318,296.493,486.842,300.137,483.787,300.137z
		 M496.13,275.788c-5.093,0-9.221-6.072-9.221-13.56c0-7.488,4.127-13.559,9.221-13.559c5.091,0,9.22,6.071,9.22,13.559
		C505.35,269.716,501.221,275.788,496.13,275.788z"/>
	<polygon class="st5" points="66.632,120.401 55.254,88.184 43.876,120.401 11.659,131.779 43.876,143.157 55.254,175.373 
		66.632,143.157 98.849,131.779 	"/>
	<polygon class="st6" points="769.783,349.482 758.407,317.265 747.027,349.482 714.811,360.862 747.027,372.24 758.407,404.456 
		769.783,372.24 802,360.862 	"/>
	<polygon class="st6" points="765.388,621.304 754.009,589.087 742.629,621.304 710.412,632.682 742.629,644.062 754.009,676.278 
		765.388,644.062 797.605,632.682 	"/>
	<polygon class="st7" points="685.102,139.588 676.88,116.312 668.659,139.588 645.384,147.807 668.659,156.028 676.88,179.305 
		685.102,156.028 708.378,147.807 	"/>
	<polygon class="st7" points="51.979,592.446 43.758,569.17 35.537,592.446 12.262,600.666 35.537,608.886 43.758,632.164 
		51.979,608.886 75.255,600.666 	"/>
	<polygon class="st6" points="101.487,258.298 93.268,235.021 85.047,258.298 61.771,266.518 85.047,274.74 93.268,298.015 
		101.487,274.74 124.764,266.518 	"/>
	<polygon class="st6" points="184.804,126.985 178.572,109.338 172.339,126.985 154.694,133.217 172.339,139.45 178.572,157.096 
		184.804,139.45 202.451,133.217 	"/>
	<polygon class="st5" points="699.6,498.67 691.895,476.849 684.188,498.67 662.368,506.375 684.188,514.083 691.895,535.901 
		699.6,514.083 721.42,506.375 	"/>
	<polygon class="st5" points="56.096,424.565 44.899,392.862 33.702,424.565 2,435.762 33.702,446.958 44.899,478.661 
		56.096,446.958 87.798,435.762 	"/>
</g>
</svg>
