<?xml version="1.0" encoding="utf-8"?>
<!-- Generator: Adobe Illustrator 22.1.0, SVG Export Plug-In . SVG Version: 6.00 Build 0)  -->
<svg version="1.1" id="_x31__1_" xmlns="http://www.w3.org/2000/svg" xmlns:xlink="http://www.w3.org/1999/xlink" x="0px" y="0px"
	 viewBox="0 0 850 815" style="enable-background:new 0 0 850 815;" xml:space="preserve">
<style type="text/css">
	.st0{fill:#FFFFFF;}
	.st1{fill:#F4CD9A;}
	.st2{fill:#FCB5A2;}
	.st3{fill:#4D251D;}
	.st4{fill:#4D261E;}
	.st5{fill:#A88C82;}
	.st6{fill:#4C251D;}
	.st7{fill:#4EE3A8;}
	.st8{fill:#81FFD8;}
	.st9{fill:#33C48C;}
</style>
<g>
	<path class="st0" d="M410.534,245.934c0-5.206-22.127-28.634-31.237-36.444c-9.11-7.81,0-31.238,28.636-42.952
		c28.633-11.714,145.778,24.731,163.999,44.255c18.223,19.524,23.428,53.365,3.905,62.476c11.714,10.412,13.016,28.635-6.509,44.254
		C549.805,333.141,410.534,245.934,410.534,245.934z"/>
	<path class="st1" d="M375.663,201.894c11.623,13.411,84.769,13.661,111.366-1.124c8.422,19.716,69.025,59.521,92.251,63.178
		c23.229,3.656,31.139-29.202,26.107-44.196c-5.032-14.993-26.333-44.084-28.75-48.058c-2.418-3.975-4.232-9.852-4.232-9.852
		s13.531-9.317,11.825-21.777c-1.707-12.46-17.056-16.3-23.174-11.602c-6.115,4.698-9.502,11.248-9.502,11.248l-71.691-21.58
		c0,0-0.007-24.178-11.647-27.179c-11.638-3.002-26.1,10.326-22.618,21.358c3.481,11.031-1.367,13.809-7.518,16.509
		c-6.148,2.7-42.97,11.307-60.63,30.585C359.788,178.681,375.663,201.894,375.663,201.894z"/>
	<path class="st0" d="M390.296,484.123c-53.337,0-84.452,7.408-146.681-8.889c-62.224-16.298-81.486-82.971-62.224-134.828
		c19.257-51.856,108.158-82.97,131.863-88.898c4.444-20.742,20.743-56.301,41.482-54.819c20.743,1.482,31.696,24.373,29.926,37.375
		c1.19-15.151,16.008-38.856,35.266-35.893c19.261,2.964,34.724,47.664,34.724,47.664s95.657,20.49,122.329,63.457
		c26.669,42.967,41.485,109.641-2.962,143.719C529.568,487.087,422.894,484.123,390.296,484.123z"/>
	<path class="st1" d="M177.236,402.24c48.303,29.205,163.757,10.542,207.308-76.661c22.688,47.46,126.308,128.332,209.432,94.633
		c0,0,25.837-55.042-2.248-94.356c-28.082-39.316-108.958-71.891-125.808-75.261c-12.696-1.313-12.353-6.739-12.353-6.739
		s-3.371-40.438-25.837-46.056c-22.465-5.616-38.193,24.712-41.564,35.945c-8.986-3.37-1.123-24.712-20.217-32.575
		c-19.095-7.864-46.055,3.369-51.673,43.808c-1.077,9.601-14.602,13.479-14.602,13.479S178.359,269.691,177.236,402.24z"/>
	<path class="st2" d="M302.793,385.711c0,17.917-14.523,32.441-32.44,32.441c-17.918,0-32.444-14.524-32.444-32.441
		c0-17.917,14.526-32.442,32.444-32.442C288.27,353.269,302.793,367.794,302.793,385.711z"/>
	<path class="st2" d="M533.885,385.711c0,17.917-14.523,32.441-32.441,32.441c-17.92,0-32.444-14.524-32.444-32.441
		c0-17.917,14.524-32.442,32.444-32.442C519.362,353.269,533.885,367.794,533.885,385.711z"/>
	<path class="st2" d="M385.986,367.67c1.191,0.795-12.311,10.724-12.311,10.724s-0.399,25.817,11.518,30.186
		c11.916,4.37,12.71-14.694,13.107-18.269c0.395-3.575,1.191-12.712,1.191-12.712L385.986,367.67z"/>
	<path class="st3" d="M385.307,342.405c-8.934-0.894-12.47,5.755-10.872,7.994c1.599,2.24,6.715,3.839,10.872,3.519
		c4.158-0.32,10.876-0.32,10.876-4.798C396.184,344.643,391.703,343.044,385.307,342.405z"/>
	<path class="st4" d="M287.765,364.327c-3.156-1.88-11.421-3.4-15.894-3.487c-4.458-0.348-12.834,0.368-16.155,1.932
		c-0.708,0.29-2.747,1.256-2.297,2.41c0.101,1.236,2.258,1.311,2.973,1.367c3.429,0.097,11.077-0.406,15.208-0.091
		c4.141,0.087,11.702,1.326,15.125,1.563c0.717,0.013,2.871,0.146,3.093-1.073C290.375,365.843,288.439,364.684,287.765,364.327z"/>
	<path class="st4" d="M284.837,381.74c-3.318-0.727-10.986-0.322-15.074,0.088c-4.095,0.351-11.704,1.369-14.83,2.694
		c-0.656,0.269-2.595,1.102-2.232,2.284c0.026,1.238,2.105,1.439,2.796,1.513c3.326,0.305,10.775-0.545,14.788-0.891
		c4.006-0.402,11.486-0.94,14.697-1.853c0.669-0.199,2.672-0.78,2.471-2.003C287.591,382.342,285.532,381.883,284.837,381.74z"/>
	<path class="st4" d="M287.995,397.171c-3.543-0.04-11.374,1.656-15.564,2.604c-4.189,0.947-11.988,2.786-15.169,4.346
		c-0.665,0.327-2.646,1.308-2.199,2.465c0.094,1.235,2.303,1.27,3.044,1.279c3.544,0.04,11.375-1.657,15.565-2.605
		c4.189-0.946,11.988-2.787,15.17-4.347c0.665-0.326,2.643-1.308,2.199-2.465C290.942,397.214,288.737,397.179,287.995,397.171z"/>
	<path class="st4" d="M486.568,365.799c3.424-0.237,10.987-1.476,15.128-1.562c4.128-0.316,11.776,0.186,15.205,0.092
		c0.715-0.057,2.871-0.133,2.973-1.369c0.451-1.154-1.589-2.12-2.294-2.41c-3.325-1.564-11.698-2.277-16.158-1.932
		c-4.47,0.087-12.734,1.609-15.89,3.486c-0.676,0.359-2.613,1.517-2.053,2.622C483.696,365.947,485.854,365.814,486.568,365.799z"/>
	<path class="st4" d="M488.314,383.353c3.208,0.913,10.687,1.452,14.697,1.853c4.011,0.344,11.46,1.194,14.785,0.89
		c0.694-0.072,2.77-0.275,2.799-1.511c0.362-1.185-1.58-2.015-2.236-2.285c-3.125-1.324-10.735-2.342-14.83-2.695
		c-4.088-0.409-11.756-0.812-15.071-0.088c-0.695,0.143-2.755,0.603-2.617,1.833C485.638,382.573,487.645,383.154,488.314,383.353z"
		/>
	<path class="st4" d="M484.45,398.691c3.182,1.561,10.98,3.4,15.17,4.348c4.193,0.948,12.021,2.643,15.565,2.604
		c0.74-0.008,2.95-0.043,3.047-1.279c0.444-1.155-1.533-2.137-2.199-2.463c-3.182-1.562-10.979-3.401-15.17-4.348
		c-4.189-0.948-12.02-2.644-15.564-2.604c-0.741,0.008-2.95,0.044-3.045,1.279C481.807,397.385,483.785,398.365,484.45,398.691z"/>
	<path class="st4" d="M384.24,363.975c-1.008,1.161-2.447,3.101-4.218,4.859c-1.752,1.779-3.837,3.319-5.371,4.266
		c-1.546,0.924-3.873,2.065-6.259,2.8c-2.378,0.763-4.763,1.146-6.258,1.504c-0.608,0.182-2.532,0.49-2.588,1.777
		c-0.387,1.222,1.701,2.028,2.448,2.205c1.739,0.508,4.78,0.563,7.808-0.117c3.039-0.643,5.968-2.028,7.883-3.178
		c1.903-1.168,4.48-3.13,6.451-5.532c2.001-2.374,3.352-5.099,3.704-6.877c0.186-0.745,0.434-2.969-0.832-3.187
		C385.84,361.953,384.681,363.518,384.24,363.975z"/>
	<path class="st4" d="M413.8,379.254c-1.664-0.457-4.353-1-7.028-1.942c-2.682-0.912-5.299-2.248-7.045-3.315
		c-1.73-1.09-4.089-2.842-6.096-4.842c-2.03-1.978-3.71-4.147-4.859-5.437c-0.499-0.511-1.837-2.231-2.962-1.602
		c-1.257,0.276-0.809,2.672-0.559,3.469c0.509,1.906,2.095,4.804,4.321,7.355c2.199,2.579,5.009,4.723,7.077,6.018
		c2.078,1.277,5.247,2.845,8.533,3.67c3.272,0.864,6.575,0.999,8.51,0.608c0.822-0.129,3.171-0.791,2.861-2.038
		C416.617,379.908,414.479,379.475,413.8,379.254z"/>
	<path class="st4" d="M397.975,381.312c-0.754,3.755-1.528,10.095-2.226,16.584c-0.346,3.161-0.958,6.003-2.329,7.895
		c-1.377,1.984-3.051,2.651-4.555,2.589c-1.501-0.003-3.691-0.89-5.359-2.64c-1.634-1.652-2.835-4.407-3.55-7.327
		c-0.731-2.932-1.187-6.186-1.752-9.016c-0.542-2.837-1.07-5.328-1.556-7.185c-0.408-1.555-1.629-6.18-2.83-5.604
		c-1.318-0.209-1.169,4.572-1.112,6.178c0.061,1.918,0.267,4.457,0.557,7.33c0.32,2.87,0.568,6.055,1.285,9.546
		c0.737,3.454,2.05,7.172,4.768,10.072c2.62,2.79,6.118,4.404,9.378,4.483c1.602,0.054,3.504-0.287,5.227-1.211
		c1.723-0.916,3.192-2.328,4.275-3.946c2.254-3.29,2.826-7.296,3.077-10.632c0.456-6.618,0.763-12.921,0.673-16.773
		c-0.04-1.604-0.17-6.388-1.472-6.102C399.241,375.049,398.292,379.739,397.975,381.312z"/>
	<path class="st4" d="M398.102,422.978c-1.034,0.535-2.499,1.514-4.189,2.109c-1.674,0.635-3.478,0.836-4.696,0.772
		c-1.217-0.057-2.992-0.441-4.591-1.242c-1.625-0.763-2.982-1.885-3.957-2.521c-0.428-0.227-1.574-1.188-2.663-0.551
		c-1.24,0.413-0.839,2.277-0.565,2.884c0.508,1.462,2.124,3.571,4.415,4.997c2.251,1.483,5.074,2.183,7.068,2.265
		c1.99,0.119,4.871-0.292,7.26-1.54c2.421-1.188,4.241-3.124,4.898-4.527c0.332-0.576,0.917-2.392-0.272-2.926
		C399.789,421.955,398.553,422.796,398.102,422.978z"/>
	<path class="st4" d="M341.195,316.017c-4.29,0.85-10.35,7.092-13.035,10.595c-2.842,3.457-7.436,10.352-7.72,14.313
		c-0.085,0.819-0.228,3.278,2.167,4.479c2.222,1.51,4.249,0.33,4.937-0.044c3.215-1.88,7.656-7.977,10.2-11.076
		c2.486-3.217,7.277-8.559,8.588-11.654c0.235-0.711,1.139-2.666-0.421-4.859C344.661,315.402,342.027,315.782,341.195,316.017z"/>
	<path class="st4" d="M418.045,319.565c1.316,3.094,6.102,8.436,8.592,11.653c2.545,3.098,6.985,9.197,10.196,11.076
		c0.689,0.375,2.718,1.553,4.937,0.044c2.395-1.201,2.252-3.661,2.167-4.478c-0.284-3.962-4.878-10.856-7.719-14.315
		c-2.686-3.502-8.745-9.744-13.033-10.593c-0.832-0.235-3.469-0.615-4.717,1.752C416.907,316.899,417.81,318.854,418.045,319.565z"
		/>
	<path class="st5" d="M384.59,259.604c-0.562,18.034,30.431,47.337,65.932,35.501c35.501-11.832,42.265-34.936,37.756-37.754
		c-4.51-2.818-27.611-3.382-32.121-11.835c-4.505-8.452-9.521-44.151-28.427-47.716c-18.909-3.564-30.064,9.899-35.815,22.922
		C386.166,233.746,384.59,259.604,384.59,259.604z"/>
	<path class="st4" d="M385.771,239.874c0.63-3.536,1.152-8.376,0.754-14.115c-0.199-2.861-0.646-5.94-1.475-9.096
		c-0.831-3.194-2.144-6.496-3.876-9.538c-3.443-6.099-8.751-11.615-15.421-14.673c-3.299-1.534-6.878-2.387-10.253-2.552
		c-3.363-0.165-6.503,0.286-9.132,1.046c-5.316,1.462-10.928,4.733-15.653,9.163c-4.813,4.431-8.735,9.95-11.819,15.62
		c-6.307,11.451-8.353,24.065-7.86,31.435c0.052,1.545,0.323,4.628,1.119,7.145c0.783,2.53,2.01,4.447,3.446,3.964
		c1.514,0.229,2.402-1.775,3.1-4.072c0.682-2.308,1.227-4.952,1.569-6.271c1.422-6.299,4.166-16.611,9.844-25.806
		c2.816-4.614,6.131-8.942,9.688-12.075c3.547-3.211,7.251-5.203,10.216-6.017c2.993-0.858,6.53-0.925,10.171,0.684
		c3.658,1.553,7.318,4.919,9.89,9.017c1.305,2.055,2.326,4.196,3.109,6.465c0.803,2.309,1.38,4.667,1.811,6.971
		c0.861,4.609,1.153,8.972,1.511,12.306c0.35,2.746,0.869,11.348,3.871,10.91C383.274,251.372,385.275,242.888,385.771,239.874z"/>
	<path class="st4" d="M459.384,242.868c-0.649-7.093-2.917-18.52-8.5-30.143c-1.399-2.865-3.259-5.963-5.494-8.642
		c-2.212-2.677-4.742-5.015-7.436-6.975c-5.358-3.953-11.538-6.236-17.003-6.749c-2.722-0.277-5.85-0.157-9.107,0.566
		c-3.277,0.713-6.549,2.167-9.469,4.112c-5.893,3.921-10.239,9.582-13.362,15.277c-6.415,11.406-8.128,24.084-7.397,31.382
		c0.124,1.535,0.482,4.588,1.393,7.053c0.868,2.48,2.21,4.316,3.616,3.771c1.527,0.154,2.297-1.862,2.916-4.148
		c0.578-2.299,1.055-4.915,1.331-6.218c1.214-6.219,3.671-16.429,9.307-25.356c2.706-4.44,6.085-8.305,9.56-10.49
		c3.469-2.243,6.862-2.698,9.881-2.432c6.007,0.334,15.316,5.868,19.832,14.851c5.116,9.327,8.481,20.048,10.89,26.165
		c1.115,2.568,3.598,10.425,6.395,9.433C459.837,254.717,459.743,245.814,459.384,242.868z"/>
	<path class="st6" d="M593.578,441.31c14.151-20.304,20.651-44.612,19.105-68.582c-0.771-11.997-3.605-23.881-8.301-35.033
		c-4.764-11.129-11.284-21.526-19.141-30.98c-7.831-9.492-16.846-17.564-26.404-24.563c-9.548-6.944-19.366-12.837-29.631-18.158
		c-10.233-5.311-20.886-9.884-32.053-13.478c-11.14-3.624-22.85-6.239-35.107-7.037c-2.492-0.249-9.4,2.492-8.794,5.805
		c-0.444,3.381,5.623,6.248,7.73,6.644c10.888,1.207,21.491,4,31.687,7.723c10.217,3.686,20.064,8.253,29.566,13.472
		c9.479,5.189,18.792,11.016,27.432,17.464c8.572,6.428,16.628,13.724,23.575,22.145c6.964,8.394,12.699,17.471,16.945,27.058
		c4.17,9.617,6.761,19.742,7.674,30.046c1.837,20.592-3.051,42.143-14.654,60.506c-1.064,1.818-2.563,8.398,0.28,10.145
		C585.73,447.091,592.123,443.389,593.578,441.31z"/>
	<path class="st6" d="M304.454,249.626c-11.085,1.751-21.777,4.593-32.03,8.3c-10.256,3.721-20.067,8.227-29.517,13.78
		c-9.413,5.509-18.168,12.017-26.388,19.279c-8.203,7.275-15.868,15.342-22.707,24.379c-13.671,17.951-23.614,38.517-26.491,60.897
		c-1.302,11.144-0.881,22.671,2.048,33.721c2.901,11.045,8.001,21.527,14.781,30.816c1.449,1.86,7.538,5.129,9.763,2.561
		c2.839-1.807,1.554-8.08,0.48-9.717c-5.537-8.443-9.434-17.538-11.529-26.902c-2.114-9.373-2.147-19.019-0.816-28.484
		c2.918-18.981,11.782-37.121,24.195-53.418c6.196-8.188,13.16-15.604,20.589-22.353c7.436-6.736,15.349-12.853,23.781-18.072
		c16.844-10.376,35.808-18.209,56.065-22.493c1.984-0.476,7.352-4.096,6.494-7.336C313.271,251.18,306.706,249.286,304.454,249.626z
		"/>
	<path class="st4" d="M498.856,233.542c-0.842,0.089-2.176,0.065-3.312-0.461c-0.989-0.443-2.42-1.656-3.615-3.265
		c-1.276-1.639-2.451-3.664-4.014-5.749c-1.531-2.036-3.377-3.924-5.42-5.151c-1.004-0.612-2.267-1.202-3.748-1.537
		c-1.482-0.342-3.106-0.369-4.5-0.187c-2.835,0.363-5.08,1.163-6.724,1.245c-2.95,0.356-5.873-2.235-7.013-3.956
		c-0.287-0.357-0.754-1.113-1.224-1.852c-0.505-0.721-0.975-1.503-1.824-1.457c-0.773-0.244-1.51,0.571-1.791,1.801
		c-0.313,1.215-0.121,2.712,0.068,3.42c0.399,1.717,1.452,3.936,3.476,5.805c1.938,1.882,5.064,3.42,8.461,3.398
		c3.194-0.035,5.661-0.87,7.371-0.977c1.706-0.152,2.5,0.146,3.538,0.737c0.958,0.565,2.176,1.695,3.423,3.281
		c1.23,1.531,2.61,3.712,4.427,5.771c1.861,2.08,4.18,4.059,7.274,4.847c2.95,0.691,5.514,0.029,7.202-1.002
		c0.702-0.383,2.082-1.51,2.564-2.905c0.51-1.395,0.088-2.514-0.728-2.537c-0.767-0.323-1.508,0.181-2.179,0.363
		C499.901,233.395,499.242,233.512,498.856,233.542z"/>
	<path class="st5" d="M499.398,126.649c-4.542,14.417-14.606,50.254-3.518,53.748c11.091,3.491,30.422-50.153,30.422-50.153
		L499.398,126.649z"/>
	<path class="st3" d="M472.436,176.068c-1.244,3.947-5.449,6.138-9.397,4.896c-3.948-1.243-6.138-5.45-4.894-9.397
		c1.239-3.946,5.448-6.138,9.393-4.896C471.487,167.915,473.68,172.123,472.436,176.068z"/>
	<path class="st3" d="M531.112,194.544c-1.244,3.947-5.449,6.138-9.397,4.896c-3.948-1.243-6.138-5.451-4.898-9.397
		c1.244-3.947,5.453-6.14,9.397-4.896C530.161,186.39,532.354,190.596,531.112,194.544z"/>
	<path class="st3" d="M489.799,197.082c-7.234-3.099-11.942,1.529-11.196,3.823c0.748,2.293,4.605,4.977,8.164,5.805
		c3.564,0.827,9.179,2.594,10.357-1.149C498.302,201.817,494.981,199.301,489.799,197.082z"/>
	<path class="st7" d="M676.569,457.128v147.619h-45.676c0,0-7.205,186.311,0,186.311c-1.827,0.032-33.661,0.201-80.035,0.433
		c-20.048,0.101-42.852,0.235-67.084,0.369c-57.424,0.266-123.086,0.6-180.214,0.901c-24.329,0.134-47.134,0.235-67.087,0.334
		c-45.907,0.235-76.742,0.402-76.742,0.402l2.388-188.75h-55.304c0,0-4.81-147.619,0-147.619h466.385
		C634.477,457.128,676.569,457.128,676.569,457.128z"/>
	<path class="st8" d="M304.869,602.408v190.353c-24.489,0.134-47.444,0.235-67.528,0.334V605.048h-22.518v-147.92h67.528v145.28
		H304.869z"/>
	<path class="st9" d="M576.284,457.128v147.92h-22.488v186.444c-20.178,0.101-43.134,0.235-67.528,0.369V602.408h22.488v-145.28
		H576.284z"/>
	<path class="st6" d="M480.31,120.148c4.284-7.025,4.14-15.679,0.209-22.626c-1.945-3.478-5.169-6.524-8.915-8.242
		c-3.742-1.772-7.883-2.357-11.959-1.968c-4.069,0.458-8,1.883-11.297,4.386c-3.315,2.454-5.84,6.097-7.028,9.9
		c-2.421,7.61-0.78,16.106,4.859,22.101c0.571,0.681,3.469,0.786,4.614-0.995c1.403-1.627,1.488-3.86,1.308-4.26
		c-3.002-3.864-3.579-9.52-1.886-13.746c1.576-4.214,5.534-6.975,10.454-7.529c4.931-0.47,9.368,1.418,11.78,5.216
		c2.525,3.788,3.125,9.441,0.985,13.841c-0.094,0.429,0.451,2.598,2.157,3.9C477.076,121.632,479.892,120.931,480.31,120.148z"/>
	<path class="st6" d="M545.217,132.962c-9.854-3.333-19.071-6.144-29.103-8.823c-10.027-2.694-19.418-4.865-29.617-6.905
		c-0.516-0.078-2.379,1.27-2.813,3.347c-0.662,2.016,0.278,4.113,0.763,4.302c9.855,3.334,19.076,6.146,29.103,8.825
		c10.027,2.692,19.418,4.865,29.622,6.905c0.516,0.078,2.375-1.27,2.809-3.346C546.643,135.249,545.704,133.15,545.217,132.962z"/>
	<path class="st6" d="M392.288,215.517c-8.967-5.584-14.71-14.746-16.23-24.569c-1.583-9.827,0.978-20.185,7.248-28.405
		c6.271-8.385,15.603-13.261,25.817-17.082c10.184-3.908,21.499-6.944,32.156-13.476c1.061-0.728,2.996-4.051,1.531-5.63
		c-1.018-1.86-4.607-1.72-5.525-1.207c-9.651,5.215-20.458,7.681-31.373,11.458c-5.463,1.896-11.016,4.139-16.309,7.341
		c-5.273,3.19-10.288,7.378-14.168,12.579c-7.942,10.354-11.048,23.725-8.653,36.06c2.251,12.348,10.196,23.65,21.525,29.776
		c1.201,0.575,5.101,0.597,5.675-1.488C395.025,219.035,393.152,216.024,392.288,215.517z"/>
	<path class="st6" d="M554.928,141.884c0.763-4.833,4.496-9.123,8.735-10.779c4.154-1.733,8.872-0.737,12.644,2.472
		c3.717,3.274,5.377,7.805,4.255,12.161c-1.034,4.435-4.748,8.739-9.42,10.187c-0.378,0.225-1.585,2.105-1.367,4.24
		c-0.085,2.117,2.349,3.69,3.208,3.46c8.056-1.683,14.268-7.707,16.644-15.329c1.208-3.799,1.224-8.232-0.088-12.14
		c-1.265-3.942-3.674-7.361-6.744-10.068c-3.12-2.652-6.846-4.547-10.928-5.239c-4.056-0.737-8.441-0.09-12.031,1.648
		c-7.205,3.44-12.278,10.451-12.794,18.663c-0.104,0.882,1.801,3.069,3.883,2.684C553.071,143.754,554.759,142.29,554.928,141.884z"
		/>
	<path class="st6" d="M563.888,277.647c12.795,1.468,25.781-3.242,34.703-12.073c9.029-8.737,14.142-21.476,13.568-34.512
		c-0.2-6.485-1.913-12.791-4.405-18.425c-2.503-5.659-5.769-10.68-9.159-15.361c-6.784-9.352-14.23-17.565-19.151-27.369
		c-0.456-0.945-3.318-3.115-5.218-2.175c-2.104,0.456-2.424,4.289-1.974,5.491c4.992,11.462,12.53,20.432,18.635,29.47
		c6.183,8.984,11.039,18.326,11.371,28.791c0.428,10.329-3.406,20.288-10.334,27.434c-6.875,7.18-16.83,11.397-27.376,10.837
		c-1.002-0.078-4.262,1.316-4.461,3.42C559.368,275.213,562.573,277.43,563.888,277.647z"/>
	<path class="st6" d="M658.972,448.344c-92.359-0.892-178.075-1.332-270.434-1.323c-92.359-0.009-178.075,0.431-270.433,1.323
		c-4.61,0.077-17.505,2.451-16.461,5.272c-1.044,2.819,11.851,5.193,16.461,5.27c92.359,0.892,178.075,1.332,270.433,1.323
		c92.359,0.009,178.075-0.431,270.434-1.323c4.611-0.077,17.506-2.451,16.462-5.27C676.474,450.795,663.583,448.421,658.972,448.344
		z"/>
	<path class="st6" d="M658.972,598.717c-92.359-0.892-178.075-1.332-270.434-1.323c-92.359-0.009-178.075,0.431-270.433,1.323
		c-4.61,0.077-17.505,2.451-16.461,5.27c-1.044,2.821,11.851,5.195,16.461,5.272c92.359,0.892,178.075,1.332,270.433,1.323
		c92.359,0.009,178.075-0.431,270.434-1.323c4.611-0.077,17.506-2.451,16.462-5.272
		C676.474,601.168,663.583,598.794,658.972,598.717z"/>
	<path class="st6" d="M778.968,787.418c-128.745-1.052-248.225-1.575-376.97-1.563c-128.745-0.012-248.222,0.511-376.967,1.563
		c-6.429,0.09-24.401,2.892-22.948,6.222c-1.453,3.33,16.519,6.132,22.948,6.222c128.745,1.055,248.222,1.575,376.967,1.563
		c128.745,0.011,248.225-0.509,376.97-1.561c6.428-0.092,24.401-2.894,22.948-6.224
		C803.365,790.311,785.393,787.508,778.968,787.418z"/>
	<path class="st6" d="M104.273,599.729c0.891-23.812,1.331-45.909,1.322-69.718c0.009-23.81-0.431-45.907-1.322-69.717
		c-0.078-1.189-2.451-4.513-5.273-4.246c-2.819-0.267-5.195,3.056-5.27,4.246c-0.891,23.81-1.334,45.907-1.324,69.717
		c-0.01,23.81,0.433,45.906,1.324,69.718c0.075,1.188,2.451,4.513,5.27,4.243C101.822,604.24,104.194,600.917,104.273,599.729z"/>
	<path class="st6" d="M160.85,788.211c1.201-30.347,1.798-58.513,1.784-88.861c0.014-30.349-0.584-58.513-1.781-88.863
		c-0.104-1.515-3.299-5.752-7.097-5.41c-3.799-0.342-6.993,3.895-7.097,5.41c-1.201,30.35-1.795,58.514-1.781,88.863
		c-0.014,30.347,0.581,58.513,1.781,88.861c0.104,1.516,3.298,5.752,7.097,5.41C157.554,793.963,160.749,789.727,160.85,788.211z"/>
	<path class="st6" d="M634.764,788.211c1.201-30.347,1.794-58.513,1.781-88.861c0.013-30.349-0.581-58.513-1.781-88.863
		c-0.101-1.515-3.3-5.752-7.094-5.41c-3.799-0.342-6.996,3.895-7.097,5.41c-1.201,30.35-1.795,58.514-1.781,88.863
		c-0.014,30.347,0.581,58.513,1.781,88.861c0.101,1.516,3.299,5.752,7.097,5.41C631.464,793.963,634.663,789.727,634.764,788.211z"
		/>
	<path class="st6" d="M679.326,592.588c0.891-22.391,1.331-43.17,1.324-65.56c0.007-22.391-0.433-43.17-1.324-65.561
		c-0.075-1.117-2.451-4.243-5.27-3.991c-2.822-0.253-5.195,2.874-5.273,3.991c-0.891,22.391-1.331,43.17-1.322,65.561
		c-0.009,22.39,0.431,43.169,1.322,65.56c0.078,1.117,2.451,4.243,5.273,3.991C676.876,596.831,679.251,593.705,679.326,592.588z"/>
	<path class="st6" d="M586.517,306.312c3.436-6.222,4.102-13.375,2.659-19.953c-1.456-6.567-5.139-12.951-11.231-17.202
		c-6.128-4.205-13.401-5.402-20.057-4.447c-6.667,0.967-13.124,4.109-17.738,9.52c-0.453,0.609-0.297,3.194,1.52,4.319
		c1.644,1.331,3.961,1.373,4.278,1.071c7.234-6.616,18.775-7.454,26.359-2.317c7.482,5.289,10.764,16.384,7.12,25.485
		c-0.17,0.404,0.688,2.556,2.512,3.625C583.633,307.718,586.106,306.953,586.517,306.312z"/>
	<path class="st4" d="M282.527,156.472c1.735-8.167,1.889-27.147,1.889-37.322c0-10.177-0.154-29.157-1.889-37.323
		c-0.362-1.707-1.462-6.791-4.052-6.368c-2.592-0.423-3.694,4.661-4.057,6.368c-1.732,8.166-1.886,27.146-1.886,37.323
		c0,10.175,0.154,29.155,1.886,37.322c0.362,1.706,1.465,6.79,4.057,6.367C281.065,163.262,282.165,158.178,282.527,156.472z"/>
	<path class="st4" d="M350.531,109.708c1.732-8.84,1.886-29.381,1.886-40.393c0-11.014-0.154-31.554-1.886-40.394
		c-0.362-1.846-1.465-7.348-4.056-6.889c-2.592-0.458-3.691,5.043-4.053,6.889c-1.735,8.84-1.889,29.381-1.889,40.394
		c0,11.013,0.154,31.553,1.889,40.393c0.112,0.575,0.298,1.507,0.579,2.512h6.95c-0.617-2.188-1.694-4.693-3.475-4.379
		c-1.782-0.314-2.859,2.192-3.475,4.379h6.953C350.231,111.215,350.417,110.283,350.531,109.708z"/>
	<path class="st4" d="M231.128,183.929c1.732-8.839,1.889-29.377,1.889-40.392c0-11.014-0.157-31.553-1.889-40.392
		c-0.362-1.847-1.465-7.35-4.055-6.891c-2.589-0.458-3.691,5.044-4.053,6.891c-1.732,8.839-1.889,29.378-1.889,40.392
		c0,11.015,0.157,31.553,1.889,40.392c0.115,0.576,0.298,1.51,0.577,2.513h6.954c-0.617-2.188-1.697-4.692-3.478-4.377
		c-1.782-0.315-2.859,2.189-3.476,4.377h6.954C230.832,185.439,231.015,184.505,231.128,183.929z"/>
	<path class="st4" d="M511.882,138.75c1.733-8.838,1.89-29.378,1.89-40.393c0-11.013-0.157-31.552-1.89-40.392
		c-0.362-1.847-1.462-7.35-4.052-6.892c-2.591-0.458-3.694,5.044-4.056,6.892c-1.733,8.84-1.89,29.379-1.89,40.392
		c0,11.015,0.157,31.556,1.89,40.393c0.114,0.577,0.297,1.509,0.577,2.514h6.953c-0.617-2.19-1.694-4.695-3.475-4.379
		c-1.784-0.315-2.862,2.19-3.478,4.379h6.953C511.586,140.259,511.772,139.328,511.882,138.75z"/>
	<path class="st4" d="M400.722,112.125c1.732-11.04,1.886-36.697,1.886-50.454c0-13.759-0.153-39.415-1.886-50.456
		c-0.362-2.307-1.465-9.18-4.056-8.608c-2.591-0.572-3.69,6.301-4.052,8.608c-1.735,11.041-1.889,36.697-1.889,50.456
		c0,13.757,0.154,39.414,1.889,50.454c0.362,2.308,1.462,9.18,4.052,8.608C399.257,121.305,400.36,114.433,400.722,112.125z"/>
</g>
</svg>
