<?xml version="1.0" encoding="utf-8"?>
<!-- Generator: Adobe Illustrator 22.1.0, SVG Export Plug-In . SVG Version: 6.00 Build 0)  -->
<svg version="1.1" id="_x31__1_" xmlns="http://www.w3.org/2000/svg" xmlns:xlink="http://www.w3.org/1999/xlink" x="0px" y="0px"
	 viewBox="0 0 850 815" style="enable-background:new 0 0 850 815;" xml:space="preserve">
<style type="text/css">
	.st0{fill:#9D5B24;}
	.st1{fill:#F18D34;}
	.st2{fill:#E5B267;}
	.st3{fill:#FFFFFF;}
	.st4{fill:#FF9345;}
	.st5{fill:#4D261E;}
	.st6{fill:#4D251D;}
</style>
<g>
	<path class="st0" d="M217.095,655.611c0,23.751-19.256,43.005-43.007,43.005c-23.751,0-43.007-19.254-43.007-43.005
		c0-23.752,19.256-43.007,43.007-43.007C197.839,612.604,217.095,631.86,217.095,655.611z"/>
	<path class="st0" d="M579.962,648.891c0,23.752-19.255,43.006-43.005,43.006c-23.753,0-43.007-19.254-43.007-43.006
		c0-23.752,19.254-43.006,43.007-43.006C560.707,605.885,579.962,625.14,579.962,648.891z"/>
	<path class="st1" d="M644.472,537.343c-17.472,2.687-397.81,10.751-420.657,12.095c-22.848,1.344-86.014,0-124.988,5.377
		c-38.975,5.374-73.919,59.133-41.663,65.853c32.256,6.721,512.048-5.376,553.71-5.376c41.663,0,83.326,0,106.173-22.847
		c22.847-22.846,8.064-52.414-6.719-53.758C695.543,537.343,644.472,537.343,644.472,537.343z"/>
	<path class="st2" d="M114.344,391.143c-21.696,2.553-61.258-6.38-93.162-26.799c-31.905-20.419-3.828-45.942,17.866-35.733
		c21.696,10.21,80.4,19.142,80.4,19.142s26.801-76.57,121.239-104.646c94.437-28.076,183.771-25.524,183.771-25.524
		s63.809-51.048,86.78-70.189c22.971-19.144,33.18-30.629,51.047-39.562c17.866-8.933,26.799,47.218,26.799,47.218l82.952,19.143
		c0,0,25.524-37.01,44.666-37.01c19.143,0,5.671,66.536,9.499,78.021c3.828,11.486,56.862,49.597,64.52,96.816
		c7.658,47.218-26.799,81.676-45.942,96.991c-19.142,15.314-111.028,56.152-121.237,58.704
		c-10.21,2.553-15.315,19.143-15.315,19.143s1.277,62.534-17.866,71.465c-19.142,8.934-26.799-31.905-26.799-31.905l-2.553-38.285
		l-53.599,11.486c0,0-17.868,80.4-33.182,81.677c-15.314,1.275-22.971-47.22-22.971-47.22l-1.277-35.733l-122.513,7.658
		c0,0-7.657,65.084-26.799,65.084c-19.143,0-20.42-63.809-20.42-63.809l-28.075-6.38c0,0-12.762,75.295-37.01,80.4
		c-24.248,5.103-24.248,6.38-30.628-45.943c-6.382-52.325-11.486-59.981-11.486-59.981s-44.667-30.629-49.772-54.876
		C118.172,396.248,114.344,391.143,114.344,391.143z"/>
	<path class="st3" d="M603.113,315.096c-23.03,7.008-50.066-13.018-67.088-28.038c-17.021-15.02-51.066,22.028-32.041,60.078
		c13.538,27.077,6.008,78.102,3.004,111.146c-3.004,33.044,0,45.058,0,45.058s39.052-8.01,65.085-16.021
		c26.035-8.01,54.071-25.032,54.071-25.032s34.045-58.076,53.07-81.106c19.024-23.03,23.03-45.059,6.008-53.07
		c-17.023-8.01-41.054,9.012-53.07,4.004c-12.015-5.006-16.02-16.02-16.02-16.02L603.113,315.096z"/>
	<path class="st3" d="M455.92,472.3c-8.01,2.003-113.147-2.003-139.182,1.002c-26.034,3.004-36.046,22.028-6.008,28.036
		c30.04,6.008,141.184,0,141.184,0L455.92,472.3z"/>
	<path class="st4" d="M584.094,347.36c-7.328,14.657-8.306,50.812-0.978,50.323c7.329-0.488,21.985-21.497,26.384-28.338
		c4.396-6.839,8.305-15.144,8.305-15.144s-8.305-9.284-9.282-15.634C607.545,332.215,584.094,347.36,584.094,347.36z"/>
	<path class="st5" d="M680.936,172.055c-4.384-2.694-12.163-5.678-20.402-8.205c-8.235-2.545-16.923-4.604-23.011-5.919
		c-6.089-1.305-14.857-2.997-23.409-4.068c-8.55-1.081-16.869-1.561-21.972-0.906c-2.139,0.261-8.477,1.173-8.423,5.144
		c-0.961,3.853,4.863,6.251,6.798,7.074c4.651,1.943,12.521,3.807,20.684,5.608c8.169,1.744,16.621,3.546,22.523,4.806
		c5.898,1.28,14.344,3.109,22.509,4.883c8.182,1.709,16.122,3.244,21.161,3.388c2.103,0.046,8.397,0.255,9.106-3.652
		C688.182,176.611,682.778,173.174,680.936,172.055z"/>
	<path class="st5" d="M734.029,201.412c2.566-6.49,4.689-17.939,4.794-29.963c0.013-3.003-0.029-6.036-0.227-9.025
		c-0.069-1.497-0.222-2.978-0.336-4.447c-0.159-1.572-0.355-3.167-0.645-4.736c-1.112-6.222-3.31-12.557-7.711-17.489
		c-2.122-2.407-5.396-4.926-9.43-6.228c-4.012-1.418-8.726-1.32-12.613-0.293c-7.796,2.157-13.171,6.771-17.612,10.612
		c-9.257,8.096-16.188,17.807-18.998,24.294c-1.328,2.682-4.215,10.945-0.344,12.204c3.113,2.401,8.49-3.477,10.481-5.193
		c4.556-4.369,11.521-11.782,19.822-18.091l3.134-2.333c1.009-0.723,1.976-1.365,2.925-1.933c1.889-1.153,3.652-1.882,4.96-2.191
		c1.313-0.25,1.996-0.198,2.572,0.043c0.597,0.22,1.066,0.528,1.653,1.171c1.163,1.171,2.739,4.432,3.563,8.741
		c0.227,1.07,0.395,2.187,0.555,3.363c0.139,1.291,0.329,2.593,0.444,3.913c0.289,2.634,0.466,5.314,0.641,7.973
		c0.637,10.652,0.117,21,0.244,27.417c0.159,2.669-0.043,10.736,3.887,11.108C729.456,212.041,733.053,204.187,734.029,201.412z"/>
	<path class="st5" d="M592.601,144.04c-0.96-6.426-2.549-14.757-4.615-24.408c-0.582-2.545-1.294-5.454-2.805-8.682
		c-1.464-3.155-4.101-6.919-8.136-9.28c-3.936-2.456-8.797-3.187-12.721-2.823c-4.037,0.313-7.467,1.449-10.635,2.76
		c-3.091,1.311-6.095,3.059-8.507,4.585c-2.521,1.598-5.012,3.244-7.393,5.009c-4.784,3.5-9.26,7.293-13.307,11.232
		c-4.058,3.93-7.699,7.995-10.874,12.003c-0.537,0.688-1.065,1.365-1.583,2.031l0.003-0.006l-0.003,0.003l-0.745,0.433
		c-1.964,1.165-3.88,2.241-5.632,3.336c-14.117,8.639-33.227,22.338-50.051,37.499c-8.438,7.545-16.387,15.343-23.076,22.727
		c-6.633,7.445-12.174,14.279-15.781,19.885c-1.594,2.252-4.483,7.011-6.436,11.292c-1.83,4.407-2.741,8.234-0.703,8.739
		c1.283,1.607,4.516-0.632,7.778-3.669c3.422-2.963,6.965-6.757,8.905-8.563c4.389-4.482,10.404-10.314,17.266-16.873
		c6.929-6.509,14.914-13.581,23.256-20.532c16.639-13.977,35.043-27.005,48.275-35.098c1.647-1.033,3.417-2.023,5.246-3.113
		c0.703-0.413,1.416-0.832,2.134-1.257l1.467-0.863c0.545-0.227,0.742-0.847,1.134-1.254c1.698-2.249,1.908-2.55,2.689-3.526
		c2.712-3.459,5.817-6.982,9.276-10.411c3.445-3.44,7.255-6.773,11.318-9.884c4.017-3.021,8.6-6.277,12.305-8.03
		c1.908-0.883,3.788-1.515,5.208-1.678c1.483-0.198,2.255-0.034,2.896,0.258c0.651,0.255,1.332,0.861,2.145,2.256
		c0.789,1.365,1.499,3.293,2.158,5.439c2.759,9.194,5.382,17.462,7.603,23.504c1.862,5.078,7.439,20.188,10.925,17.922
		C595.728,165.325,593.396,149.388,592.601,144.04z"/>
	<path class="st5" d="M146.35,452.664c-6.085-8.813-13.036-21.588-16.578-37.516c-0.441-1.983-0.888-3.993-1.341-6.031
		c-0.296-2.068-0.595-4.162-0.898-6.283c-0.38-2.106-0.5-4.269-0.628-6.452c-0.096-2.18-0.403-4.369-0.346-6.592
		c-0.195-8.888,0.818-18.022,2.639-27.01c1.941-8.991,5.225-17.578,9.232-25.937c4.021-8.314,9.111-15.951,14.405-23.017
		c5.371-7.031,11.316-13.225,17.107-18.811c5.954-5.433,11.758-10.276,17.328-14.241c11.049-8.013,25.432-16.697,42.122-23.66
		c16.545-7.152,35.481-12.554,54.393-16.516c18.96-3.922,37.953-6.397,55.086-8.256c17.746-2.032,32.74-5.187,43.945-7.359
		c4.657-0.938,13.917-2.8,21.762-4.378c7.791-1.658,14.238-3.135,13.026-5.095c1.173-1.977-5.503-3.308-13.762-3.578
		c-8.257-0.319-17.919,0.451-22.74,0.846c-11.557,0.901-26.722,3.027-43.574,4.177c-17.466,1.102-37.165,3.087-57.069,6.796
		c-19.9,3.767-39.995,9.226-58.01,16.855c-18.052,7.396-33.711,16.783-45.809,25.561c-6.09,4.344-12.49,9.674-19.05,15.708
		c-6.413,6.205-12.995,13.136-18.984,21.077c-5.911,7.979-11.574,16.677-16.044,26.19c-4.415,9.445-8.14,19.695-10.172,30.132
		c-1.926,10.437-2.798,20.941-2.278,31.07c0.025,2.533,0.424,5.029,0.625,7.505c0.232,2.476,0.468,4.929,0.976,7.319
		c0.44,2.392,0.876,4.759,1.308,7.097c0.612,2.298,1.216,4.567,1.811,6.799c4.855,17.899,13.794,32.083,21.839,41.234
		c0.872,0.938,1.96,2.106,3.192,3.428c0.618,0.655,1.273,1.349,1.956,2.072c0.732,0.674,1.538,1.337,2.343,2.031
		c1.628,1.357,3.339,2.78,5.053,4.212c1.795,1.319,3.741,2.461,5.538,3.589c3.523,2.372,7.236,3.667,9.762,4.435
		c2.559,0.732,4.098,0.691,4.058-0.487c0.973-0.556,0.23-2.002-1.462-3.893c-1.667-1.933-4.46-4.06-7.064-6.96
		c-1.338-1.395-2.823-2.723-4.182-4.177c-1.296-1.509-2.589-3.015-3.82-4.45c-0.617-0.702-1.216-1.391-1.795-2.051
		c-0.515-0.717-1.008-1.403-1.474-2.055C147.84,454.707,147.013,453.574,146.35,452.664z"/>
	<path class="st5" d="M431.965,497.336c-17.497-1.971-57.829-1.162-79.41-1.237c-10.781-0.023-26.222-0.058-41.134-0.092
		c-14.894-0.061-29.223-0.166-37.914,0.421c-3.629,0.308-14.467,0.878-14.02,4.9c-1.348,3.801,9.394,6.587,13.031,7.384
		c8.671,2.055,23.257,3.615,38.378,4.456c15.123,0.852,30.78,1.044,41.692,0.995c21.844,0.074,62.467-1.216,79.79-4.51
		c3.627-0.668,14.409-2.722,13.368-6.624C446.513,499.063,435.615,497.77,431.965,497.336z"/>
	<path class="st5" d="M449.474,482.449c-2.268,6.054-4.134,14.502-4.859,24.07c-0.8,9.579-0.4,20.188,0.518,30.754
		c0.483,5.267,1.061,10.56,1.705,15.701c0.59,5.284,1.636,11.177,3.714,16.76c1.041,2.818,2.41,5.666,4.336,8.403
		c1.912,2.723,4.483,5.365,7.699,7.267c1.598,0.975,3.335,1.65,5.071,2.214c1.741,0.417,3.451,0.792,5.252,0.849
		c3.549,0.127,6.784-0.605,9.47-1.695c2.718-1.076,5.212-2.643,7.492-4.553c2.256-1.893,4.346-4.343,5.918-6.788
		c3.233-4.977,5.031-10.393,6.465-15.317c2.825-9.726,5.282-20.277,7.12-30.757c3.758-20.96,4.47-41.538,3.443-53.8
		c-0.219-2.568-0.697-7.668-1.728-11.929c-1.05-4.263-2.557-7.66-4.503-6.965c-1.988-0.551-3.288,2.906-4.199,7.065
		c-0.929,4.166-1.562,9.055-1.89,11.51c-1.598,11.743-3.675,31.147-7.98,50.856c-2.111,9.849-4.652,19.801-7.426,28.906
		c-1.341,4.475-2.741,8.085-4.396,10.564c-1.546,2.418-3.45,3.783-5.039,4.438c-0.777,0.324-1.48,0.431-2.058,0.421
		c-0.267,0.006-0.605-0.138-0.962-0.152c-0.288-0.147-0.609-0.209-0.907-0.413c-1.193-0.622-3.104-2.881-4.445-6.501
		c-0.683-1.767-1.272-3.764-1.76-5.887c-0.507-2.192-0.839-4.217-1.208-6.851c-0.757-5.078-1.461-10.153-2.112-15.179
		c-1.251-10.024-2.134-19.769-2.157-28.35c-0.089-8.595,0.59-16.025,1.367-21.591c0.12-1.179,0.38-2.915,0.731-4.845
		c0.32-1.963,0.673-4.123,0.999-6.122c0.621-4.016,0.984-7.622-1.059-8.03c-1.406-1.489-4.34,0.941-6.977,4.688
		c-1.288,1.876-2.568,4.025-3.471,6.076C450.634,479.29,449.904,481.176,449.474,482.449z"/>
	<path class="st5" d="M745.586,243.226c6.73,8.161,15.653,18.978,23.494,32.312c7.772,13.211,14.217,29.489,15.406,46.263
		c0.617,8.369-0.156,16.715-2.4,24.607c-2.217,7.909-5.791,15.414-10.198,22.121c-8.784,13.533-20.35,23.835-30.643,31.119
		c-10.297,7.42-24.062,15.019-39.79,22.226c-3.961,1.784-7.996,3.603-12.081,5.442c-2.067,0.906-4.148,1.819-6.236,2.737
		l-2.141,0.933c-0.573,0.252-0.853,0.539-1.555,0.967l-0.862,0.579l-2.654,1.782c-7.263,4.682-15.283,9.094-23.393,13.162
		c-32.569,16.333-65.966,28.64-85.954,35.362c-2.098,0.689-5.232,1.716-8.724,2.861c-3.496,0.964-7.357,2.395-10.88,3.328
		c-1.765,0.519-3.45,1.056-4.973,1.592c-1.51,0.444-2.859,0.855-3.965,1.308c-2.206,0.89-3.443,1.831-2.861,2.772
		c-0.533,1.026,0.737,1.775,3.198,2.309c1.228,0.262,2.757,0.494,4.473,0.632c1.681,0.046,3.553,0.034,5.52-0.023
		c3.977-0.015,8.113-0.721,11.973-1.159c3.787-0.617,7.161-1.288,9.43-1.712c21.589-4.444,56.141-15.607,90.338-31.862
		c8.564-4.082,17.072-8.543,25.414-13.773l3.118-2.036l0.389-0.256l0.187-0.12l-0.092,0.063c-0.207,0.097,0.507-0.215,1.023-0.431
		c2.121-0.903,4.23-1.801,6.327-2.696c4.204-1.813,8.361-3.618,12.441-5.477c16.334-7.341,31.315-15.515,42.815-23.797
		c11.521-8.173,24.869-19.962,35.215-36.133c5.185-8.036,9.51-17.242,12.154-27.174c2.693-9.932,3.47-20.541,2.497-30.657
		c-1.919-20.38-10.035-38.658-19.387-52.988c-9.412-14.342-19.694-25.062-27.638-32.613c-6.604-6.498-27.168-23.915-28.277-19.496
		C721.987,216.591,740.127,236.332,745.586,243.226z"/>
	<path class="st5" d="M561.24,491.099c-2.147,4.467-3.804,10.907-4.272,18.094c-0.517,7.196,0.143,15.039,1.288,22.721
		c0.596,3.833,1.297,7.643,2.048,11.335c0.765,3.741,1.667,7.867,3.475,12.115c1.753,4.192,4.817,8.831,9.405,11.809
		c4.572,3.098,10.031,3.852,14.168,3.471c4.221-0.393,8.48-1.828,12.35-4.347c1.936-1.25,3.812-2.791,5.495-4.621
		c1.581-1.716,2.972-3.618,4.152-5.595c2.371-3.964,3.904-8.173,5.01-12.21c1.102-4.083,1.807-7.886,2.439-11.767
		c2.564-15.498,2.017-30.712,0.145-39.562c-0.381-1.854-1.179-5.534-2.515-8.515c-1.304-2.993-3.063-5.256-4.94-4.531
		c-3.953-0.261-4.361,10.259-4.851,13.719c-0.8,8.34-1.698,21.999-4.72,35.752c-1.492,6.983-3.232,13.733-5.871,17.81
		c-0.647,1.038-1.333,1.928-2.052,2.682c-0.615,0.645-1.311,1.202-2.053,1.673c-1.48,0.964-3.046,1.408-4.17,1.517
		c-1.169,0.046-1.961-0.055-2.719-0.571c-0.803-0.499-1.849-1.621-2.866-3.884c-1.016-2.223-1.848-5.245-2.659-8.728
		c-0.84-3.537-1.64-7.074-2.37-10.557c-1.41-6.945-2.466-13.67-2.751-19.522c-0.319-5.862,0.063-10.836,0.578-14.565
		c0.094-0.786,0.235-1.968,0.508-3.256c0.178-1.339,0.5-2.774,0.727-4.188c0.446-2.792,0.762-5.505-1.084-6.369
		c-1.257-1.549-3.982-0.355-6.505,2.114c-1.248,1.228-2.456,2.723-3.332,4.197C562.324,488.766,561.671,490.161,561.24,491.099z"/>
	<path class="st5" d="M177.274,489.122c1.637,11.67,4.047,30.997,2.684,50.948c-0.293,4.948-0.936,9.926-1.284,15.673
		c-0.294,5.697-0.212,11.889,1.786,18.277c1.941,6.159,5.482,12.003,10.982,16.123c2.706,2.052,5.906,3.541,9.078,4.289
		c3.167,0.778,6.222,0.867,8.953,0.583c5.488-0.56,10.983-2.677,15.86-6.255c4.768-3.479,8.581-8.047,11.671-12.663
		c1.554-2.323,2.958-4.636,4.262-7.003c1.365-2.344,2.654-4.767,3.871-7.246c2.491-4.929,4.679-10.076,6.591-15.262
		c3.782-10.391,6.358-20.974,7.6-30.545c1.259-9.571,1.348-18.08,0.802-24.409c-0.229-2.645-0.811-7.901-2.061-12.215
		c-1.274-4.323-3.042-7.66-4.922-6.808c-2.03-0.398-3.065,3.162-3.764,7.328c-0.724,4.185-1.26,9.028-1.575,11.455
		c-0.763,5.807-1.821,13.466-3.693,21.99c-1.856,8.523-4.686,17.867-8.402,27.013c-3.66,9.089-8.565,18.154-13.518,25.631
		c-2.464,3.589-4.988,6.377-7.505,8.179c-2.364,1.732-4.992,2.648-7.029,2.838c-2.126,0.186-3.753-0.124-5.475-1.381
		c-1.742-1.23-3.623-3.824-4.671-7.095c-1.061-3.096-1.393-7.365-1.224-12.047c0.162-4.665,0.688-10.187,0.818-15.698
		c0.683-21.952-3.481-42.86-7.874-54.66c-0.909-2.473-2.763-7.379-5.053-11.226c-2.239-3.87-4.786-6.673-6.403-5.408
		c-2.08,0.089-2.198,3.781-1.892,8.033C176.246,481.809,176.937,486.678,177.274,489.122z"/>
	<path class="st5" d="M275.705,519.277c-0.205,6.337,0.727,16.079,1.959,26.41c0.607,5.115,1.236,10.414,1.845,15.558
		c0.135,1.191,0.275,2.66,0.531,4.255c0.264,1.609,0.572,3.193,1.219,5.144c1.548,4.776,4.725,8.732,8.72,10.772
		c5.128,2.665,10.893,2.048,15.233,0.029c7.486-3.56,11.124-8.924,14.906-14.177c3.736-5.477,6.904-11.866,9.035-18.436
		c4.384-13.17,4.036-26.797,1.778-34.351c-0.393-1.601-1.443-4.731-2.912-7.152c-1.59-2.41-3.443-4.065-5.246-3.162
		c-1.979,0.184-2.866,2.493-3.269,4.949c-0.52,2.502-0.655,5.236-0.832,6.624c-0.519,6.555-1.608,17.247-5.699,27.346
		c-2,5.035-4.633,9.869-7.571,13.98c-0.737,1.025-1.448,2.043-2.241,2.95c-0.77,0.935-1.525,1.913-2.086,2.453
		c-0.613,0.625-1.233,1.182-1.796,1.597c-0.278,0.196-0.549,0.402-0.785,0.531l-0.335,0.198l0.095-0.046l-0.008,0.018l-0.061,0.005
		c-0.161-0.428-0.407-1.346-0.578-2.278c-0.184-0.953-0.333-2.08-0.542-3.5c-0.786-5.373-1.76-10.775-2.793-15.945
		c-2.079-10.336-4.355-19.743-6.383-25.619c-1.025-2.843-3.838-11.292-7.637-10.109
		C276.225,507.038,275.761,516.225,275.705,519.277z"/>
	<path class="st5" d="M97.029,385.984c-10.949-2.516-28.994-6.9-46.202-15.082c-4.297-2.022-8.574-4.183-12.657-6.553
		c-4.167-2.329-7.92-4.699-10.825-7.149c-2.899-2.427-5.001-5.058-6.023-7.373c-1.146-2.448-1.421-4.938-1.183-6.639
		c0.255-1.747,0.871-3.03,2.366-4.28c1.479-1.245,4.229-2.318,7.457-2.502c1.617-0.104,3.266-0.003,4.942,0.33
		c1.818,0.353,3.721,0.912,5.712,1.647c3.986,1.461,8.291,3.667,13.003,5.873c9.68,4.656,20.158,7.579,29.475,8.87
		c9.371,1.297,17.711,1.022,23.833,0.109c2.563-0.321,7.637-1.308,11.685-2.935c4.074-1.586,7.04-3.795,6.009-5.542
		c0.131-2.086-3.34-2.648-7.328-3.059c-3.996-0.37-8.559-0.542-10.849-0.78c-5.471-0.43-12.676-1.156-20.601-2.989
		c-7.941-1.862-16.446-4.736-24.668-9.091c-4.272-2.189-8.882-4.779-14.208-6.908c-2.66-1.056-5.495-1.982-8.471-2.622
		c-3.114-0.677-6.326-0.938-9.448-0.786c-6.224,0.301-12.595,2.16-17.83,6.32c-2.593,2.057-4.763,4.682-6.276,7.493
		c-1.519,2.827-2.356,5.77-2.711,8.486c-0.713,5.471,0.23,11.226,2.716,16.559c2.552,5.522,6.569,9.995,10.968,13.604
		c4.422,3.603,9.13,6.357,13.707,8.794c4.607,2.518,9.423,4.777,14.265,6.827c19.393,8.314,39.628,11.633,51.705,11.619
		c2.526,0.055,7.569-0.051,11.788-0.832c4.23-0.78,7.591-2.172,6.994-4.134c0.609-1.974-2.662-3.391-6.565-4.559
		C103.897,387.532,99.314,386.566,97.029,385.984z"/>
	<path class="st5" d="M700.374,539.084c2.43,0.375,4.664,0.811,7.02,1.893c2.341,0.95,4.652,2.341,6.805,4.085
		c2.196,1.69,4.19,3.813,5.909,6.183c1.743,2.352,3.195,5.009,4.1,7.832c1.913,5.628,1.765,11.725-1.245,17.127
		c-2.886,5.411-8.551,10.127-15.488,13.745c-14.059,7.27-32.068,10.253-50.712,12.195c-18.753,1.819-38.449,2.361-58.438,2.697
		c-10.05,0.174-20.143,0.352-30.226,0.531c-5.059,0.115-10.193,0.298-15.251,0.51c-5.013,0.219-10.016,0.436-15.004,0.652
		c-19.952,0.829-39.646,1.646-58.649,2.436c-38.004,1.5-73.24,2.722-102.216,3.64c-57.949,1.843-140.978,3.904-221.162,5.11
		c-20.047,0.278-39.916,0.556-59.167,0.829c-4.813,0.061-9.589,0.12-14.319,0.178c-4.797,0.057-9.306,0.181-13.424-0.097
		c-4.14-0.244-7.903-0.922-10.932-2.126c-2.989-1.208-5.227-3.001-6.682-5.207c-3.008-4.524-3.034-11.868-0.57-17.474
		c2.486-5.887,7.308-10.993,12.678-15.228c5.409-4.269,11.379-7.824,16.934-10.89c5.635-3.032,11.179-5.368,16.359-7.387
		c4.373-1.558,10.976-3.796,18.579-5.477c7.59-1.712,16.14-2.857,24.042-3.29c7.905-0.471,15.132-0.216,20.152-0.193
		c4.99,0.184,7.839-0.12,6.862-1.311c1.394-0.732-1.092-2.077-6.057-3.718c-4.983-1.472-12.494-2.969-20.926-3.482
		c-8.423-0.548-17.718-0.115-26.054,1.133c-8.347,1.214-15.688,3.231-20.565,4.67c-11.633,3.687-24.703,9.341-37.869,18.748
		c-6.517,4.84-13.376,11.184-17.667,20.403c-2.165,4.682-3.32,9.838-3.388,15.249c-0.01,5.391,1.209,11.188,4.39,16.433
		c3.22,5.287,8.336,9.258,13.686,11.519c5.352,2.258,10.746,3.158,15.835,3.574c5.132,0.431,10.012,0.356,14.678,0.388
		c4.738,0.012,9.52,0.026,14.341,0.04c19.285-0.038,39.187-0.074,59.266-0.115c80.324-0.431,163.501-2.379,221.548-4.223
		c29.024-0.921,64.319-2.175,102.383-3.802c19.029-0.878,38.751-1.787,58.732-2.711c4.995-0.25,10.006-0.499,15.025-0.748
		c4.976-0.242,9.897-0.453,14.901-0.609c10.046-0.261,20.101-0.525,30.112-0.789c20.122-0.534,40.217-1.308,59.805-3.5
		c9.797-1.138,19.473-2.625,28.948-4.891c9.483-2.221,18.764-5.411,27.33-10.061c8.461-4.685,16.638-11.252,21.343-20.564
		c2.306-4.62,3.663-9.623,3.762-14.657c0.128-5.003-0.837-9.765-2.434-14.034c-6.681-17.001-22.014-26.692-36.027-27.492
		c-9.998-0.571-29.474-0.881-46.032,0.565c-8.262,0.723-15.776,1.937-20.818,3.466c-2.522,0.749-4.414,1.573-5.47,2.292
		c-1.059,0.691-1.288,1.216-0.568,1.55c-0.453,0.613,0.052,0.961,1.251,1.11c1.191,0.118,3.091,0.095,5.577,0.081
		c4.956-0.058,12.221-0.063,20.277,0.2C671.733,536.588,690.983,538.005,700.374,539.084z"/>
	<path class="st5" d="M434.005,542.466c-10.806-2.447-35.813-2.252-49.219-2.02c-13.406,0.229-38.404,0.898-49.118,3.718
		c-2.239,0.589-8.908,2.379-8.283,6.306c-0.49,3.945,6.237,5.506,8.495,6.016c10.804,2.448,35.811,2.252,49.217,2.02
		c13.408-0.232,38.406-0.898,49.119-3.718c2.239-0.588,8.908-2.379,8.283-6.306C442.989,544.534,436.262,542.976,434.005,542.466z"
		/>
	<path class="st5" d="M559.103,539.795c-4.999-2.743-16.74-3.233-23.038-3.371c-6.299-0.135-18.051-0.155-23.164,2.37
		c-1.067,0.528-4.25,2.132-4.073,6.076c-0.347,3.93,2.762,5.672,3.807,6.245c4.999,2.742,16.74,3.233,23.038,3.368
		c6.299,0.138,18.051,0.154,23.163-2.37c1.067-0.524,4.25-2.131,4.074-6.073C563.257,542.111,560.147,540.366,559.103,539.795z"/>
	<path class="st5" d="M216.137,639.293c0.146,4.289,0.152,9.969-1.255,16.054c-1.29,6.094-4.12,12.466-8.307,17.699
		c-4.216,5.124-10.051,9.166-16.066,11.475c-3.012,1.141-6.027,1.882-8.876,2.321c-2.858,0.344-5.531,0.433-7.904,0.238
		c-4.764-0.373-10.293-1.824-15.377-5.33c-5.101-3.452-9.777-8.808-12.486-14.93c-1.385-3.038-2.328-6.217-2.819-9.332
		c-0.478-3.108-0.364-6.206-0.034-8.948c0.772-5.399,3.385-10.064,5.653-12.881c0.954-1.214,2.992-3.443,5.217-4.975
		c2.127-1.641,4.716-2.8,4.418-4.814c0.732-1.859-2.3-3.752-6.74-3.572c-4.444,0.055-9.067,2.662-11.072,4.138
		c-4.954,3.497-10.148,9.843-12.557,18.774c-1.093,4.4-1.618,9.094-1.255,13.954c0.379,4.828,1.527,9.708,3.373,14.335
		c3.633,9.298,10.239,17.44,18.101,22.968c7.875,5.649,17.008,8.119,24.175,8.621c3.629,0.292,7.646,0.169,11.867-0.397
		c4.203-0.656,8.594-1.793,12.936-3.531c8.66-3.492,17.077-9.588,23.068-17.661c5.873-8.064,9.091-17.391,9.936-25.725
		c0.971-8.357-0.246-15.698-1.902-20.85c-0.299-1.088-0.973-2.669-1.688-4.396c-0.859-1.689-1.767-3.537-2.964-5.047
		c-2.247-3.098-4.964-4.9-6.393-3.517c-1.999,0.54-1.876,3.503-1.696,6.727C215.77,633.908,216.088,637.488,216.137,639.293z"/>
	<path class="st5" d="M192.785,645.042c-0.431,2.932-1.393,7.537-4.066,10.38c-1.258,1.354-2.973,2.484-4.743,3.13
		c-1.775,0.648-3.502,0.809-4.799,0.7c-1.337-0.118-2.709-0.463-4.085-1.363c-1.388-0.895-2.793-2.378-3.649-4.076
		c-0.903-1.673-1.265-3.483-1.273-4.952c-0.056-1.337,0.401-2.792,0.701-3.744c0.143-0.416,0.374-1.203,0.76-2.123
		c0.35-0.969,1.306-2.083,1.216-3.709c0.314-1.573-0.924-2.964-3.137-3.222c-2.218-0.301-4.587,0.8-5.597,1.435
		c-2.521,1.512-5.11,4.354-6.406,8.609c-1.247,4.103-1.012,8.928,0.664,13.225c1.621,4.323,4.62,8.11,8.291,10.721
		c3.682,2.672,8.033,3.856,11.353,4.082c3.378,0.276,7.466-0.192,11.432-1.833c3.956-1.62,7.805-4.447,10.53-8.242
		c2.661-3.767,4.003-8.05,4.235-11.791c0.284-3.757-0.454-6.985-1.43-9.183c-0.397-0.924-1.333-2.722-2.69-3.869
		c-1.328-1.182-2.953-1.633-4.26-0.675c-1.528,0.632-2.044,2.04-2.425,3.328C193.067,643.164,192.9,644.417,192.785,645.042z"/>
	<path class="st5" d="M570.844,639.293c0.148,4.289,0.153,9.969-1.255,16.054c-1.288,6.094-4.118,12.466-8.305,17.699
		c-4.217,5.124-10.052,9.166-16.066,11.475c-3.012,1.141-6.029,1.882-8.877,2.321c-2.856,0.344-5.531,0.433-7.903,0.238
		c-4.766-0.373-10.294-1.824-15.379-5.33c-5.099-3.452-9.777-8.808-12.485-14.93c-1.384-3.038-2.329-6.217-2.818-9.332
		c-0.479-3.108-0.365-6.206-0.036-8.948c0.772-5.399,3.385-10.064,5.654-12.881c0.954-1.214,2.993-3.443,5.217-4.975
		c2.126-1.641,4.715-2.8,4.417-4.814c0.732-1.859-2.3-3.752-6.74-3.572c-4.444,0.055-9.068,2.662-11.07,4.138
		c-4.955,3.497-10.149,9.843-12.557,18.774c-1.093,4.4-1.619,9.094-1.255,13.954c0.377,4.828,1.526,9.708,3.371,14.335
		c3.634,9.298,10.24,17.44,18.102,22.968c7.874,5.649,17.008,8.119,24.174,8.621c3.629,0.292,7.645,0.169,11.868-0.397
		c4.203-0.656,8.594-1.793,12.935-3.531c8.659-3.492,17.076-9.588,23.068-17.661c5.873-8.064,9.093-17.391,9.938-25.725
		c0.971-8.357-0.247-15.698-1.902-20.85c-0.3-1.088-0.975-2.669-1.688-4.396c-0.859-1.689-1.767-3.537-2.966-5.047
		c-2.247-3.098-4.962-4.9-6.393-3.517c-1.999,0.54-1.874,3.503-1.695,6.727C570.478,633.908,570.796,637.488,570.844,639.293z"/>
	<path class="st5" d="M547.492,645.042c-0.431,2.932-1.392,7.537-4.064,10.38c-1.26,1.354-2.974,2.484-4.745,3.13
		c-1.775,0.648-3.501,0.809-4.799,0.7c-1.336-0.118-2.708-0.463-4.083-1.363c-1.389-0.895-2.795-2.378-3.649-4.076
		c-0.904-1.673-1.265-3.483-1.275-4.952c-0.056-1.337,0.401-2.792,0.701-3.744c0.143-0.416,0.376-1.203,0.76-2.123
		c0.35-0.969,1.306-2.083,1.217-3.709c0.313-1.573-0.924-2.964-3.137-3.222c-2.219-0.301-4.587,0.8-5.598,1.435
		c-2.519,1.512-5.11,4.354-6.406,8.609c-1.247,4.103-1.012,8.928,0.666,13.225c1.619,4.323,4.619,8.11,8.289,10.721
		c3.682,2.672,8.035,3.856,11.353,4.082c3.38,0.276,7.466-0.192,11.433-1.833c3.956-1.62,7.804-4.447,10.53-8.242
		c2.659-3.767,4.002-8.05,4.234-11.791c0.285-3.757-0.455-6.985-1.429-9.183c-0.397-0.924-1.335-2.722-2.692-3.869
		c-1.327-1.182-2.952-1.633-4.259-0.675c-1.528,0.632-2.045,2.04-2.425,3.328C547.775,643.164,547.607,644.417,547.492,645.042z"/>
	<path class="st5" d="M558.121,269.08c4.371,0.367,11.401-3.761,15.104-6.082c3.702-2.321,10.483-6.848,12.055-10.941
		c0.329-0.856,1.29-3.434-0.957-6.673c-1.937-3.434-4.675-3.692-5.589-3.769c-4.371-0.371-11.4,3.757-15.103,6.078
		c-3.702,2.322-10.483,6.851-12.055,10.945c-0.329,0.856-1.29,3.434,0.957,6.673C554.469,268.745,557.209,269.003,558.121,269.08z"
		/>
	<path class="st5" d="M678.504,293.844c1.579-3.795-0.37-10.872-1.537-14.631c-1.166-3.758-3.566-10.695-7.017-12.933
		c-0.722-0.465-2.904-1.847-6.616-0.521c-3.808,1.01-4.823,3.382-5.155,4.177c-1.579,3.795,0.37,10.872,1.536,14.631
		c1.167,3.758,3.567,10.695,7.018,12.93c0.721,0.468,2.904,1.848,6.615,0.525C677.157,297.011,678.174,294.639,678.504,293.844z"/>
	<path class="st5" d="M606.575,325.936c-2.297,2.573-4.579,6.842-4.975,12.31c-0.442,5.505,1.389,11.524,4.796,16.402
		c3.354,4.889,8.41,8.735,13.449,10.833c5.045,2.183,9.995,2.911,13.972,3.086c3.983,0.138,8.789-0.072,14.153-1.782
		c2.655-0.857,5.427-2.16,7.983-4.056c2.57-1.888,4.793-4.416,6.346-7.063c3.164-5.359,4.106-11.071,4.037-15.933
		c-0.112-4.829-1.099-8.733-2.076-11.482c-0.79-2.383-3.592-8.767-6.311-7.516c-2.969,0.143-2.625,6.992-2.714,9.122
		c-0.031,2.617,0.053,5.956-0.375,9.391c-0.422,3.342-1.515,6.965-3.373,9.622c-1.821,2.657-4.267,4.223-7.542,5.218
		c-3.18,0.964-6.775,1.171-9.563,1.056c-2.796-0.12-6.174-0.628-9.369-1.939c-3.226-1.272-6.115-3.357-8.308-6.094
		c-2.16-2.705-3.419-5.893-3.621-8.661c-0.253-2.838,0.43-5.534,1.143-7.468c0.275-0.835,0.996-2.401,1.748-3.898
		c0.702-1.498,1.544-3.027,0.681-4.246c-0.329-1.44-2.383-1.719-4.689-0.835C609.664,322.834,607.493,324.831,606.575,325.936z"/>
	<path class="st5" d="M609.052,316.853c-2.632,4.073-6.086,10.927-11.246,15.509c-2.546,2.321-5.387,4.013-8.118,4.788
		c-2.756,0.824-5.724,0.918-8.292,0.749c-2.563-0.15-5.845-0.694-9.56-1.55c-3.714-0.846-7.475-1.865-10.685-3.282
		c-3.233-1.397-5.879-3.21-7.668-5.135c-1.88-2.003-3.014-4.189-3.774-5.856c-0.307-0.708-0.826-2.117-1.294-3.537
		c-0.499-1.388-0.938-2.954-2.381-3.333c-1.203-0.844-2.871,0.163-3.989,2.186c-1.142,1.991-1.41,4.714-1.402,6.039
		c-0.01,3.185,1.009,7.41,3.644,11.384c2.661,4.083,6.85,7.456,11.267,9.731c4.44,2.327,9.052,3.707,13.164,4.755
		c4.118,1.047,8.227,1.793,11.804,2.008c3.537,0.221,8.185,0.152,13.154-1.449c5.003-1.575,9.618-4.74,13.091-8.397
		c3.519-3.647,6.049-7.849,7.727-11.599c1.693-3.773,2.634-7.147,3.109-9.703c0.426-2.169,1.29-8.408-1.65-8.882
		C613.354,309.841,610.16,315.195,609.052,316.853z"/>
	<path class="st5" d="M575.377,356.096c-2.795,4.925-5.714,14.017-6.332,23.86c-0.361,4.906-0.158,9.955,0.447,14.634
		c0.27,2.214,0.663,4.894,1.739,7.637c0.285,0.697,0.599,1.393,1,2.102c0.4,0.732,0.971,1.578,1.546,2.258
		c1.167,1.414,2.572,2.51,4.044,3.285c0.426,0.195,0.762,0.347,1.094,0.496c1.537,0.609,3.285,0.936,5.115,0.899
		c0.92-0.027,1.835-0.127,2.793-0.341c0.882-0.19,1.655-0.453,2.458-0.764c1.552-0.636,3.08-1.54,4.385-2.653
		c1.257-1.05,2.313-2.232,3.2-3.406c1.785-2.375,2.906-4.619,3.979-6.564c1.083-2.028,2.18-4.079,3.268-6.113
		c4.298-8.165,8.223-16.166,10.01-21.304c0.747-2.149,2.952-8.558,0.131-9.519c-2.274-1.928-6.645,3.254-8.104,4.998
		c-3.493,4.172-8.346,11.644-13.146,19.526c-1.19,1.977-2.387,3.97-3.57,5.941c-1.205,2.037-2.226,3.81-3.119,4.906
		c-0.446,0.56-0.851,0.969-1.211,1.257c-0.293,0.244-0.558,0.37-0.832,0.487l-0.323,0.095l0.013-0.003v-0.003l-0.003,0.003
		l-0.033-0.054l-0.253-0.517c-0.383-0.929-0.722-2.407-1.003-4.484c-0.595-3.902-0.93-8.133-0.891-12.302
		c-0.015-8.36,1.485-16.341,2.243-21.324c0.19-2.129,1.672-8.403-1.14-9.226C580.483,348.04,576.446,353.907,575.377,356.096z"/>
	<path class="st6" d="M615.032,295.052c-22.503-4.86-22.079,6.534-22.819,11.85c-0.74,5.315,8.149,16.44,17.471,18.219
		c9.322,1.78,23.636-4.527,26.475-12.419C639,304.809,628.264,297.908,615.032,295.052z"/>
</g>
</svg>
