<?xml version="1.0" encoding="utf-8"?>
<!-- Generator: Adobe Illustrator 22.1.0, SVG Export Plug-In . SVG Version: 6.00 Build 0)  -->
<svg version="1.1" id="_x31__1_" xmlns="http://www.w3.org/2000/svg" xmlns:xlink="http://www.w3.org/1999/xlink" x="0px" y="0px"
	 viewBox="0 0 850 815" style="enable-background:new 0 0 850 815;" xml:space="preserve">
<style type="text/css">
	.st0{fill:#FFFFFF;}
	.st1{fill:#F4CD9A;}
	.st2{fill:#A88C82;}
	.st3{fill:#4D261E;}
	.st4{fill:#4C251D;}
	.st5{fill:#4D251D;}
	.st6{fill:#FCB5A2;}
</style>
<g>
	<path class="st0" d="M232.484,383.846c-35.552,54.369-60.643,121.286-56.46,177.749c-31.367,14.638-48.098-25.096-56.462-48.097
		c-8.365-23.003-4.185-39.731-37.64-27.186c-33.46,12.548-16.732,56.461,8.363,92.01c25.091,35.55,73.191,41.823,94.103,37.642
		c0,31.367,31.367,60.643,62.735,79.464c31.367,18.82,56.458,23.002,56.458,52.277c0,29.277,2.093,52.278,31.368,43.915
		c29.275-8.366,37.64-52.278,37.64-69.009c0-16.729,33.458-10.455,50.19-6.274c16.728,4.185,8.365,25.096,8.365,43.916
		c0,18.819,10.455,29.275,31.367,18.819c20.912-10.455,27.183-66.916,31.368-85.736c20.912-6.274,83.641-98.284,98.281-158.927
		c50.188-4.182,83.646-37.641,98.286-79.464c14.636-41.823,0-79.463-16.732-94.1c-16.728-14.64-194.476-79.465-200.747-79.465
		C466.691,281.38,232.484,383.846,232.484,383.846z"/>
	<path class="st0" d="M695.821,151.379c-19.3-26.736-108.75-58.733-124.464-62.619c-23.43-5.794-50.633-5.673-74.32-6.7
		c-27.391-1.185-46.39-0.66-73.82,1.678c-78.591,6.698-166.413,34.058-225.578,87.339c-18.439,16.605-35.402,36.817-42.517,61.023
		C133.623,305.217,166.494,395,253.58,411.428c87.085,16.428,129.14,3.263,202.445-1.856c44.798-3.126,191.693-9.291,249.51-60.389
		C763.357,298.085,736.596,207.873,695.821,151.379z"/>
	<path class="st1" d="M153.306,318.06c69.187,35.502,264.165,10.461,309.44-156.981c60.539,80.067,154.027,195.984,265.034,141.694
		c0,0,30.227-78.124-12.142-129.463c-42.364-51.339-156.645-88.348-180.125-91.364c-17.576-0.587-85.83,1.384-116.994,3.561
		c-29.694,2.072-54.697,3.819-81.734,10.179l-29,13.017C307.785,108.704,142.132,135.783,153.306,318.06z"/>
	<path class="st1" d="M452.47,97.017c-3.938,36.657-53.653,55.035-80.737,56.925c-27.08,1.89-45.839-26.293-41.901-62.95
		c3.939-36.658,29.083-67.907,56.163-69.797C413.077,19.304,456.408,60.36,452.47,97.017z"/>
	<path class="st2" d="M441.493,101.408c-3.47,25.147,21.802,57.313,72.365,37.439c50.56-19.874,56.324-46.099,50.547-49.588
		c-5.773-3.487-37.443-2.055-42.376-13.385c-4.932-11.328-6.487-60.524-31.939-63.669c-25.449-3.146-29.967,6.846-39.815,25.523
		C440.425,56.401,441.493,101.408,441.493,101.408z"/>
	<path class="st3" d="M426.515,76.064c1.431-4.848,2.928-11.515,3.262-19.655c0.157-4.061-0.004-8.496-0.771-13.137
		c-0.779-4.752-2.319-9.697-4.756-14.3c-2.418-4.614-5.711-8.991-9.888-12.61c-4.196-3.587-9.346-6.304-14.685-7.633
		c-5.355-1.358-10.717-1.295-15.312-0.491c-4.637,0.805-8.594,2.286-11.926,3.837c-6.717,3.088-13.638,8.128-19.88,14.375
		c-6.295,6.289-11.779,13.693-16.401,21.404c-9.342,15.468-13.864,32.604-14.205,43.007c-0.131,2.168-0.197,6.516,0.583,10.167
		c0.748,3.664,2.242,6.537,4.41,6.08c2.173,0.553,3.781-2.105,5.151-5.201c1.347-3.115,2.541-6.727,3.221-8.523
		c2.982-8.611,8.253-22.689,16.9-35.479c4.284-6.383,9.185-12.559,14.195-17.363c5.024-4.861,10.206-8.479,14.47-10.411
		c4.241-2.035,9.481-3.329,14.113-2.201c2.35,0.543,4.684,1.645,6.883,3.364c2.168,1.758,4.157,4.105,5.761,6.79
		c1.624,2.694,2.791,5.665,3.562,8.769c0.806,3.221,1.275,6.548,1.535,9.799c0.526,6.511,0.284,12.672,0.327,17.391
		c0.096,3.896-0.345,16.018,4.095,15.874C421.241,91.753,425.341,80.195,426.515,76.064z"/>
	<path class="st3" d="M527.215,72.666c0.157-4.93-0.238-11.453-1.393-18.843c-1.198-7.402-3.029-15.626-6.676-24.238
		c-1.815-4.297-4.69-9.028-8.049-12.718c-3.378-3.798-7.354-6.996-11.645-9.422c-8.591-4.934-18.497-6.21-26.151-5.041
		c-7.742,1.015-16.466,5.027-23.333,10.997c-7.006,5.897-12.66,13.355-17.116,20.935c-4.491,7.603-7.872,15.621-10.022,23.025
		c-2.115,7.423-3.047,14.183-3.087,19.283c-0.027,2.129,0.047,6.38,0.995,9.915c0.882,3.549,2.54,6.275,4.679,5.732
		c2.203,0.436,3.65-2.211,4.909-5.247c1.198-3.057,2.276-6.569,2.856-8.323c2.661-8.374,7.411-22.073,15.749-34.371
		c4.072-6.176,8.782-11.822,13.652-15.742c4.86-4.017,9.658-5.934,13.538-6.473c3.892-0.553,8.844-0.052,13.746,2.59
		c4.928,2.684,9.308,7.044,12.099,12.842c3.036,6.173,5.358,13.423,7.205,19.886c1.781,6.59,3.347,12.389,4.536,16.792
		c1.206,3.659,3.562,14.77,7.8,13.832C525.972,89.082,527.265,76.79,527.215,72.666z"/>
	<path class="st4" d="M703.873,361.289c27.38-24.965,42.994-60.384,43.945-96.306c0.296-4.491-0.042-8.98-0.181-13.477
		c-0.399-4.46-0.798-8.989-1.561-13.382c-1.351-8.858-4.031-17.334-6.223-26.009c-5.919-16.968-14.022-33.342-24.8-48.272
		c-11.073-14.641-23.54-27.763-37.493-38.729c-3.354-2.907-7.139-5.216-10.682-7.837c-3.588-2.559-7.155-5.135-11.001-7.253
		l-11.315-6.674l-11.754-5.78c-1.969-0.941-3.907-1.947-5.899-2.829l-6.08-2.419c-4.069-1.568-8.076-3.302-12.203-4.721
		c-8.352-2.539-16.604-5.463-25.233-7.168c-4.299-0.887-8.518-2.184-12.906-2.723c-4.36-0.662-8.732-1.324-13.116-1.99
		c-4.382-0.683-8.858-0.767-13.304-1.171l-6.694-0.486c-2.234-0.147-4.491-0.028-6.745-0.052c-3.654,0.06-13.618,3.324-12.646,7.351
		c-0.607,4.007,8.92,7.517,12.232,7.663c2.108,0.1,4.215,0.052,6.306,0.268l6.257,0.684c4.153,0.529,8.325,0.721,12.406,1.505
		c4.084,0.752,8.157,1.5,12.214,2.246c4.08,0.61,7.999,1.969,11.987,2.902c8.014,1.796,15.646,4.76,23.372,7.285
		c3.811,1.41,7.505,3.121,11.258,4.653l5.603,2.355c1.835,0.857,3.612,1.83,5.424,2.738l10.802,5.539l10.348,6.327
		c3.535,1.992,6.774,4.417,10.041,6.808c3.217,2.448,6.698,4.586,9.73,7.282c12.69,10.154,23.894,22.123,33.888,35.275
		c9.676,13.43,16.905,27.98,22.355,43.013c1.985,7.774,4.545,15.426,5.838,23.25c0.742,3.895,1.122,7.777,1.551,11.677
		c0.161,3.913,0.56,7.824,0.357,11.741c-0.238,31.31-12.94,62.763-36.411,85.806c-0.576,0.587-1.259,1.591-1.954,2.787
		c-0.748,1.134-1.489,2.479-2.076,3.853c-1.16,2.74-1.725,5.622-0.196,6.964c0.917,1.847,3.797,1.86,6.894,1.049
		c1.546-0.404,3.136-1.006,4.525-1.653C702.074,362.674,703.187,361.904,703.873,361.289z"/>
	<path class="st4" d="M309.386,98.371c-41.977,11.223-79.342,32.469-110.011,61.214c-15.274,14.437-28.846,30.963-39.367,49.751
		c-10.545,18.701-18.124,39.742-20.525,62.064c-2.399,22.246-0.179,44.688,7.563,65.42c7.673,20.706,21.073,39.031,37.85,52.782
		c16.766,13.853,36.615,23.289,57.357,28.765c20.781,5.49,42.549,7.145,64.29,5.302c4.422-0.334,15.995-5.231,14.364-9.097
		c0.257-4.063-11.45-5.973-15.427-5.886c-20.178,1.099-40.111-0.999-58.77-6.399c-18.639-5.384-36.031-14.167-50.351-26.396
		c-14.349-12.17-25.465-27.802-31.898-45.52c-6.475-17.668-8.406-37.401-6.302-56.877c2.099-19.54,8.69-38.173,18.067-55.112
		c9.342-16.999,21.58-32.311,35.521-45.901c27.974-27.087,62.704-47.974,101.641-59.633c3.799-1.266,14.19-7.015,12.563-10.758
		C326.164,97.913,313.632,97.202,309.386,98.371z"/>
	<path class="st5" d="M481.089,197.15c-15.61-0.475-20.953,11.493-17.91,15.185c3.044,3.692,12.117,5.852,19.295,4.795
		c7.174-1.055,18.831-1.863,18.29-9.633C500.227,199.726,492.267,197.49,481.089,197.15z"/>
	<path class="st6" d="M692.024,243.562c1.114,26.606-19.548,49.076-46.156,50.191c-26.604,1.115-49.077-19.549-50.19-46.155
		c-1.114-26.606,19.548-49.077,46.157-50.193C668.437,196.29,690.911,216.956,692.024,243.562z"/>
	<path class="st6" d="M348.871,257.937c1.118,26.606-19.548,49.076-46.156,50.191c-26.604,1.115-49.074-19.549-50.19-46.155
		c-1.114-26.606,19.552-49.077,46.156-50.193C325.285,210.665,347.759,231.331,348.871,257.937z"/>
	<path class="st3" d="M325.288,226.856c-2.41-1.268-6.69-2.503-11.23-3.259c-4.541-0.777-9.32-1.033-12.648-1.064
		c-3.329-0.014-8.107,0.181-12.66,0.897c-4.548,0.694-8.847,1.874-11.273,3.11c-1.028,0.5-3.983,2.132-3.201,3.985
		c0.276,1.996,3.497,2.046,4.564,2.109c2.564,0.102,6.644-0.293,10.87-0.558c4.222-0.285,8.586-0.402,11.642-0.391
		c3.051,0.029,7.415,0.204,11.634,0.544c4.218,0.321,8.295,0.771,10.862,0.703c1.067-0.049,4.288-0.058,4.588-2.049
		C329.246,229.041,326.31,227.37,325.288,226.856z"/>
	<path class="st3" d="M321.941,252.887c-4.982-0.984-16.358,0.083-22.408,0.947c-6.065,0.777-17.315,2.775-21.856,5.051
		c-0.952,0.463-3.766,1.89-3.121,3.794c0.154,2.006,3.262,2.25,4.299,2.337c4.974,0.36,15.971-1.352,21.907-2.114
		c5.918-0.845,16.976-2.119,21.674-3.789c0.979-0.362,3.912-1.423,3.524-3.396C326.076,253.709,322.982,253.081,321.941,252.887z"/>
	<path class="st3" d="M327.542,275.613c-5.298,0.052-16.82,3.046-22.985,4.713c-6.16,1.668-17.626,4.895-22.22,7.522
		c-0.964,0.549-3.82,2.201-3.045,4.057c0.265,1.993,3.567,1.981,4.676,1.969c5.293-0.049,16.815-3.046,22.98-4.713
		c6.165-1.668,17.626-4.895,22.225-7.52c0.959-0.549,3.819-2.201,3.04-4.057C331.948,275.589,328.648,275.603,327.542,275.613z"/>
	<path class="st3" d="M621.759,226.307c2.565-0.146,6.587-0.935,10.767-1.607c4.173-0.693,8.51-1.232,11.546-1.516
		c3.04-0.268,7.404-0.515,11.634-0.586c4.229-0.09,8.329-0.037,10.878-0.351c1.059-0.154,4.265-0.472,4.368-2.485
		c0.63-1.91-2.457-3.289-3.524-3.702c-2.518-1.027-6.897-1.845-11.492-2.158c-4.595-0.334-9.373-0.126-12.69,0.167
		c-3.313,0.307-8.053,0.964-12.514,2.118c-4.46,1.133-8.62,2.723-10.916,4.186c-0.979,0.596-3.762,2.509-2.802,4.276
		C617.479,226.611,620.691,226.349,621.759,226.307z"/>
	<path class="st3" d="M624.338,246.215c4.821,1.27,15.944,1.618,21.917,1.963c5.972,0.263,17.077,1.05,22.001,0.274
		c1.029-0.174,4.107-0.675,4.093-2.686c0.483-1.952-2.442-3.139-3.432-3.521c-4.714-1.889-16.09-2.938-22.198-3.206
		c-6.103-0.355-17.526-0.468-22.409,0.933c-1.024,0.28-4.053,1.163-3.77,3.153C620.323,245.125,623.332,245.936,624.338,246.215z"/>
	<path class="st3" d="M619.38,266.18c4.801,2.232,16.493,4.487,22.776,5.635c6.28,1.146,18.014,3.167,23.296,2.775
		c1.105-0.082,4.395-0.344,4.491-2.355c0.618-1.914-2.364-3.32-3.37-3.788c-4.801-2.233-16.493-4.489-22.772-5.635
		c-6.28-1.147-18.018-3.169-23.296-2.775c-1.105,0.082-4.395,0.343-4.491,2.352C615.391,264.306,618.377,265.712,619.38,266.18z"/>
	<path class="st5" d="M393.769,140.659c-24.14-0.16-29.156,31.477-27.92,59.91c1.241,28.434,14.08,53.632,32.369,53.628
		c20.7-0.006,30.212-23.161,28.431-60.109C424.642,152.374,412.984,140.785,393.769,140.659z"/>
	<path class="st5" d="M551.009,131.159c-24.14-0.16-29.156,31.476-27.92,59.91c1.236,28.432,14.079,53.632,32.369,53.628
		c20.7-0.006,30.212-23.162,28.431-60.11C581.881,142.876,570.225,131.287,551.009,131.159z"/>
	<path class="st0" d="M551.985,154.73c-3.524,14.916-11.519,25.627-19.089,30.888c-1.151,0.801-1.106,2.507,0.119,3.192
		c8.802,4.914,16.816,14.064,21.453,28.615c0.591,1.85,3.273,1.717,3.673-0.183c2.933-13.907,7.512-23.221,17.568-29.496
		c1.129-0.703,1.268-2.262,0.262-3.128c-12.294-10.569-16.118-18.868-20.328-30.168C554.974,152.659,552.422,152.87,551.985,154.73z
		"/>
	<path class="st0" d="M394.164,161.591c-3.523,14.916-11.519,25.627-19.087,30.888c-1.152,0.801-1.105,2.507,0.119,3.192
		c8.801,4.914,16.815,14.064,21.456,28.614c0.587,1.848,3.275,1.718,3.674-0.182c2.928-13.908,7.512-23.221,17.568-29.496
		c1.125-0.704,1.263-2.263,0.257-3.128c-12.29-10.569-16.113-18.868-20.328-30.168C397.155,159.52,394.607,159.732,394.164,161.591z
		"/>
	<path class="st6" d="M502.293,262.555c-0.611,10.966-2.438,54.829-19.495,59.702c-17.058,4.875-28.635-8.529-29.15-25.515
		c-0.249-8.276-1.922-36.015-1.922-36.015L502.293,262.555z"/>
	<path class="st3" d="M446.397,262.689c3.766,1.639,10.345,3.347,17.308,4.351c6.959,1.04,14.263,1.315,19.353,1.268
		c5.086-0.068,12.387-0.505,19.319-1.702c6.94-1.159,13.477-3.018,17.205-4.745c1.577-0.699,6.129-2.998,5.085-4.95
		c-0.261-2.202-5.155-1.733-6.79-1.648c-3.919,0.273-10.229,1.263-16.793,1.941c-6.564,0.71-13.376,1.051-18.136,1.119
		c-4.765,0.04-11.585-0.15-18.16-0.712c-6.582-0.529-12.912-1.374-16.839-1.556c-1.635-0.047-6.541-0.402-6.748,1.805
		C440.203,259.836,444.809,262.027,446.397,262.689z"/>
	<path class="st3" d="M498.289,272.955c-1.263,3.402-2.341,8.049-3.324,13.146c-0.993,5.09-2,10.59-3.777,15.691
		c-1.72,5.042-4.445,9.748-7.749,12.531c-3.405,2.9-7.535,4.337-10.587,4.379c-3.087,0.149-6.414-1.059-8.983-4.314
		c-2.571-3.259-4.102-8.553-4.978-14.05c-1.601-11.368-3.159-22.921-4.652-29.583c-0.614-2.816-2.46-11.208-4.548-10.263
		c-2.242-0.47-2.234,8.123-2.227,11.004c0.065,6.973,0.771,18.113,2.034,30.221c0.814,6.112,2.23,12.925,6.51,18.694
		c2.162,2.84,5.005,5.132,8.103,6.523c3.114,1.42,6.307,1.833,9.032,1.75c5.497-0.136,11.677-2.439,16.782-6.884
		c5.231-4.612,8.383-10.902,10.287-17.06c1.884-6.162,2.617-12.202,3.193-17.349c0.553-5.159,1.021-9.523,1.489-12.764
		c0.2-1.327,0.596-3.944,0.956-6.332c0.316-2.303,0.527-4.336-0.606-4.535c-0.787-0.826-2.438,0.598-3.873,2.777
		C499.924,268.7,498.796,271.535,498.289,272.955z"/>
	<path class="st3" d="M365.043,452.36c1.532-5.786,2.426-12.552,2.875-19.941c0.168-3.495,0.349-7.162,0.533-10.977
		c0.257-3.654,0.625-7.386,1.217-11.095c1.174-7.364,3.454-14.807,7.514-19.704c1.981-2.426,4.507-4.279,7.236-5.387
		c2.668-1.071,5.647-1.388,8.828-0.915c6.387,0.888,13.128,5.237,17.458,10.788c4.268,5.299,6.41,12.734,6.994,20.236
		c1.066,15.169-3.647,30.747-7.7,42.988c-4.196,12.188-10.491,26.673-20.308,39.891c-4.837,6.613-10.698,12.854-17.158,18.184
		c-6.56,5.253-13.949,9.742-21.784,12.845c-7.791,3.232-15.99,4.96-23.901,5.452c-7.868,0.321-15.657-0.7-22.243-2.992
		c-13.442-4.761-23.162-14.28-28.597-22.18c-2.471-3.246-6.295-10.415-8.194-17.155c-2.066-6.646-2.518-12.818-4.887-12.054
		c-1.88-1.514-4.724,4.8-4.624,13.387c-0.081,8.559,3.488,18.327,5.988,22.727c5.481,10.761,16.613,23.836,34.223,31.19
		c8.856,3.606,18.69,5.281,28.884,5.229c10.144-0.245,20.509-2.194,30.22-5.944c9.769-3.63,18.896-8.941,27.057-15.297
		c8.107-6.483,15.063-13.813,20.843-21.558c11.645-15.465,18.685-31.786,23.338-45.259c2.299-6.786,4.568-14.258,6.383-22.76
		c1.738-8.483,3.002-17.985,2.161-28.285c-0.43-5.132-1.427-10.448-3.228-15.672c-1.7-5.097-4.59-10.685-8.28-15.145
		c-7.384-8.96-17.706-15.737-30.093-17.391c-6.137-0.795-12.793-0.017-18.654,2.584c-5.796,2.545-10.675,6.581-14.241,11.283
		c-7.078,9.539-9.07,19.815-10.126,28.666c-0.472,4.481-0.636,8.752-0.656,12.806c-0.007,4.052,0.173,7.944,0.262,11.218
		c0.134,6.735-0.058,12.708-0.684,17.639c-0.445,4.159-1.969,12.172-5.17,17.864c-2.941,5.834-7.93,9.322-6.026,10.926
		c-0.043,1.258,1.465,1.501,4.187,0.897c2.572-0.765,6.333-2.658,9.412-5.92c3.163-3.171,5.737-7.332,7.504-11.225
		C363.419,458.393,364.375,454.772,365.043,452.36z"/>
	<path class="st3" d="M367.949,711.758c0.034,13.141-2.523,31.055-12.015,48.186c-4.736,8.485-11.131,16.906-18.896,21.004
		c-7.162,4.153-17.553,2.973-20.83-2.344c-2.062-2.562-2.891-6.49-2.968-11.73c-0.061-5.201,0.638-11.181,0.894-17.781
		c0.28-6.458-0.011-14.195-2.859-21.599c-2.706-7.354-7.592-13.584-12.809-18.097c-10.579-9.078-21.649-13.609-31.114-18.058
		c-9.631-4.358-17.389-8.145-23.979-12.919c-13.408-8.959-27.295-23.797-37.844-42.753c-10.609-18.919-17.483-41.926-19.526-64.899
		c-2.038-22.962,0.803-46.196,4.998-66.593c4.107-20.466,9.588-38.232,13.672-51.593c1.759-5.591,5.256-16.703,8.218-26.127
		c2.832-9.486,4.871-17.418,2.253-17.009c-1.324-2.231-6.198,4.449-11.085,13.25c-4.924,8.777-9.852,19.649-12.152,25.196
		c-5.574,13.225-12.337,31.208-17.534,52.547c-5.255,21.247-9.062,46.068-7.255,71.841c1.835,25.641,9.197,51.335,21.092,72.906
		c11.815,21.597,27.929,38.981,43.842,49.64c7.715,5.606,17.642,10.42,27.064,14.629c9.439,4.287,19.228,8.671,26.282,14.768
		c3.528,3.029,6.069,6.418,7.532,10.272c1.508,3.76,1.938,8.354,1.754,13.987c-0.123,5.541-0.822,11.746-0.675,18.795
		c0.134,3.542,0.387,7.299,1.508,11.304c1.017,3.932,2.863,8.101,5.634,11.532c2.599,3.551,6.372,6.516,10.222,8.435
		c3.903,1.914,7.996,2.934,12.003,3.302c4.019,0.373,7.969,0.044,11.78-0.825c3.83-0.866,7.515-2.39,10.655-4.176
		c6.402-3.658,11.414-8.527,15.422-13.525c4.068-5.008,7.016-10.243,9.758-15.398c10.529-21.01,12.102-41.994,10.536-56.899
		c-0.449-6.283-2.899-18.722-7.444-28.204c-4.402-9.571-10.079-15.937-11.161-13.579c-2.652-0.163,0.085,7.42,2.072,16.678
		C367.151,695.176,368.125,706.217,367.949,711.758z"/>
	<path class="st3" d="M484.118,683.214c0.111,5.843,0.176,13.542-0.549,22.186c-0.706,8.64-2.388,18.2-5.101,27.606
		c-2.657,9.342-6.733,18.742-11.067,26.436c-2.168,3.692-4.46,6.533-6.743,8.406c-2.138,1.771-4.495,2.719-6.434,3.006
		c-2.014,0.276-3.463,0.058-4.839-0.894c-1.348-0.855-2.922-2.931-3.974-6.343c-0.526-1.672-0.914-3.585-1.147-5.614
		c-0.238-2.08-0.296-4.019-0.262-6.58c0.031-4.957,0.388-10.62-0.268-16.916c-0.603-6.222-2.699-13.452-7.136-19.061
		c-4.318-5.565-9.888-9.091-15.181-11.242c-5.332-2.158-10.583-3.058-15.274-3.18c-4.621-0.136-8.613,0.403-11.906,1.06
		c-2.772,0.533-8.057,1.966-12.114,3.945c-4.077,1.96-7.093,4.268-6.003,6.24c-0.143,2.269,3.634,2.965,7.953,3.163
		c4.333,0.178,9.12,0.076,11.45,0.19c5.63,0.215,12.643,0.759,18.88,4.115c3.107,1.624,5.865,3.874,7.585,6.496
		c1.701,2.539,2.603,5.742,2.875,9.985c0.288,4.223-0.107,9.218-0.318,14.753c-0.108,2.688-0.119,5.979,0.188,9.028
		c0.291,3.098,0.836,6.215,1.758,9.331c1.774,6.127,5.424,12.8,11.642,17.042c2.994,2.078,6.472,3.487,9.822,4.088
		c3.343,0.623,6.483,0.518,9.293,0.096c5.6-0.844,11.277-3.362,16.098-7.381c4.698-3.911,8.329-8.865,11.15-13.824
		c5.35-9.797,9.557-20.377,12.272-31.438c2.69-10.982,3.949-22.054,3.83-31.905c-0.099-9.855-1.377-18.453-3.02-24.717
		c-0.687-2.62-2.2-7.798-4.299-11.875c-2.126-4.082-4.621-7.036-6.506-5.788c-2.265,0.033-2.775,3.779-2.833,8.021
		C483.856,675.918,484.068,680.773,484.118,683.214z"/>
	<path class="st3" d="M577.183,559.454c-3.703,7.472-8.851,20.035-15,32.66c-6.076,12.656-13.254,25.279-18.616,33.877
		c-5.42,8.561-13.677,20.506-22.443,31.472c-8.706,11.016-17.795,21.106-22.92,27.687c-2.068,2.785-8.736,10.819-5.32,13.657
		c2.043,3.926,11.419-1.561,14.475-3.601c7.381-4.699,18.255-14.315,28.242-25.525c10.054-11.157,19.042-23.911,24.842-33.086
		c5.751-9.205,13.343-22.839,19.031-36.738c5.766-13.86,9.707-27.832,10.74-36.521c0.515-3.637,1.389-14.467-3.036-14.604
		C583.14,546.888,578.796,556.379,577.183,559.454z"/>
	<path class="st3" d="M593.409,543.904c10.079,2.349,23.887,0.512,36.956-5.186c13.166-5.503,26.693-14.579,37.912-26.336
		c11.284-11.692,20.274-25.928,25.951-40.305c5.731-14.354,8.26-28.534,9.078-40.165c0.802-11.638,0.295-25.95-3.063-40.891
		c-1.608-7.339-4.057-15.764-8.943-23.554c-2.484-3.913-5.681-7.807-9.996-10.997c-4.368-3.169-9.841-5.273-15.464-5.654
		c-5.65-0.312-11.159,1.075-15.604,3.39c-4.475,2.316-8.199,5.331-11.219,8.685c-3.036,3.358-5.473,7.028-7.354,10.928
		c-1.774,3.727-2.998,7.397-3.977,10.884c-1.915,6.989-2.848,13.202-3.896,18.514c-1.025,5.333-2.065,9.802-3.331,13.053
		c-0.526,1.377-1.385,3.324-2.633,5.116c-1.228,1.812-2.794,3.303-4.787,4.439c-1.931,1.114-3.903,1.661-5.489,1.975
		c-1.57,0.34-2.898,0.539-3.082,1.712c-0.941,0.656-0.614,2.146,1.424,3.658c2,1.507,5.769,2.493,9.738,1.901
		c3.919-0.465,8.199-2.654,11.06-5.323c2.924-2.63,4.785-5.477,5.903-7.335c5.446-9.038,7.504-21.328,11.373-32.659
		c0.983-2.798,2.104-5.524,3.455-7.999c1.27-2.285,2.917-4.5,4.809-6.41c3.808-3.894,8.648-6.063,12.252-5.632
		c1.87,0.248,3.685,0.943,5.397,2.231c1.72,1.357,3.409,3.351,4.879,5.773c1.481,2.415,2.702,5.258,3.716,8.193
		c1.028,2.914,1.731,6.021,2.464,9.317c2.776,12.931,3.17,25.286,2.487,35.29c-0.703,10.001-2.849,22.133-7.585,34.333
		c-4.668,12.175-12.079,24.359-21.38,34.574c-9.254,10.27-20.359,18.401-31.184,23.796c-10.789,5.53-20.746,7.615-27.955,7.221
		c-3.017-0.048-9.1-1.033-13.914-3.251c-4.886-1.975-8.553-5.14-9.934-3.219c-1.147,0.231-1.377,1.616-0.663,3.751
		c0.703,2.122,2.491,4.87,5.078,7.329C580.996,540.19,589.229,543.136,593.409,543.904z"/>
	<path class="st3" d="M154.76,607.623c-7.193-2.082-16.47-5.834-26.117-11.543c-9.649-5.691-19.579-13.579-27.92-23.156
		c-8.371-9.53-15.074-20.697-19.165-31.793c-0.515-1.385-1.024-2.76-1.531-4.118c-0.441-1.377-0.733-2.777-1.105-4.137
		c-0.71-2.728-1.501-5.369-1.762-8.015c-0.33-2.583-0.928-5.237-1.04-7.496c-0.146-2.297-0.177-4.514-0.027-6.559
		c0.238-4.075,1.071-8.567,2.829-12.169c1.773-3.638,4.138-6.04,7.408-7.018c3.033-0.952,7.09-0.345,11.428,2.231
		c4.279,2.543,8.291,6.742,11.096,11.314c5.654,9.659,8.418,23.42,13.811,35.532c1.362,3.042,2.852,6.008,4.594,8.763
		c1.739,2.834,3.903,5.608,6.103,7.755c4.418,4.422,9.17,7.42,13.619,9.261c3.577,1.564,11.864,3.921,18.834,1.631
		c1.704-0.408,3.221-1.298,4.507-1.991c1.216-0.919,2.272-1.683,2.913-2.577c1.301-1.774,1.508-3.029,0.502-3.661
		c-0.784-2.259-4.913-0.556-9.243-1.282c-4.33-0.317-9.147-2.762-11.385-4.261c-2.706-1.761-5.665-4.309-8.233-7.554
		c-1.331-1.651-2.372-3.318-3.416-5.411c-1.105-2.136-2.077-4.529-3.009-7.091c-1.877-5.115-3.394-11.093-5.232-17.603
		c-1.922-6.589-3.931-13.528-7.957-20.983c-4.198-7.305-9.857-13.692-17.299-18.415c-3.739-2.323-7.976-4.202-12.667-5.145
		c-4.671-0.958-9.818-0.843-14.539,0.529c-4.721,1.309-8.916,3.863-12.279,7.007c-3.354,3.147-5.742,6.77-7.458,10.287
		c-3.416,7.098-4.422,13.774-4.821,19.618c-0.203,2.936-0.169,5.997,0.046,9.183c0.188,3.235,0.851,6.199,1.305,9.485
		c0.381,3.265,1.324,6.504,2.223,9.841c0.464,1.663,0.86,3.374,1.416,5.048c0.621,1.648,1.255,3.314,1.888,4.993
		c5.12,13.435,13.396,26.606,23.599,37.513c10.168,10.959,22.189,19.635,33.85,25.428c11.661,5.818,22.843,8.974,31.39,9.857
		c3.513,0.666,10.702,0.911,16.632,0.301c5.988-1.031,10.578-2.565,9.615-4.735c0.703-2.16-3.858-3.751-9.109-4.855
		C163.788,610.103,157.719,608.783,154.76,607.623z"/>
</g>
</svg>
