<?xml version="1.0" encoding="utf-8"?>
<!-- Generator: Adobe Illustrator 22.1.0, SVG Export Plug-In . SVG Version: 6.00 Build 0)  -->
<svg version="1.1" id="_x31__1_" xmlns="http://www.w3.org/2000/svg" xmlns:xlink="http://www.w3.org/1999/xlink" x="0px" y="0px"
	 viewBox="0 0 850 815" style="enable-background:new 0 0 850 815;" xml:space="preserve">
<style type="text/css">
	.st0{fill:#E5B267;}
	.st1{fill:#FFFFFF;}
	.st2{fill:#4D261E;}
	.st3{fill:#4D251D;}
</style>
<g>
	<path class="st0" d="M654.614,625.168l-233.827,2.612c0,0-57.478,18.288-124.099,18.288c-66.621,0-99.278-28.739-99.278-28.739
		s-32.657,1.307-54.864-3.918c-22.208-5.225-45.72-20.9-45.72-20.9s-33.965-5.226-61.397-27.432
		c-27.432-22.207-14.37-40.496,6.532-41.802c20.9-1.307,66.62-1.307,66.62-1.307s-47.027-118.872,33.964-169.818
		c-1.306-6.531-26.127-20.9-33.964-20.9c-7.837,0-49.639-47.027-57.477-88.828c-7.837-41.802-3.918-77.072,20.901-80.99
		c24.82-3.92,22.207,22.207,27.432,45.719c5.225,23.513,50.945,83.603,82.297,95.359c7.837,9.144,10.449,16.982,7.837-5.225
		s28.739-100.584,70.539-118.873c41.802-18.288,73.153-6.531,48.334,18.289c-24.82,24.818-60.09,65.314-69.234,83.602
		c-9.144,18.288,0,19.595,0,19.595s78.378-9.144,122.792,26.126c50.944-7.837,96.665,0,96.665,0s53.558-36.577,78.378-27.433
		c24.819,9.144,11.757,30.044,6.531,39.189c-5.224,9.144-18.289,30.045-18.289,30.045l82.298,54.864c0,0,36.576-20.9,62.702-13.063
		c26.125,7.838,9.143,40.495,3.918,49.639c-5.223,9.144,0,16.983,0,16.983s26.127,31.351,30.046,60.089
		c3.918,28.739,9.144,32.658,9.144,32.658s67.928-3.918,78.377,13.063c10.451,16.982-6.531,44.414-24.818,44.414
		c-18.289,0-60.091-7.837-79.685-6.53C667.676,621.248,654.614,625.168,654.614,625.168z"/>
	<path class="st1" d="M507.71,498.28c15.85,13.87,45.32,34.861,78.438,43.577c33.119,8.715,20.918,50.549,0,61.008
		c-20.916,10.459-43.577,26.145-43.577,26.145l-122.016,1.744c0,0,15.688-33.119-13.944-48.807
		c-29.634-15.687-90.641-17.431-95.87-15.687c-5.229,1.742,31.376-36.605,36.605-73.209c5.23-36.605,40.091-95.87,73.21-67.981
		C453.675,452.959,493.765,486.077,507.71,498.28z"/>
	<path class="st2" d="M186.438,567.563c-2.655,5.608-4.676,12.725-4.868,20.912c-0.187,8.16,2.032,17.542,6.678,25.692
		c2.25,4.179,5.114,8.144,8.42,11.793c3.292,3.663,6.998,7.073,11.079,10.039c8.117,6.013,17.489,10.607,27.447,13.579
		c19.937,5.93,40.619,5.534,58.853,4.375c18.261-1.298,34.763-2.758,48.536-3.863c6.859-0.571,14.46-1.205,22.594-1.883
		c4.082-0.347,8.297-0.705,12.621-1.073c4.396-0.398,9.049-0.886,13.902-1.761c4.847-0.889,9.923-2.172,14.952-4.307
		c2.475-1.036,5.043-2.32,7.478-3.917c2.415-1.571,4.699-3.357,6.803-5.382c4.147-4.087,7.775-9.065,9.794-15.112
		c1.009-3,1.609-6.229,1.664-9.507c0.081-3.311-0.544-6.483-1.423-9.591c-2.031-6.123-5.734-11.264-9.89-15.059
		c-4.155-3.87-8.69-6.773-13.282-9.053c-4.539-2.265-9.39-4.068-13.806-5.266c-4.461-1.344-8.887-2.331-13.187-3.161
		c-17.254-3.232-32.457-3.083-43.668-2.568c-9.475,0.31-36.948,3.28-34.439,6.857c-2.075,3.761,25.407,3.928,34.413,4.65
		c10.831,0.699,25.233,1.54,40.724,5.17c3.859,0.924,7.803,1.966,11.722,3.307c4.033,1.251,7.593,2.753,11.186,4.659
		c7.069,3.709,13.2,9.293,14.918,15.222c0.812,3.013,0.793,6.009-0.32,9.04c-1.035,3.042-3.186,6.004-5.794,8.517
		c-1.33,1.246-2.8,2.364-4.334,3.341c-1.507,0.975-3.151,1.783-4.971,2.528c-3.557,1.478-7.452,2.464-11.483,3.174
		c-8.028,1.373-16.826,1.782-24.967,2.512c-8.136,0.668-15.737,1.292-22.596,1.854c-13.681,1.13-30.323,2.505-48.273,3.99
		c-17.644,1.273-36.414,1.616-53.258-3.089c-16.707-4.529-31.477-14.813-38.917-27.21c-1.88-3.047-3.413-6.313-4.339-9.402
		c-1.062-3.051-1.447-6.234-1.688-9.271c-0.273-6.124,0.784-11.767,2.352-16.334c0.585-1.949,1.828-4.708,3.469-7.665
		c1.762-2.85,3.953-5.904,6.458-8.267c4.847-4.892,10.657-7.132,9.14-8.77c0.338-1.062-1.07-1.457-3.768-1.319
		c-1.372-0.008-2.894,0.539-4.705,1.017c-0.922,0.217-1.76,0.703-2.703,1.104c-0.904,0.46-1.942,0.827-2.821,1.454
		c-3.803,2.181-7.277,5.532-10.044,8.865C189.454,561.803,187.476,565.189,186.438,567.563z"/>
	<path class="st2" d="M676.691,487.818c5.256,8.487,12.219,19.759,17.516,33.312c1.34,3.38,2.484,6.92,3.559,10.551
		c0.931,3.605,1.809,7.315,2.306,11.153c1.061,7.647,1.25,15.697,0.012,23.511c-2.19,15.725-10.181,30.11-22.242,37.842
		c-5.888,4.081-12.614,6.686-19.214,8.514c-6.622,1.818-13.18,2.805-19.196,3.432c-6.025,0.629-12.827,1.004-20.246,1.225
		c-7.515,0.194-15.523,0.402-23.833,0.615c-16.656,0.492-34.528,1.02-52.087,1.538c-35.113,1.167-68.968,2.611-89.319,4.307
		c-8.506,0.708-33.843,2.852-31.646,6.479c-2.029,3.723,23.381,4.705,31.91,5.024c20.408,0.763,54.291,0.656,89.422,0.215
		c17.564-0.286,35.442-0.577,52.103-0.848c8.347-0.175,16.391-0.344,23.937-0.502c7.636-0.205,14.897-0.589,21.507-1.279
		c6.604-0.693,14.02-1.788,21.928-3.976c7.868-2.205,16.349-5.475,24.17-10.94c3.977-2.6,7.57-5.934,11.019-9.488
		c3.242-3.719,6.32-7.693,8.671-12.078c4.949-8.66,7.76-18.323,8.996-27.885c1.297-9.585,0.823-19.131-0.719-28.128
		c-0.739-4.51-1.913-8.859-3.19-13.062c-1.383-4.105-2.863-8.06-4.539-11.773c-6.679-14.902-14.975-26.327-21.457-34.444
		c-2.725-3.4-8.303-9.976-13.497-15.026c-5.183-5.065-9.871-8.739-10.632-6.767c-2.101,0.336,0.565,5.674,4.26,11.809
		C669.902,477.277,674.491,484.267,676.691,487.818z"/>
	<path class="st2" d="M705.412,630.776c4.748-0.064,11.1,0.217,18.626,1.16c7.473,0.869,16.308,2.411,25.937,2.763
		c4.812,0.16,9.829,0.039,14.891-0.73c5.053-0.777,10.137-2.213,14.79-4.393c10.03-4.797,16.296-12.932,19.581-20.503
		c1.594-3.833,2.868-8.501,2.758-13.888c-0.058-5.354-2.064-11.427-5.768-16.213c-3.717-4.795-8.844-8.077-13.81-10.142
		c-5.008-2.095-10.021-3.215-14.772-3.99c-9.349-1.513-18.656-2.015-26.909-1.662c-8.258,0.32-15.449,1.47-20.725,2.784
		c-2.208,0.544-6.577,1.742-10.061,3.418c-3.502,1.636-6.089,3.684-5.113,5.313c-0.064,1.931,3.093,2.445,6.745,2.646
		c3.654,0.158,7.842,0.041,9.948,0.029c5.035-0.042,11.67-0.182,19.15,0.227c7.478,0.378,15.792,1.325,24.094,3.014
		c4.062,0.822,7.896,1.879,11.099,3.329c3.216,1.441,5.63,3.253,7.111,5.239c1.409,2.026,2.137,4.064,2.179,6.417
		c0.035,2.327-0.565,4.761-1.453,6.896c-1.788,4.234-5.805,9.375-11.253,11.994c-6.04,2.997-13.884,4.197-22.21,4.186
		c-8.321,0.055-16.967-0.908-25.187-1.118c-8.163-0.264-15.727,0.398-21.283,1.834c-2.316,0.575-6.96,2.021-10.403,4.286
		c-3.48,2.242-5.544,4.981-4.165,6.288c0.45,1.874,3.543,1.601,6.931,1.352C699.54,631.019,703.424,630.795,705.412,630.776z"/>
	<path class="st2" d="M427.27,318.385c-16.121-2.052-43.458-3.81-71.963-0.206c-14.204,1.738-28.648,4.974-41.688,9.402
		c-13.016,4.486-24.627,10.053-33.708,15.483c-9.101,5.377-19.641,13.043-29.549,23.004c-4.839,5.08-9.712,10.543-13.848,16.704
		c-4.191,6.133-8.023,12.742-10.847,19.646c-1.588,3.385-2.653,6.957-3.892,10.409c-0.968,3.544-2.078,7.007-2.697,10.536
		c-1.571,6.979-2.126,13.916-2.315,20.429c-0.136,13.082,2.345,24.517,5.451,32.55c0.643,1.685,1.562,4.21,3.014,6.847
		c0.697,1.326,1.383,2.732,2.195,4.076c0.871,1.32,1.762,2.621,2.638,3.838c1.656,2.489,3.748,4.36,5.22,5.547
		c1.529,1.162,2.675,1.505,3.205,0.625c0.976-0.173,1.119-1.422,0.777-3.224c-0.291-1.835-1.308-4.086-2.019-6.745
		c-0.404-1.302-0.855-2.635-1.324-3.946c-0.376-1.348-0.751-2.69-1.109-3.968c-0.804-2.505-1.251-4.834-1.582-6.373
		c-1.608-7.346-2.852-17.326-2.061-28.636c0.52-5.635,1.267-11.605,2.884-17.596c0.644-3.032,1.741-5.993,2.656-9.028
		c1.188-2.942,2.167-6.005,3.624-8.874c5.222-11.723,13.204-22.294,21.897-31.042c8.774-8.652,18.137-15.469,26.322-20.297
		c8.158-4.877,18.664-9.95,30.531-14.166c11.886-4.149,25.105-7.338,38.432-9.327c26.627-4.095,53.145-3.778,69.147-4.181
		c6.678-0.239,26.733-0.26,25.381-4.032C454.029,322.289,434.059,319.18,427.27,318.385z"/>
	<path class="st2" d="M535.857,357.327c2.568-2.713,5.961-6.303,9.815-10.377c2.02-2.187,4.195-4.629,6.346-7.45
		c2.276-3,4.294-6.402,5.851-10.073c1.559-3.68,2.718-7.672,3.153-11.958c0.433-4.264,0.093-8.916-1.561-13.328
		c-1.622-4.429-4.623-8.293-8.015-10.857c-3.427-2.638-7.146-4.081-10.323-4.839c-6.451-1.555-13.665-1.077-20.536,0.417
		c-3.514,0.776-6.712,1.672-10.058,2.69c-3.325,1.005-6.654,2.145-9.915,3.373c-13.074,4.868-24.803,11.552-31.095,16.615
		c-2.717,2.041-10.2,8.704-7.425,11.326c1.389,3.441,10.138-0.316,13.135-1.338c7.103-2.688,18.447-7.66,30.65-11.463
		c3.044-0.96,6.13-1.873,9.199-2.687c3.042-0.821,6.193-1.604,8.871-2.138c5.493-1.114,10.274-1.147,13.231-0.397
		c2.971,0.71,5.482,2.289,6.675,5.297c1.294,2.981,1.009,8.301-0.87,13.335c-0.909,2.533-2.121,4.955-3.537,7.192
		c-1.541,2.422-3.263,4.815-4.944,7.163c-3.383,4.673-6.512,9.301-8.29,13.222c-0.76,1.609-2.19,4.982-2.529,8.144
		c-0.355,3.182,0.351,5.815,2.217,5.871c1.691,0.845,3.47-0.826,5.242-2.648C532.871,360.554,534.856,358.409,535.857,357.327z"/>
	<path class="st2" d="M608.862,418.517c-6.918-7.9-26.165-21.773-36.554-29.116s-29.89-20.856-39.646-24.74
		c-2.039-0.811-8.132-3.203-9.822,0.105c-2.552,2.696,1.735,7.641,3.181,9.292c6.916,7.902,26.163,21.773,36.552,29.116
		s29.891,20.855,39.647,24.74c2.04,0.812,8.132,3.203,9.821-0.103C614.595,425.112,610.307,420.168,608.862,418.517z"/>
	<path class="st2" d="M676.145,467.303c2.626-2.218,5.894-5.519,9.102-9.987c3.152-4.456,6.296-10.209,7.791-17.01
		c1.482-6.66,1.4-13.977-0.845-20.681c-2.141-6.739-6.888-12.394-11.466-15.483c-4.55-3.278-10.934-5.49-17.431-6.014
		c-6.521-0.549-13.161,0.355-19.296,2.127c-6.12,1.814-11.257,4.212-15.732,6.315c-4.434,2.134-8.101,3.982-10.829,5.436
		c-1.144,0.635-3.395,1.783-5.288,3.095c-1.875,1.335-3.49,2.808-2.944,4.613c-0.133,1.846,1.962,2.96,4.555,3.35
		c2.583,0.417,5.564,0.147,7.013-0.045c3.516-0.406,7.99-1.546,12.72-3.011c4.707-1.425,9.81-3.188,14.551-4.243
		c4.716-1.04,9.587-1.447,13.682-0.993c4.106,0.46,7.291,1.71,9.333,3.188c2.094,1.478,4.081,3.669,5.32,7.099
		c1.251,3.381,1.597,7.852,0.919,12.188c-0.612,4.262-2.366,8.598-4.333,12.511c-1.988,3.902-4.152,7.391-5.671,10.188
		c-1.212,2.322-5.419,9.365-2.252,11.327C667.32,474.251,673.935,469.216,676.145,467.303z"/>
	<path class="st2" d="M482.429,495.009c-6.502,3.591-16.619,10.253-27.668,13.855c-2.743,0.931-5.564,1.593-8.31,2.125
		c-2.67,0.456-5.362,0.666-7.964,0.672c-5.213-0.026-9.985-0.993-13.639-2.225c-3.676-1.198-7.879-3.292-11.386-6.452
		c-1.747-1.574-3.376-3.363-4.61-5.438c-0.759-1.03-1.041-1.997-1.593-2.968c-0.283-1.085-0.79-2.094-0.922-3.266
		c-1.025-4.544-0.213-9.682,1.282-13.835c1.576-4.184,3.939-7.272,5.923-9.329c0.439-0.389,1.029-1.156,1.848-1.725
		c0.395-0.319,0.81-0.694,1.241-1.081c0.458-0.294,0.924-0.624,1.38-0.983c0.898-0.814,1.858-1.287,2.531-2.072
		c0.677-0.74,1.115-1.57,0.914-2.471c0.192-0.936-0.251-1.684-1.218-2.274c-0.951-0.544-2.454-1.14-4.098-1.09
		c-0.829-0.021-1.709,0.003-2.595,0.062c-0.848,0.148-1.694,0.356-2.507,0.563c-1.67,0.356-2.954,1.094-3.884,1.503
		c-4.312,2.101-9.242,6.502-12.569,12.736c-3.247,6.213-5.318,14.177-4.065,22.595c0.189,2.097,0.884,4.181,1.457,6.257
		c0.838,1.999,1.651,4.149,2.738,5.821c2.002,3.587,4.649,6.704,7.453,9.322c5.655,5.27,12.005,8.358,17.282,10.104
		c5.287,1.784,11.948,3.073,19.154,2.965c3.601-0.073,7.33-0.461,11.056-1.241c3.621-0.82,7.194-1.852,10.58-3.209
		c13.654-5.39,24.007-14.161,29.341-19.907c2.317-2.41,8.552-9.869,5.493-12.104C493.227,488.679,485.167,493.578,482.429,495.009z"
		/>
	<path class="st2" d="M543.906,538.975c-1.27,2.448-3.283,5.478-5.819,8.612c-2.563,3.127-5.957,6.227-9.831,8.639
		c-3.854,2.439-8.153,4.172-12.196,4.952c-4.051,0.813-7.777,0.639-10.747,0.175c-2.936-0.65-6.466-1.846-9.944-4.08
		c-3.48-2.199-6.852-5.381-9.552-9.055c-2.729-3.659-4.76-7.782-6.007-11.629c-1.219-3.841-1.99-7.399-2.28-10.14
		c-0.285-1.169-0.332-3.434-0.801-5.61c-0.29-2.103-1.007-4.251-2.81-4.615c-1.605-1.001-3.417,0.36-5.052,2.566
		c-1.444,2.215-2.559,5.228-2.808,6.762c-1.02,3.667-1.169,8.766-0.268,14.408c0.922,5.641,3.203,11.731,6.749,17.24
		c3.509,5.525,8.284,10.466,13.616,14.026c5.314,3.607,11.123,5.693,16.03,6.701c4.938,0.85,11.106,1.023,17.371-0.398
		c6.262-1.372,12.51-4.234,17.791-8.099c5.309-3.839,9.653-8.68,12.567-13.596c2.895-4.926,4.614-9.729,5.002-13.513
		c0.326-1.52,0.385-4.733-0.151-7.321c-0.719-2.65-1.911-4.578-3.769-4.23c-1.812-0.319-3.263,1.419-4.299,3.273
		C545.467,535.898,544.598,537.99,543.906,538.975z"/>
	<path class="st2" d="M453.152,420.884c1.663,0.761,3.899,0.876,6.14,0.913c2.218,0.003,4.497,0.005,6.091,0.008
		c1.594,0.053,3.87,0.126,6.089,0.198c2.24,0.039,4.479,0,6.168-0.703c0.684-0.317,2.872-1.122,4.185-4.562
		c1.61-3.308,0.183-5.57-0.376-6.294c-1.257-1.755-4.016-3.282-7.083-4.207c-3.064-0.946-6.39-1.251-8.696-1.294
		c-2.307-0.035-5.641,0.156-8.735,0.998c-3.097,0.821-5.907,2.253-7.223,3.964c-0.582,0.707-2.084,2.917-0.588,6.278
		C450.318,419.665,452.478,420.543,453.152,420.884z"/>
	<path class="st2" d="M580.199,510.077c1.477-1.567,2.454-4.544,2.813-7.709c0.379-3.166,0.111-6.474-0.229-8.743
		c-0.348-2.269-1.074-5.507-2.377-8.418c-1.282-2.916-3.1-5.47-4.976-6.526c-0.78-0.473-3.174-1.654-6.302,0.285
		c-3.29,1.653-3.847,3.944-4.081,4.671c-0.506,1.782-0.271,4.065,0.056,6.342c0.366,2.25,0.743,4.56,1.007,6.177
		c0.227,1.623,0.555,3.939,0.872,6.197c0.363,2.272,0.817,4.523,1.828,6.074c0.441,0.625,1.651,2.647,5.284,3.25
		C577.657,512.599,579.593,510.759,580.199,510.077z"/>
	<path class="st3" d="M518.553,475.22c-27.738-21.077-32.199-7.623-35.528-1.991c-3.328,5.634,3.569,24.595,15.16,33.056
		c11.594,8.461,30.601,9.17,37.853,2.004C543.29,501.121,534.861,487.613,518.553,475.22z"/>
	<path class="st2" d="M326.84,303.165c-9.633-2.911-22.788-5.876-38.033-7.48c-7.621-0.765-15.754-1.269-24.176-1.156
		c-8.423-0.002-17.128,0.629-25.857,1.758c-17.464,2.195-35.005,7.031-50.492,13.56c-15.455,6.621-28.883,14.75-39.152,22.461
		c-10.292,7.666-21.922,18.337-32.412,31.658c-10.361,13.352-19.461,29.545-24.733,46.71l-1.034,3.191l-0.836,3.236
		c-0.535,2.158-1.141,4.292-1.604,6.444c-0.813,4.331-1.738,8.594-2.162,12.867c-1.175,8.498-1.296,16.828-1.004,24.633
		c0.788,15.642,4.183,29.138,7.937,38.717c0.768,2.01,1.907,5.015,3.577,8.191c0.81,1.596,1.604,3.291,2.544,4.92
		c0.986,1.606,1.994,3.199,2.984,4.696c1.879,3.048,4.186,5.447,5.811,7.009c1.681,1.536,2.924,2.099,3.439,1.164
		c1.032-0.057,1.112-1.473,0.629-3.623c-0.43-2.184-1.675-4.97-2.632-8.22c-0.528-1.597-1.109-3.243-1.706-4.87
		c-0.551-1.648-0.993-3.332-1.494-4.896c-1.048-3.108-1.728-5.974-2.194-7.885c-2.306-9.094-4.46-21.443-4.481-35.559
		c0.095-7.046,0.485-14.523,1.802-22.121c0.493-3.822,1.457-7.62,2.274-11.48c0.465-1.917,1.062-3.811,1.585-5.729l0.808-2.876
		l0.992-2.826c5.018-15.187,13.249-29.409,22.651-41.374c9.512-11.882,20.023-21.522,29.372-28.483
		c9.323-6.999,21.543-14.424,35.611-20.582c14.102-6.058,30.026-10.677,46.161-13.063c8.05-1.216,16.113-2.018,23.966-2.27
		c7.849-0.366,15.482-0.195,22.68,0.168c14.403,0.802,27.049,2.695,36.543,4.308c1.988,0.323,4.96,0.819,8.259,1.467
		c3.322,0.602,6.98,1.264,10.339,1.872c6.745,1.154,12.426,1.854,12.108-0.24c1.585-1.355-3.268-4.545-9.68-7.513
		c-3.203-1.484-6.775-2.935-10.083-4.07C331.869,304.663,328.858,303.759,326.84,303.165z"/>
	<path class="st2" d="M186.624,612.491c-4.058-0.898-10.74-2.029-17.73-3.7c-6.989-1.64-14.251-3.834-19.309-5.48
		c-5.055-1.667-12.259-4.306-19.241-6.953c-6.987-2.636-13.772-5.206-18.202-6.158c-1.866-0.348-7.392-1.604-8.788,1.836
		c-2.197,2.973,2.01,7.072,3.488,8.375c3.457,3.219,10.001,7.167,17.12,10.652c7.113,3.495,14.834,6.449,20.336,8.263
		c5.508,1.793,13.553,4.113,21.699,5.23c8.118,1.156,16.329,1.043,21.176-0.572c0.503-0.151,1.248-0.348,2.068-0.684
		c0.825-0.376,1.717-0.848,2.497-1.406c1.57-1.12,2.64-2.577,2.077-4.354c-0.107-1.836-1.562-2.977-3.094-3.707
		c-0.772-0.365-1.578-0.624-2.29-0.809C187.703,612.797,187.052,612.6,186.624,612.491z"/>
	<path class="st2" d="M92.309,581.563c-4.233-1.909-10.046-3.692-16.451-5.344c-6.39-1.662-13.348-3.265-19.781-5.517l-2.388-0.87
		l-2.167-0.923c-1.419-0.687-2.859-1.347-4.199-2.184c-2.732-1.567-5.275-3.404-7.448-5.389c-4.441-3.903-7.371-8.353-8.603-11.902
		c-0.691-1.788-0.983-3.744-1.081-5.786c0.092-2.014,0.481-4.229,1.44-6.261c1.81-4.122,6.311-7.98,11.79-10.212
		c10.815-4.755,24.323-1.42,32.452,0.172c3.404,0.57,13.926,3.261,14.528-0.464c2.27-3.043-7.177-8.68-10.68-10.38
		c-4.047-2.081-9.795-4.479-17.046-5.903c-3.649-0.688-7.551-1.116-11.89-0.951c-4.328,0.178-8.739,0.991-13.016,2.525
		c-4.275,1.524-8.44,3.739-12.151,6.728c-3.72,2.953-6.894,6.85-9.031,11.186c-2.151,4.365-3.091,9-3.232,13.389
		c0.047,4.373,0.815,8.385,2.05,11.669c2.351,6.656,7.153,13.391,13.45,18.761c3.126,2.741,6.645,5.159,10.438,7.193
		c1.868,1.067,3.867,1.933,5.869,2.787l3.069,1.154l2.944,0.922c7.84,2.307,15.365,3.448,21.837,4.391
		c6.303,0.881,11.852,1.658,16.044,2.244c1.704,0.255,5.09,0.756,8.057,1.046c2.986,0.222,5.695,0.208,6.169-1.646
		c1.253-1.389-0.399-3.79-3.056-5.86C97.599,584.01,94.074,582.368,92.309,581.563z"/>
	<path class="st2" d="M167.855,291.236c-7.753-5.883-17.622-14.291-27.107-25.397c-9.565-11.012-18.386-24.938-24.773-40.162
		c-1.757-3.743-2.914-7.731-4.338-11.609c-0.709-1.941-1.127-3.97-1.709-5.943c-0.498-1.996-1.195-3.942-1.534-5.961
		c-0.737-4.02-1.748-7.969-2.091-11.965c-0.246-1.987-0.492-3.96-0.736-5.919c-0.173-2.019-0.33-4.167-0.574-6.415
		c-0.507-4.471-1.293-9.512-3.822-14.582c-2.415-5.042-7.205-9.647-12.361-11.724c-5.157-2.255-10.327-2.491-14.949-1.99
		c-4.642,0.554-8.828,2.067-12.52,4.142c-1.855,1.015-3.649,2.323-5.382,3.825c-1.636,1.462-3.108,3.014-4.476,4.739
		c-2.733,3.427-4.94,7.33-6.586,11.404c-3.289,8.197-4.852,16.887-5.337,25.623c-1.408,17.589,0.665,36.718,6.659,54.162
		c5.817,17.502,14.876,33.384,24.964,45.871c10.053,12.565,21.092,21.627,29.881,27.451c1.891,1.135,4.718,2.83,7.87,4.72
		c3.263,1.684,6.982,3.306,10.36,4.733c7.031,2.389,12.892,3.509,12.59,1.389c1.636-1.303-3.096-4.81-8.827-8.591
		c-2.754-2.134-5.851-4.226-8.579-6.22c-2.637-2.12-5.004-4.02-6.587-5.293c-7.354-6.297-16.735-15.178-25.272-26.97
		c-8.57-11.718-16.259-26.245-21.129-41.966c-5.043-15.678-6.596-32.561-5.27-47.888c0.437-7.76,1.933-14.939,4.249-20.617
		c1.158-2.853,2.589-5.284,4.182-7.282c0.784-0.995,1.665-1.906,2.502-2.652c0.78-0.656,1.598-1.289,2.517-1.774
		c3.5-2.106,8.965-2.942,12.493-1.347c1.761,0.772,2.943,1.795,4.038,3.861c1.061,2.036,1.763,5.123,2.177,8.842
		c0.193,1.998,0.389,4.013,0.586,6.044c0.292,2.21,0.586,4.439,0.882,6.679c0.454,4.508,1.604,8.938,2.51,13.443
		c0.425,2.261,1.212,4.434,1.807,6.662c0.681,2.203,1.203,4.461,2.024,6.619c1.644,4.313,3.051,8.726,5.073,12.856
		c7.455,16.789,17.692,31.851,28.752,43.43c10.98,11.678,22.416,20.085,31.506,25.377c1.904,1.102,4.853,2.589,8.1,4.247
		c3.23,1.692,7.082,3,10.497,4.3c7.045,2.219,12.967,3.086,12.602,1c1.614-1.369-3.257-4.654-9.105-8.333
		c-2.837-2.04-6.115-3.854-8.851-5.901C172.007,294.142,169.478,292.461,167.855,291.236z"/>
	<path class="st2" d="M248.751,282.57c4.189-7.094,10.056-16.318,17.606-26.083c7.561-9.749,16.949-19.914,27.565-29.024
		c2.696-2.256,5.319-4.452,8.257-6.738c2.903-2.305,5.961-4.78,8.924-7.658c2.978-2.9,5.783-6.139,8.148-10.155
		c2.315-3.984,3.859-8.349,4.498-13.013c0.572-4.651,0.189-9.753-1.912-14.414c-2.01-4.686-5.617-8.495-9.408-10.873
		c-7.644-4.809-15.901-5.407-22.608-4.315c-6.655,1.049-13.089,3.909-18.949,7.276c-2.963,1.657-5.715,3.558-8.659,5.451
		c-2.969,1.835-5.795,4.018-8.716,6.182c-11.607,8.75-22.857,19.674-32.311,31.653c-9.472,11.973-17.075,24.976-22.517,37.14
		c-5.524,12.146-8.678,23.512-10.371,32.109c-0.315,1.81-0.894,4.485-1.282,7.508c-0.324,3.039-0.629,6.383-0.763,9.444
		c0.069,6.194,0.712,11.17,2.661,10.479c1.709,1.051,3.667-3.555,5.351-9.134c1.014-2.768,1.986-5.791,2.809-8.533
		c0.888-2.729,1.801-5.139,2.332-6.767c2.736-7.732,6.52-17.956,12.257-28.858c5.658-10.917,13.059-22.582,21.992-33.314
		c8.919-10.737,19.296-20.518,29.877-28.356c2.663-1.934,5.229-3.904,7.927-5.536c2.646-1.679,5.226-3.45,7.742-4.837
		c4.983-2.848,9.482-4.67,13.295-5.255c1.961-0.324,3.672-0.348,5.622-0.054c1.883,0.303,3.77,0.941,5.227,1.893
		c1.496,0.951,2.507,2.068,3.137,3.494c0.68,1.398,0.906,3.328,0.679,5.528c-0.284,2.2-1.061,4.634-2.318,6.834
		c-1.228,2.159-3.103,4.517-5.311,6.708c-2.22,2.231-4.807,4.428-7.6,6.732c-2.804,2.268-5.757,4.838-8.598,7.345
		c-11.314,10.204-21.087,21.598-28.617,32.55c-7.522,10.968-12.948,21.36-16.263,29.456c-1.37,3.392-4.033,10.165-5.339,16.177
		c-1.406,5.982-1.63,11.055,0.36,10.779c1.503,1.419,4.191-2.743,7.197-7.795C243.589,291.532,247.023,285.572,248.751,282.57z"/>
	<path class="st2" d="M285.912,249.226c-13.163-3.74-35.862-7.246-59.543-6.848c-2.958,0.055-5.929,0.108-8.897,0.164
		c-2.965,0.094-5.913,0.467-8.848,0.691c-2.937,0.264-5.852,0.525-8.733,0.783c-2.89,0.197-5.689,0.824-8.468,1.208
		c-11.143,1.477-21.229,4.09-29.571,5.99c-8.183,2.495-18.236,5.24-28.639,9.495c-2.603,1.048-5.343,1.894-7.948,3.159
		c-2.629,1.209-5.289,2.43-7.967,3.66c-2.661,1.266-5.404,2.405-8.024,3.798c-2.603,1.427-5.208,2.855-7.802,4.277
		c-20.75,11.422-38.706,25.743-48.271,35.529c-2.169,1.857-5.851,6.248-8.842,10c-2.959,3.796-5.045,7.123-3.611,7.517
		c0.44,1.368,3.835-0.672,7.608-3.472c3.815-2.764,7.851-6.492,10.191-8.021c10.389-8.209,28.142-21.171,48.262-31.683
		c2.51-1.315,5.034-2.636,7.552-3.956c2.532-1.291,5.183-2.337,7.748-3.516c2.578-1.149,5.14-2.29,7.67-3.418
		c2.505-1.191,5.144-1.969,7.643-2.956c9.991-4.007,19.629-6.603,27.463-9.005c7.994-1.809,17.647-4.344,28.309-5.83
		c2.659-0.387,5.337-1.022,8.101-1.234c2.756-0.278,5.547-0.561,8.356-0.846c2.811-0.25,5.631-0.661,8.47-0.797
		c2.842-0.108,5.688-0.214,8.521-0.321c22.682-0.874,44.529,1.554,57.624,3.516c2.791,0.163,8.144,1.392,12.829,1.896
		c4.665,0.555,8.625,0.639,8.327-0.767c1.051-1.055-2.413-2.906-6.867-4.73C294.093,251.74,288.716,249.759,285.912,249.226z"/>
	<path class="st2" d="M252.12,200.174c-13.454-3.569-36.586-6.794-60.668-6.134c-3.007,0.087-6.03,0.175-9.049,0.263
		c-3.015,0.126-6.009,0.53-8.994,0.786c-2.984,0.294-5.948,0.587-8.876,0.877c-2.938,0.227-5.78,0.883-8.603,1.294
		c-11.322,1.593-21.567,4.307-30.04,6.292c-8.313,2.575-18.525,5.419-29.096,9.773c-2.644,1.073-5.427,1.947-8.076,3.236
		c-2.673,1.234-5.377,2.481-8.099,3.737c-2.705,1.289-5.492,2.456-8.157,3.872c-2.648,1.453-5.298,2.906-7.937,4.351
		c-21.107,11.615-39.427,26.104-49.226,35.988c-2.215,1.879-6,6.31-9.079,10.1c-3.045,3.832-5.205,7.194-3.764,7.589
		c0.42,1.381,3.878-0.683,7.735-3.516c3.895-2.799,8.033-6.567,10.42-8.119c10.625-8.311,28.753-21.456,49.251-32.173
		c2.558-1.34,5.128-2.687,7.694-4.032c2.581-1.319,5.278-2.391,7.89-3.596c2.625-1.176,5.233-2.343,7.81-3.496
		c2.55-1.217,5.236-2.023,7.779-3.035c10.17-4.109,19.975-6.804,27.947-9.288c8.134-1.893,17.954-4.529,28.806-6.129
		c2.707-0.415,5.43-1.078,8.246-1.319c2.806-0.31,5.647-0.623,8.506-0.938c2.861-0.282,5.732-0.72,8.623-0.89
		c2.895-0.138,5.793-0.277,8.677-0.415c23.102-1.128,45.391,1.036,58.761,2.83c2.843,0.13,8.319,1.288,13.095,1.729
		c4.76,0.493,8.787,0.524,8.449-0.88c1.043-1.071-2.521-2.878-7.087-4.641C260.488,202.58,254.982,200.673,252.12,200.174z"/>
</g>
</svg>
