<?xml version="1.0" encoding="utf-8"?>
<!-- Generator: Adobe Illustrator 22.1.0, SVG Export Plug-In . SVG Version: 6.00 Build 0)  -->
<svg version="1.1" id="_x31__1_" xmlns="http://www.w3.org/2000/svg" xmlns:xlink="http://www.w3.org/1999/xlink" x="0px" y="0px"
	 viewBox="0 0 850 815" style="enable-background:new 0 0 850 815;" xml:space="preserve">
<style type="text/css">
	.st0{fill:#E5B267;}
	.st1{fill:#FFFFFF;}
	.st2{fill:#4D261E;}
	.st3{fill:#4D251D;}
</style>
<g>
	<path class="st0" d="M790.376,332.217c6.01-88.976-101.001-141.88-101.001-141.88s7.215,0,25.251-30.06
		c18.036-30.059-6.012-74.547-48.094-80.559c-42.085-6.012-92.807,35.66-96.897,83.727c-34.869-9.62-114.724,0.44-162.818,36.51
		c-48.095,36.072-60.117,75.751-60.117,75.751s0,0-18.036-1.202c-18.036-1.203-25.251,55.309-25.251,55.309l-78.153,1.201
		c0,0-15.632-42.082-37.275-48.094c-21.642-6.013-27.654,15.63-25.249,60.118c-38.476,18.036-151.5,94.988-151.5,151.5
		c0,56.511,33.667,75.75,33.667,75.75s-42.085,46.893-14.428,68.534c27.654,21.643,108.213,16.833,131.058,14.429
		c22.845-2.405,52.906-14.429,49.299-22.846c0,0,42.082,2.404,48.094,2.404c6.013,0,73.346-9.62,73.346-9.62
		s-42.086,40.882-66.132,68.535c-24.047,27.656-3.608,37.275,67.333,18.036c70.942-19.237,173.142-105.808,173.142-105.808
		s15.632-6.012,31.261-12.024c15.633-6.012,88.977-46.893,88.977-46.893s0,12.024,13.226,14.428
		c13.226,2.404,87.774-44.487,87.774-44.487s25.249-51.701-2.406-48.094C729.054,465.681,784.364,421.192,790.376,332.217z
		 M659.316,172.301c-9.62,3.608-27.655-7.213-27.655-7.213c-6.012-8.417,8.416-38.477,28.856-32.465
		C680.96,138.634,668.936,168.693,659.316,172.301z"/>
	<path class="st1" d="M204.303,504.172c-13.889,0-52.875-3.447-65.519-9.194c-12.644-5.747-9.195-9.196-25.288-10.347
		C97.403,483.483,84.758,515.667,102,530.61c17.242,14.943,32.185,48.277,29.886,56.323c-2.299,8.048,70.117,12.646,78.163,32.185
		c8.048,19.541,27.589,14.944,27.589,14.944l88.508-5.748l20.689-13.793c0,0-35.633-42.53-21.84-67.82
		c13.794-25.288,15.784-35.771,0-57.471c-9.195-12.645-24.139-12.645-50.576-2.301C247.983,497.276,223.845,504.172,204.303,504.172
		z"/>
	<path class="st1" d="M491.671,617.969c2.226-1.336,4.799-5.004,7.985-10.197c13.253-21.615,37.117-69.676,90.868-86.358
		c66.668-20.689,42.53,12.644,42.53,12.644l-9.196,17.242c0,0-89.657,40.232-98.853,44.829
		C515.809,600.728,491.671,617.969,491.671,617.969z"/>
	<path class="st2" d="M52.247,566.391c-5.123-5.092-12.111-11.678-18.569-19.954c-6.477-8.203-12.516-18.177-14.737-29.079
		c-2.552-10.845-0.896-22.305,2.906-32.628c3.83-10.331,9.389-19.466,14.352-26.759c9.96-14.747,26.417-34.692,44.703-51.464
		c18.151-16.965,37.914-30.705,49.954-38.831c2.473-1.779,7.556-5.041,11.686-8.189c4.178-3.038,7.401-6.031,5.965-7.29
		c-0.061-1.937-4.399-1.202-9.507,0.338c-5.049,1.643-10.815,4.143-13.632,5.55c-13.676,6.335-35.197,19.665-54.773,36.987
		c-19.746,17.151-37.157,38.051-47.789,53.791c-5.354,7.898-11.587,18.028-16.064,30.421c-2.21,6.189-3.868,12.987-4.477,20.1
		c-0.671,7.108-0.05,14.511,1.68,21.458c1.688,6.972,4.454,13.55,7.904,19.273c3.417,5.745,7.235,10.901,11.243,15.251
		c7.896,8.864,15.956,15.11,22.094,19.527c5.125,3.813,20.913,13.635,21.752,9.828C70.207,582.785,56.434,570.709,52.247,566.391z"
		/>
	<path class="st2" d="M225.54,318.709c-1.657-6.293-6.424-16.119-13.278-25.071c-3.541-4.615-7.866-9.228-13.501-12.565
		c-2.816-1.645-5.992-2.912-9.249-3.496c-3.262-0.616-6.477-0.452-9.294,0.078c-2.81,0.622-5.815,1.798-8.546,3.597
		c-2.744,1.787-5.105,4.147-7.088,6.747c-3.938,5.238-6.37,11.426-7.344,17.741c-0.916,6.42-0.472,11.842-0.036,16.594
		c0.492,4.693,1.063,8.537,1.55,11.396c0.234,1.212,0.587,3.542,1.209,5.612c0.644,2.056,1.48,3.933,3.29,4.017
		c1.633,0.695,3.303-0.825,4.45-3.027c1.165-2.182,1.835-4.93,2.096-6.274c1.554-6.458,0.882-17.291,2.584-25.537
		c0.88-4.051,2.744-8.01,4.899-10.694c2.177-2.791,4.449-3.898,6.215-4.311c1.856-0.338,4.196-0.204,7.275,1.486
		c3.056,1.673,6.441,4.773,9.519,8.319c6.488,7.402,11.738,15.409,15.283,20.163c1.569,1.909,5.677,8.137,8.742,6.368
		C227.906,329.243,226.36,321.329,225.54,318.709z"/>
	<path class="st2" d="M302.092,328.332c-4.417-1.469-11.92-2.435-19.737-2.755c-7.817-0.342-15.925-0.001-21.566,0.406
		c-5.639,0.422-13.71,1.269-21.394,2.749c-7.686,1.458-14.967,3.509-19.123,5.609c-1.751,0.861-6.857,3.586-5.578,6.906
		c0.387,3.541,6.004,3.779,7.871,3.903c4.489,0.244,11.642-0.47,19.035-1.183c7.392-0.734,15.029-1.429,20.374-1.832
		c5.346-0.384,13.004-0.811,20.423-1.163c7.418-0.376,14.6-0.713,19.002-1.613c1.832-0.395,7.352-1.452,7.218-5.011
		C309.4,330.877,303.95,328.927,302.092,328.332z"/>
	<path class="st2" d="M376.106,316.439c0.171-7.081-2.612-19.088-9.766-29.527c-3.539-5.243-8.27-10.323-14.307-13.701
		c-5.963-3.452-13.206-4.502-18.49-3.702c-5.388,0.615-11.448,2.961-16.666,6.852c-5.271,3.837-9.754,9.184-12.796,15.255
		c-2.867,5.868-4.373,11.943-5.042,17.203c-0.683,5.282-0.629,9.811-0.316,13.169c0.232,2.851,1.363,10.971,4.922,10.453
		c3.494,0.817,5.362-7.077,6.093-9.585c1.674-6.094,3.366-16.136,7.974-24.087c2.182-3.712,5.259-7.13,8.573-9.398
		c3.288-2.331,6.641-3.5,9.224-3.788c2.624-0.353,5.539,0.002,8.791,1.698c3.242,1.677,6.642,4.833,9.526,8.597
		c5.982,7.63,9.369,16.705,11.365,22.288c0.448,1.167,1.245,3.52,2.217,5.582c1.004,2.049,2.199,3.853,3.986,3.552
		c1.743,0.37,3.071-1.503,3.807-3.964C375.97,320.889,376.108,317.924,376.106,316.439z"/>
	<path class="st2" d="M472.393,396.921c-1.558-5.884-6.046-14.975-12.184-23.428c-6.07-8.512-13.787-16.19-19.508-21.112
		c-5.757-4.88-14.551-11.3-23.91-15.959c-9.311-4.737-18.992-7.746-25.046-8.362c-2.54-0.345-10.076-0.682-10.236,2.891
		c-1.326,3.335,4.952,6.453,6.933,7.653c4.87,2.725,13.003,6.54,20.953,11.318c7.989,4.712,15.678,10.458,20.788,14.775
		c5.064,4.37,11.944,11.064,17.851,18.216c5.965,7.103,11.006,14.537,14.46,18.919c1.496,1.768,5.561,7.481,8.646,5.649
		C474.645,406.764,473.13,399.375,472.393,396.921z"/>
	<path class="st2" d="M97.685,597.097c10.15,0.252,23.612,0.388,38.712,1.436c7.548,0.526,15.506,1.287,23.634,2.452
		c8.072,1.225,16.63,2.65,24.191,4.972c3.774,1.199,7.355,2.643,10.466,4.512c1.556,0.932,3.03,1.933,4.352,3.06
		c1.254,1.073,2.378,2.244,3.403,3.538c4.117,5.227,5.539,11.944,3.678,16.363c-1.666,4.594-6.984,8.38-12.545,9.996
		c-5.697,1.708-12.116,1.783-18.228,1.635c-25.27-0.839-61.813-2.063-96.96-2.915c-8.839-0.207-17.18-0.355-24.652-1.735
		c-7.484-1.32-13.927-4.011-18.9-8.001c-4.968-3.967-7.813-8.84-8.743-13.922c-1.015-5.033-0.089-10.104,1.191-14.41
		c1.032-3.613,4.34-10.766,7.984-16.707c3.485-5.993,6.715-10.949,4.673-11.43c-0.506-1.955-5.612,1.289-10.85,6.662
		c-5.348,5.235-10.274,13.079-12.123,17.514c-2.224,5.176-4.332,12.095-3.37,20.204c0.147,0.999,0.261,2.023,0.467,3.039
		c0.267,1.004,0.538,2.019,0.814,3.046c0.59,2.05,1.47,4.095,2.529,6.042c2.107,3.931,5.045,7.47,8.461,10.516
		c6.804,6.074,15.87,10.042,24.956,11.912c9.127,1.955,18.307,2.26,27.031,2.657c35.195,1.55,71.504,2.871,97.094,3.719
		c6.546,0.107,14.471,0.26,23.307-2.352c4.44-1.359,8.863-3.447,12.951-6.619c4.054-3.143,7.825-7.57,9.908-13.119
		c2.106-5.54,2.301-11.709,0.971-17.155c-1.268-5.509-3.86-10.449-7.239-14.747c-7.127-8.853-16.99-13.319-26.191-16.046
		c-9.338-2.632-18.097-3.797-26.749-4.867c-8.635-0.972-17.002-1.461-24.871-1.649c-15.744-0.371-29.481,0.422-39.733,1.353
		c-8.607,0.716-33.934,3.625-31.615,7.039C63.784,596.726,89.226,596.819,97.685,597.097z"/>
	<path class="st2" d="M329.348,622.557c-7.755,6.526-17.851,15.452-29.203,25.711c-5.654,5.153-11.647,10.614-17.837,16.255
		c-3.082,2.836-6.211,5.718-9.374,8.628c-3.094,2.892-6.447,5.813-9.797,9.481c-3.265,3.639-6.643,7.922-8.6,13.787
		c-0.959,2.902-1.439,6.198-1.194,9.443c0.226,3.309,1.225,6.582,2.738,9.381c3.071,5.65,7.766,9.49,12.744,12.008
		c2.514,1.258,5.153,2.188,7.897,2.773c2.749,0.578,5.27,0.785,7.824,0.812c10.165-0.049,18.471-2.963,25.592-5.181
		c7.21-2.335,13.941-4.532,19.94-6.74c24.123-8.415,57.914-22.936,88.535-40.729c15.305-8.888,29.814-18.498,42.303-27.703
		c12.553-9.13,22.87-18.124,30.419-25.046c3.117-2.942,9.266-8.86,13.958-14.332c4.657-5.52,8.032-10.371,6.037-10.925
		c-0.458-1.984-5.547,1.023-11.288,5.154c-5.787,4.091-12.43,9.118-15.784,11.615c-8.125,5.866-18.711,13.907-31.316,22.211
		c-12.54,8.38-26.885,17.295-41.916,25.63c-30.07,16.675-62.919,30.682-86.398,38.873c-5.835,2.149-12.385,4.294-19.396,6.586
		c-7.053,2.302-14.156,4.521-20.63,4.532c-3.322-0.012-6.04-0.52-8.673-1.813c-2.62-1.261-4.844-3.234-5.942-5.251
		c-1.086-1.979-1.304-3.993-0.566-6.532c0.739-2.515,2.695-5.451,5.194-8.293c2.465-2.839,5.588-5.724,8.701-8.768
		c3.08-2.998,6.13-5.964,9.13-8.883c5.975-5.871,11.758-11.553,17.214-16.913c10.87-10.772,20.338-20.36,27.282-27.744
		c5.803-6.172,23.073-24.582,19.122-25.702C355.164,600.874,335.832,617.102,329.348,622.557z"/>
	<path class="st2" d="M320.563,620.291c-5.107-0.017-13.271,1.034-21.726,2.019c-8.45,1.01-17.199,1.909-23.321,2.426
		c-6.124,0.498-14.902,1.044-23.404,1.437c-8.504,0.419-16.73,0.727-21.765,1.586c-2.093,0.384-8.401,1.372-8.206,4.938
		c-0.851,3.464,5.392,5.485,7.52,6.092c5.06,1.51,13.636,2.506,22.567,2.78c8.929,0.3,18.186-0.167,24.623-0.691
		c6.437-0.542,15.645-1.6,24.406-3.365c8.763-1.739,17.061-4.134,21.802-6.457c1.998-0.949,7.825-3.973,6.413-7.249
		C329.074,620.257,322.691,620.324,320.563,620.291z"/>
	<path class="st2" d="M735.896,483.62c0.681,3.761,0.658,8.265-0.781,12.682c-1.483,4.682-4.365,9.448-8.493,13.859
		c-4.125,4.411-9.49,8.433-15.564,11.817c-6.095,3.391-13.069,6.283-20.355,9.207c-7.289,2.934-14.976,5.947-22.446,9.87
		c-7.301,3.901-13.507,7.629-18.852,8.542c-1.26,0.264-2.726,0.353-3.634,0.29c-0.849-0.02-1.828-0.244-2.772-0.638
		c-1.905-0.701-3.687-2.145-4.546-3.42c-0.489-0.636-0.68-1.206-0.76-1.589c-0.12-0.408-0.065-0.604,0.014-0.896
		c0.014-0.515,1.299-2.426,3.035-4.338c0.777-0.879,1.571-1.777,2.381-2.695c0.434-0.492,0.901-1.056,1.386-1.671
		c0.232-0.266,0.628-0.799,0.962-1.322l1.041-1.55c1.22-2.151,2.25-4.479,2.456-6.971c0.246-2.482-0.22-5.014-1.163-7.434
		c-1.177-2.504-3.033-4.738-5.484-6.284c-2.415-1.596-5.434-2.42-8.538-2.712c-0.396-0.06-0.764-0.069-1.114-0.083l-0.81-0.033
		l-1.547,0.005c-1.004,0.028-1.972,0.09-2.915,0.171c-1.821,0.145-3.769,0.488-5.009,0.552c-5.561,0.636-11.529,0.271-17.44-1.156
		c-11.84-2.801-23.33-9.968-31.043-19.57c-7.876-9.548-11.361-21.362-11.338-32.227c-0.051-5.421,0.661-10.579,1.871-15.158
		c1.152-4.598,2.672-8.676,4.316-12.079c1.361-3.252,4.91-9.333,8.679-14.097c3.692-4.775,7.387-8.485,5.624-9.515
		c-0.075-1.97-5.447-0.246-11.061,3.918c-5.635,4.092-10.81,10.731-12.901,14.326c-2.453,3.766-4.77,8.437-6.618,13.866
		c-1.903,5.409-3.212,11.638-3.534,18.386c-0.335,6.739,0.33,14.025,2.465,21.29c2.117,7.269,5.745,14.382,10.564,20.652
		c9.623,12.599,23.889,21.848,39.161,25.675c7.628,1.931,15.504,2.506,22.996,1.697c2.04-0.151,3.298-0.391,4.684-0.492
		c0.659-0.053,1.285-0.088,1.869-0.103l0.827,0.001l0.429,0.021l0.006,0.018l-0.006,0.005l-0.136,0.165
		c-0.274,0.349-0.58,0.722-0.942,1.131c-0.778,0.878-1.539,1.739-2.283,2.58c-1.027,1.194-2.153,2.46-3.335,4.193
		c-1.139,1.721-2.426,3.72-3.161,6.599c-1.68,5.604,0.114,12.002,3.173,16.065c3.062,4.25,7.116,7.243,11.906,9.113
		c2.389,0.939,5.004,1.57,7.835,1.682c2.764,0.114,5.035-0.128,7.451-0.601c9.547-1.952,16.702-6.891,23.243-10.35
		c6.446-3.506,13.595-6.48,20.916-9.61c7.322-3.137,14.809-6.432,21.875-10.675c7.053-4.251,13.441-9.388,18.514-15.391
		c5.069-5.974,8.733-12.888,10.301-19.702c1.673-7.085,0.935-13.632-0.683-18.716c-0.597-2.158-1.912-5.282-3.893-8.434
		c-1.988-3.145-4.828-6.252-8.011-8.321c-3.171-2.11-6.561-3.013-8.83-3.158c-2.357,0.039-3.528,0.526-3.228,1.511
		c-0.619,0.744,0.282,1.772,1.788,2.822c1.457,1.243,3.48,2.728,5.254,4.801C733.368,474.22,735.478,480.466,735.896,483.62z"/>
	<path class="st2" d="M744.078,460.397c8.085-5.847,17.992-14.974,27.112-27.131c9.179-12.088,17.306-27.274,22.794-43.733
		c5.422-16.474,8.191-34.154,8.008-50.663c-0.015-16.528-2.942-31.742-6.597-43.796c-3.584-12.16-9.769-26.141-19.099-40.201
		c-9.839-13.395-21.719-26.018-34.825-37.088c-13.012-11.095-27.172-20.15-40.255-27.193c-13.109-7.039-25.225-11.953-34.465-15.128
		c-1.946-0.612-4.859-1.523-8.104-2.541c-3.257-0.959-6.906-1.817-10.249-2.548c-6.747-1.3-12.364-1.707-11.911,0.271
		c-1.455,1.405,3.387,4.211,9.406,7.119c2.981,1.537,6.301,3.008,9.272,4.425c2.971,1.405,5.636,2.666,7.42,3.51
		c16.932,8.133,44.916,22.486,68.853,43.762c11.933,10.482,23.046,22.672,31.688,34.598c7.895,12.138,13.653,24.968,16.772,35.728
		c3.261,10.774,5.918,24.373,6.037,39.23c0.276,14.84-2.029,30.807-6.614,45.822c-4.658,14.996-11.581,28.974-19.391,40.364
		c-7.751,11.451-16.15,20.402-22.895,26.676c-2.831,2.604-8.552,7.744-13.723,11.81c-2.5,2.163-4.888,3.988-6.377,5.546
		c-1.492,1.55-2.133,2.759-1.298,3.309c-0.036,1.025,1.287,1.163,3.453,0.717c2.158-0.453,5.2-1.416,8.328-2.935
		C733.844,467.556,740.688,462.826,744.078,460.397z"/>
	<path class="st2" d="M557.005,150.781c-12.435-1.673-33.472-1.719-54.942,1.724c-21.508,3.248-43.075,10.305-57.581,16.441
		c-7.135,3.354-15.931,7.2-24.828,12.531c-4.586,2.409-9.015,5.459-13.535,8.483c-2.234,1.547-4.589,2.951-6.745,4.645
		c-2.155,1.695-4.312,3.39-6.459,5.079c-17.156,13.575-30.922,29.776-37.582,40.489c-1.6,2.084-3.962,6.839-5.774,10.891
		c-1.754,4.103-2.681,7.673-0.823,8.083c1.139,1.454,4.17-0.73,7.277-3.698c3.173-2.927,6.17-6.862,8.079-8.536
		c8.142-8.753,21.854-22.935,38.236-35.048c16.244-12.291,35.001-22.165,48.517-28.024c13.58-5.73,33.715-12.44,53.863-16.169
		c20.108-3.909,39.924-5.138,51.931-5.847c4.991-0.458,20.04-0.578,19.221-4.255C577.565,154.237,562.246,151.314,557.005,150.781z"
		/>
	<path class="st2" d="M612.138,546.844c-5.715,2.067-14.576,6.454-23.777,10.936c-9.189,4.504-18.739,9.067-25.449,12.162
		c-6.72,3.08-16.401,7.355-25.802,11.398c-9.393,4.065-18.495,7.935-23.783,10.926c-2.196,1.269-8.834,4.938-7.201,8.133
		c0.436,3.556,8.112,2.707,10.687,2.353c6.157-0.791,15.972-3.545,25.919-7.081c9.953-3.511,20.007-7.835,26.943-11.014
		c6.93-3.195,16.757-8.01,25.905-13.28c9.158-5.248,17.638-10.903,22.248-15.062c1.946-1.724,7.588-6.997,5.172-9.643
		C621.637,543.354,614.53,546.002,612.138,546.844z"/>
	<path class="st2" d="M667.227,130.411c-3.73-1.919-8.146-3.202-12.977-3.25c-4.756-0.165-10.239,1.181-14.863,3.844
		c-9.433,5.393-16.227,15.576-18.447,27.293c-2.259,11.634-0.067,23.907,3.522,34.847c1.67,5.337,3.367,10.491,4.401,15.485
		c1.046,4.95,1.408,9.811,0.312,13.312c-0.55,1.757-1.244,3.269-2.483,4.539c-1.114,1.268-2.446,2.177-4.098,2.84
		c-3.28,1.331-7.828,1.344-12.166,0.21c-2.174-0.557-4.314-1.379-6.278-2.407c-2.02-1.091-4.105-2.378-5.958-3.854
		c-3.802-2.878-7.058-6.46-9.823-10.301c-5.495-7.805-8.704-16.674-9.877-25.407c-1.259-8.735-0.667-17.234,0.677-24.765
		c2.681-15.032,9.891-33.353,23.344-48.33c6.684-7.459,14.883-13.994,24.203-18.506c9.326-4.544,19.779-7.182,30.124-7.401
		c10.351-0.238,20.529,1.981,29.191,6.521c8.728,4.518,16.038,11.145,21.212,18.494c5.139,7.384,8.14,15.495,9.019,23.012
		c0.9,7.529-0.133,14.606-1.862,20.372c-0.771,2.396-1.975,6.013-3.989,9.756c-1.982,3.751-4.657,7.638-7.529,10.898
		c-5.657,6.634-12.295,10.278-10.319,11.453c-0.277,1.116,1.423,1.13,4.479,0.344c2.938-0.951,7.19-2.872,11.144-6.076
		c4.014-3.116,7.813-7.279,10.682-11.473c2.906-4.183,4.769-8.396,5.953-11.228c2.711-6.803,4.639-15.435,4.017-25.179
		c-0.609-9.725-3.994-20.145-10.099-29.596c-6.139-9.406-14.929-17.851-25.754-23.788c-10.844-6.01-23.658-9.017-36.351-8.903
		c-12.729,0.083-25.395,3.137-36.764,8.54c-11.434,5.404-21.337,13.229-29.282,22.004c-7.96,8.796-14.077,18.509-18.482,28.16
		c-4.431,9.658-7.299,19.189-8.882,28.065c-1.576,8.852-2.319,19.039-0.741,29.916c1.481,10.839,5.609,22.383,12.811,32.443
		c3.638,5.01,7.992,9.741,13.208,13.652c2.586,2.003,5.345,3.712,8.353,5.295c3.099,1.583,6.352,2.798,9.747,3.633
		c6.737,1.619,14.34,1.955,21.865-1.072c3.708-1.507,7.261-3.992,9.91-7.116c2.719-2.982,4.588-6.843,5.62-10.595
		c2.056-7.685,0.937-14.636-0.382-20.705c-1.403-6.118-3.383-11.627-5.129-16.819c-3.525-9.93-5.233-19.453-3.91-27.873
		c1.212-8.223,5.775-15.345,11.283-18.849c5.329-3.575,11.922-3.39,16.545-1.494c1.906,0.796,4.615,2.417,6.414,5.182
		c1.753,2.486,2.249,6.677,1.292,10.305c-0.451,1.818-1.204,3.478-2.073,4.865c-0.886,1.38-1.915,2.412-2.827,3.276
		c-0.939,0.797-1.766,1.421-2.286,1.887c-0.506,0.512-0.677,0.971-0.266,1.328c-0.266,0.513-0.016,0.874,0.78,1.08
		c0.803,0.248,2.125,0.238,3.819-0.211c1.646-0.508,3.643-1.476,5.47-3.096c1.811-1.618,3.477-3.798,4.683-6.37
		c2.44-5.071,2.98-12.012,0.125-17.751C674.86,135.323,670.284,132.021,667.227,130.411z"/>
	<path class="st2" d="M197.425,526.333c-2.402,3.663-6.452,8.195-12.148,11.203c-5.65,2.987-13.244,4.437-21.036,3.712
		c-7.697-0.642-16.055-3.301-21.874-6.933c-2.905-1.826-5.105-3.92-6.493-6.043c-1.37-2.125-2.109-4.376-2.41-6.634
		c-0.638-4.482,0.596-11.082,3.907-17.821c3.41-6.668,8.407-13.798,14.253-19.642c5.855-5.912,12.453-10.945,18.836-14.671
		c6.378-3.744,12.419-6.35,17.055-8.173c1.939-0.76,5.841-2.158,9.226-3.508c3.365-1.314,6.243-2.777,5.6-4.512
		c0.454-1.788-2.696-2.839-6.677-3.215c-3.966-0.349-8.644,0.194-10.979,0.553c-5.583,0.853-12.909,2.921-20.692,6.611
		c-7.786,3.67-15.895,9.133-23.125,15.9c-7.276,6.808-13.325,14.869-17.879,23.52c-4.396,8.698-6.725,18.366-5.591,27.016
		c0.539,4.258,2.083,9.135,5.023,13.543c2.928,4.404,7.048,8.021,11.488,10.724c4.46,2.72,9.252,4.654,14.122,6.073
		c4.902,1.422,10.04,2.344,15.237,2.576c10.38,0.554,21.021-1.913,29.113-7.19c8.083-5.279,12.849-12.469,14.988-18.266
		c0.988-2.377,2.286-7.514,1.77-11.853c-0.434-4.371-2.312-7.408-3.93-6.565c-1.844-0.253-2.608,2.731-3.83,5.754
		C200.224,521.568,198.513,524.815,197.425,526.333z"/>
	<path class="st2" d="M278.362,510.936c-2.315,4.508-6.515,11.756-13.282,16.866c-3.291,2.576-7.017,4.614-10.624,5.849
		c-3.611,1.262-7.058,1.686-9.863,1.763c-2.804-0.077-6.25-0.501-9.862-1.762c-3.608-1.234-7.334-3.271-10.625-5.847
		c-6.769-5.108-10.97-12.356-13.283-16.864c-0.6-0.932-1.378-2.882-2.507-4.606c-0.973-1.718-2.338-3.312-4.084-3.025
		c-1.781-0.321-2.949,1.426-3.679,3.813c-0.583,2.338-0.636,5.23-0.42,6.621c0.409,6.777,4.972,17.918,13.997,25.786
		c4.4,3.981,9.692,7.2,15.104,9.208c5.405,2.047,10.867,2.806,15.361,2.872c4.495-0.066,9.954-0.827,15.359-2.873
		c5.411-2.009,10.704-5.23,15.104-9.209c9.024-7.871,13.585-19.012,13.993-25.79c0.214-1.388,0.161-4.283-0.42-6.621
		c-0.731-2.385-1.898-4.132-3.68-3.811c-1.745-0.287-3.11,1.307-4.083,3.025C279.737,508.056,278.96,510.004,278.362,510.936z"/>
	<path class="st3" d="M205.157,482.492c-23.595,3.481-19.134,13.111-17.964,17.922c1.17,4.812,13.762,11.331,23.451,9.689
		c9.691-1.643,21.36-11.918,21.315-19.652C231.914,482.714,219.03,480.445,205.157,482.492z"/>
	<path class="st2" d="M325.898,442.026c-0.179-2.874-2.023-7.075-4.771-10.874c-2.718-3.83-6.315-7.152-8.979-9.235
		c-2.674-2.068-6.783-4.734-11.164-6.422c-4.359-1.726-8.884-2.478-11.715-1.942c-1.209,0.18-4.65,1.074-4.927,4.602
		c-0.761,3.461,1.58,5.42,2.27,6.126c1.756,1.637,4.739,3.27,7.704,5.091c2.978,1.795,5.912,3.816,7.893,5.335
		c1.959,1.546,4.643,3.889,7.117,6.333c2.495,2.425,4.814,4.912,6.834,6.21c0.855,0.496,3.331,2.281,6.496,0.689
		C326.006,446.8,326.023,443.243,325.898,442.026z"/>
	<path class="st2" d="M164.233,448.49c1.997-1.156,4.246-3.507,6.571-5.876c2.31-2.382,4.728-4.762,6.48-6.368
		c1.77-1.587,4.374-3.763,6.969-5.83c2.584-2.084,5.142-4.092,6.488-5.966c0.53-0.793,2.326-3.102,0.917-6.352
		c-0.981-3.397-4.258-3.735-5.383-3.757c-2.659-0.129-6.612,1.124-10.356,3.132c-3.76,1.983-7.24,4.722-9.515,6.776
		c-2.268,2.065-5.332,5.262-7.672,8.812c-2.363,3.53-3.994,7.341-4.122,10.001c-0.089,1.122-0.072,4.416,3.213,5.722
		C160.92,450.503,163.392,448.94,164.233,448.49z"/>
</g>
</svg>
