<?xml version="1.0" encoding="utf-8"?>
<!-- Generator: Adobe Illustrator 22.1.0, SVG Export Plug-In . SVG Version: 6.00 Build 0)  -->
<svg version="1.1" id="_x31__1_" xmlns="http://www.w3.org/2000/svg" xmlns:xlink="http://www.w3.org/1999/xlink" x="0px" y="0px"
	 viewBox="0 0 850 815" style="enable-background:new 0 0 850 815;" xml:space="preserve">
<style type="text/css">
	.st0{fill:#FFFFFF;}
	.st1{fill:#F4CD9A;}
	.st2{fill:#A88C82;}
	.st3{fill:#4D261E;}
	.st4{fill:#4C251D;}
	.st5{fill:#4D251D;}
	.st6{fill:#FCB5A2;}
	.st7{fill:#FFAF3B;}
</style>
<g>
	<path class="st0" d="M256.333,445.055c-13.859-3.464-95.277-25.983-133.389-65.828c-38.112-39.843-30.115-67.162,10.394-53.702
		c40.508,13.46,100.474,34.647,100.474,34.647s181.895,22.519,230.401,25.985c48.503,3.464,79.686-1.733,100.474-17.323
		c20.787-15.591,46.771-57.167,74.49-58.9c27.715-1.732,15.591,29.449,5.197,53.702c-10.394,24.253-83.152,83.151-83.152,83.151
		s19.056,62.364,10.394,97.01c60.63-41.577,72.758-36.378,97.011-36.378c24.25,0,19.054,27.717-10.394,38.111
		c-29.449,10.394-83.152,60.631-107.405,72.757s-31.181,10.394-31.181,10.394s15.59,13.859,43.306,5.196
		c27.718-8.661,32.915-13.858,50.237-15.59c17.325-1.732,20.79,22.52,0,39.843c-20.788,17.324-39.844,19.056-86.615,12.126
		c-46.771-6.93-64.096-24.253-64.096-24.253s-51.969,10.394-110.868-5.196c-58.899-15.591-77.956-25.984-114.333-36.38
		c-36.378-10.393-36.378-31.181-1.732-34.645c34.647-3.465,79.686,12.125,79.686,12.125s-39.843-53.701-50.237-84.884
		C254.599,465.844,256.333,445.055,256.333,445.055z"/>
	<path class="st0" d="M198.918,231.075c14.2-18.859,78.694-40.469,90-43.023c16.855-3.809,36.326-3.328,53.297-3.719
		c19.624-0.452,33.217,0.198,52.82,2.268c56.159,5.934,118.629,26.79,160.209,65.787c12.961,12.152,24.811,26.866,29.554,44.297
		c14.329,52.651-10.5,116.446-73.078,126.945c-62.576,10.499-92.487,0.464-144.888-4.26c-32.022-2.887-137.086-9.425-177.734-46.84
		C148.45,335.114,168.911,270.926,198.918,231.075z"/>
	<path class="st1" d="M584.854,358.245c-50.039,24.414-189.252,3.665-219.235-116.852
		c-44.494,56.438-113.094,138.063-191.773,97.592c0,0-20.504-56.361,10.567-92.498c31.071-36.135,113.41-60.976,130.262-62.794
		c12.59-0.165,61.42,2.235,83.697,4.242c21.227,1.914,39.098,3.526,58.36,8.471l20.571,9.739
		C477.303,206.145,595.49,227.928,584.854,358.245z"/>
	<path class="st1" d="M391.677,186.825c2.286,26.297,19.834,49.031,39.193,50.777c19.358,1.746,33.196-18.158,30.909-44.456
		c-2.289-26.298-19.836-49.031-39.195-50.776C403.225,140.624,389.388,160.528,391.677,186.825z"/>
	<path class="st1" d="M395.948,199.945c2.119,18.05-30.689,39.751-66.595,24.795c-35.906-14.959-39.651-33.817-35.466-36.23
		c4.183-2.413,26.834-0.93,30.528-8.968c3.694-8.039,5.518-43.231,23.783-45.114c18.264-1.883,30.395,12.542,37.175,26.054
		C392.153,173.993,395.948,199.945,395.948,199.945z"/>
	<path class="st2" d="M395.948,199.945c-2.122,18.05,42.193,36.334,77.944,21.011c22.181-9.506,15.593-10.262,11.408-12.674
		c-4.183-2.413-21.021-5.27-24.714-13.308c-3.697-8.039-23.327-53.388-41.592-55.271c-18.265-1.882-17.141,12.446-23.92,25.955
		C388.297,179.169,395.948,199.945,395.948,199.945z"/>
	<path class="st3" d="M402.445,179.811c0.099-3.378,0.014-7.792,0.486-12.444c0.234-2.325,0.616-4.7,1.24-6.993
		c0.596-2.21,1.476-4.321,2.676-6.226c1.187-1.899,2.647-3.549,4.224-4.778c1.6-1.198,3.287-1.952,4.975-2.309
		c3.33-0.739,7.065,0.264,10.072,1.781c3.025,1.446,6.681,4.111,10.207,7.662c3.515,3.511,6.933,8.003,9.908,12.635
		c6.007,9.281,9.574,19.434,11.586,25.641c0.459,1.296,1.261,3.9,2.179,6.148c0.937,2.236,2.05,4.162,3.614,3.798
		c1.544,0.359,2.655-1.676,3.246-4.289c0.61-2.601,0.626-5.716,0.563-7.268c-0.093-7.452-3.081-19.784-9.544-30.992
		c-3.196-5.587-7.016-10.966-11.432-15.559c-4.378-4.563-9.256-8.271-14.021-10.579c-2.361-1.157-5.175-2.275-8.481-2.919
		c-3.276-0.641-7.116-0.763-10.968,0.132c-3.842,0.872-7.566,2.743-10.622,5.251c-3.043,2.529-5.464,5.614-7.26,8.883
		c-1.812,3.258-2.985,6.777-3.612,10.167c-0.618,3.31-0.797,6.483-0.745,9.392c0.124,5.831,1.097,10.626,2.056,14.116
		c0.777,2.974,3.545,11.308,6.493,10.054C402.461,191.283,402.321,182.599,402.445,179.811z"/>
	<path class="st3" d="M330.398,178.495c0.915-3.132,2.122-7.262,3.493-11.953c1.412-4.599,3.183-9.755,5.445-14.131
		c2.08-4.11,5.279-7.166,8.846-9.017c3.548-1.82,7.099-2.106,9.877-1.656c2.77,0.442,6.175,1.885,9.597,4.831
		c3.43,2.876,6.719,6.985,9.544,11.467c5.79,8.923,8.992,18.798,10.776,24.831c0.39,1.262,1.11,3.794,1.923,5.999
		c0.858,2.192,1.856,4.106,3.439,3.827c1.522,0.42,2.751-1.509,3.432-4.036c0.728-2.518,0.843-5.558,0.858-7.084
		c0.044-3.65-0.525-8.503-1.932-13.847c-1.429-5.33-3.735-11.12-6.838-16.628c-3.081-5.489-7.021-10.91-11.949-15.233
		c-4.832-4.372-11.021-7.37-16.547-8.21c-5.46-0.946-12.57-0.176-18.792,3.231c-3.105,1.674-5.999,3.906-8.472,6.575
		c-2.457,2.594-4.582,5.939-5.948,8.989c-2.734,6.112-4.16,11.973-5.125,17.254c-0.937,5.272-1.314,9.936-1.273,13.468
		c-0.093,2.95,0.654,11.769,3.864,11.113C327.635,189.017,329.482,181.1,330.398,178.495z"/>
	<path class="st4" d="M262.663,398.146c-15.143-1.458-29.807-4.485-42.784-10.446c-6.546-2.864-12.488-6.705-17.85-11.122
		c-5.446-4.345-9.989-9.667-13.939-15.385l-2.866-4.373l-2.468-4.651l-1.237-2.324c-0.374-0.797-0.692-1.628-1.041-2.439
		l-2.069-4.892c-2.567-6.56-4.299-13.452-5.269-20.491c-1.935-14.073-0.816-28.75,3.546-42.67
		c4.397-13.899,12.089-26.339,21.779-36.957c9.704-10.624,21.343-19.413,33.904-26.593c12.551-7.14,26.309-12.702,40.404-17.406
		c14.098-4.61,28.804-8.394,43.619-9.581c1.478-0.164,4.219-0.807,6.607-1.762c2.349-0.853,4.438-2.077,4.227-3.526
		c0.492-1.414-1.424-2.841-4.035-3.948c-2.572-1.003-5.766-1.597-7.395-1.502c-16.409,0.852-31.755,4.455-46.629,8.929
		c-14.829,4.592-29.273,10.082-43.048,17.632c-13.68,7.553-26.52,16.979-37.436,28.748c-10.877,11.724-19.795,25.952-24.827,41.908
		c-4.991,15.914-6.2,32.591-3.877,48.614c1.163,8.01,3.22,15.883,6.232,23.356l2.399,5.509c0.41,0.913,0.786,1.839,1.223,2.74
		l1.446,2.653l2.91,5.289l3.389,5.035c9.193,13.347,22.601,23.872,37.45,30.127c14.865,6.408,30.824,9.166,46.752,10.246
		c3.229,0.302,12.202-1.813,11.562-4.68C274.115,401.295,265.639,398.583,262.663,398.146z"/>
	<path class="st4" d="M468.585,207.704c14.901,4.432,28.639,10.784,41.457,18.537c12.79,7.797,24.695,17.045,35.609,27.978
		c10.94,10.914,19.746,23.044,26.427,36.142c3.449,6.519,5.9,13.449,8.104,20.517c1.748,7.167,3.292,14.528,3.493,22.159
		c0.093,1.483,2.572,5.836,5.444,5.635c2.878,0.525,5.252-4.11,5.309-5.843c0.236-8.492-1.033-16.79-2.668-24.892
		c-2.084-7.982-4.578-15.831-8.174-23.161c-6.98-14.745-16.516-28.195-28.367-40.013c-11.821-11.86-24.775-21.613-38.717-29.564
		c-13.966-7.903-28.952-14.05-45.178-17.895c-1.646-0.371-6.703,0.931-6.945,3.838C463.435,203.87,467.132,207.223,468.585,207.704z
		"/>
	<path class="st5" d="M366.168,269.301c11.183-0.113,14.832,8.53,12.6,11.129c-2.234,2.599-8.758,4.013-13.881,3.154
		c-5.123-0.86-13.455-1.606-12.955-7.162C352.43,270.868,358.163,269.383,366.168,269.301z"/>
	<path class="st6" d="M361.002,366.573c13.832-10.525,13.23-47.562,13.23-47.562l-12.243-13.426c0,0-14.079,13.306-16.91,13.612
		C347.972,330.663,342.971,373.92,361.002,366.573z"/>
	<path class="st3" d="M359.086,299.158c-0.066,2.941,0.77,7.858,3.001,12.705c2.139,4.888,5.989,9.347,9.212,11.749
		c3.128,2.483,8.632,5.384,14.686,5.292c5.914,0.057,11.191-2.796,13.313-5.448c0.467-0.525,1.33-1.657,1.676-2.839
		c0.368-1.178,0.239-2.285-0.667-2.715c-0.756-0.676-1.754-0.469-2.655-0.201c-0.896,0.293-1.764,0.667-2.215,0.83
		c-2.058,0.852-5.543,2.006-9.201,1.658c-3.542-0.229-7.145-2.097-9.325-3.834c-2.254-1.703-5.037-4.75-7.038-8.419
		c-2.064-3.62-3.48-7.643-4.661-10.062c-0.522-0.987-1.885-4.12-3.815-3.573C359.364,294.287,359.081,297.909,359.086,299.158z"/>
	<path class="st3" d="M323.607,309.576c0.063,1.747,0.679,4.055,2.034,6.317c1.366,2.24,3.43,4.458,6.09,6.016
		c2.66,1.628,5.851,2.418,8.67,2.542c2.861,0.114,5.455-0.345,7.461-0.975c2.015-0.616,4.353-1.661,6.612-3.192
		c2.257-1.544,4.392-3.623,6.007-5.868c3.326-4.526,4.705-9.62,4.815-12.649c0.119-1.295-0.088-5.035-2.141-5.005
		c-1.918-0.524-3.315,2.478-3.902,3.377c-1.275,2.249-3.029,5.949-5.628,8.888c-2.518,3.022-5.896,4.925-8.457,5.679
		c-2.477,0.825-6.337,1.045-9.215-0.426c-1.514-0.696-2.863-1.813-3.919-2.928c-1.045-1.141-1.781-2.299-2.339-3.22
		c-0.233-0.392-0.692-1.159-1.163-1.947c-0.508-0.756-1.107-1.571-2.121-1.583c-0.957-0.296-1.805,0.45-2.298,1.618
		C323.599,307.377,323.563,308.853,323.607,309.576z"/>
	<path class="st3" d="M344.359,325.034c-0.536,4.842-0.679,12.87-0.648,21.19c0.018,2.085,0.038,4.187,0.055,6.262
		c0.036,2.131,0.121,4.428,0.574,6.802c0.47,2.398,1.262,4.762,2.809,6.989c1.553,2.178,3.512,3.671,5.592,4.645
		c2.053,0.923,4.949,1.62,8.115,0.619c3.178-0.983,5.439-3.563,6.648-5.758c1.3-2.3,1.932-4.256,2.71-6.242
		c0.742-2.01,1.443-4.066,2.072-6.122c2.55-8.223,3.878-16.441,3.955-21.428c0.097-2.092-0.069-8.28-2.135-7.95
		c-1.921-0.662-3.418,5.095-4.048,6.975c-1.363,4.551-3.303,12.094-6.044,19.653c-0.682,1.891-1.404,3.785-2.155,5.637
		c-0.767,1.854-1.514,3.769-2.204,4.885c-0.723,1.212-1.292,1.547-1.575,1.623c-0.283,0.105-0.877,0.052-1.53-0.237
		c-1.407-0.671-2.658-1.953-3.29-5.057c-0.618-2.924-0.564-7.411-0.833-11.537c-0.426-8.308-1.011-16.316-1.811-21.121
		c-0.336-2.01-1.35-7.992-3.336-7.437C345.268,316.98,344.584,323.01,344.359,325.034z"/>
	<path class="st6" d="M206.489,299.062c-1.805,18.981,12.117,35.83,31.099,37.634c18.979,1.804,35.828-12.118,37.633-31.099
		c1.803-18.98-12.119-35.829-31.098-37.633C225.142,266.157,208.292,280.081,206.489,299.062z"/>
	<path class="st6" d="M451.289,322.337c-1.805,18.981,12.12,35.829,31.098,37.633c18.982,1.805,35.831-12.119,37.634-31.1
		c1.806-18.979-12.119-35.828-31.099-37.633C469.943,289.432,453.094,303.356,451.289,322.337z"/>
	<path class="st3" d="M470.094,305.217c1.833,0.104,4.768-0.088,7.81-0.17c3.04-0.096,6.178-0.059,8.371,0.038
		c2.191,0.106,5.32,0.36,8.338,0.736c3.021,0.363,5.928,0.826,7.761,0.891c0.762,0.013,3.056,0.15,3.287-1.149
		c0.594-1.176-1.47-2.404-2.191-2.783c-1.693-0.933-4.713-1.915-7.932-2.571c-3.218-0.67-6.614-0.987-8.986-1.102
		c-2.374-0.105-5.785-0.105-9.05,0.267c-3.264,0.354-6.364,1.054-8.137,1.827c-0.75,0.31-2.921,1.342-2.438,2.57
		C467.038,305.083,469.333,305.159,470.094,305.217z"/>
	<path class="st3" d="M470.174,323.987c3.308,1.29,11.177,2.615,15.381,3.444c4.216,0.77,12.021,2.419,15.575,2.432
		c0.741-0.007,2.962-0.013,3.116-1.321c0.503-1.216-1.467-2.292-2.135-2.644c-3.179-1.719-11.138-3.563-15.439-4.348
		c-4.29-0.847-12.373-2.046-15.959-1.612c-0.75,0.083-2.979,0.361-2.957,1.678C467.42,322.89,469.484,323.71,470.174,323.987z"/>
	<path class="st3" d="M464.537,339.847c3.216,1.973,11.29,4.706,15.634,6.132c4.343,1.426,12.466,4.011,16.225,4.327
		c0.784,0.065,3.128,0.251,3.353-1.048c0.588-1.18-1.41-2.419-2.081-2.832c-3.212-1.973-11.289-4.708-15.632-6.133
		c-4.342-1.426-12.468-4.01-16.225-4.327c-0.785-0.066-3.127-0.25-3.355,1.048C461.869,338.196,463.867,339.435,464.537,339.847z"/>
	<path class="st3" d="M258.928,285.398c-1.596-1.093-4.51-2.362-7.648-3.327c-3.135-0.979-6.488-1.623-8.838-1.966
		c-2.349-0.334-5.746-0.664-9.033-0.611c-3.285,0.037-6.437,0.433-8.275,1.03c-0.777,0.237-3.037,1.054-2.677,2.321
		c-0.016,1.319,2.262,1.618,3.016,1.748c1.811,0.281,4.754,0.376,7.788,0.588c3.034,0.198,6.156,0.54,8.327,0.848
		c2.17,0.318,5.263,0.874,8.228,1.54c2.971,0.653,5.821,1.395,7.637,1.638c0.759,0.086,3.029,0.445,3.386-0.826
		C261.541,287.268,259.607,285.844,258.928,285.398z"/>
	<path class="st3" d="M255.028,299.253c-3.441-1.103-11.603-1.448-15.976-1.427c-4.372-0.038-12.537,0.273-15.983,1.362
		c-0.719,0.218-2.858,0.904-2.594,2.194c-0.093,1.314,2.086,1.737,2.811,1.883c3.49,0.658,11.469,0.508,15.756,0.547
		c4.285-0.021,12.259,0.16,15.752-0.484c0.732-0.143,2.911-0.557,2.823-1.871C257.887,300.168,255.751,299.474,255.028,299.253z"/>
	<path class="st3" d="M257.029,313.741c-3.752-0.398-12.216,0.61-16.75,1.192c-4.534,0.582-12.979,1.745-16.508,3.078
		c-0.736,0.278-2.932,1.119-2.578,2.389c-0.022,1.318,2.314,1.578,3.097,1.66c3.751,0.398,12.215-0.609,16.75-1.192
		c4.534-0.581,12.979-1.744,16.509-3.076c0.736-0.28,2.932-1.12,2.578-2.39C260.148,314.085,257.813,313.826,257.029,313.741z"/>
	<path class="st3" d="M415.611,271.937c1.883-0.978,4.463-3.005,7.181-5.014c2.707-2.023,5.568-4.003,7.615-5.32
		c2.055-1.302,5.054-3.068,8.027-4.673c2.965-1.621,5.89-3.111,7.568-4.407c0.684-0.555,2.842-2.126,2.083-4.185
		c-0.338-2.164-3.196-2.325-4.169-2.32c-2.305-0.035-5.927,0.855-9.494,2.284c-3.578,1.41-7.061,3.375-9.405,4.865
		c-2.339,1.5-5.584,3.835-8.369,6.488c-2.797,2.636-5.125,5.546-6.063,7.656c-0.414,0.878-1.47,3.54,0.352,4.756
		C412.49,273.622,414.82,272.327,415.611,271.937z"/>
	<path class="st3" d="M438.707,290.107c-1.222-3.63-6.969-9.624-10.3-12.539c-3.251-3.003-9.817-8.084-13.557-8.919
		c-0.775-0.191-3.091-0.689-4.188,1.208c-1.388,1.693-0.203,3.66,0.178,4.32c1.899,3.112,7.822,8.02,10.871,10.835
		c3.122,2.734,8.627,8.108,11.922,9.667c0.697,0.311,2.778,1.28,4.315-0.279C439.718,293.111,438.979,290.857,438.707,290.107z"/>
	<path class="st3" d="M450.39,269.933c-3.425-1.868-11.757-2.967-16.234-3.488c-4.476-0.521-12.842-1.361-16.604-0.33
		c-0.786,0.215-3.127,0.878-3.193,3.068c-0.44,2.146,1.69,3.326,2.404,3.718c3.425,1.867,11.76,2.968,16.237,3.487
		c4.476,0.521,12.842,1.362,16.602,0.33c0.786-0.215,3.13-0.878,3.196-3.067C453.234,271.504,451.107,270.322,450.39,269.933z"/>
	<path class="st3" d="M330.472,255.994c-0.316-2.286-1.747-5.728-3.704-9.036c-1.94-3.32-4.414-6.463-6.244-8.551
		c-1.841-2.082-4.642-4.934-7.69-7.28c-3.034-2.362-6.266-4.219-8.492-4.825c-0.931-0.274-3.724-0.912-4.647,1.075
		c-1.301,1.768,0.338,3.875,0.841,4.597c1.256,1.711,3.652,3.951,6.051,6.332c2.413,2.366,4.807,4.893,6.42,6.714
		c1.602,1.833,3.803,4.527,5.846,7.221c2.055,2.683,3.971,5.347,5.51,6.808c0.651,0.592,2.534,2.483,4.452,1.419
		C330.903,259.803,330.625,256.954,330.472,255.994z"/>
	<path class="st3" d="M300.744,275.907c3.598-0.585,10.377-4.224,14.134-5.986c3.71-1.861,10.762-4.934,13.447-7.399
		c0.55-0.529,2.231-2.091,1.368-4.103c-0.528-2.124-2.894-2.289-3.691-2.319c-3.823-0.235-11.542,2.828-15.497,4.815
		c-4.007,1.877-11.188,6.044-13.37,9.194c-0.47,0.646-1.803,2.607-0.459,4.334C297.722,276.368,299.989,276.013,300.744,275.907z"/>
	<path class="st3" d="M290.379,254.225c3.328,2.033,11.597,3.542,16.044,4.283c4.444,0.74,12.757,1.991,16.566,1.145
		c0.794-0.176,3.169-0.722,3.342-2.906c0.544-2.121-1.525-3.406-2.221-3.832c-3.328-2.034-11.597-3.542-16.044-4.284
		c-4.446-0.739-12.759-1.991-16.566-1.144c-0.797,0.177-3.169,0.723-3.342,2.905C287.614,252.514,289.683,253.801,290.379,254.225z"
		/>
	<path class="st4" d="M319.378,578.059c-9.61-8.652-17.701-18.201-24.624-28.5c-6.909-10.311-12.664-21.395-17.215-33.438
		c-4.49-12.064-7.448-24.199-9.026-36.509c-1.558-12.311-1.745-24.826-0.195-37.661c0.116-1.266-1.717-5.293-4.583-5.568
		c-2.773-0.876-5.746,2.512-6.041,3.898c-2.608,13.706-3.127,27.309-1.896,40.736c1.248,13.429,4.246,26.713,9.146,39.831
		c4.935,13.102,11.416,25.081,19.306,36.018c7.904,10.922,17.245,20.828,28.222,29.438c1.132,0.851,5.6,1.447,7.115-1.037
		C321.565,583.174,320.296,578.934,319.378,578.059z"/>
	<path class="st4" d="M578.324,533.708c4.476-14.586,5.582-29.18,3.44-44.379c-2.258-15.181-7.456-28.863-15.887-41.582
		c-0.459-0.631-3.59-1.193-5.942,0.484c-2.514,1.394-3.608,4.33-3.338,4.948c6.101,12.352,9.813,24.606,11.853,38.077
		c1.866,13.498,1.781,26.302-0.566,39.877c-0.083,0.669,1.797,3.176,4.605,3.796C575.222,535.869,578.066,534.445,578.324,533.708z"
		/>
	<path class="st4" d="M457.511,640.845c-14.178,3.409-28.911,4.209-43.397,3.902c-14.513-0.331-28.925-1.913-43.089-4.49
		c-7.135-1.241-14.01-2.916-21.098-4.745c-7.178-1.839-14.37-3.681-21.598-5.533c-14.445-3.643-28.989-7.19-43.6-11.22
		c-14.623-4.002-28.769-8.421-42.581-13.399c-3.435-1.286-6.865-2.568-10.289-3.848l-5.098-2.008l-1.275-0.5
		c-0.45-0.17-0.868-0.34-1.039-0.448c-0.498-0.227-0.989-0.455-1.41-0.781c-3.573-2.234-5.084-7.63-3.119-11.384
		c0.511-0.904,1.044-1.818,1.901-2.524c0.297-0.388,0.995-0.764,1.556-1.152l1.729-1.198c1.371-0.606,2.685-1.3,4.125-1.863
		c1.542-0.433,2.996-1.014,4.601-1.371c6.386-1.517,13.424-1.95,20.521-1.761c14.236,0.41,28.875,2.729,43.419,6.239
		c2.899,0.628,11.611,0.67,11.842-2.24c1.566-2.558-6.109-7.348-9.15-8.172c-15.063-4.099-30.194-6.955-45.708-7.766
		c-7.755-0.366-15.656-0.129-23.703,1.602c-2.006,0.411-4.031,1.117-6.04,1.686c-2.01,0.728-4.013,1.689-5.994,2.597l-2.88,1.86
		c-0.959,0.654-1.896,1.172-2.87,2.14c-1.975,1.678-3.545,3.877-4.787,6.192c-4.958,9.507-1.721,21.896,7.139,27.898
		c1.069,0.785,2.22,1.395,3.405,1.944c0.649,0.323,1.089,0.499,1.501,0.662l1.302,0.528l5.216,2.112
		c3.507,1.346,7.019,2.693,10.539,4.044c14.154,5.222,28.689,9.813,43.573,13.883c14.879,4.108,29.536,7.626,43.98,11.156
		c7.205,1.774,14.381,3.54,21.537,5.302c7.24,1.784,14.725,3.499,22.142,4.67c14.882,2.472,29.915,3.831,45.165,3.833
		c15.227-0.039,30.752-1.239,46.244-5.441c3.185-0.735,10.844-6.057,9.041-8.464C468.761,639.904,460.335,640.356,457.511,640.845z"
		/>
	<path class="st4" d="M492.003,643.868c15.95-0.763,31.03-5.444,44.773-11.765c13.793-6.341,26.38-14.43,38.307-23.07
		c23.773-17.203,45.334-36.572,71.193-49.551c6.304-3.264,13.298-5.697,20.506-9.742c3.576-2.06,7.107-4.427,10.314-7.67
		c3.254-3.286,5.747-7.16,7.42-11.516c1.6-4.356,2.399-9.377,1.253-14.497c-1.089-5.133-4.202-9.728-8.269-12.797
		c-4.114-3.014-8.734-4.495-13.018-5.088c-4.323-0.606-8.476-0.507-12.497-0.061c-3.999,0.42-8,1.385-11.536,2.353
		c-3.639,0.96-7.253,2.037-10.812,3.269c-7.135,2.423-14.117,5.32-20.906,8.681c-13.57,6.719-26.375,15.273-37.964,25.604
		c-2.36,2.079-6.923,9.788-4.353,11.335c1.57,2.46,9.146-1.429,11.394-3.206c11.147-9.346,23.321-17.009,36.104-22.971
		c6.394-2.98,12.941-5.535,19.602-7.651c3.322-1.082,6.689-2.016,10.072-2.845c3.469-0.879,6.552-1.558,9.77-1.849
		c6.299-0.665,12.787,0.129,16.241,2.862c1.666,1.327,2.877,3.156,3.268,5.164c0.462,2.024,0.14,4.522-0.786,6.992
		c-0.97,2.46-2.526,4.883-4.466,6.799c-1.974,1.99-4.603,3.804-7.436,5.411c-5.702,3.229-12.837,5.772-19.909,9.383
		c-14.021,7.013-26.537,15.692-38.351,24.598c-11.823,8.924-22.983,18.138-34.422,26.691c-11.394,8.528-23.176,16.399-35.847,22.579
		c-12.628,6.17-26.174,10.719-40.302,11.825c-1.407,0.044-4.051,0.945-6.351,1.772c-2.292,0.914-4.277,2.189-4.035,3.634
		c-0.434,1.425,1.438,2.801,3.925,3.843C487.365,643.511,490.409,643.848,492.003,643.868z"/>
	<path class="st4" d="M169.807,336.415c-4.851-3.344-9.654-6.656-14.429-9.947c-4.745-3.317-9.962-6.71-15.554-9.385
		c-5.634-2.63-11.864-4.893-19.059-4.912c-3.554-0.039-7.365,0.691-10.812,2.283c-3.413,1.535-6.606,3.872-9.014,6.853
		c-4.842,5.955-6.604,13.28-6.444,20.188c0.08,3.447,0.734,7.048,1.786,10.25c1.055,3.215,2.477,6.241,4.101,9.058
		c3.273,5.628,7.31,10.422,11.377,14.838c2.064,2.194,4.265,4.322,6.412,6.491c2.152,2.175,4.518,4.082,6.788,6.145
		c18.647,15.837,38.898,27.552,59.826,37.321c10.468,4.908,21.175,9.252,32.173,13.084c10.99,3.848,22.252,7.246,33.921,10.013
		c2.369,0.493,9.41-0.298,9.495-3.237c1.119-2.689-4.625-6.57-6.832-7.182c-11.144-3.102-21.939-6.768-32.461-10.806
		c-10.534-4.023-20.79-8.485-30.785-13.418c-19.988-9.8-39.266-21.282-56.558-35.969c-2.083-1.903-4.301-3.674-6.255-5.653
		c-1.96-1.982-3.955-3.884-5.876-5.901c-3.801-4.077-7.214-8.162-9.745-12.434c-1.256-2.133-2.292-4.301-3.048-6.501
		c-0.744-2.215-1.129-4.272-1.237-6.512c-0.201-4.395,0.979-8.799,3.309-11.728c1.132-1.48,2.619-2.594,4.347-3.44
		c1.685-0.837,3.578-1.304,5.711-1.328c4.246-0.149,9.133,1.265,13.882,3.348c4.82,2.142,9.396,4.875,14.26,8.033
		c4.89,3.114,9.811,6.249,14.78,9.414c2.004,1.234,8.825,2.849,9.971,0.157C175.866,343.429,171.722,337.778,169.807,336.415z"/>
	<path class="st4" d="M542.271,466.556c23.898-14.533,45.417-31.1,65.022-49.695c9.784-9.324,19.131-19.098,27.972-29.525
		c8.802-10.449,17.577-22.005,22.873-36.237c1.322-3.573,2.325-7.133,3.086-11.008c0.729-4.01,0.888-8.014,0.517-12.017
		c-0.385-3.996-1.294-8.012-3.048-11.925c-1.723-3.883-4.529-7.744-8.514-10.495c-3.996-2.733-8.846-4.135-13.535-3.853
		c-4.732,0.201-8.912,1.844-12.388,3.816c-6.948,3.993-11.958,9.378-16.531,14.101c-18.476,19.127-36.867,38.333-55.876,58.328
		c-1.875,2.02-5.544,9.211-3.056,10.783c1.618,2.461,8.741-1.336,10.729-3.246c19.655-19.358,38.532-38.088,57.33-56.899
		c2.394-2.393,4.584-4.635,6.871-6.619c2.272-1.978,4.6-3.777,6.914-5.021c4.658-2.664,8.835-2.645,11.957-0.468
		c3.141,2.053,5.343,7.236,5.785,12.741c0.247,2.754,0.124,5.616-0.379,8.33c-0.564,2.829-1.405,5.905-2.484,8.797
		c-4.343,11.75-12.067,22.288-20.427,32.334c-8.435,10.116-17.371,19.697-26.68,28.877c-18.671,18.318-39.098,34.905-61.868,49.8
		c-2.223,1.534-7.502,7.521-5.512,9.698C531.937,469.948,539.871,468.016,542.271,466.556z"/>
	<path class="st4" d="M524.883,637.665c6.252,2.387,12.845,3.903,19.482,4.441c6.642,0.515,13.282,0.018,19.669-1.204
		c6.403-1.22,12.537-3.184,18.405-5.627c5.936-2.491,11.135-5.325,16.162-7.163c2.476-0.911,5.002-1.622,7.258-1.903
		c2.204-0.308,4.532-0.153,6.676,0.298c2.116,0.504,4.106,1.326,5.469,2.466c1.423,1.101,2.245,2.425,2.688,3.914
		c0.918,2.935-0.423,7.525-3.249,10.679c-2.913,3.367-7.53,5.983-12.859,8.196c-21.952,8.941-45.183,12.74-68.177,11.914
		c-23-0.853-45.994-6.219-67.531-16.824c-2.097-1.073-9.201-2.223-10.223,0.496c-2.001,2.179,3.031,7.728,5.273,9.05
		c22.61,12.187,47.143,18.675,71.893,20.059c24.77,1.346,49.922-2.472,73.971-12.29c6.046-2.555,12.62-5.887,17.786-11.804
		c2.624-3.03,4.57-6.537,5.721-10.446c1.146-3.879,1.446-8.319,0.187-12.652c-1.226-4.314-3.999-8.193-7.379-10.716
		c-3.356-2.619-7.121-4.021-10.825-4.84c-3.724-0.738-7.47-0.889-11.191-0.331c-3.68,0.541-6.918,1.574-10.034,2.774
		c-6.164,2.425-11.438,5.474-16.519,7.72c-5.15,2.286-10.479,4.138-15.915,5.33c-5.433,1.196-10.981,1.778-16.538,1.533
		c-5.555-0.275-11.103-1.338-16.52-3.176c-1.085-0.347-3.323-0.572-5.433-0.462c-2.089,0.083-4.109,0.59-4.518,1.989
		c-0.913,1.157-0.058,3.034,1.415,4.814C521.502,635.648,523.637,637.179,524.883,637.665z"/>
	<path class="st7" d="M680.062,165.809c-3.902,2.199-10.028,9.653-13.249,13.7c-3.221,4.048-9.111,11.689-10.38,15.984
		c-0.264,0.899-1.037,3.586,1.068,4.987c1.834,1.735,4.282,0.38,5.096-0.08c3.905-2.199,10.031-9.652,13.252-13.7
		c3.221-4.047,9.11-11.688,10.377-15.985c0.266-0.897,1.036-3.586-1.067-4.985C683.325,163.995,680.878,165.35,680.062,165.809z"/>
	<path class="st7" d="M736.076,228.539c-4.273,1.47-11.74,7.732-15.693,11.151c-3.951,3.418-11.223,9.907-13.292,13.925
		c-0.434,0.84-1.707,3.357,0.104,5.118c1.482,2.046,4.155,1.148,5.049,0.84c4.273-1.469,11.743-7.731,15.695-11.149
		c3.952-3.419,11.223-9.908,13.293-13.926c0.431-0.838,1.706-3.357-0.105-5.117C739.643,227.334,736.97,228.231,736.076,228.539z"/>
	<path class="st7" d="M774.051,291.921c-4.378,0.025-13.079,3.549-17.712,5.513c-4.634,1.965-13.216,5.766-16.281,8.891
		c-0.638,0.653-2.536,2.62-1.36,4.856c0.789,2.399,3.52,2.403,4.436,2.398c4.375-0.025,13.076-3.548,17.712-5.511
		c4.633-1.966,13.216-5.766,16.277-8.892c0.64-0.654,2.54-2.621,1.363-4.856C777.698,291.921,774.964,291.917,774.051,291.921z"/>
	<path class="st7" d="M795.402,363.215c-3.52-1.589-11.597-1.519-15.925-1.401c-4.328,0.119-12.395,0.49-15.824,2.266
		c-0.714,0.372-2.847,1.5-2.6,4.012c-0.11,2.522,2.081,3.534,2.817,3.864c3.518,1.588,11.595,1.52,15.923,1.402
		c4.328-0.118,12.395-0.489,15.824-2.267c0.715-0.373,2.85-1.5,2.6-4.013C798.329,364.557,796.136,363.548,795.402,363.215z"/>
	<path class="st7" d="M799.444,430.663c-3.635-2.204-12.598-3.599-17.413-4.267c-4.818-0.667-13.82-1.764-17.916-0.633
		c-0.857,0.237-3.41,0.963-3.556,3.484c-0.547,2.466,1.712,3.861,2.473,4.321c3.633,2.204,12.595,3.599,17.41,4.268
		c4.818,0.668,13.821,1.764,17.918,0.632c0.855-0.237,3.408-0.963,3.554-3.485C802.462,432.517,800.203,431.124,799.444,430.663z"/>
	<path class="st7" d="M785.695,498.796c-3.617-3.324-13.79-6.954-19.367-8.414c-5.529-1.612-16.126-3.724-20.936-2.731
		c-1.006,0.184-3.977,0.82-4.101,3.346c-0.585,2.46,1.976,3.926,2.817,4.429c4.087,2.305,13.921,4.567,19.144,6.087
		c5.26,1.38,14.86,4.491,19.548,4.611c0.982,0.003,3.93,0.059,4.694-2.352C788.688,501.544,786.465,499.471,785.695,498.796z"/>
	<path class="st7" d="M763.441,563.016c-1.545-1.737-4.628-3.83-8.019-5.628c-3.386-1.81-7.074-3.298-9.676-4.236
		c-5.167-2.001-15.223-4.513-19.814-3.84c-0.962,0.117-3.793,0.55-3.93,2.733c-0.574,2.109,1.822,3.479,2.611,3.948
		c3.822,2.152,12.974,4.702,17.742,6.546c4.855,1.633,13.461,5.499,17.706,6.389c0.901,0.146,3.586,0.7,4.554-1.264
		C765.958,565.941,764.105,563.728,763.441,563.016z"/>
	<path class="st7" d="M73.647,508.958c-5.291,0.894-16.047,6.066-21.783,8.907c-5.738,2.84-16.374,8.26-20.29,11.926
		c-0.819,0.765-3.248,3.064-1.984,5.016c0.786,2.189,4.087,1.651,5.194,1.463c5.288-0.893,16.047-6.066,21.782-8.907
		c5.736-2.84,16.371-8.261,20.29-11.926c0.819-0.765,3.248-3.064,1.984-5.016C78.055,508.232,74.752,508.771,73.647,508.958z"/>
	<path class="st7" d="M53.926,449.621c-4.576-0.972-14.772,0.196-20.229,0.895c-5.458,0.7-15.621,2.142-19.804,4.237
		c-0.874,0.436-3.476,1.762-2.954,4.024c0.066,2.32,2.915,2.945,3.875,3.148c4.575,0.972,14.772-0.197,20.229-0.896
		c5.458-0.699,15.621-2.141,19.804-4.236c0.874-0.439,3.476-1.761,2.954-4.025C57.735,450.448,54.882,449.824,53.926,449.621z"/>
	<path class="st7" d="M36.093,374.103c-3.347-1.698-11.284-2.195-15.544-2.387c-4.257-0.193-12.207-0.413-15.695,0.977
		c-0.728,0.291-2.902,1.176-2.828,3.493c-0.28,2.3,1.803,3.377,2.501,3.731c3.35,1.699,11.287,2.195,15.546,2.387
		c4.257,0.193,12.207,0.412,15.695-0.978c0.728-0.29,2.9-1.177,2.828-3.491C38.876,375.535,36.794,374.458,36.093,374.103z"/>
	<path class="st7" d="M59.744,308.112c-3.477-3.07-12.846-7.001-17.896-9.039c-5.051-2.039-14.525-5.714-19.158-5.918
		c-0.967-0.042-3.861-0.15-4.515,2.078c-1.075,2.057,1.082,3.986,1.808,4.628c3.476,3.07,12.845,7.001,17.896,9.04
		c5.054,2.039,14.527,5.714,19.157,5.916c0.971,0.042,3.861,0.149,4.516-2.076C62.627,310.683,60.47,308.753,59.744,308.112z"/>
	<path class="st7" d="M87.193,254.338c-2.025-3.721-8.953-9.727-12.716-12.891c-3.762-3.163-10.87-8.958-14.882-10.314
		c-0.838-0.283-3.351-1.112-4.683,0.789c-1.644,1.637-0.396,3.968,0.027,4.746c2.025,3.722,8.953,9.728,12.716,12.892
		c3.763,3.163,10.87,8.958,14.882,10.314c0.842,0.283,3.353,1.112,4.683-0.789C88.864,257.448,87.616,255.115,87.193,254.338z"/>
	<path class="st7" d="M144.089,203.835c-1.507-4.118-7.621-11.433-10.957-15.307c-3.337-3.875-9.663-11.01-13.513-13.111
		c-0.803-0.438-3.215-1.732-4.826-0.064c-1.891,1.346-0.967,3.923-0.653,4.783c1.506,4.118,7.623,11.433,10.959,15.307
		c3.337,3.875,9.663,11.009,13.511,13.11c0.805,0.438,3.215,1.732,4.828,0.064C145.325,207.272,144.405,204.695,144.089,203.835z"/>
</g>
</svg>
