<?xml version="1.0" encoding="utf-8"?>
<!-- Generator: Adobe Illustrator 22.1.0, SVG Export Plug-In . SVG Version: 6.00 Build 0)  -->
<svg version="1.1" id="_x31__1_" xmlns="http://www.w3.org/2000/svg" xmlns:xlink="http://www.w3.org/1999/xlink" x="0px" y="0px"
	 viewBox="0 0 850 815" style="enable-background:new 0 0 850 815;" xml:space="preserve">
<style type="text/css">
	.st0{fill:#89E264;}
	.st1{fill:#C0DDFF;}
	.st2{fill:#FC7848;}
	.st3{fill:#FFFFFF;}
	.st4{fill:#FFCBC2;}
	.st5{fill:#68211D;}
</style>
<g>
	<path class="st0" d="M665.799,587.583c-112.895,135.007-307.414,180.08-468.288,108.56
		c-39.439-17.533-76.311-41.919-104.565-74.847c-25.942-30.234-43.821-66.404-56.335-104.029
		c-12.648-38.026-20.115-77.573-26.115-117.122c-2.253-14.855-6.699-31.147-4.957-46.102c1.061-9.109,2.837-18.157,4.08-27.243
		c9.934-72.573,72.405-131.742,129.045-172.327c69.912-50.094,153.917-77.754,239.832-80.535
		c42.486-1.376,86.822,2.378,127.555,15.115c17.341,5.424,34.369,12.9,48.917,23.928c13.637,10.337,19.972,24.084,30.838,36.39
		c12.676,14.354,25.136,26.265,33.274,44.108c5.12,11.226,6.86,22.658,10.159,34.331c2.944,10.417,6.904,20.63,10.128,30.972
		c14.858,47.669,27.5,96.194,36.211,145.38c8.873,50.101,17.251,106.984,2.391,156.781
		C675.173,570.319,671.326,579.473,665.799,587.583z"/>
	<path class="st1" d="M279.283,250.23c-25.382-22.225-29.283-63.113-7.875-89.265c21.433-26.182,59.328-32.211,87.268-12.905
		c6.777,4.682,12.751,10.541,17.414,17.345c1.986,2.899,8.428,11.61,7.124,14.839c-1.114,2.756-9.823,6.615-12.197,8.214
		c-17.352,11.684-34.704,23.369-52.055,35.053C305.736,232.418,292.51,241.324,279.283,250.23z"/>
	<path class="st2" d="M794.596,539.32c-2.95-11.8-10.579-22.171-17.411-31.99c-5.984-8.598-4.192-12.413-0.165-21.13
		c10.914-23.624,9.339-49.471-2.375-72.589c-11.047-21.802-29.022-44.403-53.612-51.103c-6.652-1.812-13.573-2.308-20.408-1.415
		c-4.745,0.62-10.901,3.846-15.586,1.972c-9.297-3.716-15.865-27.038-19.339-35.479c6.408,2.306,14.985,3.049,18.498-2.695
		c5.473-8.948,4.703-28.454,0.786-37.719c-8.346-19.746-34.905-22.525-41.639,0.184c-6.171-7.34-13.285-12.676-22.383-15.661
		c-5.157-1.691-7.498-1.937-10.308-6.485c-8.322-13.474-11.742-27.97-21.74-40.857c-28.426-36.643-74.142-54.334-119.141-58.912
		c-90.652-9.225-193.651,37.933-210.631,135.26c-1.852,10.617-2.443,21.447-1.629,32.196c0.754,9.973,5.486,20.53,5.449,30.132
		c-0.008,1.849-1.809,4.87-1.263,6.662c0.927,3.049,11.207,10.064,13.632,12.553c8.596,8.83,16.236,18.595,22.757,29.051
		c12.388,19.862,20.74,42.261,24.095,65.442c0.897,6.193,0.413,12.451,1.246,18.596c0.856,6.314,0.868,4.913,7.828,5.809
		c18.201,2.34,36.55,2.42,54.673,5.393c25.838,4.237,51.005,12.528,74.292,24.502c6.993,3.596,20.285,15.667,28.388,13.097
		c4.546-1.442,5.618-6.267,8.843-9.248c4.555-4.21,11.628-7.067,17.195-9.792c22.522-11.026,47.648-16.765,72.727-16.536
		c11.464,0.105,23.571-2.91,34.648,0.806c10.839,3.636,20.675,11.011,27.298,20.298c15.921,22.328,21.053,50.816,40.148,71.188
		c8.521,9.092,20.884,17.67,33.935,17.069c6.504-0.299,11.779-2.389,14.336-8.561c2.207-5.326-0.74-12.119,4.5-16.123
		c3.881-2.966,9.407-1.387,13.852-2.882c4.687-1.576,8.517-4.534,10.719-9.008c5.248-10.657-1.352-23.519-7.989-31.835
		C768.808,558.949,799.913,560.587,794.596,539.32z"/>
	<path class="st3" d="M680.112,328.457c-14.895,4.032-28.858-8.015-34.716-20.753c-3.323-7.226-4.247-15.444-1.166-22.904
		c1.903-4.61,5.653-6.679,8.107-10.532c0.934-0.57,1.867-1.142,2.799-1.713c-1.097-2.493-2.188-4.989-3.274-7.486
		c-3.271-7.551-3.675-12.35-12.282-12.56c-5.044-0.123-10.057,1.249-14.67,3.189c-12.057,5.072-21.973,14.828-29.424,25.374
		c-4.642,6.571-8.441,13.738-11.423,21.205c-2.387,5.976-1.114,5.549-6.264,6.398c-4.311,0.712-10.482-1.204-14.956-1.364
		c-17.31-0.622-34.691,2.086-51.055,7.739c-16.447,5.682-31.85,14.319-45.349,25.291c-2.928,2.379-5.767,4.87-8.509,7.462
		c-5.207,4.921-5.771,4.648-1.619,10.515c6.16,8.704,11.665,17.845,16.957,27.095c-4.002-6.859,26.929-12.72,32.047-12.407
		c12.913,0.792,24.878,12.491,17.518,25.616c-3.273,5.836-9.55,9.865-14.964,13.468c-3.597,2.393-12.591,6.051-13.616,9.886
		c-1.528,5.718,9.176,18.731,11.853,23.294c5.789,9.864,11.957,19.516,18.841,28.657c16.211-12.408,31.924-25.856,50.167-35.263
		c20.177-10.406,36.35-11.026,57.705-5.422c6.797,1.783,9.977,0.986,13.131-5.798c4.309-9.269,9.517-17.92,16.331-25.586
		c6.219-6.997,30.297-30.038,40.81-20.68C695.733,363.474,687.962,345.947,680.112,328.457z"/>
	<path class="st4" d="M339.812,245.352c-19.494-14.347,8.274-42.909,23.232-23.767C375.937,238.085,356.563,257.695,339.812,245.352
		z"/>
	<path class="st4" d="M340.71,278.951c3.725-8.529-2.489-18.957-10.402-22.423c-11.172-4.893-19.415,2.935-23.386,12.842
		c-8.784,21.908-11.754,46.615-8.92,70.007c1.189,9.814,3.963,21.06,15.75,22.195c9.328,0.897,18.443-6.845,19.869-15.884
		c1.567-9.937-2.179-21.512-1.353-31.901C333.216,301.839,336.092,290.01,340.71,278.951z"/>
	<path class="st5" d="M316.606,517.919c5.594-68.994-33.553-136.564-96.169-166.083c-4.151-1.957-15.131-5.024-12.757-11.933
		c2.474-7.201,12.905-2.162,17.132-0.419c14.835,6.119,28.82,14.241,41.45,24.14c27.421,21.494,47.878,51.531,57.595,85.017
		c5.29,18.231,7.441,37.3,6.597,56.255c-0.255,5.726,0.754,18.279-5.424,21.783C319.479,529.824,316.412,522.882,316.606,517.919z"
		/>
	<path class="st5" d="M481.673,551.129c-23.774-14.758-50.242-25.605-77.265-32.721c-12.179-3.208-24.626-5.724-37.128-7.281
		c-5.084-0.633-14.351,0.962-17.853-3.394c-4.412-5.486,0.384-9.848,5.525-10.671c12.195-1.954,27.526,1.192,39.643,3.242
		c15.432,2.612,30.6,7.082,45.135,12.857c11.512,4.575,22.562,10.284,33.109,16.773c4.94,3.038,14.191,6.873,17.031,12.077
		C492.707,547.21,487.9,554.862,481.673,551.129z"/>
	<path class="st5" d="M562.208,127.893c-33.381-33.763-87.502-41.66-132.67-45.116c-45.294-3.466-91.236-0.109-135.494,10.18
		c-93.496,21.736-182.879,76.099-241.124,153.142c-14.444,19.107-25.509,39.383-33.211,62.045
		c-1.186,3.489-5.742,22.483-11.434,19.646c-7.183-3.58-0.13-25.696,1.668-30.997C25.04,252.262,57.586,214.21,91.715,182.85
		C161.362,118.852,249.2,78.712,343.319,68.652c53.34-5.702,110.123-2.926,161.637,12.881c24.065,7.384,50.345,18.868,67.152,38.38
		c3.435,3.989,14.055,17.599,11.355,23.542C580.715,149.505,565.774,131.47,562.208,127.893z"/>
	<path class="st5" d="M646.023,618.438C551.977,712.59,416.13,755.67,285.15,731.425c-64.027-11.852-128.349-38.561-176.707-83.028
		c-40.318-37.072-65.584-86.225-81.383-138.089c-8.615-28.281-14.539-57.299-19.353-86.445c-0.994-6.014-11.324-66.43-1.5-64.154
		c4.667,1.081,7.774,21.799,8.432,25.297c3.283,17.459,5.529,35.108,8.905,52.563c5.522,28.537,12.395,56.903,22.252,84.277
		c18.469,51.287,47.655,97.328,91.643,130.364c53.041,39.835,119.313,62.047,184.951,68.434c73.072,7.11,146.788-6.408,212.66-38.75
		c33.497-16.446,64.66-37.909,92.155-63.124c5.786-5.305,11.334-10.863,17.205-16.078c2.886-2.564,15.101-16.06,19.28-15.192
		C671.691,589.162,650.055,614.606,646.023,618.438z"/>
	<path class="st5" d="M585.99,231.095c-40.314-53.128-116.417-66.574-178.87-55.511c-66.83,11.839-129.05,57.382-141.396,127.403
		c-2.951,16.738,0.245,31.839,0.342,48.361c0.025,4.254,0.294,11.761-5.508,9.701c-5.539-1.967-7.498-13.493-8.288-18.323
		c-5.529-33.827,3.161-68.995,20.641-98.146c35.234-58.756,103.407-87.71,170.171-88.177c38.105-0.267,77.813,8.067,110.558,28.108
		c15.725,9.625,30.743,22.207,41.371,37.41c2.135,3.055,11.01,16.872,7.176,20.9C598.177,247.035,588.364,234.364,585.99,231.095z"
		/>
	<path class="st5" d="M374.219,174.608c-16.255-28.982-54.117-38.895-82.195-21.274c-13.829,8.678-23.912,22.848-26.464,39.081
		c-2.776,17.651,3,31.939,11.948,46.693c2.522,4.16,5.613,11.487-1.699,12.528c-7.021,0.999-12.764-9.856-15.649-14.789
		c-8.307-14.203-11.796-31.336-9.501-47.647c4.735-33.66,35.857-59.818,69.518-60.565c17.878-0.397,35.443,6.69,48.707,18.589
		c6.161,5.527,15.16,14.541,16.956,22.85C387.911,179.66,378.747,184.144,374.219,174.608z"/>
	<path class="st5" d="M427.712,118.656c-16.192,9.004-30.338,23.494-42.464,37.317c-5.62,6.405-11.336,13.182-15.657,20.572
		c-3.053,5.223-6.179,13.164,2.293,7.377c7.683-5.25,13.763-15.102,20.066-21.908c5.361-5.787,10.869-11.425,16.551-16.899
		c7.496-7.223,16.082-13.724,23.018-21.481C436.962,117.546,435.387,114.28,427.712,118.656z"/>
	<path class="st5" d="M259.548,269.625c-11.945-6.79-28.563-7.332-41.865-5.538c-5.621,0.758-14.938,1.779-19.364,5.81
		c-4.62,4.207-2.406,5.228,2.783,5.421c12.986,0.483,25.643-3.498,38.953-2.216c5.674,0.546,11.874,2.641,17.552,2.483
		C262.716,275.443,266.008,273.079,259.548,269.625z"/>
	<path class="st5" d="M512.629,135.203c-8.127,2.14-14.608,11.313-17.563,18.693c-1.526,3.813-5.63,18.791,3.014,15.313
		c3.288-1.323,7.853-16.754,10.807-20.597C509.954,147.224,523.429,131.91,512.629,135.203z"/>
	<path class="st5" d="M577.308,315.04c-26.95-2.888-54.486,2.58-78.918,14.1c-10.84,5.11-21.217,11.463-30.594,18.932
		c-4.242,3.378-8.38,9.783-14.235,5.775c-6.213-4.254-1.674-9.083,2.096-12.754c19.013-18.514,42.222-31.71,68.141-37.724
		c13.538-3.141,27.44-3.989,41.282-2.812c4.759,0.405,12.966-0.086,16.531,3.563C585.05,307.641,583.631,315.638,577.308,315.04z"/>
	<path class="st5" d="M642.374,259.151c-17.521-1.287-33.495,16.335-42.557,29.297c-2.792,3.995-5.36,8.197-7.609,12.52
		c-1.386,2.663-2.722,8.508-5.037,10.156c-2.882,2.052-9.351,0.435-10.971-2.846c-1.532-3.101,2.177-10.127,3.296-13.01
		c6.532-16.834,17.778-32.502,33.463-41.896c7.656-4.584,16.559-7.69,25.572-7.423c3.195,0.094,6.812,0.012,8.383,3.256
		C647.96,251.361,646.12,259.74,642.374,259.151z"/>
	<path class="st5" d="M696.247,381.365c-6.076-11.384-12-22.648-16.754-34.676c-1.349-3.414-7.863-15.98-6.884-19.392
		c0.955-3.33,8.3-7.13,11.591-5.203c3.549,2.078,7.047,13.049,8.943,16.937c3.008,6.165,5.793,12.475,8.299,18.861
		c1.813,4.621,4.543,10.086,5.286,14.973c0.719,4.731,1.879,4.502-2.27,7.511C703.102,381.358,697.548,383.513,696.247,381.365z"/>
	<path class="st5" d="M651.557,280.184c-3.624-5.417-6.748-10.547-8.596-16.884c-1.382-4.734-1.93-5.249,1.256-8.185
		c1.251-1.153,6.736-3.457,8.544-2.973c4.379,1.174,8.611,14.018,9.354,18.045c0.858,4.649,1.474,4.047-1.532,6.961
		C659.82,277.887,652.618,281.419,651.557,280.184z"/>
	<path class="st5" d="M627.54,437.962c-37.86-12.914-77.047,26.219-104.098,46.814c-5.878-8.124-39.68-51.744-27.789-58.197
		c8.967-4.866,17.405,17.086,21.147,22.756c1.895,2.873,7.232,13.367,10.109,13.177c2.747-0.182,9.588-7.611,11.99-9.451
		c6.29-4.817,12.708-9.476,19.387-13.743c9.815-6.271,20.295-11.704,31.557-14.846c12.006-3.35,24.59-3.861,36.603-0.323
		c3.624,1.068,10.968,3.403,10.296,8.824C636.241,437.02,631.113,438.85,627.54,437.962z"/>
	<path class="st5" d="M467.024,387.291c-5.395-7.001-10.482-13.863-14.771-21.629c-1.843-3.336-4.33-6.303-2.861-9.596
		c0.895-2.007,6.604-6.179,8.975-5.75c5.621,1.018,13.413,16.71,15.623,21.157c1.279,2.573,4.429,7.798,3.535,10.463
		C477.054,383.339,468.7,389.122,467.024,387.291z"/>
	<path class="st5" d="M697.732,385.901c-14.806,4.549-27.153,17.481-36.233,29.443c-2.865,3.776-8.252,16.524-12.02,17.84
		c-2.968,1.037-8.716-0.968-10.125-3.87c-1.209-2.491,1.22-6.165,2.198-8.527c6.045-14.585,15.757-27.687,28.708-36.872
		c5.54-3.929,11.732-7.05,18.262-8.954c3.975-1.159,7.354-2.784,10.078,1.171C699.708,377.737,700.528,385.04,697.732,385.901z"/>
	<path class="st5" d="M502.428,489.898c-19.169-15.922-35.622-44.473-19.085-68.218c7.172-10.297,19.477-13.393,28.014-21.927
		c9.302-9.296,4.31-17.376-7.709-18.225c-26.509-1.876-46.825,23.182-49.485,47.459c-2.813,25.683,9.034,49.855,26.54,67.953
		c2.499,2.583,16.877,14.414,9.342,18.847c-8.595,5.057-23.687-14.796-27.657-19.554c-15.573-18.672-25.213-42.332-23.557-66.907
		c1.761-26.115,17.583-50.347,42.444-59.84c20.208-7.715,62.265-1.362,49.222,29.804c-9.911,23.681-48.186,23.518-37.904,56.163
		c4.162,13.215,15.933,19.157,22.572,30.333C522.268,497.74,508.702,495.307,502.428,489.898z"/>
	<path class="st5" d="M678.735,320.414c2.076-10.496,3.784-22.797-2.001-32.467c-6.934-11.592-21.545-12.298-26.073,1.653
		c-2.008,6.18-0.371,12.784,2.58,18.367c2.524,4.774,8.653,8.436,5.526,14.247c-7.09,13.17-20.165-11.486-22.103-17.497
		c-9.601-29.789,25.541-57.108,48.539-31.604c8.472,9.395,10.632,21.986,9.205,34.208c-0.624,5.34-0.711,15.954-5.968,18.84
		C684.604,328.266,677.885,325.772,678.735,320.414z"/>
	<path class="st5" d="M596.858,515.336c-21.081-0.46-42.583,3.329-62.538,9.99c-8.875,2.963-17.64,6.481-25.957,10.774
		c-4.259,2.199-7.24,5.552-11.624,2.171c-5.708-4.402-2.441-8.518,1.537-11.596c16.999-13.152,40.01-20.809,60.985-23.834
		c8.592-1.238,17.319-1.552,25.987-1.176c4.323,0.186,12.363-0.666,15.095,3.279C602.133,507.528,601.774,515.324,596.858,515.336z"
		/>
	<path class="st5" d="M735.046,592.992c-28.014-21.116-31.698-57.554-45.693-87.22c-14.248-30.201-47.267-47.37-79.417-33.396
		c-6.651,2.89-12.796,10.235-19.507,11.937c-7.991,2.027-9.421-5.148-5.44-10.769c8.7-12.286,30.093-19.251,44.168-20.634
		c37.771-3.712,65.745,22.321,78.528,55.581c6.642,17.281,10.19,35.744,18.521,52.368c4.452,8.884,10.308,14.736,16.635,22.102
		c2.026,2.359,5.83,6.813,3.977,10.097C744.8,596.634,737.56,595.043,735.046,592.992z"/>
	<path class="st5" d="M747.982,601.516c-0.083,22.795-26.074,26.865-42.783,19.889c-17.2-7.18-29.162-22.525-37.796-38.486
		c-9.478-17.52-15.307-37.285-27.29-53.393c-5.612-7.543-12.722-14.416-21.333-18.42c-4.486-2.085-17.471-5.402-10.759-12.939
		c10.536-11.834,38.961,16.27,44.638,23.467c12.359,15.671,18.776,34.757,27.959,52.241c7.883,15.01,20.45,33.7,38.675,36.641
		c10.069,1.625,12.61-2.596,16.461-10.497c1.259-2.583,2.176-7.011,5.903-6.929C745.209,593.169,748.058,598.443,747.982,601.516z"
		/>
	<path class="st5" d="M764.257,580.865c4.619-4.979-1.239-11.284-4.44-15.089c-5.782-6.875-11.512-13.379-16.18-21.121
		c-8.637-14.325-14.256-30.113-21.026-45.339c-11.95-26.877-30.433-55.103-63.694-52.322c-4.184,0.35-12.245,2.046-12.371-4.949
		c-0.147-8.15,14.494-8.733,19.816-8.793c16.056-0.183,31.595,6.865,43.261,17.637c24.03,22.191,30.96,55.339,45.639,83.345
		c6.591,12.575,22.788,25.51,23.778,40.109c0.433,6.387-2.5,15.353-9.252,17.514C760.992,594.67,759.502,586.616,764.257,580.865z"
		/>
	<path class="st5" d="M785.592,551.612c11.933-6.037-12.7-28.919-15.862-33.723c-9.566-14.534-14.658-31.262-20.306-47.556
		c-8.755-25.252-25.935-63.239-59.678-56.009c-4.24,0.908-14.066,5.339-15.484-2.255c-1.6-8.575,13.632-11.134,19.249-11.706
		c17.236-1.755,34.166,5.955,45.903,18.281c22.908,24.057,25.503,58.687,40.707,86.959c7.392,13.747,25.256,26.963,21.32,44.422
		c-1.573,6.978-8.689,15.862-16.846,13.512C776.826,561.301,780.208,554.74,785.592,551.612z"/>
	<path class="st5" d="M774.897,474.944c7.256-25.049-1.499-52.209-16.718-72.454c-7.055-9.387-15.459-17.781-24.668-25.049
		c-4.19-3.307-12.274-6.933-8.209-13.547c3.946-6.42,10.137-1.283,14.526,1.609c22.077,14.551,40.655,34.862,48.414,60.591
		c3.78,12.536,4.719,25.891,2.489,38.809c-0.868,5.028-1.485,14.718-6.908,16.936C779.638,483.549,773.811,480.043,774.897,474.944z
		"/>
	<path class="st5" d="M622.023,224.385c-3.982-16.716-11.711-32.878-21.239-47.108c-1.999-2.986-4.089-5.926-6.284-8.772
		c-1.891-2.453-8.576-7.843-9.125-10.525c-0.63-3.079,1.621-7.359,4.555-8.663c4.507-2.004,6.365,1.115,9.674,4.104
		c12.376,11.178,22.123,24.931,28.218,40.501c2.618,6.686,4.408,13.699,5.635,20.766c0.731,4.206,2.482,8.137-1.61,10.944
		C629.922,226.951,622.929,227.679,622.023,224.385z"/>
	<path class="st5" d="M495.413,301.848c0,8.488-13.16,8.488-13.159,0C482.255,293.361,495.413,293.361,495.413,301.848z"/>
	<path class="st5" d="M548.047,279.291c0,8.486-13.158,8.486-13.158,0C534.889,270.804,548.047,270.804,548.047,279.291z"/>
</g>
</svg>
