<?xml version="1.0" encoding="utf-8"?>
<!-- Generator: Adobe Illustrator 22.1.0, SVG Export Plug-In . SVG Version: 6.00 Build 0)  -->
<svg version="1.1" id="_x31__1_" xmlns="http://www.w3.org/2000/svg" xmlns:xlink="http://www.w3.org/1999/xlink" x="0px" y="0px"
	 viewBox="0 0 850 815" style="enable-background:new 0 0 850 815;" xml:space="preserve">
<style type="text/css">
	.st0{fill:#E5B267;}
	.st1{fill:#FFFFFF;}
	.st2{fill:#FF9345;}
	.st3{fill:#4D261E;}
	.st4{fill:#4D251D;}
</style>
<g>
	<path class="st0" d="M688.354,357.847l18.68,26.146c0,0,24.293,0,28.047,24.289c3.707,24.29-33.653,63.554-54.191,63.554
		c-20.581,0-29.425,10.337-29.425,10.337l-24.764,0.881c0,0-14.97,78.482-69.163,108.379c-54.188,29.899-72.868-3.754-72.868-3.754
		v112.134H84.803c0,0-44.87-85.99,18.683-220.513C32.47,421.355-29.184,369.064,26.859,303.658
		c56.044-65.407,149.499-113.986,155.106-119.598c5.61-5.609,7.464-42.972,7.464-57.944c0-14.926,18.683-28,39.263-5.607
		c20.535,22.436,24.29,43.016,24.29,43.016l113.986,1.855c0,0,9.319-56.045,37.364-48.583c28.044,7.466,39.217,74.728,39.217,74.728
		s18.68,26.189,29.9,39.263c11.219,13.073,46.724,76.626,48.579,104.624c1.9,26.19,26.193-63.508,127.106-100.916
		c65.362-22.389,104.625-29.899,125.161-7.462c20.581,22.435,29.899,50.481,9.364,69.162
		c-20.58,18.681-84.087,42.973-100.916,42.973C665.918,339.167,688.354,357.847,688.354,357.847z"/>
	<path class="st1" d="M342.317,590.437c11.672,33.065,12.757,73.412,5.565,109.375H135.781
		c-23.701-92.638,12.892-189.846,18.366-225.942c5.79-38.131-22.254-61.244-38.085-113.128
		c-12.711-41.57,11.307-59.618,31.164-57.719c24.245,2.308,31.165,13.841,58.851,20.763c0,0,24.652,17.732,60.024,8.097
		c38.085-10.405,68.12-11.536,90.06,5.746c21.937,17.324,0,65.813-18.501,90.058C319.206,451.934,321.51,531.589,342.317,590.437z"
		/>
	<path class="st2" d="M240.9,401.845c-5.906,10.335-32.486,72.35-48.728,56.107c-16.24-16.241-8.856-64.967-8.856-64.967
		l19.194-17.717C202.509,375.268,212.846,407.751,240.9,401.845z"/>
	<path class="st3" d="M144.369,195.195c-16.384,9.122-42.532,26.111-68.492,45.357c-13.007,9.6-26.223,20.017-37.412,31.424
		c-11.244,11.323-20.161,23.831-25.737,35.172c-5.622,11.315-10.256,26.493-10.688,43.106c-0.229,8.297,0.499,16.918,2.305,25.449
		c0.961,4.253,2.093,8.5,3.595,12.639c1.44,4.186,3.111,8.089,5.494,12.392c4.658,8.045,10.189,14.301,15.656,20.213
		c5.483,5.878,11.074,11.093,16.444,15.864c10.761,9.514,20.701,17.158,28.398,22.581c6.371,4.648,25.934,17.47,26.776,13.072
		c3.852-1.977-13.424-17.289-18.952-22.676c-6.727-6.336-15.802-14.599-25.603-24.3c-4.888-4.853-9.98-10.064-14.802-15.64
		c-4.791-5.532-9.603-11.511-12.817-17.469c-1.447-2.741-2.945-6.277-4.027-9.733c-1.184-3.451-2.057-7.001-2.806-10.55
		c-1.389-7.125-1.921-14.323-1.673-21.234c0.495-13.888,4.323-26.272,8.984-35.687c4.676-9.471,12.221-20.258,22.338-30.63
		c10.047-10.431,22.389-20.498,34.95-30.239c25.118-19.588,50.084-37.519,64.861-48.753c6.111-4.774,24.752-18.477,21.064-20.802
		C171.776,180.328,151.175,191.287,144.369,195.195z"/>
	<path class="st3" d="M524.803,347.868c1.525-9.065,1.359-24.413-1.329-39.974c-2.58-15.586-7.721-31.194-12.134-41.713
		c-4.429-10.508-11.845-25.201-21.266-37.959c-9.308-12.818-20.366-23.618-28.139-28.641c-1.504-1.178-4.866-3.118-7.948-4.342
		c-3.09-1.23-5.902-1.689-6.724,0.19c-1.528,1.306-0.447,3.995,1.251,6.632c1.703,2.643,4.084,5.215,5.113,6.708
		c5.453,6.511,14.391,17.192,22.266,29.286c7.962,12.036,14.623,25.491,18.689,35.119c4.042,9.646,8.854,23.884,11.953,38.03
		c3.193,14.13,4.745,28.035,5.881,36.512c0.631,3.507,1.474,14.192,5.528,13.741C521.761,362.82,524.328,351.699,524.803,347.868z"
		/>
	<path class="st3" d="M251.74,156.433c0.338-3.97,0.311-9.373-0.83-15.702c-1.139-6.264-3.746-13.68-8.377-20.065
		c-4.509-6.219-9.971-11.449-16.309-15.451c-3.183-1.971-6.518-3.683-10.258-4.715c-3.697-1.011-7.652-1.583-11.57-0.858
		c-3.845,0.669-8.131,2.279-11.702,5.757c-3.383,3.332-5.317,7.137-6.707,10.781c-2.688,7.348-3.407,14.624-3.646,21.677
		c-0.048,1.761-0.042,3.506,0,5.229l0.091,2.543c-0.003,0.563,0.064,1.066,0.037,1.676c-0.04,2.379-0.393,5.075-0.804,7.658
		c-0.863,5.209-1.905,10.097-2.386,13.889c-0.203,1.589-0.625,4.773-0.435,7.677c0.184,2.91,1.051,5.427,3.069,5.469
		c1.848,0.806,3.682-0.875,5.334-3.048c1.65-2.183,3.127-4.981,3.855-6.406c1.746-3.416,3.815-8.089,5.658-13.966
		c0.897-2.967,1.755-6.215,2.202-10.066c0.127-0.944,0.155-2.019,0.215-3.039l0.097-2.239c0.075-1.48,0.172-2.972,0.303-4.456
		c0.51-5.9,1.507-11.921,3.214-16.143c0.822-2.096,1.845-3.61,2.479-4.183c0.451-0.465,1.296-0.744,2.012-0.886
		c1.471-0.361,5.323,0.365,9.507,2.975c4.171,2.46,8.593,6.375,11.952,10.496c6.607,7.813,8.782,19.302,10.651,26.395
		c0.852,2.891,2.867,12.142,6.785,11.251C250.17,169.357,251.52,159.823,251.74,156.433z"/>
	<path class="st3" d="M361.106,159.218c-12.361-2.859-41.184-3.593-56.642-3.859c-15.457-0.266-44.29-0.526-56.741,1.907
		c-2.601,0.51-10.352,2.059-9.779,6.026c-0.709,3.946,6.984,5.761,9.567,6.359c12.358,2.862,41.181,3.594,56.642,3.86
		c15.457,0.266,44.29,0.526,56.739-1.907c2.604-0.509,10.354-2.059,9.781-6.026C371.382,161.632,363.689,159.816,361.106,159.218z"
		/>
	<path class="st3" d="M445.508,178.242c-1.353-7.304-4.981-18.919-9.08-30.839c-2.045-5.84-4.094-12.196-7.211-18.342
		c-3.038-6.063-7.28-11.936-12.605-15.682c-2.61-1.866-5.899-3.603-9.763-4.589c-3.898-1.028-8.307-1.146-12.464-0.292
		c-8.401,1.721-15.503,6.779-20.466,13.004c-2.477,3.075-4.525,6.766-5.803,10.194c-1.305,3.421-2.105,6.802-2.57,9.938
		c-0.915,6.294-0.601,11.581-0.046,15.429c0.425,3.296,2.368,12.434,6.31,11.529c3.966,0.615,5.401-8.447,6.074-11.263
		c0.746-3.446,1.477-7.934,2.846-12.467c0.68-2.267,1.525-4.534,2.597-6.678c1.07-2.146,2.257-3.868,3.834-5.617
		c3.069-3.424,7.234-5.851,10.63-6.395c1.703-0.297,3.19-0.2,4.506,0.162c1.372,0.366,2.623,1.012,3.713,1.785
		c2.196,1.488,4.827,4.68,7.226,9.222c2.422,4.466,4.586,10.265,7.054,16.177c4.827,11.641,9.805,22.746,13.632,29.112
		c1.601,2.661,6.398,10.575,9.833,8.464C447.725,190.402,446.073,181.296,445.508,178.242z"/>
	<path class="st3" d="M328.977,303.813c1.318-2.76,1.87-7.754,1.046-12.647c-0.753-4.91-2.586-9.615-4.048-12.73
		c-1.45-3.132-3.909-7.366-6.851-10.953c-2.924-3.601-6.311-6.544-9.038-7.606c-1.133-0.478-4.595-1.638-7.199,1.366
		c-2.948,2.638-2.223,5.816-2.042,6.882c0.502,2.546,2.266,5.809,4.042,9.111c1.788,3.294,3.586,6.611,4.674,8.958
		c1.093,2.346,2.501,5.695,3.664,8.925c1.218,3.236,2.006,6.345,3.372,8.415c0.486,0.804,1.979,3.566,5.918,3.906
		C326.41,308.28,328.359,305.029,328.977,303.813z"/>
	<path class="st3" d="M171.8,281.491c4.537-1.358,10.872-7.738,14.47-11.02c3.507-3.382,10.279-9.295,11.922-13.736
		c0.324-0.938,1.353-3.757-1.109-6.863c-2.114-3.353-5.244-3.169-6.295-3.067c-5.054,0.365-13.052,6.667-16.94,10.423
		c-3.996,3.639-10.796,11.217-11.485,16.238c-0.169,1.042-0.553,4.154,2.658,6.478C167.963,282.601,170.843,281.753,171.8,281.491z"
		/>
	<path class="st3" d="M198.026,372.254c-2.833,2.287-6.536,5.299-10.977,8.129c-4.425,2.796-9.624,5.424-14.838,6.667
		c-5.229,1.276-10.168,1.018-14.073-0.671c-3.936-1.664-7.132-4.709-9.473-7.778c-2.36-3.174-4.594-7.199-5.598-11.906
		c-1.058-4.672-0.836-9.994,0.762-15.12c1.558-5.134,4.431-9.953,7.612-13.83c3.217-3.838,6.528-7.032,9.285-9.152
		c1.066-1.05,3.453-2.66,5.432-4.533c2.027-1.667,3.733-3.702,2.876-5.498c-0.082-2.043-2.655-2.718-5.885-2.715
		c-3.123,0.186-6.769,1.155-8.455,1.927c-4.259,1.443-9.425,4.627-14.502,9.276c-5.029,4.678-9.781,11.137-12.657,18.838
		c-2.933,7.647-3.727,16.551-2.093,24.453c1.525,7.943,5.265,14.593,8.754,19.226c3.552,4.668,9.165,10.312,17.239,13.518
		c3.991,1.587,8.446,2.428,12.817,2.466c4.38,0.045,8.654-0.682,12.588-1.877c7.884-2.421,14.39-6.594,19.495-10.851
		c5.09-4.305,8.779-8.793,11.065-12.47c0.994-1.502,2.758-4.668,3.607-7.652c0.876-2.992,0.752-5.746-1.154-6.347
		c-1.541-1.335-3.797-0.128-6.069,1.414C201.515,369.332,199.249,371.327,198.026,372.254z"/>
	<path class="st3" d="M282.522,382.873c-4.556,3.551-11.995,9.274-20.689,11.855c-4.326,1.36-8.718,1.879-12.853,1.709
		c-4.145-0.23-7.945-1.1-10.899-2.182c-2.964-1.056-6.362-2.839-9.5-5.312c-3.114-2.546-5.836-5.695-7.631-9.427
		c-1.894-3.71-2.87-7.922-3.223-11.718c-0.321-3.819-0.013-7.234,0.307-9.868c0.106-1.115,0.472-3.3,0.708-5.421
		c0.181-2.116,0.223-4.326-1.501-5.38c-1.257-1.539-3.632-0.989-5.864,0.662c-2.263,1.604-4.102,4.283-4.897,5.674
		c-2.003,3.295-3.781,8.252-4.274,14.104c-0.465,5.827,0.321,12.543,2.945,18.89c2.52,6.428,7.042,12.205,11.932,16.331
		c4.951,4.145,10.255,6.898,14.774,8.522c4.516,1.652,10.259,2.946,16.56,3.114c6.3,0.132,13.164-1.03,19.194-3.438
		c6.084-2.355,11.446-5.819,15.574-9.498c4.142-3.687,7.105-7.543,8.857-10.692c0.755-1.297,2.114-3.982,2.601-6.552
		c0.513-2.572,0.189-4.918-1.692-5.579c-1.58-1.254-3.662-0.4-5.613,0.766C285.398,380.625,283.51,382.155,282.522,382.873z"/>
	<path class="st4" d="M222.37,308.495c-25.791-3.645-24.38,9.176-24.783,15.234c-0.401,6.06,10.539,17.887,21.203,19.133
		c10.663,1.246,26.301-7.04,28.86-16.178C250.209,317.546,237.531,310.638,222.37,308.495z"/>
	<path class="st3" d="M681.149,345.689c14.262,1.788,33.579,0.007,53.672-7.274c10.071-3.663,20.251-8.271,30.338-14.755
		c9.992-6.474,19.765-14.974,26.8-26.228c6.93-11.054,11.176-24.64,9.775-38.56c-0.779-6.899-2.869-13.662-6.117-19.575
		c-3.214-5.942-7.413-11.085-12.053-15.401c-9.339-8.632-20.329-13.981-31.116-17.002c-11.025-2.915-21.3-3.152-30.373-2.486
		c-18.258,1.247-38.853,7.953-59.321,16.519c-20.638,8.533-42.353,19.236-62.217,32.402c-19.877,13.09-37.82,28.668-51.341,44.83
		c-13.635,16.056-22.955,32.32-28.365,45.125c-2.392,5.289-6.373,16.217-8.15,25.79c-1.824,9.584-1.713,17.514,0.444,16.47
		c1.737,1.721,4.384-5.496,7.933-13.956c3.518-8.497,8.207-18.203,10.92-22.9c6.187-11.361,15.647-25.876,28.881-40.286
		c13.109-14.486,30.122-28.564,49.074-40.599c18.922-12.091,39.714-22.116,59.648-30.222c19.975-8.24,38.607-14.059,53.863-15.069
		c7.551-0.584,16.082-0.286,24.271,1.877c8.256,2.285,16.804,6.452,23.646,12.736c6.863,6.242,11.693,14.537,12.748,23.61
		c1.057,9.121-1.673,19.115-6.848,27.656c-5.106,8.53-12.805,15.72-21.254,21.491c-8.452,5.78-17.837,10.42-26.685,14.016
		c-17.853,7.263-34.82,9.755-47.281,9.433c-5.244,0.067-15.584-1.098-23.972-3.919c-8.41-2.626-14.992-6.455-15.212-3.994
		c-2.326,0.538,2.803,6.965,11.657,11.985c1.103,0.604,2.218,1.286,3.396,1.839c1.199,0.513,2.41,1.033,3.622,1.552
		c2.413,1.122,4.96,1.745,7.355,2.521C673.718,344.645,678.17,345.378,681.149,345.689z"/>
	<path class="st3" d="M620.985,413.776c-0.918,2.906-1.731,6.479-2.064,10.668c-0.326,4.111-0.015,9.215,1.556,14.211
		c1.606,4.978,4.241,10.172,8.805,14.557c2.263,2.178,5.012,4.124,8.156,5.507c3.147,1.399,6.621,2.17,9.992,2.297
		c6.842,0.275,12.856-1.77,17.925-4.13c5.141-2.451,9.355-5.262,13.385-8.194c8.05-5.899,14.611-12.755,19.199-19.113
		c4.556-6.369,9.319-14.951,11.506-25.551c2.185-10.444,1.49-22.265-2.827-32.928c-2.123-5.324-5.271-10.278-9.101-14.391
		c-3.834-4.167-8.552-7.422-13.17-9.487c-9.338-4.2-18.535-4.419-24.958-2.892c-2.694,0.476-8.041,2.331-11.578,5.351
		c-3.598,3.002-5.139,6.472-3.389,7.492c0.927,1.866,4.05,0.904,7.382,0.289c3.369-0.674,7.153-0.976,9.086-0.837
		c4.525,0.027,10.73,1.154,16.505,4.474c2.897,1.677,5.48,3.793,7.719,6.551c2.262,2.776,4.15,6.055,5.419,9.695
		c2.591,7.248,2.967,15.684,1.295,22.988c-1.585,7.257-5.123,13.777-8.609,18.618c-3.522,4.871-8.687,10.365-15.243,15.318
		c-6.582,5.032-14.39,9.578-20.088,9.497c-2.822,0.014-5.105-0.854-7.413-2.725c-2.272-1.839-4.104-4.667-5.361-7.549
		c-2.493-5.693-2.29-12.244-1.982-17.304c0.114-2.116,0.634-6.436,0.873-10.37c0.205-3.923-0.073-7.402-2.142-7.483
		c-1.686-1.168-4.057,1.345-6.202,4.856C623.499,406.674,621.725,411.321,620.985,413.776z"/>
	<path class="st3" d="M675.563,482.039c1.143,0.92,2.903,1.809,4.489,2.316c1.592,0.532,3.341,0.859,5.105,0.967
		c3.552,0.221,7.09-0.407,10.313-1.31c6.223-1.81,12.572-4.374,18.934-7.967c6.295-3.571,12.352-8.08,17.32-13.148
		c4.988-5.009,8.896-10.574,11.476-15.477c2.595-4.868,5.129-11.192,6.365-18.453c1.235-7.228,1.18-15.439-1.073-23.119
		c-2.223-7.81-6.525-14.609-11.458-19.419c-4.873-4.913-10.388-7.839-14.711-9.193c-1.788-0.612-5.531-1.468-8.738-1.131
		c-3.221,0.252-5.661,1.628-5.362,3.579c-0.51,1.992,1.453,3.45,3.446,4.956c2.04,1.436,4.245,2.91,5.292,3.763
		c2.517,1.962,5.74,4.634,8.534,8.407c2.86,3.693,5.207,8.405,6.289,13.356c1.169,5.071,1.027,10.571,0.07,15.605
		c-0.967,5.048-2.803,9.605-4.68,13.114c-1.855,3.52-4.621,7.54-8.367,11.476c-3.697,3.934-8.337,7.67-13.307,10.899
		c-4.917,3.209-10.413,5.982-15.058,8.064c-4.419,2.04-7.295,2.156-8.528,2.08c-0.685-0.04-2.262-0.679-3.507-1.562
		c-0.644-0.43-1.254-0.946-1.831-1.592c-0.589-0.619-1.201-1.381-2.181-1.59c-0.822-0.574-1.812-0.518-2.815,0.467
		c-0.998,0.956-1.72,2.949-1.592,5.096C670.126,476.652,673.458,480.608,675.563,482.039z"/>
	<path class="st3" d="M581.217,483.029c-9.959,2.913-23.31,6.667-38.221,6.985c-14.862,0.354-31.657-3.048-44.013-13.156
		c-6.401-5.109-12.472-11.977-19.752-18.61c-3.655-3.308-7.676-6.581-12.325-9.319c-4.624-2.745-9.951-4.84-15.445-5.789
		c-5.525-0.948-10.893-0.691-15.696,0.074c-4.845,0.743-9.159,1.987-13.149,3.206c-3.791,1.238-7.455,2.435-10.974,3.584
		c-3.319,1.077-6.25,1.87-9.119,2.431c-5.625,1.121-11.932,1.45-16.747-0.385c-4.836-1.791-8.12-5.534-9.247-11.664
		c-0.507-3.004-0.392-6.382,0.357-9.656c0.425-1.621,0.903-3.257,1.625-4.76c0.311-0.787,0.758-1.461,1.133-2.218
		c0.499-0.752,0.921-1.544,1.48-2.273c4.159-6.003,10.727-11.002,18.103-15.172c7.401-4.156,15.669-7.703,23.547-10.778
		c7.954-3.033,15.829-5.568,23.393-7.495c15.118-3.921,28.827-5.82,39.187-6.832c4.329-0.55,12.977-1.052,20.375-1.605
		c7.389-0.592,13.564-1.109,12.721-3.266c1.35-1.766-4.586-4.07-12.195-5.463c-7.588-1.436-16.765-2.054-21.371-2.043
		c-11.029-0.288-25.806,0.677-42.245,4.093c-8.219,1.677-16.814,4.067-25.516,7.067c-2.19,0.718-4.359,1.543-6.537,2.389
		c-2.192,0.812-4.377,1.687-6.546,2.638c-4.353,1.796-8.754,3.826-13.142,6.184c-8.703,4.71-17.638,10.905-24.187,19.971
		c-0.843,1.094-1.556,2.302-2.314,3.462c-0.695,1.265-1.471,2.534-2.043,3.853c-1.262,2.608-2.135,5.327-2.854,8.066
		c-1.319,5.497-1.625,11.195-0.718,16.829c0.981,5.603,3.138,11.25,6.929,15.849c3.764,4.62,8.664,7.979,13.69,9.795
		c5.017,1.864,9.956,2.492,14.39,2.489c4.456,0.001,8.513-0.531,12.222-1.253c3.679-0.712,7.546-1.781,11.204-2.976
		c3.459-1.14,7.065-2.327,10.795-3.552c7.123-2.241,14.267-3.909,20.493-2.831c6.256,0.967,12.53,4.854,18.904,10.562
		c6.413,5.622,12.808,12.709,20.958,19.005c8.283,6.464,18.109,10.689,27.633,12.945c9.585,2.288,19.018,2.69,27.712,2.113
		c17.538-1.278,31.694-6.535,41.774-10.862c4.243-1.814,12.464-5.746,18.958-9.733c6.513-3.966,11.455-7.807,9.63-9.14
		c0.19-2.272-5.957-0.979-13.17,1.142C593.805,479.128,585.432,481.722,581.217,483.029z"/>
	<path class="st3" d="M85.791,682.827c-1.504-10.886-4.307-28.733-5.235-47.389c-1.072-18.646-0.042-37.976,1.444-51.375
		c1.605-13.387,5.005-32.441,10.295-50.356c5.15-17.953,11.944-34.694,15.889-44.95c1.516-4.319,7.02-16.922,3.042-18.063
		c-2.713-3.095-11.395,8.263-14.016,12.322c-6.532,9.476-15.14,26.682-21.391,45.548c-6.397,18.825-10.156,39.159-11.853,53.419
		c-1.595,14.271-2.565,34.926-0.623,54.714c1.788,19.792,6.253,38.507,10.452,49.221c1.631,4.549,7.497,17.585,10.844,15.192
		C88.772,700.902,86.283,687.378,85.791,682.827z"/>
	<path class="st3" d="M454.749,571.956c3.628,5.233,8.926,11.962,16.085,18.879c3.586,3.448,7.646,6.938,12.283,10.121
		c4.558,3.258,9.772,6.127,15.354,8.417c11.132,4.708,24.211,6.114,35.615,4.292c11.449-1.767,21.205-6.014,28.591-10.21
		c7.389-4.237,15.726-10.401,23.335-18.413c7.536-7.917,14.291-17.359,19.93-26.931c5.667-9.581,10.27-19.266,14.144-27.893
		c3.827-8.635,6.96-16.235,9.101-22.096c1.783-4.894,7.059-19.487,2.943-20.076c-2.991-2.895-11.289,10.217-14.065,14.623
		c-3.323,5.26-7.41,12.485-11.881,20.643c-4.498,8.123-9.415,17.157-14.946,25.768c-5.516,8.621-11.678,16.809-18.207,23.491
		c-6.443,6.612-13.367,11.678-19.363,15.12c-5.999,3.412-13.75,6.751-22.362,8.19c-8.597,1.438-17.868,0.674-26.588-2.596
		c-4.347-1.602-8.583-3.647-12.509-6.144c-3.969-2.4-7.664-5.15-11.077-7.921c-6.827-5.555-12.539-11.168-16.977-15.324
		c-3.754-3.375-14.535-14.381-16.871-10.976C443.333,554.326,451.607,567.591,454.749,571.956z"/>
	<path class="st3" d="M490.48,696.928c2.641-5.566,5.251-15.361,6.788-25.729c1.589-10.364,2.015-21.248,1.973-28.827
		c-0.078-7.577-0.677-18.452-2.429-28.791c-1.7-10.343-4.464-20.095-7.195-25.619c-1.103-2.339-4.722-9.079-8.337-7.368
		c-3.973,0.545-3.686,7.865-3.697,10.297c0.081,5.848,1.278,15.186,2.111,24.879c0.879,9.688,1.318,19.727,1.393,26.746
		c0.036,7.017-0.242,17.062-0.967,26.763c-0.68,9.704-1.731,19.059-1.719,24.909c0.051,2.433-0.121,9.755,3.857,10.239
		C485.904,706.081,489.414,699.286,490.48,696.928z"/>
	<path class="st3" d="M224.591,411.796c-3.429,4.72-7.812,12.526-12.265,21.111c-2.226,4.295-4.471,8.783-6.621,13.178
		c-1.063,2.198-2.111,4.366-3.132,6.472l-0.333,0.677l-0.148,0.295l-0.013,0.013h-0.021l-0.024-0.011l-0.012-0.022l-0.003,0.003
		l-0.04-0.05l-0.384-0.584c-0.546-0.914-1.139-2.58-1.637-4.868c-0.573-2.69-1.169-5.48-1.77-8.305
		c-0.655-2.824-1.316-5.687-1.976-8.525c-2.709-11.242-5.123-21.799-6.778-28.021c-0.381-1.314-1.06-3.888-1.979-6.085
		c-0.945-2.184-2.13-4.141-4.148-4.047c-1.905-0.603-3.561,1.284-4.597,3.842c-1.06,2.544-1.477,5.602-1.637,7.106
		c-0.93,7.311,0.233,19.005,2.22,30.607c1.027,5.767,2.072,11.633,3.045,17.099c0.622,3.116,1.538,6.637,3.462,10.088
		c0.477,0.856,1.015,1.697,1.615,2.508c0.638,0.875,1.484,1.834,2.296,2.62c1.674,1.601,3.552,2.817,5.441,3.679
		c4.588,2.146,10.965,2.629,16.318-0.844c1.743-1.151,3.308-2.679,4.6-4.505c0.65-0.91,1.232-1.89,1.761-2.91l0.617-1.246
		l0.42-0.908c0.954-2.148,1.939-4.36,2.936-6.599c1.973-4.478,3.954-9.087,5.8-13.558c3.689-8.941,6.824-17.329,8.22-22.991
		c0.688-2.798,2.712-11.149-1.173-12.18C231.357,402.531,226.282,409.464,224.591,411.796z"/>
	<path class="st3" d="M240.132,471.948c-4.003,1.287-9.679,4.533-15.382,7.186c-5.7,2.743-11.448,4.581-15.463,5.229
		c-3.645,0.628-9.385,0.605-14.5-0.979c-5.174-1.483-9.122-4.168-11.762-5.951c-0.628-0.338-1.637-1.16-3.039-1.81
		c-1.281-0.671-3.018-1.267-4.849-0.53c-1.972,0.339-2.911,1.923-3.211,3.929c-0.208,1.932,0.297,4.154,0.716,5.164
		c0.786,2.586,2.755,5.601,5.555,8.41c2.812,2.802,6.519,5.241,10.539,6.949c8.053,3.539,17.279,3.818,23.58,2.719
		c6.012-0.944,14.161-3.85,20.704-7.985c6.624-4.066,11.883-8.85,14.447-12.352c1.091-1.477,4.142-5.886,1.414-8.786
		C246.829,469.735,241.79,471.427,240.132,471.948z"/>
	<path class="st3" d="M658.829,464.147c-2.151,0.995-4.597,2.976-7.274,4.793c-2.652,1.841-5.561,3.453-7.67,4.441
		c-2.132,0.94-5.259,2.072-8.391,2.858c-3.129,0.824-6.229,1.363-8.391,2.328c-0.855,0.455-3.734,1.452-4.685,5.313
		c-1.435,3.698,1.52,6.204,2.671,6.91c2.586,1.804,7.573,2.878,12.702,2.554c5.144-0.255,10.249-1.921,13.608-3.432
		c3.347-1.536,7.96-4.288,11.537-7.996c3.615-3.652,6.083-8.114,6.428-11.25c0.223-1.33,0.277-5.203-3.453-6.557
		C662.376,462.289,659.732,463.802,658.829,464.147z"/>
</g>
</svg>
