<svg width="21" height="26" viewBox="0 0 21 26" fill="none" xmlns="http://www.w3.org/2000/svg">
<path fill-rule="evenodd" clip-rule="evenodd" d="M13.6313 18.0571C12.3821 18.6613 10.9806 19 9.5 19C4.25329 19 0 14.7467 0 9.5C0 4.25329 4.25329 0 9.5 0C14.7467 0 19 4.25329 19 9.5C19 12.3773 17.7209 14.9558 15.7003 16.6979C16.0262 16.8012 16.3215 17.0096 16.5306 17.3129L20.2948 22.7755C20.7945 23.5006 20.6118 24.4935 19.8867 24.9932C19.1615 25.4928 18.1687 25.3101 17.669 24.585L13.9047 19.1224C13.6813 18.7981 13.5943 18.4204 13.6313 18.0571ZM17 9.5C17 13.6421 13.6421 17 9.5 17C5.35786 17 2 13.6421 2 9.5C2 5.35786 5.35786 2 9.5 2C13.6421 2 17 5.35786 17 9.5Z" fill="white"/>
</svg>
